<?xml version="1.0" encoding="utf-8"?>
<!-- Generator: Adobe Illustrator 21.0.0, SVG Export Plug-In . SVG Version: 6.00 Build 0)  -->
<svg version="1.1" id="Vrstva_1" xmlns="http://www.w3.org/2000/svg" xmlns:xlink="http://www.w3.org/1999/xlink" x="0px" y="0px"
	 viewBox="0 0 328.3 333.4" style="enable-background:new 0 0 328.3 333.4;" xml:space="preserve">
<style type="text/css">
	.st0{clip-path:url(#SVGID_2_);}
	.st1{fill:#010101;}
</style>
<title>Datový zdroj 8</title>
<image style="overflow:visible;enable-background:new    ;" width="1321" height="1342" xlink:href="C403A6FF.png"  transform="matrix(0.24 0 0 0.2398 11.28 11.52)">
</image>
<g>
	<defs>
		<path id="SVGID_1_" d="M315.2,324.7c0.9-0.1,0.9-0.2,0.9-2.7c0-13.4,0.2-29.2,0.3-45.6c0-1.1,0.1-17.3-0.1-30.6
			c-0.1-4.4-0.8-17.6-0.9-28.5c-0.1-7.6,0.8-41.9,1.2-54.1c0-1.7,1-28.3,1.4-43.3c0.1-2.8-0.3-24.2-0.1-42.8
			c0.2-16,1.8-66.7,1.7-69.4l-0.7-0.5c-17.5-0.6-37.1-0.6-56.6-0.7c-3.1,0-19.6,0-36.4-0.1c-8.4,0-31.3-0.4-53.2-0.6
			c-16-0.2-31.4-0.2-39.2-0.3c-2.1,0-55.7-0.9-79.7-1.2C47.6,4.2,7.8,3.5,3.3,4L3,4.5c0,17.8,0.3,32.9,0.5,48.8c0,1.6-0.1,20.8-1,53
			c-1,36.8-0.9,191.1-0.1,212.6c-0.1,0.4,0,0.7,0.3,1c10.1-0.1,20.7,0,30.8,0c7.9,0,80.9-0.9,135.2-0.4c32.6,0.3,59.2,2.7,63.9,2.9
			C261,323.4,289.4,324.6,315.2,324.7L315.2,324.7z"/>
	</defs>
	<clipPath id="SVGID_2_">
		<use xlink:href="#SVGID_1_"  style="overflow:visible;"/>
	</clipPath>
	<g class="st0">
		
			<image style="overflow:visible;enable-background:new    ;" width="1352" height="1375" xlink:href="C403A6FD.png"  transform="matrix(0.2398 0 0 0.24 0 -9.765625e-06)">
		</image>
	</g>
</g>
<path class="st1" d="M126.1,5.6c-1.3,0.6-2.6,1.1-4,1.4c-1.7,0.4-3.5,0.7-5.3,0.9c-1.2,0.3-2.4,0.3-3.6,0c-0.1,0-0.1,0-0.2,0
	c-0.7,0.3-1.5,0.4-2.3,0.2c-1.8-0.2-3.5-0.2-5.3-0.2c-2.4,0.2-4.9,0.7-7.3,1C97.1,9,96,9.3,94.9,9.8c-1.3,0.5-2.5,1.2-3.8,1.8
	c-2,1-3.9,2-5.8,3c-1.6,0.8-3.1,1.8-4.7,2.6c-1.9,1-3.9,2-5.9,3c-1.1,0.5-2.1,1-3.2,1.5c-2.8,1.3-5.8,1.9-8.7,2.7
	c-0.1,0-0.2,0-0.3,0.1c-2.8,0.4-5.7,0.3-8.5-0.2c-0.1,0-0.2,0-0.3,0c-0.5,0.1-1,0.2-1.5,0.2c-1.8,0-3.7,0.2-5.5,0.6
	c-1.1,0.2-2.2,0.6-3.4,0.8c-2,0.4-4,1.2-5.8,2.2c-2.4,1.5-5,2.8-7.5,4c-1.2,0.5-2.4,1.1-3.6,1.5c-1.7,0.6-3.4,1-5.2,1.1
	c-0.3,0-0.6,0.1-0.8,0.2c-0.3,0.2-0.5,0.3-0.8,0.5c-1.3,0.4-2.7,0.6-4.1,0.6c-0.7,0-1.4-0.1-2-0.2c-1.6-0.1-3.3-0.2-4.9-0.3
	c-1.8-0.2-3.6-0.1-5.3,0.2v2.2c0.1-0.2,0.1-0.3,0.2-0.5c0.2-0.6,0.8-1.1,1.4-1c0.6,0,1.3-0.4,1.9,0.2l0.1,0.1c0.9,1,1.9,1.9,2.8,2.8
	c0.6,0.7,1.1,1.4,1.6,2.1c0.1,0.2,0.3,0.3,0.6,0.3c0.2-0.1,0.4-0.3,0.4-0.5c0-1.4,0.8-2.6,1.3-3.8c0.1-0.3,0.3-0.7,0.8-0.7
	s0.8,0.1,0.9,0.7c0.4,1.6,1.3,3.1,1.3,4.9c0,0.1,0,0.2,0,0.3c0.2,0.6,0.6,0.8,1.1,0.3c0.4-0.3,0.7-0.7,0.9-1.2
	c0.9-1.8,1.8-3.6,2.6-5.4c0.3-0.6,0.9-1,1.5-1.1c0.8-0.3,1.8,0,2.3,0.7c1.4,1.4,2.6,2.8,3.8,4.3c0.2,0.4,0.7,0.3,0.9-0.2
	c0.1-0.4,0.2-0.7,0.3-1.1c0.3-1.7,0.6-3.3,0.8-4.9c0.2-1.2,0.9-2.1,2-2.6c1.5-0.7,1.5-0.8,2.8,0.1c1,0.7,1.9,1.5,2.8,2.4
	c0.6,0.7,1.3,1.3,2.1,1.8c0.5,0.3,0.8,0.2,0.9-0.4s0.1-0.9,0.2-1.3c0.2-1.3,0.6-2.6,0.7-3.9c0.1-1.1,0.4-2.2,0.9-3.3
	c0.1-0.3,0.3-0.5,0.6-0.5c0.6-0.1,1.2-0.3,1.7-0.5c1.7-0.5,1.7-0.5,2.8,0.9c0.1,0.1,0.1,0.1,0.2,0.2c1,1.3,1.8,2.6,2.6,4
	c0.1,0.2,0.3,0.4,0.6,0.4c0.3,0,0.4-0.2,0.5-0.5c0.2-0.8,0.4-1.5,0.6-2.3c0.3-0.9,0.6-1.8,1-2.7c0.2-0.6,0.8-1,1.5-0.9
	c0.9,0.1,1.8,0.1,2.7,0.2c0.5,1.1,0.8,2.2,1,3.4c0.3,1.1,0.7,2.3,1,3.5c0.2,0.5,0.4,0.6,0.9,0.3c0.1-0.1,0.2-0.1,0.2-0.2
	c0.9-1,1.7-2.1,2.3-3.3c0.1-0.3,0.3-0.6,0.5-0.9l2.2-3.7c0.3-0.1,0.6-0.2,1-0.3c0.3-0.1,0.7-0.1,0.9,0.2c1,1,2,1.9,3,2.9
	c0.7,0.7,1.3,1.5,2.1,2.2c0.4,0.4,0.7,0.3,0.9-0.3c0.1-0.3,0.1-0.6,0.2-0.9c0.1-0.9,0.2-1.8,0.3-2.6c0.3-1.4,0.6-2.7,1.1-4
	c0.3-0.8,1-1.4,1.8-1.7c0.1,0,0.3-0.1,0.4-0.2c0.1,0.1,0.2,0.3,0.3,0.3c1.3,0.7,2.5,1.7,3.6,2.7c0.7,0.6,1.5,1.1,2.3,1.6
	c0.5,0.3,0.9,0.1,0.9-0.5c0-0.2,0-0.5-0.1-0.7c-0.2-1.4-0.4-2.9-0.7-4.3c-0.1-0.9,0-1.7,0.1-2.6l1.5-1c0.2-0.1,0.4-0.2,0.6-0.3
	l3.8,3.3c0.7,0.6,1.4,1.3,2.2,1.9c0.6,0.5,0.9,0.3,0.9-0.5c0.1-2.3,0.2-4.5,0.3-6.8c0-0.6,0.1-1.2,0.4-1.7c0.3-0.4,0.9-0.5,1.4-0.7
	h0.1c0.3-0.2,0.6-0.1,0.8,0.2c0,0,0,0.1,0,0.1c0.6,1.3,1.2,2.6,1.7,3.9c0.3,0.8,0.7,1.7,1,2.5c0.1,0.3,0.3,0.5,0.7,0.4
	c0.2-0.1,0.4-0.2,0.5-0.4c0.6-1.3,1.1-2.6,1.6-3.9c0.1-0.3,0.3-0.5,0.4-0.8c0.8-0.9,1.5-2,1.9-3.1c0.1-0.5,0.6-0.8,1.1-0.8
	c0.5,0,0.8,0.1,1,0.6c0.1,0.2,0.2,0.5,0.4,0.7c0.9,2,1.8,4,2.7,6c0.2,0.3,0.4,0.5,0.6,0.7c1.8-2.5,2.4-5.4,4.1-7.8l2.6-0.2
	c0.4,0.5,0.8,1.1,1.2,1.6c1,1.4,2.1,2.7,3.1,4.1c0.3,0.4,0.5,0.9,0.8,1.3s0.7,0.4,0.9-0.2c0-0.1,0-0.1,0-0.2L124,10
	c0.1-0.4,0.3-0.9,0.4-1.3l0.7-1.9c0.2-0.1,0.5-0.2,0.8-0.3s0.9-1,1.2-0.9L126.1,5.6z M11.5,40.2l-3.4-3.9l4.7,0.4L11.5,40.2z
	 M29.3,39.2l-4-4.3l4.9-2C29.9,35,29.6,37,29.3,39.2z M51.5,30.2c-1.1-1.5-2.1-3-3.2-4.6c1.6-0.3,3.2-0.4,4.9-0.3L51.5,30.2z
	 M74,23.7c-0.2,0.7-0.3,1.5-0.4,2.2s-0.2,1.5-0.4,2.5l-4.4-4.6l5.8-2.5C74.3,22.3,74.1,23,74,23.7L74,23.7z M92.5,15.1
	c0,1.1-0.1,2.2-0.1,3.3c0,0.3-0.1,0.5-0.1,0.9L87,14.5l2.3-1.2l2.5-1.3c0.6-0.3,0.8-0.2,0.8,0.5C92.5,13.5,92.5,14.3,92.5,15.1
	L92.5,15.1z M109.7,15.1h-0.3l-2.7-6.4c2,0,3.8,0.3,5.8,0.3C111.7,11.2,110.8,13.2,109.7,15.1L109.7,15.1z"/>
<path class="st1" d="M313.6,42.1c-1.6,0-3.3,0-4.9,0c-0.7,0-1.4,0-2,0c-1.4-0.1-2.8-0.4-4.1-0.9c-0.3-0.2-0.5-0.3-0.8-0.5
	c-0.3-0.1-0.5-0.2-0.8-0.3c-1.8-0.3-3.5-0.8-5.1-1.5c-1.2-0.5-2.3-1.2-3.5-1.8c-2.5-1.4-4.9-2.9-7.2-4.5c-1.7-1.2-3.6-2-5.6-2.6
	c-1.1-0.3-2.2-0.8-3.3-1.1c-1.8-0.5-3.6-0.9-5.4-1c-0.5-0.1-1-0.2-1.5-0.3c-0.1,0-0.2,0-0.3,0c-2.8,0.4-5.7,0.3-8.5-0.3
	c-0.1,0-0.2,0-0.4-0.1c-2.8-1.1-5.8-1.9-8.4-3.4c-1-0.6-2.1-1.2-3.1-1.8c-1.9-1.1-3.8-2.2-5.6-3.4c-1.5-1-3-2-4.4-3
	c-1.9-1.2-3.7-2.4-5.6-3.5c-1.2-0.7-2.4-1.5-3.6-2.1c-1-0.5-2.1-0.9-3.2-1.2c-2.4-0.5-4.8-1.2-7.2-1.6c-1.8-0.2-3.5-0.2-5.3-0.2
	c-0.8,0.1-1.5,0-2.2-0.4c-0.1,0-0.1,0-0.2,0c-1,0.1-2-0.1-3-0.4c0,0-1.9-0.1-1.5,0.3c0.9,0.2,3.1,1.1,3.9,1.2
	c1.5,2.5,1.9,5.4,3.5,8.1c0.2-0.2,0.4-0.5,0.6-0.8c1.1-1.9,2.1-3.9,3.2-5.8c0.1-0.2,0.3-0.4,0.4-0.6c0.2-0.5,0.5-0.6,1.1-0.5
	c0.5,0,0.9,0.3,1,0.8c0.4,1.2,0.9,2.3,1.7,3.2c0.1,0.3,0.3,0.5,0.4,0.8c0.4,1.3,0.9,2.7,1.3,4c0.1,0.2,0.2,0.4,0.4,0.5
	c0.3,0.1,0.6-0.1,0.7-0.4c0.4-0.8,0.8-1.6,1.2-2.4c0.7-1.3,1.4-2.5,2-3.8c0.1-0.3,0.4-0.4,0.7-0.3c0,0,0.1,0,0.1,0.1h0.1
	c0.5,0.3,1.1,0.4,1.4,0.8c0.2,0.6,0.3,1.2,0.2,1.8c-0.1,2.3-0.1,4.6-0.2,6.8c0,0.8,0.3,0.9,0.9,0.5c0.8-0.5,1.5-1.1,2.3-1.7l4.1-3
	c0.2,0.1,0.4,0.2,0.6,0.4l1.4,1.1c0.1,0.9,0.1,1.7,0,2.6c-0.4,1.4-0.7,2.8-1.1,4.3c-0.1,0.2-0.1,0.5-0.1,0.7c0,0.6,0.3,0.9,0.9,0.6
	c0.8-0.4,1.6-0.9,2.4-1.5c1.1-1,2.4-1.8,3.8-2.5c0.1,0,0.2-0.2,0.3-0.3c0.1,0.1,0.3,0.2,0.4,0.2c0.8,0.3,1.4,1,1.6,1.8
	c0.4,1.3,0.6,2.7,0.8,4.1c0.1,0.9,0.1,1.8,0.1,2.7c0,0.3,0,0.6,0.1,0.9c0.1,0.5,0.4,0.7,0.9,0.4c0.8-0.6,1.5-1.4,2.2-2
	c1-0.9,2.1-1.8,3.2-2.7c0.3-0.2,0.6-0.3,0.9-0.1c0.4,0.2,0.7,0.3,1,0.4l1.9,3.9c0.2,0.3,0.3,0.7,0.4,1c0.5,1.3,1.2,2.4,2,3.5
	c0.1,0.1,0.2,0.2,0.2,0.3c0.5,0.4,0.7,0.4,0.9-0.2c0.4-1.1,0.8-2.3,1.3-3.4c0.3-1.1,0.7-2.2,1.2-3.3c0.9,0,1.8,0.1,2.7,0
	c0.7-0.1,1.3,0.4,1.4,1c0.3,0.9,0.6,1.8,0.8,2.8c0.2,0.8,0.3,1.5,0.4,2.3c0,0.3,0.1,0.6,0.5,0.6c0.2,0,0.5-0.2,0.6-0.4
	c0.9-1.3,1.9-2.6,2.9-3.8c0-0.1,0.1-0.1,0.2-0.2c1.1-1.3,1.2-1.3,2.9-0.6c0.5,0.2,1.1,0.4,1.7,0.6c0.3,0.1,0.5,0.3,0.6,0.6
	c0.4,1.1,0.6,2.2,0.6,3.3c0,1.3,0.3,2.6,0.4,4c0,0.4,0,0.9,0.1,1.3s0.4,0.7,0.9,0.4c0.8-0.5,1.6-1.1,2.3-1.8c0.9-0.8,1.9-1.6,3-2.2
	c1.4-0.9,1.4-0.8,2.8,0.1c1,0.5,1.7,1.6,1.8,2.7c0.1,1.7,0.3,3.3,0.5,5c0,0.4,0.1,0.7,0.2,1.1c0.1,0.5,0.6,0.6,0.9,0.2
	c1.3-1.4,2.7-2.8,4.1-4c0.5-0.7,1.5-0.9,2.3-0.6c0.6,0.1,1.2,0.6,1.4,1.2c0.7,1.9,1.4,3.8,2.2,5.6c0.2,0.5,0.5,0.9,0.8,1.2
	c0.5,0.5,0.9,0.3,1.2-0.2c0-0.1,0.1-0.2,0.1-0.3c0.1-1.7,1.2-3.2,1.7-4.7c0.2-0.6,0.4-0.7,1-0.7s0.7,0.4,0.8,0.7
	c0.4,1.3,1.1,2.5,1,3.9c0,0.2,0.2,0.4,0.4,0.5c0.2,0,0.4-0.1,0.6-0.2c0.6-0.6,1.1-1.4,1.8-2c1-0.9,2-1.8,3-2.6l0.1-0.1
	c0.6-0.5,1.3,0,1.9,0c0.7,0,1.2,0.4,1.4,1.1c0.1,0.2,0.1,0.4,0.1,0.5l0.2-2.2C317.3,42.3,315.5,42.1,313.6,42.1z M214.7,14.1h-0.3
	c-0.9-2-1.7-4.1-2.3-6.3c1.9,0.1,3.8,0,5.8,0.1C216.8,10.1,215.8,12.2,214.7,14.1L214.7,14.1z M231.5,19.6c0-0.4,0-0.6,0-0.9
	c0-1.1,0.1-2.2,0.2-3.3c0-0.9,0.1-1.7,0.1-2.6c0-0.6,0.3-0.8,0.9-0.4l2.4,1.4c0.7,0.4,1.3,0.9,2.2,1.4
	C235.2,16.8,233.4,18.1,231.5,19.6L231.5,19.6z M249.8,30.2c-0.1-1-0.1-1.7-0.2-2.5s-0.1-1.5-0.2-2.2S249.2,24,249,23l5.6,2.9
	C253,27.3,251.5,28.7,249.8,30.2z M271.3,33.7c-0.5-1.7-0.9-3.3-1.3-5c1.6,0,3.3,0.3,4.8,0.7C273.6,30.8,272.5,32.2,271.3,33.7z
	 M292.8,44.3c-0.2-2.2-0.3-4.2-0.5-6.3l4.7,2.4C295.7,41.6,294.3,42.9,292.8,44.3L292.8,44.3z M310.3,46.7c-0.4-1.2-0.7-2.4-1.1-3.6
	c1.6,0,3.1,0,4.7,0L310.3,46.7z"/>
</svg>
