<?xml version="1.0" encoding="utf-8"?>
<!-- Generator: Adobe Illustrator 21.0.0, SVG Export Plug-In . SVG Version: 6.00 Build 0)  -->
<svg version="1.1" id="Vrstva_1" xmlns="http://www.w3.org/2000/svg" xmlns:xlink="http://www.w3.org/1999/xlink" x="0px" y="0px"
	 viewBox="0 0 14.2 14.2" style="enable-background:new 0 0 14.2 14.2;" xml:space="preserve">
<style type="text/css">
	.st0{fill:none;stroke:#000000;stroke-width:0.4;stroke-linecap:round;stroke-linejoin:round;stroke-miterlimit:10;}
</style>
<path class="st0" d="M8.6,7.3c2.9,3,5.3,5.9,4.7,6.7c-0.4,0.5-2.2-1.2-3.1-1.9c-1.1-1-2.1-2-3.1-3.1c-0.9,1-1.9,2.1-2.9,3
	c-0.8,0.7-2.6,2.3-3.1,1.9c-0.6-0.7,1.7-3.6,4.6-6.5c-3-3.8-5-7.3-4.7-7.1c0.7,0.5,3.4,2.9,6.1,5.6c2.7-2.7,5.5-5.1,6.2-5.7
	C13.7-0.1,11.7,3.5,8.6,7.3z"/>
</svg>
