<?xml version="1.0" encoding="utf-8"?>
<!-- Generator: Adobe Illustrator 21.0.0, SVG Export Plug-In . SVG Version: 6.00 Build 0)  -->
<svg version="1.1" id="Layer_1" xmlns="http://www.w3.org/2000/svg" xmlns:xlink="http://www.w3.org/1999/xlink" x="0px" y="0px"
	 viewBox="0 0 100 99.3" style="enable-background:new 0 0 100 99.3;" xml:space="preserve">
<g>
	<path d="M39.3,89.8c-1,0-2-0.4-2.9-1.1c0,0-0.1-0.1-0.1-0.1L35.7,88c0,0-0.1-0.1-0.1-0.2L0.5,41.6C0.2,41.2,0,40.8,0,40.3
		c0-0.7,0.4-1.2,0.6-1.3c0.5-0.5,1.2-0.7,1.9-0.5c0.3,0.1,0.5,0.2,0.6,0.4l35.7,26L96,9.8c0.8-0.8,2.4-0.8,3.2,0
		c0.7,0.7,0.7,1.8,0.7,2.2c0,0.3-0.1,0.6-0.3,0.9L43,87.9C42,89.1,40.7,89.8,39.3,89.8z M38.3,86.5c1.2,0.9,2.1,0,2.4-0.4l52.9-69.9
		L39.9,67.8c-0.5,0.5-1.3,0.5-1.9,0.1L7,45.3L37.9,86L38.3,86.5z M1.2,41.1C1.2,41.1,1.2,41.1,1.2,41.1C1.2,41.1,1.2,41.1,1.2,41.1
		L1.2,41.1z M98.5,12L98.5,12L98.5,12z"/>
</g>
</svg>
