<?xml version="1.0" encoding="utf-8"?>
<!-- Generator: Adobe Illustrator 21.0.0, SVG Export Plug-In . SVG Version: 6.00 Build 0)  -->
<svg version="1.1" id="Vrstva_1" xmlns="http://www.w3.org/2000/svg" xmlns:xlink="http://www.w3.org/1999/xlink" x="0px" y="0px"
	 viewBox="0 0 652 85" style="enable-background:new 0 0 652 85;" xml:space="preserve">
<style type="text/css">
	.st0{opacity:0.3;}
	.st1{fill:#292929;}
	.st2{opacity:0.2;fill:url(#SVGID_1_);}
	.st3{fill:#DDD7B5;}
	.st4{fill:#FFFFFF;}
</style>
<g id="perforation_x5F_shadow_7_" class="st0">
	<polygon class="st1" points="620.6,-689.9 614.9,-689.9 614.9,-711.3 636.3,-711.3 636.3,-705.6 620.6,-705.6 	"/>
	<polygon class="st1" points="567.2,-689.9 561.5,-689.9 561.5,-711.3 582.9,-711.3 582.9,-705.6 567.2,-705.6 	"/>
	<polygon class="st1" points="513.8,-689.9 508.1,-689.9 508.1,-711.3 529.5,-711.3 529.5,-705.6 513.8,-705.6 	"/>
	<polygon class="st1" points="460.3,-689.9 454.7,-689.9 454.7,-711.3 476.1,-711.3 476.1,-705.6 460.3,-705.6 	"/>
	<polygon class="st1" points="406.9,-689.9 401.3,-689.9 401.3,-711.3 422.7,-711.3 422.7,-705.6 406.9,-705.6 	"/>
	<polygon class="st1" points="353.5,-689.9 347.9,-689.9 347.9,-711.3 369.3,-711.3 369.3,-705.6 353.5,-705.6 	"/>
	<polygon class="st1" points="300.1,-689.9 294.5,-689.9 294.5,-711.3 315.8,-711.3 315.8,-705.6 300.1,-705.6 	"/>
	<polygon class="st1" points="246.7,-689.9 241.1,-689.9 241.1,-711.3 262.4,-711.3 262.4,-705.6 246.7,-705.6 	"/>
	<polygon class="st1" points="193.3,-689.9 187.7,-689.9 187.7,-711.3 209,-711.3 209,-705.6 193.3,-705.6 	"/>
	<polygon class="st1" points="139.9,-689.9 134.3,-689.9 134.3,-711.3 155.6,-711.3 155.6,-705.6 139.9,-705.6 	"/>
	<polygon class="st1" points="86.5,-689.9 80.9,-689.9 80.9,-711.3 102.2,-711.3 102.2,-705.6 86.5,-705.6 	"/>
	<polygon class="st1" points="33.1,-689.9 27.5,-689.9 27.5,-711.3 48.8,-711.3 48.8,-705.6 33.1,-705.6 	"/>
</g>
<linearGradient id="SVGID_1_" gradientUnits="userSpaceOnUse" x1="332.4286" y1="-734.0457" x2="332.4286" y2="84">
	<stop  offset="0" style="stop-color:#FFFFFF"/>
	<stop  offset="0.3115" style="stop-color:#8E877C"/>
	<stop  offset="0.5853" style="stop-color:#645A48"/>
	<stop  offset="0.873" style="stop-color:#000000"/>
</linearGradient>
<path class="st2" d="M653,33.8c0-0.7,0-1.5,0-2.2c0-1.3,0-1.3,0-2.2c0-1.5,0-2.9,0-0.1c0-0.9,0-1.9,0-3.1c0-1.3,0-3.6,0-3
	c0-0.1,0-1,0-2.7c0-1.4,0-3.1,0-3.1c0-220.4,0-751.4,0-751.4H11.9c0,0,0,521.7,0,745.5c0,1,0,2.1,0,3.1c0,1,0,2,0,3
	c0.1,0.4,0.1,2.1,0.2,2.4c0.1,1.9,0.1,0.3,0.2,2.4c0,1,0.1,0.7,0.1,2.2c0-0.2,0.1-0.5,0.1,2.6c0,2,0,1,0,3.4c0,1.2,0,0.4,0,1.5
	c0.3-1.6,0.7,0.1,1-0.8c-0.2,2.1-0.6,0.3-0.1,1.8c0.3,0.5,0.6,1.4,1,2.8c0.6,1.9,4.6,3.6,6.2,5.3c2.1-2,9.1,0.9,11.9,1.5
	c3,0.6,1.7,3.2,5.6,0.2c1.6,3,3.2,1.1,5.1,1.6c1.7,0.5,1.1,2.9,3.2,1.2c0.1,0,0.1,0.9,0.1,0.9c1.6-1,1.4-0.8,2.5,0.9
	c0.6-0.5,1.4-0.7,1.9-1.2c0.2,0.8,0.4,1.6,0.3,2.4c1.1,0.5,1.3,1.2,2,1.8c1.1,1.4,0.2,1.6,2.4,1.8c0.3,1.5,0.5,3.1,0.7,4.7
	c0.3-0.2,0.7-0.5,1.2-0.7c-0.2,0.7-0.2,3.5-0.2,3.6c0,1,0,1.7-0.1,2.7c0,0,0.6-0.8,0.7-0.9c-0.1,0.8-0.2,1.7-0.2,2.5
	c0,0,0.6,0.1,0.6,0.2c0.6-0.7,0.4-0.3,1.3-1c-0.8,1.3-0.4,2-0.4,3.4c0,0,0.5-0.3,0.6-0.3c0.2,0.4,0.2,0.8,0.1,1.2
	c-0.5,0.8-0.3,0.9,0,2.3c1.5-0.8,1.5-0.2,2.9-0.5c0.3-0.1,0.2-0.6,0.5-0.8c0.3,1.1,1.3,2.1,1.7,3.2c0.5-0.1,0.8-0.5,1.3-0.6
	c0.4,0.3,0.5,1,0.8,1.2c0.2-0.1,0.6-0.5,0.8-0.5c0.7,1.2,1.8,1.5,2.7,2.7c2.1-3,7.2,0.3,9.6,1.9c0.2-0.2,0.4-0.4,0.5-0.7
	c0.9,0,0.4,0.5,1.4-0.2c0.5,0.2,0.6,0.8,1.1,1.1c0.2-0.2,0.4-0.3,0.6-0.4c0.3,0.8,0.9,1.6,1.3,2.3c0.9-0.7,0.9-0.3,1.5-1.5
	c0,0.1,0.1,1.2,0.1,1.2c0.1,0,0.3-0.6,0.4-0.7c0.1,0.2,0.2,0.4,0.3,0.6c3-2.4,9.4-2.4,10.8-4.5c0,0.1,0.2,0.6,0.1,0.7
	c0-0.2,0-0.3,0-0.1c0.9,0.6,1.5,0.4,2.6,1.4c0.7-0.1,1.4-0.4,1.7-0.7c0.2,0.1,0.4,0.6,0.6,0.6c2.5-2.6,5.9-3.3,8.6-5.9
	c0.4,0.2,0.8,0.6,1.2,0.7c0.1-0.2,0.3-0.4,0.4-0.6c0.2,0.1,0.3,0.3,0.4,0.5c2-0.4,4.7-1.2,6,1c1.6-0.9,2.3-0.9,3.7-0.2
	c2.1-2.9,5.8-3.2,8.6-3.9c3.5-0.9,6.4-4.1,10.1-3.1c0.4-0.3,0.6-1.1,1-1.4c0.4,0.5,0.7,0.8,1.1,1.3c1.2-1.4,1.5-0.7,3.1-1
	c0.1,0.5,0.2,0.9,0.3,1.4c2.2-1.6,4.1-3.1,6.4-4.6c-0.1,0.5,0,1.2-0.1,1.7c0.6-1.3,1.8-2.5,2.6-3.5c0.1,0.7,0.3,0.6,0.2,1.5
	c0.4,0,1.2-0.7,1.2-0.7c0.5,0.3,1.1,0.9,1.7,0.9c0.8-2.7,3.6-1.8,5.2-3.9c0.1,0.1,0.7,0.7,0.7,0.7c1.3-0.8,2.3-1,3.3-2.4
	c0.2-0.1,0.2,0.9,0.2,0.9c0.3-0.6,0.4-1.1,0.8-1.6c0.2,0,0.3-0.1,0.5-0.1c0.3,0.3-0.2,0.7,0,1c0.6-0.6,1.1-1.1,1.5-1.5
	c2,0.4,4.2-0.3,6-0.9c0.1,0.5,0.3,1.2,0.3,1.7c3.1-1.8,8.9-0.2,12.9-1.1c3.9-0.8,11.6-5.4,15-3.6c0.4,0.9,0.9-0.1,1.3,0.9
	c0.4-0.2,0.9-0.3,1.4-1.1c0.5,1.1,0.9,2.4,1.4,1.1c0.5,0.2,0.9-0.5,1.4-1c0.9-0.2,1.9-0.5,2.9,0.6c0.8,0.6,1.6,1.5,2.3,0.5
	c0.4,0.7,0.8-0.8,1.2-0.8c0.4-0.7,0.8,0.5,1.2,1.7c0.8,1.1,1.6-2,2.4,0.9c0.8,0.6,1.6-0.7,2.4,1.1c0.8,0,1.6-0.8,2.4,1.2
	c1.6,0.2,1.3,0.5,1.5,1c0.6,1.2,1.3,1.5,1.8,0.6c0.5-0.2,1,1,1.1-0.3c0.3,0.6,1.9-1.5,2.9,0.4c0.4,0.1,1.4-1.5,2.2-0.7
	c0.8-0.7,1.3,0.5,0.7,1.3c0.6,2.2,1.8,0.6,2.9,0.6c1.5-0.7,0.8-0.4,1.4-0.6c0.1,1.2,3-2.6,1.4,1.3c2.4-0.8,1.8,0.6,1.4,1.3
	c0.4,0,2.6-2.2,1.4-0.6c0.9-1.3,0.2,0,1.6,0.1c0.2,0.8-0.1,2.2,0.8,1.6c-0.1,0.5,0.8,0.6,2.4-0.9c1.9-1.3,3.1-2.1,1.6,1
	c-0.5,0.3,1.6-0.1,1.6-0.7c0.1-0.4,0.9,1.2,1.5,1.7c0.7,1.7,2,1.9,3.6,1c0.1-0.2,0.3-0.7,0.4-0.9c0.6-0.2,1.3-0.4,1.9-0.7
	c0.2,0.6,0.5,1.2,0.6,1.9c0,0,1-0.5,1-0.5c0,0,0.2,0.8,0.3,0.8c0.3,0,0.9-0.6,1.2-0.8c0.1,0.4,0.3,1.2,0.4,1.7
	c1.5-0.2,1.7,0.1,2.8-0.9c0.2-0.1,0.5,0.9,0.6,0.9c0.2-0.6,0.5-1.1,0.7-1.7c0,0,1,0.1,1,0.1c0.6,1.5,1.8,2.5,3.2,2.8
	c0.3-0.2,0.4-0.7,0.7-0.9c1.2,0.9,2.7,1.2,4.2,1c0.2,0.5,0.4,1.1,0.5,1.6c0.2-0.6,0.8-1.4,1-1.9c0,0,0.2,0.6,0.3,0.5
	c0.7-0.8,0.6-0.8,1.6-0.6c0.3-0.6,0.8-1.2,1-1.6c1.5,3.4,4.6,0.2,5.8,3.6c0.5-0.4,1.1-0.7,1.5-1.3c2.1,0.9,4.5-0.5,6.2-0.6
	c0.4,0.6,1.3,1.2,1.7,1.6c0.2-0.7,1-1.3,1.2-2c1.1,1,2.1,1.6,3,2.9c0.7-1.1,2.2-1.8,3.1-2.6c0.9,1.5,1,3.5,1.8,4.8
	c0.5-0.6,1.2-0.9,1.6-1.5c0.3,0.6,1.3,1.2,1.6,1.9c0.2-0.3,0.3-0.8,0.6-1.1c2.1,0.7,3.3,1.8,4.3,3.8c0.7,0.4,1.8,0.9,2.7,1.5
	c1.6-0.2,2.5-1.1,2.8-2.9c0.4,0.3,0.9,0.4,1.5,1c1.5-1,2.2-0.7,2.6-2.7c0.2,0.7,0.7,1.3,0.8,2c0.4-0.7,1.5-1.3,1.9-2
	c0.5,0.2,1.2,0.3,1.7,0.5c0.3-0.5,0.3-1,0.7-1.5c0,0.2,0,0.3,0,0.5c1-0.5,1.9-1.6,2.5-2.3c0.1-0.4,0.1-0.9,0.1-1.3
	c0.3,0.6,0.7,1,0.9,1.5c4.1-2.1,11.4-1.8,14.9,1.4c0.5-0.6,1.1-0.9,1.6-1.6c0.1,0,0.6,0.4,0.6,0.4c0.1,0,0.7-0.7,0.9-0.8
	c0.3,0.1,0.9,1,1.1,1.3c0.3,0,0.5-0.9,0.9-1c0.4,0.4,0.5,1.1,0.9,1.6c0.3-0.2,0.7-0.8,1.1-0.9c1.9,1.4,3,2.5,4.6,3.8
	c0.3-0.3,0.4-0.7,0.7-1c0.5,0.9,1.3,1.6,1.7,2.8c-0.3-0.3,0.9-0.2,0.8-0.3c0.5,1,1.1,1.7,1.6,2.5c0.1-0.2,0.3-0.4,0.5-0.6
	c0.3,0.5,0.3,1.2,0.7,1.5c0.4-0.5,1.1-1.1,1.6-1.6c0.4,0.7,4,3.2,3.5,1.5c1,2.9,2,0.4,3,0.5c1,0.1,2-2,3,0.3c0.5,1,1,1.4,1.5,0
	c0.5-1.3,1-0.4,1.5,0.1c1-0.5,2.1,0.1,3.1-0.1c1,2.1,2.1,0,3.1-0.2c0.5-0.2,1,0,1.6,0.5c0.5-1,1-0.6,1.6-0.9c1,1.2,2.1-1.8,3.2-0.4
	c0.5,0.1,1.1-0.6,1.6-0.7c0.5,0,1.1,1.3,1.6,0.3c0.5,0.8,1.1,1.1,1.6,0.8c0.5,0.4,1.1-0.5,1.6-1.2c0.5-0.5,1.1-0.5,1.6,0.5
	c0.5-1.4,1.1-1.3,1.6-0.9c0.5,0.3,1.1,1.6,1.6,0.8c0.5,0.6,1-0.5,1.6-1.1c0.5-1,1,0.4,1.6,0.1c0.5,0.4,1,1.3,1.6-0.3
	c0.5,0.6,1,1.1,1.6,0.4c0.5,0.4,1-1.1,1.6-0.5c0.2-0.7,0.5,0.3,1.3-0.9c0-0.2,0.8,1.7,1.5,0.8c1.1-1.1,0.9,0.2,1.9-0.9
	c1.5-0.9,2.2-0.6,2,0.4c2.4-0.9,1.5-0.5,2.2-0.8c1.1-2.6,1.3-1.6,0,0.7c1-1.8,1.6,0.6,2.1-1.3c1.5-1.7,1.9-1.3,0.7,0.4
	c1.2-1,1.4-1.3,0.9,0.4c-0.7,1.7-0.2,0.1,0.5,0.3c0.7-1.1,1.6-1.3,1.9-1.1c1.1,0.5,3.1-0.4,2.8,0.3c0,1.5,0.3,1.9,0.7,1.8
	c0.5-0.1,1.1-0.7,1.8-1.1c0.6-0.8,0.5-1,0.2,0.1c0.6-0.5-0.6,1.4,0.8,0.4c0.7,0,1.7-1.8,0.7,0.4c0.1,0.3,0.2-1,0.2,0.5
	c0.5,0.4,1.1,0.1,1.7-0.3c0.6-0.3,1.2-1.1,1.8-0.1c0.7-0.5,1.4,1.2,2.1,0.1c0.7-0.5,1.3-1.9,1.9,0.5c0.6-0.4,1.2,0.3,1.8,1
	c0.6-0.2,1.1,0.9,1.6,0.5c0.5,0.6,1,1.1,1.4,1.4c0.4,0.1,0.8,0.9,1.2,0.8c0.1-0.7,0.1,0.4,0.2,0c0.2-0.2,0.7-1.4,1.2-1
	c1.1-1.2,1.9,0.6,2.7-0.5c0.5-1.8,0.9-1.3,1.3-1.4c0.6,0.2,0.6,2.4,1.3,0.7c0.8-1,1.7-1.7,2.7-0.9c0.3-0.1,1.1-1.4,1.4-0.9
	c0.4,2.1,1,1.3,1.4-0.1c0.4,2.1,0.7,0.4,1.4,0.2c0.3-0.5,0.9-1.6,1.4-1.3c0.4,0.8,2.2,0.3,2.7-1.1c0.6-0.8,0.6-2.8,1.3-1.4
	c0.6,0.7,0.2,1.2,1.3,0.3c0.7,0.8,1.8-3,1.6-1.3c0.3-1.9,0.6,2.1,1.6,0.1c0.2-2.1,1-0.9,1.6-1.2c0.1,0,0.5-0.2,0.6,0.1
	c1.1-1,1-0.8,1.6-1.1c0.3-0.1,0.9-0.3,1.9-0.9c0.6-0.6-0.4,0.5,0.5-0.2c1.5-1,1.7-0.6,2.4-0.5c0.4-0.6-0.3-0.1,1.1-0.2
	c1.2-0.1,2.5-1.9,2.2-0.4c0.7-1.5,2.1-0.6,2.2-0.1c1.1,0.4,1.7-2.9,2.2,0.1c1.6,1.6,1.3,0.3,2.2,0.4c1.2-1,2.2,2.1,2.1,0.6
	c0.8,0.5,2,0.6,2.1,0.8c-0.2-0.7,1-0.7,1,0.5c0.9,0.3,0.6,1.8,1,0.5c0.3-0.2,1.7-1,1.7,0.6c0.3-1.4,1.6,1.2,1.6,0.7
	c0.5,1.9,1,0.5,1.5,1.5c0.5-0.6,1,0.5,1.5,0.1c0.5-0.8,1-0.3,1.4,0.1c0.5,1.4,0.9,1.8,1.4,1.6c0.4-0.3,0.9,0.9,1.3,0.2
	c0.4,0.3,0.9,0.4,1.3,1.8c0.5,1.5,1,1.1,1.5,1.3c0.5,1.5,1,1.9,1.5,0.2c0.5,1.7,1-0.2,1.5,1.3c0.5,1.7,1,0.4,1.5,0.1
	c0.9-0.6,7.2,3,7.9,4c1.9,0.1,4,0.9,4.9-1.5c0,0,0.6,0.6,0.5,0.7c-0.1-0.2,0.5-0.4,0.5-0.4c0.2,0.6,0.6,1.2,0.8,1.8
	c2.2-1.4,2.7,0.8,5.1-0.1c0.1,0.1,0.6,0.9,0.7,1c1.1,0.1,1.9,0.6,3,0.4c0.2,0.3,0.2,0.7,0.4,1c2.8-0.2,5.7-3.7,8.3-1.1
	c0.5-0.1,0.9-0.6,1.3-0.6c0.1,0-0.1,0.6,0,0.6c1.7-1.2,3.3-1.6,5-2.7c0.3,0.3,1,0.6,1.4,0.9c1.3-1.7,7.8-4.8,9.1-4.3
	c1.1-1.9,2.3-2.1,3.3-0.3c0.9-1.2,1.5-1,2.4-2.4c0.4,0.4,0.5,0.7,1,1c1.7-3.7,4.5-3.4,7.2-5.5c0.3,0.2,0.1,0.7,0.4,1
	c0,0,1.5-1.2,1.4-1.1c0.6,0.6,1.9,0.8,2.6,1.7c1.9-2.1,4.6-1.3,6.5-3c0.4,0.6,1.3,1.1,1.7,1.7c2.3-1,6.4-1.6,9.3-2.1
	c3-0.5,5.9,0.5,8.5-1.5c0.6,3.3,3.2,2.5,5.3,3.9c1.9-1.4,2.9,0.1,4.8-1.7c1.9,1.6,3.9,4.1,5.9,0.9c1.6,1.5,3.5,1.8,4.6-0.3
	c2.4,6.7,12.6-1.3,14.4-4c0,0.3,0.1,0.6,0.3,0.9c0.3-0.4,0.3-1.2,0.8-1.5c0.4,0.1,0.8,0.5,1.3,0.5c0.4-0.3,0.2-0.8,0.5-1.1
	c-0.3,0.4,0.5,0.6,0.5,0.6c0.2-0.8,0.5-1.6,0.8-2.4c0.1,0.4,0.2,1,0.4,1.4c0.2-1.2,0.6-2.3,0.8-3.4c0.1,0.6,0.2,1.3,0.2,1.9
	c0.4-0.1,0-1.1,0.3-1.3c0,0.5,0,0.9,0.1,1.4c-0.1-1.6,0.2-3.4,0.6-4.6c0.6,0.2,0.3,0.5,0.7,0.9c0.3-0.7,0.2-1.5,0.4-2.2
	c0,0,0.2,0.5,0.2,0.5c-0.2-3.4,0.1-6.8,0.4-10.2c0.1,1.6,0.2,3.2,0.3,4.9c0-1.6,0.4-3.1,0.7-4.6c0.1,0.1,0.2,0.2,0.2,0.3
	c-0.5-1,0.3-5.8,0.4-6.8c0,0,0.1,0.3,0.1,0.4c0-0.1,0-0.2,0.1-0.3c0,0,0.1,0.6,0.2,0.6c0-1.2,0.5-2.5,0.6-3.7c0.1,0.2,0.3,0.7,0.5,1
	c0.2-1.4,0.9-3.1,1.6-3.9C653,33.9,653,33.9,653,33.8z M58.5-701.1H37.5v-21.4h21.1V-701.1z M111.2-701.1H90.1v-21.4h21.1V-701.1z
	 M163.9-701.1h-21.1v-21.4h21.1V-701.1z M216.6-701.1h-21.1v-21.4h21.1V-701.1z M269.3-701.1h-21.1v-21.4h21.1V-701.1z M322-701.1
	h-21.1v-21.4H322V-701.1z M374.6-701.1h-21.1v-21.4h21.1V-701.1z M427.3-701.1h-21.1v-21.4h21.1V-701.1z M480-701.1h-21.1v-21.4H480
	V-701.1z M532.7-701.1h-21.1v-21.4h21.1V-701.1z M585.4-701.1h-21.1v-21.4h21.1V-701.1z M638.1-701.1H617v-21.4h21.1V-701.1z"/>
<path class="st3" d="M0.5-715.1c0,120,0,525.8,0,716.6c0,1,0,2.1,0,3.1c0,1,0,2.1,0,3.1c0.1,0.4,0.1,2.1,0.2,2.4
	c0.1,1.9,0.1,0.3,0.2,2.4C1,13.6,1,13.2,1,14.7c0-0.2,0.1-0.5,0.1,2.6c0,2.1,0,1,0,3.4c0,1.3,0,0.4,0,1.5c0.3-1.6,0.7,0.1,1-0.8
	c-0.2,2.1-0.6,0.3-0.1,1.8c0.3,0.6,0.6,1.4,1.1,2.9c0.4,0.4,0.9-1,1.5,2.2c0.9,0.4,1.8,1.1,2.7,1.3c0.9,0,1.9,3,2.8,1.2
	c1-0.9,1.9-0.7,2.9,0c1,0.6,2,0.9,3,1.3c1,0.5,2,1.1,3,0.2c1,0.2,2,0.3,3,0.6c1,3.5,2,1.9,3,1.2c1-0.1,2-2.4,3,0
	c1,1.2,2,1.3,2.9,0.5c1-1.4,1.9,0.9,2.8,1.9c1.5,1.1,2-2.2,2,0.6c0.3-1.5,0.9-1.3,1.4-0.7c0.6-1.1,1.1,1.5,1.3,1.4
	c0.7-1.1,1.3-0.8,1.6-0.9c0.4-1.6,0.5,2,0.6,2.2c2-1.3,0.8,3,2,1.5c0.2,1.5,0.1,1.4,1.3,2.1c1.2-0.9,1.9,0.8,1.1,2.2
	c1,0.6,0.3,3.1,0.7,2.3c0-0.7,0-0.1,0.1-0.1c1.3-0.9,1.5-0.8,0.5,2.1c0.1,1.2,0.2,1.7,0.3,0.9c0,0.2,0.1,1.4,0.3,1
	c-0.5,2.5-0.8,2.2,0.4,0.8c-0.2,0.6-0.3,1.9-0.3,2.7c0.1,0,0.3,0.4,0.5-0.2c0.1,1.3,0.2-0.6,0.3-0.1c0-0.3,0.1-0.1,0.2-0.1
	c0,0.6,0-0.7,0,0.1c0.6,0,0.9-1.3,1.1-0.3c-0.2-0.2-0.5,1-1,0.7c0,1.5,0.1,2.1,0.1,1.6c0,1.1,0.7,1.1,0.5,0.3c0.3-0.2,0.5,0,0.6,0.2
	c0,0.2-0.1,0.6,0,1.4c-0.9-1.6-0.8,2.5,0.3,2c0.9-1.7,1.8-0.5,2.7-0.3c0.5-2.6,0.9,1.1,1.4,1c0.5,1.1,1,2,1.4,0.7
	c0.5-0.2,1-0.3,1.5,1.3c0.5-0.2,1-1.8,1.5,0.7c0.5-1.1,1,0.6,1.5,0.8c0.5,0.7,1,0.9,1.5-0.7c0.5,0.3,1-0.4,1.5-0.6
	c0.5,1.7,1,0,1.5,0.9c0.5,0.5,1,0.9,1.5,1.3c0.5,0.1,1,0.7,1.5,0.4c1-0.5,2,0.7,3,1.4c0.5-2.4,1,0.3,1.5-0.9c0.5-0.9,1,0.5,1.4,1.2
	c0.4-1.2,0.8-0.8,1.2,0.5c0.7,2,1.4,0.8,2.1,0.5c0-1.1,0.1-1.1,0.1-0.7c0,0.1,0.1,1.6,0.1,0.8c0.2,0.1,0.4-1.6,0.6,0.2
	c0.8-0.7,1.6-1.2,2.6-2c1-1.6,2-0.5,3.2-1.3c0.6-0.2,1.2,0.4,1.8-0.4c0.6-0.2,1.3,1.4,2-0.1c0.4,0.7,0.9,0.2,1.3,0.1
	c0.1-0.9,0.2-1.6,0.3-0.1c0-0.1,0-1.1,0,0.1c0.7-1.3,1.4,0.1,2.1,0.4c0.7,2,1.3-1.2,1.9,0.7c0.4-1.9,0.8,1,1.3-0.5
	c0.4,1.1,0.7-0.1,1.2-1.4c0.4-0.2,0.9-1.7,1.3-1c0.1-0.9,0.2,0.5,0.3-0.2c0.4,0.3,0.9,0.1,1.4-1c0.5-0.5,1-0.2,1.6-0.4
	c0.5-0.5,1.1,0.5,1.7-0.5c0.6-1.1,1.2-1.3,1.9-0.2c0.3,0,0.5,0,0.7-0.8c0.3,0.9,0.5,0.6,0.7,0.7c0.6-1,1.1-0.9,1.6-0.7
	c0.5,0.5,1,1.1,1.5,1c0.5-0.7,1-1.2,1.4-0.8c0.5-0.1,0.9,0,1.3,1.7c0.6-1.5,0.9-0.7,2.4-1.1c2-0.3,1,1.3,1.5,0.3
	c0.8-0.8,1-0.8,1.1-0.8c0-0.1,0.1-1.1,0.4-0.6c0.3,0.1,2.3-0.7,3-1c-0.2-0.4,1-1.2,1.5-1.2c0.5-0.7,1-0.7,1.5,0.1c1,0.2,2-0.7,3-1
	c0.5,0.6,1,0.8,1.5,0.4c0.5,0.2,1-0.6,1.5-1.4c0.5-1.6,1-0.8,1.5-1.1c0.5,0.3,1-0.8,1.5,0.2c0.8-1.8,2.1-0.5,2.4-0.2
	c0.9-2,1.1-1.8,1.2-1.2c0.9-0.2,0.6,1.2,1.2,0.9c0.7-1.5,0.2-0.6,1.5-1.3c0.3,0.3,1.4,0,1.5,0.3c0.2,0.8-0.4,2.2,1.5,0.8
	c0.9-0.5,2.2-1.8,1.5-1.9c2-0.3,2-1.4,2.9-1.1c1.1-1.4,1-1.5,0.9-0.1c-0.1,0.7-0.2,1.5,0.9-0.6c0.9-1,1.6-3.1,2-1.9
	c0.4-0.4,0.4,1.3-0.2,1.3c1.8,0.1,0.8-0.8,1.8-0.7c1.4,1.9,2,0.4,1.8-0.6c1.1-0.7,1.5-0.3,1.8-0.6c-0.1-0.6,1.5,0.8,1.8-0.6
	c1.4-1.7,1.3-0.9,1.7-1c0.3,0.5,0,1.2,1,0.1c0.8,0,1.2-0.6,1.1-0.2c0.1-0.1,0.2-0.3,0.3-0.4c1.1-1.8,1.5-1.6,1.3-0.3
	c0.1-0.6,0.7-2.3,1.1-1.7c0.4-0.3,0.6-0.1,0,1.1c1-0.8,1.7-1.2,1.8-1.1c-0.8-1.5,1.2-0.3,1.2-0.5c0.6,0,1.8-0.2,2.3-0.6
	c0.8,0.5,2.7-1.6,2.6-0.2c-0.1,1,0.2,1.8,0.7,1.2c0.5-0.7,1.1-0.5,1.8-1c0.4-0.1,0.7,1.6,2.2,0.5c1,0.4,2,0.1,2.9,0.3
	c0.9-0.1,1.9,0,2.8-0.3c0.9,0.9,1.8-0.3,2.7-0.7c0.9,0.7,1.8-0.5,2.6-0.3c0.9-1.5,1.7,0,2.6-0.9c0.9-1.6,1.7,0.4,2.6-0.6
	c0.9-1.2,1.7-1.8,2.6-0.9c0.9-2.5,1.7,1.9,2.6-0.4c0.9-1.2,1.8-0.9,2.7-0.4c0.4,0.9,0.9-0.1,1.4,0.9c0.5-0.2,0.9-0.3,1.4-1.1
	c0.5,1.1,0.9,2.4,1.4,1.1c0.5,0.2,0.9-0.5,1.4-1c1-0.2,1.9-0.5,3,0.6c0.8,0.7,1.6,1.5,2.4,0.6c0.4,0.7,0.8-0.8,1.2-0.8
	c0.4-0.8,0.8,0.5,1.2,1.7c0.8,1.1,1.6-2,2.4,0.9c0.8,0.6,1.6-0.7,2.4,1.1c0.8,0,1.6-0.9,2.5,1.2c1.6,0.2,1.3,0.5,1.5,1
	c0.6,1.2,1.3,1.5,1.9,0.6c0.6-0.2,1,1,1.1-0.3c0.3,0.6,1.9-1.5,3,0.4c0.4,0.1,1.5-1.5,2.2-0.7c0.8-0.7,1.3,0.5,0.7,1.3
	c0.6,2.2,1.9,0.6,2.9,0.6c1.5-0.7,0.8-0.4,1.5-0.6c0.1,1.2,3-2.6,1.5,1.3c2.5-0.8,1.8,0.6,1.5,1.4c0.4,0,2.7-2.2,1.5-0.6
	c0.9-1.3,0.2,0,1.6,0.1c0.2,0.8-0.1,2.2,0.8,1.6c-0.1,0.5,0.8,0.6,2.5-0.9c1.9-1.3,3.1-2.1,1.6,1c-0.5,0.3,1.7-0.1,1.6-0.7
	c0.3-2.1,0,3,1.6,1.5c0,1.3,0.2,2.2,1.6,1.2c1.2,1.8,1.4-0.4,1.6-0.4c1.1,1.1-0.3-1.4,1.6-0.5c0.7-0.2,1.1-2.4,1.6,1.3
	c2-2,0.6,0.7,1.6,0c2-2.3,0.8,2.2,1.6,0.8c0.5,0.4,1.7-0.2,1.6,0.4c0.9-0.3,0.9-2.3,1.6,0.2c0.1-0.8,0.4-1.6,0.7-2.1
	c0,0.4,1.5-0.3,0.9,1c0.2-0.4,0.5,0.6,1.7,1.6c0.7,0.2,1-0.9,1.7,0.8c0.6-2.6,1.1-0.3,1.7-0.5c0.6-0.7,1.1-0.2,1.7,0.7
	c0.6-0.1,1.1-0.8,1.7-0.5c0.6,4.9,1.1-2.5,1.7,0.5c0.6-1.3,1.1-1.5,1.7-0.5c0.5-1.6,1-2.9,1.5-0.7c0.5-1,1,1.5,1.5,0.9
	c1,0.9,2-1.6,3,0.1c1,3.1,1.9,0.4,2.9,0c0.9,1.4,1.9,0.7,2.8,0c0.9-1.6,1.8,1.2,2.7,0.1c0.5-1.6,0.9,0.7,1.4,0
	c0.4,1.8,0.9,1.3,1.3,0.2c0.4-1.5,0.9-1.1,1.3-0.5c0.4,0.8,0.9,1.5,1.3,0.8c0.4,0.5,0.9,2.1,1.3,1.4c0.4-0.7,0.9-1,1.3-0.9
	c0.4-1.5,0.9-1.5,1.3-1.4c0.4-0.8,0.9,0.5,1.3,2.1c0.2,2.8,0.4,1.9,0.6,2.6c0.2,0.4,0.4-0.4,0.6-0.5c0.4-0.4,0.8-0.3,1.3-1.1
	c0.4,0.1,0.8,1.7,1.3,1.2c0.4,2.3,0.8-1.5,1.3,0c0.4-0.8,0.8-0.3,1.2,0.1c0.4-0.3,0.8,1.6,1.2,1.5c0.4,0.2,0.7-0.7,1.1,0.6
	c0.4,1.3,0.7,2,1.1,1.1c0.7,0,1.5,1.6,2.2,1.9c0.7-1.7,1.4,0.5,2.1-1c0.4-2.1,0.7-2.3,1.1-2.1c0.4-0.4,0.7,0.8,1.1,1.1
	c0.4-0.4,1.3-0.6,2.2-0.9c0.1-2.2,0.4-2.2,0.7-1.6c0.3-0.3,0.5,1.7,0.5,1.8c0.8-0.8,0.7,0,1.1-1c1-2.5,1.1-0.1,2.3-0.7
	c0.8,0.4-0.2-1,1.2-1.6c-0.1,0.3-0.7,1,0.3,0.5c0.8-0.8,1.2-1.7,1.4-1.1c0.7-1.4,0.5-1.5,0.7-0.9c0-2.2,0.1-1.7,0.6-0.8
	c0.6,0.3,0.7-0.1,0.3,0.7c0.1,0.1,1.4-0.3,3-1.1c1-0.2,1.6,0.2,3.5-0.4c0.2,0.8,1,0.9,2.6,0.3c0.6,0.4,1.4,0.6,2.5,0.5
	c1.1-0.1,1.1,0.9,2.1,1c0.8-0.2,1.1,0.6,1.6,1.1c0-0.4,0.1,0.5,0.4-0.9c0.9,0.6,1.2-2,1.8-0.1c0.6-1.9,1.2-1.1,1.8,0.2
	c0.6,0.3,1.2-2.7,1.7,0.3c0.6,1.1,1.1-1.6,1.6-0.4c0.5,1.4,1.1,0.1,1.6,1.3c0.4-0.9,0.9,1.1,1.3,1.6c0.5-1.4,0.9,0.5,1.4,0.6
	c0.5,0.7,0.9-2.6,1.4,0.2c0.5-1.4,0.9,2.3,1.4,1.5c0.5-1.1,0.9,0.1,1.4,1.5c0.5,0,1,2.1,1.4-0.1c0.5,2.9,1,1.7,1.4,1.2
	c0.5-0.4,1-1.8,1.5-0.1c0.5,2.8,1,1.3,1.5,1.7c0.5-0.9,1,0.4,1.5-0.9c1,3,2,0.4,3,0.5c1,0.1,2-2,3.1,0.3c0.5,1,1,1.4,1.6,0
	c0.5-1.3,1-0.4,1.6,0.1c1-0.5,2.1,0.1,3.1-0.1c1.1,2.1,2.1,0,3.2-0.2c0.5-0.2,1.1,0,1.6,0.6c0.5-1,1.1-0.6,1.6-0.9
	c1.1,1.2,2.1-1.8,3.2-0.4c0.5,0.1,1.1-0.6,1.6-0.7c0.5,0,1.1,1.4,1.6,0.3c0.5,0.8,1.1,1.1,1.6,0.8c0.5,0.4,1.1-0.5,1.6-1.2
	c0.5-0.5,1.1-0.5,1.6,0.5c0.5-1.4,1.1-1.4,1.6-0.9c0.5,0.3,1.1,1.6,1.6,0.8c0.5,0.6,1.1-0.5,1.6-1.1c0.5-1,1.1,0.4,1.6,0.1
	c0.5,0.4,1.1,1.3,1.6-0.3c0.5,0.6,1.1,1.1,1.6,0.4c0.5,0.4,1.1-1.1,1.6-0.5c0.2-0.7,0.6,0.3,1.3-0.9c0-0.2,0.8,1.7,1.5,0.8
	c1.2-1.1,1,0.2,2-0.9c1.5-0.9,2.3-0.6,2,0.4c2.4-0.9,1.5-0.5,2.2-0.8c1.1-2.6,1.3-1.6,0,0.7c1.1-1.8,1.7,0.6,2.2-1.3
	c1.6-1.7,1.9-1.3,0.7,0.4c1.2-1,1.4-1.3,0.9,0.4c-0.7,1.8-0.3,0.1,0.5,0.3c0.7-1.1,1.7-1.3,1.9-1.1c1.1,0.5,3.1-0.4,2.9,0.3
	c0,1.6,0.3,1.9,0.7,1.8c0.5-0.1,1.1-0.7,1.8-1.1c0.6-0.8,0.5-1,0.2,0.1c0.6-0.5-0.6,1.4,0.8,0.4c0.7,0,1.8-1.8,0.7,0.4
	c0.1,0.3,0.2-1,0.2,0.5c0.6,0.4,1.1,0.1,1.7-0.3c0.6-0.3,1.2-1.1,1.9-0.1c0.8-0.5,1.5,1.2,2.2,0.1c0.7-0.5,1.3-1.9,2,0.5
	c0.6-0.4,1.2,0.3,1.8,1c0.6-0.2,1.1,0.9,1.6,0.5c0.5,0.6,1,1.1,1.4,1.5c0.4,0.1,0.9,0.9,1.2,0.8c0.1-0.7,0.1,0.4,0.2,0
	c0.2-0.2,0.7-1.4,1.2-1c1.1-1.2,1.9,0.6,2.7-0.5c0.5-1.8,1-1.4,1.4-1.5c0.6,0.2,0.6,2.4,1.4,0.7c0.8-1,1.7-1.8,2.8-0.9
	c0.4-0.1,1.1-1.4,1.4-0.9c0.4,2.1,1.1,1.3,1.4-0.1c0.4,2.2,0.8,0.4,1.4,0.2c0.3-0.5,0.9-1.6,1.4-1.3c0.4,0.8,2.3,0.3,2.7-1.1
	c0.6-0.8,0.6-2.8,1.4-1.4c0.6,0.7,0.2,1.2,1.4,0.3c0.8,0.8,1.8-3,1.6-1.3c0.3-1.9,0.6,2.1,1.6,0.1c0.2-2.1,1-0.9,1.6-1.2
	c0.1,0,0.5-0.2,0.6,0.1c1.1-1.1,1-0.8,1.7-1.1c0.3-0.1,0.9-0.3,1.9-0.9c0.6-0.6-0.4,0.5,0.5-0.2c1.5-1,1.8-0.6,2.4-0.5
	c0.4-0.6-0.3-0.1,1.2-0.2c1.2-0.1,2.5-1.9,2.3-0.4c0.8-1.5,2.1-0.6,2.3-0.1c1.1,0.4,1.8-2.9,2.3,0.1c1.6,1.7,1.4,0.3,2.2,0.4
	c1.2-1.1,2.2,2.2,2.2,0.6c0.9,0.5,2,0.7,2.1,0.8c-0.2-0.7,1-0.7,1,0.5c0.9,0.3,0.6,1.8,1,0.5c0.3-0.2,1.7-1,1.7,0.6
	c0.3-1.4,1.6,1.2,1.6,0.7c0.5,2,1.1,0.5,1.6,1.5c0.5-0.6,1,0.5,1.5,0.1c0.5-0.8,1-0.3,1.4,0.1c0.5,1.4,0.9,1.8,1.4,1.7
	c0.5-0.3,0.9,0.9,1.3,0.2c0.4,0.3,0.9,0.4,1.3,1.8c0.5,1.5,1,1.1,1.6,1.3c0.5,1.5,1,1.9,1.6,0.2c0.5,1.8,1-0.2,1.5,1.3
	c0.5,1.7,1,0.4,1.5,0.1c0.5,0.9,1-0.7,1.5,0.4c0.5,0,1,0.3,1.5,0.8c1,1.1,2,0.7,3,1.1c0.5,0.6,1-0.4,1.5,1.3c0.5,1.1,1,0,1.5-0.3
	c1,0.8,2,1.3,3,0.8c0.5,0.1,1-3.2,1.5-0.7c0.5-2.1,1,1.2,1.5,1.4c0.6-1,1.1-0.8,1.6-1c0.4-0.2,0.8,0.7,1.4,1.4
	c0.6-0.5,1.3,0.4,1.8-0.7c0.5-0.4,0.9,1.3,1.1,1c0.2-1.3,2.5,2.1,2.9,0.2c0,0.3,0.5,2,1,0.9c0.6,0.7,1.4,0.4,1.9-0.9
	c2.2-1.1,1.4-0.5,2.9-0.2c0.2-1,1.9-1.2,2.9-0.3c0.1,1.8,2.3-1.5,1.4,0.7c0.6-0.7,1.9-1.3,1.4-1.2c1.2-0.9,1.5-0.4,2.9-0.6
	c0.8-1.8,1.3-0.9,1.8-0.6c0.4,1.1,0.7,0.3,1.1-0.2c2.5-1.2,2-1.8,2.9-1c0.4-0.2,3.2-1.3,2.9-1.1c0.7-2.4,1.1-1.9,1.5-1.7
	c0.8-0.8,1.3,0.3,1.5,0.4c0.3-1.2,1.3-2.3,1.5-1.4c0.6-1.1,1.4,0,1.5-0.1c0.4,2.7,0.8-0.8,1.5,0.1c0.1,0.2,0.8,0.1,1.5-1.7
	c0.1,1.4,1.5,1.9,1.5,0c0.8-0.4,1.4-1.1,1.5-1.8c0.8,0.4,2-2.1,2.8-0.7c0-0.2,1.2-0.5,1.4-1.3c1,0.2,1.1-1.5,1.4,0.7
	c0.2,0.2,0.9-0.6,1.4-1.4c0.5-0.1,1,0.6,1.4,0.9c0.5-0.2,1,1.6,1.4,0.8c0.5-1.2,1-0.9,1.4-1.2c1,0.4,1.9-0.9,2.9-0.3
	c0.5,0.2,1-0.1,1.5-1.4c0.5,0,1,0.4,1.5,1.2c1,1.8,1.9-1.2,2.9-0.2c1,1.6,1.9,0.2,2.9-0.1c0.9-0.1,1.8-1.3,2.7-0.7
	c0.9,0.7,1.8-1.5,2.7-0.6c0.9-1.3,1.8-0.2,2.7,0c0.9-0.3,1.8-0.2,2.8,0.1c0.5-1.3,0.9-0.5,1.4-1.4c0.5,0.1,1-1.5,1.4,1.7
	c1,0.5,1.9,1.9,2.9,0.3c0.5,1,1,1.1,1.5,1.5c0.5,0.6,1-0.7,1.5-1.1c1,0,2,1.5,3,0.4c1-2.7,2,1.6,3,0.4c1,2.5,2,1.2,3,0.3
	c1-2.1,2,0.9,3,0.3c0.5,1.3,1-0.1,1.5-0.1c0.5-1.1,1-2.1,1.5,0.2c1,0.5,2,1.9,2.9,0c1,0.8,1.9-1.4,2.9-0.2c1,0.6,1.9-0.5,2.8-0.4
	c0.9-1.3,1.8,1.2,2.7-0.6c0.5,0.4,0.9-3.6,1.4-1.4c0.2,1.6,0.5-2.6,0.7-2.3c0.2,1.1,0.5-2.9,0.7,0.8c0.5-1.5,0.9-3.3,1.4-1.5
	c0.4-0.7,0.9,1.3,1.3-1.6c0.2,3,0.4-0.7,0.6,1.1c0.2-0.9,0.4-2.1,0.6-2.8c0.2,0.1,0.4,3.9,0.6,0.7c0.2-2.9,0.4-0.6,0.6-2.6
	c0.1-0.8,0.2,3.1,0.3,2c0.1-0.5,0.2-1.1,0.3-1.6c0,1.9,0.1,2.8,0.1,0.9c0-0.3,0.1-2.9,0.1-2.8c0.1,0.6,0.2-5.8,0.3,0
	c0.2-1.2,0.4-0.4,0.6-1.5c0.2,2.9,0.4,1.9,0.6,0c0.1-3.5,0.3,2.2,0.4-1.1c-0.1,1.2-0.2-1.2-0.2-2.2c0-0.3,0-0.6,0-0.1
	c0-1.8,0.1-2.8,0.1-2.6c0.1-0.5,0.1,1.5,0.2-3c0,0.1,0.1,0.8,0.1-1.5c0-1.4,0.1-0.9,0.2,2.3c0.1,4.5,0.2,4.1,0.4,0.2
	c0.1-4.7,0.3,1.8,0.5-2.7c0.1,0.7,0.3,2.5,0.5-1.9c0-1.6,0-1.7,0-2.1c0,0.7,0.1-3.7,0.2-1.6c0.1-1.9,0.3,2.3,0.4-1.6
	c0.2-1.1,0.4-2.3,0.7-2c0.3,1.3,0.5,1.8,0.9-1.6c0.3-0.4,0.7-2,1.1-1.6c0-2.1,0-1.1,0-2.2c0-1.3,0-1.3,0-2.2c0,0,0,0,0-0.1
	c0-0.9,0-1.8,0-1.6c0-0.5,0-1,0-1.5c0-1,0-2.7,0-3.1c0,0,0-0.1,0-0.1c0-0.2,0-1.1,0-2.7c0-1.4,0-3.1,0-3.1c0-188.2,0-601.2,0-722.5
	H0.5z"/>
<path class="st4" d="M652.4,18.3C652.4,18.9,652.4,21.1,652.4,18.3c0-2.1,0-1.1,0-2.2c0-1.3,0-1.3,0-2.2c0-1.5,0-2.9,0-0.1
	c0-0.9,0-1.9,0-3.1c0-1.3,0-3.6,0-3.1c0-0.1,0-1,0-2.7c0-1.4,0-3.1,0-3.1c0-221.9,0-756.6,0-756.6H0.5c0,0,0,525.4,0,750.7
	c0,1,0,2.1,0,3.1c0,1,0,2.1,0,3.1c0.1,0.4,0.1,2.1,0.2,2.4c0.1,1.9,0.1,0.3,0.2,2.4C1,7.9,1,7.5,1,9c0-0.2,0.1-0.5,0.1,2.6
	c0,2.1,0,1,0,3.4c0,1.3,0,0.4,0,1.5c0.3-1.6,0.7,0.1,1-0.8C2,17.9,1.6,16,2.1,17.5c0.3,0.6,0.6,1.4,1.1,2.9c0.4,0.4,0.9-1,1.5,2.2
	c0.9,0.4,1.8,1.1,2.7,1.3c0.9,0,1.9,3,2.8,1.2c1-0.9,1.9-0.7,2.9,0c1,0.6,2,0.9,3,1.3c1,0.5,2,1.1,3,0.2c1,0.2,2,0.3,3,0.6
	c1,3.5,2,1.9,3,1.2c1-0.1,2-2.4,3,0c1,1.2,2,1.3,2.9,0.5c1-1.4,1.9,0.9,2.8,1.9c1.5,1.1,2-2.2,2,0.6c0.3-1.5,0.9-1.3,1.4-0.7
	c0.6-1.1,1.1,1.5,1.3,1.4c0.7-1.1,1.3-0.8,1.6-0.9c0.4-1.6,0.5,2,0.6,2.2c2-1.3,0.8,3,2,1.5c0.2,1.5,0.1,1.4,1.3,2.1
	c1.2-0.9,1.9,0.8,1.1,2.2c1,0.6,0.3,3.1,0.7,2.3c0-0.7,0-0.1,0.1-0.1c1.3-0.9,1.5-0.8,0.5,2.1c0.1,1.2,0.2,1.7,0.3,0.9
	c0,0.2,0.1,1.4,0.3,1c-0.5,2.5-0.8,2.2,0.4,0.8c-0.2,0.6-0.3,1.9-0.3,2.7c0.1,0,0.3,0.4,0.5-0.2c0.1,1.3,0.2-0.6,0.3-0.1
	c0-0.3,0.1-0.1,0.2-0.1c0,0.6,0-0.7,0,0.1c0.6,0,0.9-1.3,1.1-0.3c-0.2-0.2-0.5,1-1,0.7c0,1.5,0.1,2.1,0.1,1.6c0,1.1,0.7,1.1,0.5,0.3
	c0.3-0.2,0.5,0,0.6,0.2c0,0.2-0.1,0.6,0,1.4c-0.9-1.6-0.8,2.5,0.3,2c0.9-1.7,1.8-0.5,2.7-0.3c0.5-2.6,0.9,1.1,1.4,1
	c0.5,1.1,1,2,1.4,0.7c0.5-0.2,1-0.3,1.5,1.3c0.5-0.2,1-1.8,1.5,0.7c0.5-1.1,1,0.6,1.5,0.8c0.5,0.7,1,0.9,1.5-0.7
	c0.5,0.3,1-0.4,1.5-0.6c0.5,1.7,1,0,1.5,0.9c0.5,0.5,1,0.9,1.5,1.3c0.5,0.1,1,0.7,1.5,0.4c1-0.5,2,0.7,3,1.4c0.5-2.4,1,0.3,1.5-0.9
	c0.5-0.9,1,0.5,1.4,1.2c0.4-1.2,0.8-0.8,1.2,0.5c0.7,2,1.4,0.8,2.1,0.5c0-1.1,0.1-1.1,0.1-0.7c0,0.1,0.1,1.6,0.1,0.8
	c0.2,0.1,0.4-1.6,0.6,0.2c0.8-0.7,1.6-1.2,2.6-2c1-1.6,2-0.5,3.2-1.3c0.6-0.2,1.2,0.4,1.8-0.4c0.6-0.2,1.3,1.4,2-0.1
	c0.4,0.7,0.9,0.2,1.3,0.1c0.1-0.9,0.2-1.6,0.3-0.1c0-0.1,0-1.1,0,0.1c0.7-1.3,1.4,0.1,2.1,0.4c0.7,2,1.3-1.2,1.9,0.7
	c0.4-1.9,0.8,1,1.3-0.5c0.4,1.1,0.7-0.1,1.2-1.4c0.4-0.2,0.9-1.7,1.3-1c0.1-0.9,0.2,0.5,0.3-0.2c0.4,0.3,0.9,0.1,1.4-1
	c0.5-0.5,1-0.2,1.6-0.4c0.5-0.5,1.1,0.5,1.7-0.5c0.6-1.1,1.2-1.3,1.9-0.2c0.3,0,0.5,0,0.7-0.8c0.3,0.9,0.5,0.6,0.7,0.7
	c0.6-1,1.1-0.9,1.6-0.7c0.5,0.5,1,1.1,1.5,1c0.5-0.7,1-1.2,1.4-0.8c0.5-0.1,0.9,0,1.3,1.7c0.6-1.5,0.9-0.7,2.4-1.1
	c2-0.3,1,1.3,1.5,0.3c0.8-0.8,1-0.8,1.1-0.8c0-0.1,0.1-1.1,0.4-0.6c0.3,0.1,2.3-0.7,3-1c-0.2-0.4,1-1.2,1.5-1.2
	c0.5-0.7,1-0.7,1.5,0.1c1,0.2,2-0.7,3-1c0.5,0.6,1,0.8,1.5,0.4c0.5,0.2,1-0.6,1.5-1.4c0.5-1.6,1-0.8,1.5-1.1c0.5,0.3,1-0.8,1.5,0.2
	c0.8-1.8,2.1-0.5,2.4-0.2c0.9-2,1.1-1.8,1.2-1.2c0.9-0.2,0.6,1.2,1.2,0.9c0.7-1.5,0.2-0.6,1.5-1.3c0.3,0.3,1.4,0,1.5,0.3
	c0.2,0.8-0.4,2.2,1.5,0.8c0.9-0.5,2.2-1.8,1.5-1.9c2-0.3,2-1.4,2.9-1.1c1.1-1.4,1-1.5,0.9-0.1c-0.1,0.7-0.2,1.5,0.9-0.6
	c0.9-1,1.6-3.1,2-1.9c0.4-0.4,0.4,1.3-0.2,1.3c1.8,0.1,0.8-0.8,1.8-0.7c1.4,1.9,2,0.4,1.8-0.6c1.1-0.7,1.5-0.3,1.8-0.6
	c-0.1-0.6,1.5,0.8,1.8-0.6c1.4-1.7,1.3-0.9,1.7-1c0.3,0.5,0,1.2,1,0.1c0.8,0,1.2-0.6,1.1-0.2c0.1-0.1,0.2-0.3,0.3-0.4
	c1.1-1.8,1.5-1.6,1.3-0.3c0.1-0.6,0.7-2.3,1.1-1.7c0.4-0.3,0.6-0.1,0,1.1c1-0.8,1.7-1.2,1.8-1.1c-0.8-1.5,1.2-0.3,1.2-0.5
	c0.6,0,1.8-0.2,2.3-0.6c0.8,0.5,2.7-1.6,2.6-0.2c-0.1,1,0.2,1.8,0.7,1.2c0.5-0.7,1.1-0.5,1.8-1c0.4-0.1,0.7,1.6,2.2,0.5
	c1,0.4,2,0.1,2.9,0.3c0.9-0.1,1.9,0,2.8-0.3c0.9,0.9,1.8-0.3,2.7-0.7c0.9,0.7,1.8-0.5,2.6-0.3c0.9-1.5,1.7,0,2.6-0.9
	c0.9-1.6,1.7,0.4,2.6-0.6c0.9-1.2,1.7-1.8,2.6-0.9c0.9-2.5,1.7,1.9,2.6-0.4c0.9-1.2,1.8-0.9,2.7-0.4c0.4,0.9,0.9-0.1,1.4,0.9
	c0.5-0.2,0.9-0.3,1.4-1.1c0.5,1.1,0.9,2.4,1.4,1.1c0.5,0.2,0.9-0.5,1.4-1c1-0.2,1.9-0.5,3,0.6c0.8,0.7,1.6,1.5,2.4,0.6
	c0.4,0.7,0.8-0.8,1.2-0.8c0.4-0.8,0.8,0.5,1.2,1.7c0.8,1.1,1.6-2,2.4,0.9c0.8,0.6,1.6-0.7,2.4,1.1c0.8,0,1.6-0.9,2.5,1.2
	c1.6,0.2,1.3,0.5,1.5,1c0.6,1.2,1.3,1.5,1.9,0.6c0.6-0.2,1,1,1.1-0.3c0.3,0.6,1.9-1.5,3,0.4c0.4,0.1,1.5-1.5,2.2-0.7
	c0.8-0.7,1.3,0.5,0.7,1.3c0.6,2.2,1.9,0.6,2.9,0.6c1.5-0.7,0.8-0.4,1.5-0.6c0.1,1.2,3-2.6,1.5,1.3c2.5-0.8,1.8,0.6,1.5,1.4
	c0.4,0,2.7-2.2,1.5-0.6c0.9-1.3,0.2,0,1.6,0.1c0.2,0.8-0.1,2.2,0.8,1.6c-0.1,0.5,0.8,0.6,2.5-0.9c1.9-1.3,3.1-2.1,1.6,1
	c-0.5,0.3,1.7-0.1,1.6-0.7c0.3-2.1,0,3,1.6,1.5c0,1.3,0.2,2.2,1.6,1.2c1.2,1.8,1.4-0.4,1.6-0.4c1.1,1.1-0.3-1.4,1.6-0.5
	c0.7-0.2,1.1-2.4,1.6,1.3c2-2,0.6,0.7,1.6,0c2-2.3,0.8,2.2,1.6,0.8c0.5,0.4,1.7-0.2,1.6,0.4c0.9-0.3,0.9-2.3,1.6,0.2
	c0.1-0.8,0.4-1.6,0.7-2.1c0,0.4,1.5-0.3,0.9,1c0.2-0.4,0.5,0.6,1.7,1.6c0.7,0.2,1-0.9,1.7,0.8c0.6-2.6,1.1-0.3,1.7-0.5
	c0.6-0.7,1.1-0.2,1.7,0.7c0.6-0.1,1.1-0.8,1.7-0.5c0.6,4.9,1.1-2.5,1.7,0.5c0.6-1.3,1.1-1.5,1.7-0.5c0.5-1.6,1-2.9,1.5-0.7
	c0.5-1,1,1.5,1.5,0.9c1,0.9,2-1.6,3,0.1c1,3.1,1.9,0.4,2.9,0c0.9,1.4,1.9,0.7,2.8,0c0.9-1.6,1.8,1.2,2.7,0.1c0.5-1.6,0.9,0.7,1.4,0
	c0.4,1.8,0.9,1.3,1.3,0.2c0.4-1.5,0.9-1.1,1.3-0.5c0.4,0.8,0.9,1.5,1.3,0.8c0.4,0.5,0.9,2.1,1.3,1.4c0.4-0.7,0.9-1,1.3-0.9
	c0.4-1.5,0.9-1.5,1.3-1.4c0.4-0.8,0.9,0.5,1.3,2.1c0.2,2.8,0.4,1.9,0.6,2.6c0.2,0.4,0.4-0.4,0.6-0.5c0.4-0.4,0.8-0.3,1.3-1.1
	c0.4,0.1,0.8,1.7,1.3,1.2c0.4,2.3,0.8-1.5,1.3,0c0.4-0.8,0.8-0.3,1.2,0.1c0.4-0.3,0.8,1.6,1.2,1.5c0.4,0.2,0.7-0.7,1.1,0.6
	c0.4,1.3,0.7,2,1.1,1.1c0.7,0,1.5,1.6,2.2,1.9c0.7-1.7,1.4,0.5,2.1-1c0.4-2.1,0.7-2.3,1.1-2.1c0.4-0.4,0.7,0.8,1.1,1.1
	c0.4-0.4,1.3-0.6,2.2-0.9c0.1-2.2,0.4-2.2,0.7-1.6c0.3-0.3,0.5,1.7,0.5,1.8c0.8-0.8,0.7,0,1.1-1c1-2.5,1.1-0.1,2.3-0.7
	c0.8,0.4-0.2-1,1.2-1.6c-0.1,0.3-0.7,1,0.3,0.5c0.8-0.8,1.2-1.7,1.4-1.1c0.7-1.4,0.5-1.5,0.7-0.9c0-2.2,0.1-1.7,0.6-0.8
	c0.6,0.3,0.7-0.1,0.3,0.7c0.1,0.1,1.4-0.3,3-1.1c1-0.2,1.6,0.2,3.5-0.4c0.2,0.8,1,0.9,2.6,0.3c0.6,0.4,1.4,0.6,2.5,0.5
	c1.1-0.1,1.1,0.9,2.1,1c0.8-0.2,1.1,0.6,1.6,1.1c0-0.4,0.1,0.5,0.4-0.9c0.9,0.6,1.2-2,1.8-0.1c0.6-1.9,1.2-1.1,1.8,0.2
	c0.6,0.3,1.2-2.7,1.7,0.3c0.6,1.1,1.1-1.6,1.6-0.4c0.5,1.4,1.1,0.1,1.6,1.3c0.4-0.9,0.9,1.1,1.3,1.6c0.5-1.4,0.9,0.5,1.4,0.6
	c0.5,0.7,0.9-2.6,1.4,0.2c0.5-1.4,0.9,2.3,1.4,1.5c0.5-1.1,0.9,0.1,1.4,1.5c0.5,0,1,2.1,1.4-0.1c0.5,2.9,1,1.7,1.4,1.2
	c0.5-0.4,1-1.8,1.5-0.1c0.5,2.8,1,1.3,1.5,1.7c0.5-0.9,1,0.4,1.5-0.9c1,3,2,0.4,3,0.5c1,0.1,2-2,3.1,0.3c0.5,1,1,1.4,1.6,0
	c0.5-1.3,1-0.4,1.6,0.1c1-0.5,2.1,0.1,3.1-0.1c1.1,2.1,2.1,0,3.2-0.2c0.5-0.2,1.1,0,1.6,0.6c0.5-1,1.1-0.6,1.6-0.9
	c1.1,1.2,2.1-1.8,3.2-0.4c0.5,0.1,1.1-0.6,1.6-0.7c0.5,0,1.1,1.4,1.6,0.3c0.5,0.8,1.1,1.1,1.6,0.8c0.5,0.4,1.1-0.5,1.6-1.2
	c0.5-0.5,1.1-0.5,1.6,0.5c0.5-1.4,1.1-1.4,1.6-0.9c0.5,0.3,1.1,1.6,1.6,0.8c0.5,0.6,1.1-0.5,1.6-1.1c0.5-1,1.1,0.4,1.6,0.1
	c0.5,0.4,1.1,1.3,1.6-0.3c0.5,0.6,1.1,1.1,1.6,0.4c0.5,0.4,1.1-1.1,1.6-0.5c0.2-0.7,0.6,0.3,1.3-0.9c0-0.2,0.8,1.7,1.5,0.8
	c1.2-1.1,1,0.2,2-0.9c1.5-0.9,2.3-0.6,2,0.4c2.4-0.9,1.5-0.5,2.2-0.8c1.1-2.6,1.3-1.6,0,0.7c1.1-1.8,1.7,0.6,2.2-1.3
	c1.6-1.7,1.9-1.3,0.7,0.4c1.2-1,1.4-1.3,0.9,0.4c-0.7,1.8-0.3,0.1,0.5,0.3c0.7-1.1,1.7-1.3,1.9-1.1c1.1,0.5,3.1-0.4,2.9,0.3
	c0,1.6,0.3,1.9,0.7,1.8c0.5-0.1,1.1-0.7,1.8-1.1c0.6-0.8,0.5-1,0.2,0.1c0.6-0.5-0.6,1.4,0.8,0.4c0.7,0,1.8-1.8,0.7,0.4
	c0.1,0.3,0.2-1,0.2,0.5c0.6,0.4,1.1,0.1,1.7-0.3c0.6-0.3,1.2-1.1,1.9-0.1c0.8-0.5,1.5,1.2,2.2,0.1c0.7-0.5,1.3-1.9,2,0.5
	c0.6-0.4,1.2,0.3,1.8,1c0.6-0.2,1.1,0.9,1.6,0.5c0.5,0.6,1,1.1,1.4,1.5c0.4,0.1,0.9,0.9,1.2,0.8c0.1-0.7,0.1,0.4,0.2,0
	c0.2-0.2,0.7-1.4,1.2-1c1.1-1.2,1.9,0.6,2.7-0.5c0.5-1.8,1-1.4,1.4-1.5c0.6,0.2,0.6,2.4,1.4,0.7c0.8-1,1.7-1.8,2.8-0.9
	c0.4-0.1,1.1-1.4,1.4-0.9c0.4,2.1,1.1,1.3,1.4-0.1c0.4,2.2,0.8,0.4,1.4,0.2c0.3-0.5,0.9-1.6,1.4-1.3c0.4,0.8,2.3,0.3,2.7-1.1
	c0.6-0.8,0.6-2.8,1.4-1.4c0.6,0.7,0.2,1.2,1.4,0.3c0.8,0.8,1.8-3,1.6-1.3c0.3-1.9,0.6,2.1,1.6,0.1c0.2-2.1,1-0.9,1.6-1.2
	c0.1,0,0.5-0.2,0.6,0.1c1.1-1.1,1-0.8,1.7-1.1c0.3-0.1,0.9-0.3,1.9-0.9c0.6-0.6-0.4,0.5,0.5-0.2c1.5-1,1.8-0.6,2.4-0.5
	c0.4-0.6-0.3-0.1,1.2-0.2c1.2-0.1,2.5-1.9,2.3-0.4c0.8-1.5,2.1-0.6,2.3-0.1c1.1,0.4,1.8-2.9,2.3,0.1c1.6,1.7,1.4,0.3,2.2,0.4
	c1.2-1.1,2.2,2.2,2.2,0.6c0.9,0.5,2,0.7,2.1,0.8c-0.2-0.7,1-0.7,1,0.5c0.9,0.3,0.6,1.8,1,0.5c0.3-0.2,1.7-1,1.7,0.6
	c0.3-1.4,1.6,1.2,1.6,0.7c0.5,2,1.1,0.5,1.6,1.5c0.5-0.6,1,0.5,1.5,0.1c0.5-0.8,1-0.3,1.4,0.1c0.5,1.4,0.9,1.8,1.4,1.7
	c0.5-0.3,0.9,0.9,1.3,0.2c0.4,0.3,0.9,0.4,1.3,1.8c0.5,1.5,1,1.1,1.6,1.3c0.5,1.5,1,1.9,1.6,0.2c0.5,1.8,1-0.2,1.5,1.3
	c0.5,1.7,1,0.4,1.5,0.1c0.5,0.9,1-0.7,1.5,0.4c0.5,0,1,0.3,1.5,0.8c1,1.1,2,0.7,3,1.1c0.5,0.6,1-0.4,1.5,1.3c0.5,1.1,1,0,1.5-0.3
	c1,0.8,2,1.3,3,0.8c0.5,0.1,1-3.2,1.5-0.7c0.5-2.1,1,1.2,1.5,1.4c0.6-1,1.1-0.8,1.6-1c0.4-0.2,0.8,0.7,1.4,1.4
	c0.6-0.5,1.3,0.4,1.8-0.7c0.5-0.4,0.9,1.3,1.1,1c0.2-1.3,2.5,2.1,2.9,0.2c0,0.3,0.5,2,1,0.9c0.6,0.7,1.4,0.4,1.9-0.9
	c2.2-1.1,1.4-0.5,2.9-0.2c0.2-1,1.9-1.2,2.9-0.3c0.1,1.8,2.3-1.5,1.4,0.7c0.6-0.7,1.9-1.3,1.4-1.2c1.2-0.9,1.5-0.4,2.9-0.6
	c0.8-1.8,1.3-0.9,1.8-0.6c0.4,1.1,0.7,0.3,1.1-0.2c2.5-1.2,2-1.8,2.9-1c0.4-0.2,3.2-1.3,2.9-1.1c0.7-2.4,1.1-1.9,1.5-1.7
	c0.8-0.8,1.3,0.3,1.5,0.4c0.3-1.2,1.3-2.3,1.5-1.4c0.6-1.1,1.4,0,1.5-0.1c0.4,2.7,0.8-0.8,1.5,0.1c0.1,0.2,0.8,0.1,1.5-1.7
	c0.1,1.4,1.5,1.9,1.5,0c0.8-0.4,1.4-1.1,1.5-1.8c0.8,0.4,2-2.1,2.8-0.7c0-0.2,1.2-0.5,1.4-1.3c1,0.2,1.1-1.5,1.4,0.7
	c0.2,0.2,0.9-0.6,1.4-1.4c0.5-0.1,1,0.6,1.4,0.9c0.5-0.2,1,1.6,1.4,0.8c0.5-1.2,1-0.9,1.4-1.2c1,0.4,1.9-0.9,2.9-0.3
	c0.5,0.2,1-0.1,1.5-1.4c0.5,0,1,0.4,1.5,1.2c1,1.8,1.9-1.2,2.9-0.2c1,1.6,1.9,0.2,2.9-0.1c0.9-0.1,1.8-1.3,2.7-0.7
	c0.9,0.7,1.8-1.5,2.7-0.6c0.9-1.3,1.8-0.2,2.7,0c0.9-0.3,1.8-0.2,2.8,0.1c0.5-1.3,0.9-0.5,1.4-1.4c0.5,0.1,1-1.5,1.4,1.7
	c1,0.5,1.9,1.9,2.9,0.3c0.5,1,1,1.1,1.5,1.5c0.5,0.6,1-0.7,1.5-1.1c1,0,2,1.5,3,0.4c1-2.7,2,1.6,3,0.4c1,2.5,2,1.2,3,0.3
	c1-2.1,2,0.9,3,0.3c0.5,1.3,1-0.1,1.5-0.1c0.5-1.1,1-2.1,1.5,0.2c1,0.5,2,1.9,2.9,0c1,0.8,1.9-1.4,2.9-0.2c1,0.6,1.9-0.5,2.8-0.4
	c0.9-1.3,1.8,1.2,2.7-0.6c0.5,0.4,0.9-3.6,1.4-1.4c0.2,1.6,0.5-2.6,0.7-2.3c0.2,1.1,0.5-2.9,0.7,0.8c0.5-1.5,0.9-3.3,1.4-1.5
	c0.4-0.7,0.9,1.3,1.3-1.6c0.2,3,0.4-0.7,0.6,1.1c0.2-0.9,0.4-2.1,0.6-2.8c0.2,0.1,0.4,3.9,0.6,0.7c0.2-2.9,0.4-0.6,0.6-2.6
	c0.1-0.8,0.2,3.1,0.3,2c0.1-0.5,0.2-1.1,0.3-1.6c0,1.9,0.1,2.8,0.1,0.9c0-0.3,0.1-2.9,0.1-2.8c0.1,0.6,0.2-5.8,0.3,0
	c0.2-1.2,0.4-0.4,0.6-1.5c0.2,2.9,0.4,1.9,0.6,0c0.1-3.5,0.3,2.2,0.4-1.1c-0.1,1.2-0.2-1.3-0.2-2.2c0,2.4,0-1.3,0,0
	c0-1.8,0.1-2.8,0.1-2.6c0.1-0.5,0.1,1.5,0.2-3c0,0.1,0.1,0.8,0.1-1.5c0-1.4,0.1-0.9,0.2,2.3c0.1,4.5,0.2,4.1,0.4,0.2
	c0.1-4.7,0.3,1.8,0.5-2.7c0.1,0.7,0.3,2.5,0.5-1.9c0-1.6,0-1.7,0-2.1c0,0.7,0.1-3.7,0.2-1.6c0.1-1.9,0.3,2.3,0.4-1.6
	c0.2-1.1,0.4-2.3,0.7-2c0.3,1.3,0.5,1.8,0.9-1.6C651.6,19.5,652,17.9,652.4,18.3z M48-721.7H26.6v-21.5H48V-721.7z M101.5-721.7
	H80.1v-21.5h21.4V-721.7z M155.1-721.7h-21.4v-21.5h21.4V-721.7z M208.7-721.7h-21.4v-21.5h21.4V-721.7z M262.2-721.7h-21.4v-21.5
	h21.4V-721.7z M315.8-721.7h-21.4v-21.5h21.4V-721.7z M369.4-721.7H348v-21.5h21.4V-721.7z M423-721.7h-21.4v-21.5H423V-721.7z
	 M476.5-721.7h-21.4v-21.5h21.4V-721.7z M530.1-721.7h-21.4v-21.5h21.4V-721.7z M583.7-721.7h-21.4v-21.5h21.4V-721.7z M637.2-721.7
	h-21.4v-21.5h21.4V-721.7z"/>
</svg>
