<svg xmlns="http://www.w3.org/2000/svg" xmlns:xlink="http://www.w3.org/1999/xlink" viewBox="0 0 394.28 198.82"><defs><style>.cls-1{isolation:isolate;}.cls-2{fill:#4c323c;}.cls-3{fill-rule:evenodd;}.cls-4{mix-blend-mode:multiply;}.cls-5{fill:#fff;}.cls-6{fill:#fdfdfd;}.cls-7{fill:#fbfbfb;}.cls-8{fill:#faf9f9;}.cls-9{fill:#f8f8f7;}.cls-10{fill:#f7f6f6;}.cls-11{fill:#f6f5f4;}.cls-12{fill:#f5f4f3;}.cls-13{fill:#f4f3f2;}.cls-14{fill:#f3f1f1;}.cls-15{fill:#f1f0f0;}.cls-16{fill:#f0efef;}.cls-17{fill:#efeeed;}.cls-18{fill:#eeedec;}.cls-19{fill:#edeceb;}.cls-20{fill:#ecebea;}.cls-21{fill:#ebeae9;}.cls-22{fill:#eae9e8;}.cls-23{fill:#e9e8e7;}.cls-24{fill:#e8e7e6;}.cls-25{fill:#e7e6e5;}.cls-26{fill:#e6e5e4;}.cls-27{fill:#e5e4e3;}.cls-28{fill:#e4e3e2;}.cls-29{fill:#e3e2e1;}.cls-30{fill:#e2e1e0;}.cls-31{fill:#e1e0df;}.cls-32{fill:#e0dfde;}.cls-33{fill:#dfdedd;}.cls-34{fill:#dedddc;}.cls-35{fill:#dddcdb;}.cls-36{fill:#dcdbda;}.cls-37{fill:#dbdad9;}.cls-38{fill:#dad9d8;}.cls-39{fill:#d9d8d7;}.cls-40{fill:#d8d7d6;}.cls-41{fill:#d8d6d5;}.cls-42{fill:#d7d5d4;}.cls-43{fill:#d6d4d3;}.cls-44{fill:#d5d3d2;}.cls-45{fill:#d4d2d1;}.cls-46{fill:#d3d1d1;}.cls-47{fill:#d2d1d0;}.cls-48{fill:#d1d0cf;}.cls-49{fill:#d0cfce;}.cls-50{fill:#cfcecd;}.cls-51{fill:#cecdcc;}.cls-52{fill:#cecccb;}.cls-53{fill:#cdcbca;}.cls-54{fill:#cccac9;}.cls-55{fill:#cbc9c8;}.cls-56{fill:#cac8c7;}.cls-57{fill:#c9c7c7;}.cls-58{fill:#c8c7c6;}.cls-59{fill:#c7c6c5;}.cls-60{fill:#c6c5c4;}.cls-61{fill:#c6c4c3;}.cls-62{fill:#c5c3c2;}.cls-63{fill:#c4c2c1;}.cls-64{fill:#c3c1c0;}.cls-65{fill:#c2c0c0;}.cls-66{fill:#c1c0bf;}.cls-67{fill:#c0bfbe;}.cls-68{fill:#bfbebd;}.cls-69{fill:#bfbdbc;}.cls-70{fill:#bebcbb;}.cls-71{fill:#bdbbba;}.cls-72{fill:#bcbbba;}.cls-73{fill:#bbbab9;}.cls-74{fill:#bab9b8;}.cls-75{fill:#b9b8b7;}.cls-76{fill:#b8b7b6;}.cls-77{fill:#b8b6b5;}.cls-78{fill:#b7b6b5;}.cls-79{fill:#b6b5b4;}.cls-80{fill:#b5b4b3;}.cls-81{fill:#b4b3b2;}.cls-82{fill:#b3b2b1;}.cls-83{fill:#b2b1b1;}.cls-84{fill:#b2b1b0;}.cls-85{fill:#b1b0af;}.cls-86{fill:#b0afae;}.cls-87{fill:#afaead;}.cls-88{fill:#aeadad;}.cls-89{fill:#adacac;}.cls-90{fill:#adacab;}.cls-91{fill:#acabaa;}.cls-92{fill:#abaaa9;}.cls-93{fill:#aaa9a9;}.cls-94{fill:#a9a9a8;}.cls-95{fill:#a8a8a7;}.cls-96{fill:#a8a7a6;}.cls-97{fill:#a7a6a5;}.cls-98{fill:#a6a5a5;}.cls-99{fill:#a5a5a4;}.cls-100{fill:#a4a4a3;}.cls-101{fill:#a4a3a2;}.cls-102{fill:#a3a2a2;}.cls-103{fill:#a2a2a1;}.cls-104{fill:#a1a1a0;}.cls-105{fill:#a0a09f;}.cls-106{fill:#9f9f9e;}.cls-107{fill:#9e9e9d;}.cls-108{fill:#9d9d9c;}.cls-109{fill:#9c9c9b;}.cls-110{fill:url(#Nepojmenovaný_přechod_90);}.cls-111{fill:none;}.cls-112{fill:#575858;}.cls-113{fill:#a9a8a8;}.cls-114{fill:#a3a3a2;}.cls-115{fill:#555554;}.cls-116{fill:#484848;}.cls-117{fill:#2b2c2b;}.cls-118{fill:#acacac;}</style><linearGradient id="Nepojmenovaný_přechod_90" x1="350.43" y1="12.83" x2="46.74" y2="194.94" gradientUnits="userSpaceOnUse"><stop offset="0" stop-color="#f0d9e9"/><stop offset="1" stop-color="#d1c3da"/></linearGradient></defs><title>Datový zdroj 5</title><g class="cls-1"><g id="Vrstva_2" data-name="Vrstva 2"><g id="Vrstva_1-2" data-name="Vrstva 1"><path class="cls-2" d="M146.33,165.69c-.27-.3-.55-.6-.8-.93-.84-1.11-1.69-2.22-2.5-3.34a54.86,54.86,0,0,1-6.4-11,55.6,55.6,0,0,0-2.94-5.91q-1.75-3.1-3.53-6.19a55.57,55.57,0,0,1-4.45-9.53,126,126,0,0,1-4.5-16.3,16.78,16.78,0,0,0-.75-2.68,14.9,14.9,0,0,0-.74-1.64,5.56,5.56,0,0,0-.69-1,1.88,1.88,0,0,0-1-.58,3.87,3.87,0,0,1-1.11-.5,10.45,10.45,0,0,1-2.06-1.85,19.78,19.78,0,0,1-2.31-3.35c-.31-.54-.61-1.08-.94-1.6-.66-1-1.34-2.06-2-3.09a11.63,11.63,0,0,0-1.14-1.5A25,25,0,0,0,106,92.24c-1.49-1.26-3.1-2.38-4.69-3.53q-2.09-1.51-4.14-3.07A12.88,12.88,0,0,1,95.28,84a3.27,3.27,0,0,1-.77-1.37,1.13,1.13,0,0,1,.5-1.33,1.93,1.93,0,0,1,1.81-.16c.17.06.32.14.49.19a.75.75,0,0,0,.34,0c.42-.09.84-.19,1.25-.29l.23-.06.08-.21c0-.08.06-.15.09-.23a6.67,6.67,0,0,1,2.85-3.14c.44-.25.92-.46,1.39-.68a1.67,1.67,0,0,0,.69-.51c.19-.25.39-.5.58-.75a5.92,5.92,0,0,1,2-1.67,4.79,4.79,0,0,1,3.56-.4,5.86,5.86,0,0,1,3.59,2.39l.09.11.2-.06c.46-.13.92-.27,1.38-.38a6.88,6.88,0,0,1,2.32-.13,14.1,14.1,0,0,1,2.3.44l.21,0a9.38,9.38,0,0,1,.6-.95,3.13,3.13,0,0,1,2.48-1.25c.42,0,.85,0,1.27,0a13.17,13.17,0,0,1,2.47.4,2.22,2.22,0,0,0,1.51-.13,6.41,6.41,0,0,1,.7-.27,2.25,2.25,0,0,1,1.25,0,4.85,4.85,0,0,1,2.94,1.83,7.67,7.67,0,0,1,1.52,6.81,17.34,17.34,0,0,1-1.34,3.29c0,.09-.08.18-.13.29l.14,0a1.85,1.85,0,0,0,1.41-.52c.42-.42.86-.83,1.33-1.21a6.87,6.87,0,0,1,2.21-1.21,2.47,2.47,0,0,1,2.67.77,2.24,2.24,0,0,1,.44,2.52,6.66,6.66,0,0,1-1,1.57,49.77,49.77,0,0,1-3.54,3.9A50.94,50.94,0,0,0,131.7,98c-.85,1.2-1.65,2.43-2.42,3.68a29.14,29.14,0,0,1-1.91,2.8,6.21,6.21,0,0,1-3.77,2.28,6.51,6.51,0,0,0-.67.15,3.25,3.25,0,0,0-.68.29,2,2,0,0,0-.94,1.42,6.42,6.42,0,0,0,.07,2.47,126.28,126.28,0,0,0,4.39,16.51,50.35,50.35,0,0,0,3.65,8.45c1.06,1.93,2.16,3.85,3.26,5.76a83.1,83.1,0,0,1,4.58,9,39,39,0,0,0,2,4,70.29,70.29,0,0,0,5,7.6c.74,1,1.5,2,2.25,2.93.09.12.21.23.17.41S146.43,165.79,146.33,165.69ZM117.6,83.54a39.93,39.93,0,0,1,1.29,5.09c.43,2.21.83,4.43,1.07,6.64a29.71,29.71,0,0,1-.28,8.43c-.11.63-.3,1.24-.47,1.85a4,4,0,0,1-.21.5l.18.15a1.64,1.64,0,0,0,.73-.63,13.47,13.47,0,0,0,1-1.65,9.75,9.75,0,0,0,.74-2.78,27.14,27.14,0,0,0,.16-5.22c0-.53-.05-1.06-.06-1.59a2.8,2.8,0,0,1,.05.28,28,28,0,0,1,0,6.64,10.67,10.67,0,0,1-.65,2.55,6.82,6.82,0,0,1-1.28,2.13c-.12.13-.27.25-.44.4a1,1,0,0,0,1-.09,6.2,6.2,0,0,0,.92-.78,8.22,8.22,0,0,0,1.45-2.24,19.56,19.56,0,0,0,1.49-6.08,38.63,38.63,0,0,0,0-7.41,54.48,54.48,0,0,0-2.36-11.63l-.4-1.25c0-.09,0-.18-.07-.26a11.89,11.89,0,0,0-3.87-.93l.1.27a37.52,37.52,0,0,1,2.51,9c.09.65.12,1.29.18,1.94a.72.72,0,0,1,0,.26,39.61,39.61,0,0,0-3-11.42,7.17,7.17,0,0,0-1.56.15,19.23,19.23,0,0,1,1.46,3.6l-.07,0-.1-.24c-.31-.76-.6-1.51-.92-2.26-.15-.36-.35-.71-.52-1.06h-.13c-.54.17-1.1.33-1.62.53a3.43,3.43,0,0,0-1.27.91c-.18.19-.35.38-.55.56s-.42.36-.66.57c0,.29.08.63.14,1a72.35,72.35,0,0,0,1.64,7.46q.33,1.15.71,2.28a13.12,13.12,0,0,0,.54,1.38,20.51,20.51,0,0,1,1.73,5.71c.13.9.27,1.79.39,2.69a23.55,23.55,0,0,0,.54,2.66l0,.14h0a.16.16,0,0,0,0-.06,36.63,36.63,0,0,1-.15-4.54,32.18,32.18,0,0,0-1.67-10.49.21.21,0,0,1,0-.16,1.93,1.93,0,0,1,.11.23c.26.81.55,1.61.77,2.43a31.07,31.07,0,0,1,1,8.07c0,.55,0,1.11,0,1.66a25.77,25.77,0,0,0,.32,4.08,7.37,7.37,0,0,0,.89,2.42,5.78,5.78,0,0,0,.38.54,1.34,1.34,0,0,0,.3-.65,21.36,21.36,0,0,0,.79-5,29.7,29.7,0,0,0-.26-6.17c-.38-2.73-.85-5.46-1.5-8.18-.24-1-.53-2-.8-3h0Zm.65,22.5a15.91,15.91,0,0,1-3.84-4.8c-.92-1.66-1.77-3.34-2.65-5s-1.89-3.65-2.88-5.46a40.76,40.76,0,0,0-3.58-5.53l-.56-.71,0,0c.09.08.18.16.26.25A23.09,23.09,0,0,1,107,87.28a63,63,0,0,1,3.6,6.22q1.87,3.62,3.77,7.22a18.67,18.67,0,0,0,2.44,3.63c.35.39.73.76,1.1,1.13a2,2,0,0,0,.19.14,1.29,1.29,0,0,0-.05-.18,18.48,18.48,0,0,1-1.21-3.35q-.26-1-.49-2a16.09,16.09,0,0,0-2.23-5.07c-.52-.8-1.08-1.58-1.68-2.33a24.77,24.77,0,0,1-2.62-4.05,19.16,19.16,0,0,0-1.54-2.6,13.72,13.72,0,0,0-3.91-3.6A11.21,11.21,0,0,0,102,81.33a2.51,2.51,0,0,0-1.26-.09A31.63,31.63,0,0,1,105.46,87a42.73,42.73,0,0,0-4.94-5.7,9.06,9.06,0,0,0-2.76.5,3.66,3.66,0,0,0,.3.23,21.67,21.67,0,0,1,2.72,2.07,28.81,28.81,0,0,1,5.21,6c.85,1.28,1.65,2.58,2.47,3.87a5.86,5.86,0,0,0,.52.71,23.74,23.74,0,0,1,2.71,3.86c.43.75.86,1.5,1.28,2.26a18.64,18.64,0,0,0,2.46,3.51,8.83,8.83,0,0,0,1.86,1.62,4.63,4.63,0,0,0,.68.32.34.34,0,0,0,.38,0A.76.76,0,0,0,118.25,106Zm8.46-16.87c.24-.29.5-.56.74-.84a1.11,1.11,0,0,0,.23-.39,24,24,0,0,0,.73-5.26c0-.07,0-.15,0-.22l.05,0a21.43,21.43,0,0,1-.62,5.5l.17-.1c.28-.18.55-.38.83-.55a.55.55,0,0,0,.26-.34,36.51,36.51,0,0,0,1.24-6.78.11.11,0,0,1,0-.08,17.05,17.05,0,0,1-.35,3.49c-.22,1.13-.48,2.26-.72,3.4l.16-.06a7.64,7.64,0,0,1,1.87-.72.43.43,0,0,0,.3-.24,15.16,15.16,0,0,0,1.14-2.76,23.23,23.23,0,0,0,.95-4.78,8.48,8.48,0,0,0,0-1.54,2.68,2.68,0,0,0-1.57-.6,3.68,3.68,0,0,0-.83,0,11.92,11.92,0,0,0-1.39.3,2.71,2.71,0,0,1-2.27-.33c-.42-.26-.84-.51-1.23-.8a6.11,6.11,0,0,0-3.29-1.18,1.93,1.93,0,0,0-1.53.49,3,3,0,0,0-.69,1,1.59,1.59,0,0,0-.06.21,9.06,9.06,0,0,1,3.45,2.4,1.3,1.3,0,0,0,0-.16,10,10,0,0,1,.34-1.84.56.56,0,0,1,.15-.26c0,.06,0,.11,0,.17-.11.66-.22,1.33-.32,2a.82.82,0,0,0,.17.62,6.35,6.35,0,0,1,1,2.47,10,10,0,0,1,0,3.77c-.06.35-.12.71-.16,1.06a.81.81,0,0,0,0,.39,11.72,11.72,0,0,1,.64,2.79l0,.32.07,0C126.44,89.54,126.57,89.35,126.72,89.17Zm-1.83,16.63a12.72,12.72,0,0,0,1.08-1.16c.42-.52.8-1.06,1.18-1.6.18-.26.34-.53.5-.8.45-.77.92-1.54,1.33-2.33a15.84,15.84,0,0,0,.75-1.8q.43-1.19.81-2.4a36.82,36.82,0,0,0,.94-4c.23-1.22.43-2.44.64-3.67,0-.1,0-.21,0-.31a6,6,0,0,0-4.65,1.19,28.43,28.43,0,0,1,.08,3.67,25.58,25.58,0,0,1-.36,3.59,43.54,43.54,0,0,0,.13-7l-.05,0a1.3,1.3,0,0,0-.15.15l-.69,1a.83.83,0,0,0-.13.61,21.25,21.25,0,0,1,0,5.73,20.88,20.88,0,0,1-1.27,4.8,12.43,12.43,0,0,1-1.58,2.85c-.34.45-.71.89-1,1.34a2.38,2.38,0,0,0-.26.51.23.23,0,0,0,.08.28.27.27,0,0,0,.3,0,3.87,3.87,0,0,0,1-.64,9.13,9.13,0,0,0,1.48-1.64,14.31,14.31,0,0,0,1.25-2.09c.3-.6.57-1.23.83-1.85a25.08,25.08,0,0,0,1.46-5,23.68,23.68,0,0,0,.42-4.63.15.15,0,0,1,0-.12c0,.08,0,.17,0,.25a19.7,19.7,0,0,1-.39,4.88,24.05,24.05,0,0,1-.86,3.3c-.25.74-.55,1.46-.85,2.18a15.06,15.06,0,0,1-.69,1.46,12.39,12.39,0,0,1-2.21,3.05,7,7,0,0,1-1.24.95A3.09,3.09,0,0,0,124.89,105.8Zm-17-32-.74.29a7.82,7.82,0,0,1,.85,1.77l-1-1.68-.27.15A5.86,5.86,0,0,0,105,75.93l-.3.41a2.18,2.18,0,0,1-1,.79A7.62,7.62,0,0,0,100.81,79a6.53,6.53,0,0,0-1.1,1.62,2.76,2.76,0,0,0-.1.3,15.67,15.67,0,0,1,4.87.3,10.89,10.89,0,0,1-1.34-2l.11.12,1.36,1.78a.57.57,0,0,0,.23.19l1.27.44,0-.29a2.92,2.92,0,0,1,.33-1.85,1.87,1.87,0,0,1,.33-.42A4.22,4.22,0,0,1,109.55,78c.46,0,.92,0,1.38,0a.69.69,0,0,0,.54-.18l.67-.66-.44-1.34a3.84,3.84,0,0,1,.56,1.17c.23-.19.43-.38.66-.54s.48-.3.75-.47a5.47,5.47,0,0,0-2.39-1.91,5.1,5.1,0,0,0-3.29-.36l.12.25,1.1,2.29a2.15,2.15,0,0,1,.1.31h-.06ZM133.53,95c1.23-1.39,2.53-2.72,3.85-4a39.81,39.81,0,0,0,3.26-3.63,5.41,5.41,0,0,0,.92-1.5,2,2,0,0,0-.69-2.23,1.57,1.57,0,0,0-1.5-.36,3.17,3.17,0,0,0-1.66.95,6.49,6.49,0,0,0-.66,1c-.91,1.65-1.83,3.3-2.71,5-1,1.84-1.94,3.7-2.91,5.55l-1.93,3.66c-.21.39-.39.8-.6,1.18s-.52.89-.79,1.33-.52.85-.81,1.26c-.44.62-.89,1.23-1.35,1.83-.21.27-.46.52-.66.81l.25-.13a5.39,5.39,0,0,0,1.42-1.28,26.78,26.78,0,0,0,1.9-2.75c.72-1.17,1.48-2.31,2.23-3.46l.11-.16,1.11-1.9c.5-.85,1-1.7,1.52-2.53a30,30,0,0,1,1.85-2.63c.77-1,1.53-1.94,2.3-2.9a21,21,0,0,1,2.47-2.68l.34-.28a.75.75,0,0,1,.14-.07l0,0c-.21.2-.43.39-.63.6-.66.7-1.33,1.39-2,2.1-.46.52-.87,1.09-1.3,1.63s-.78,1-1.17,1.49-.57.75-.83,1.13c-.42.61-.85,1.22-1.24,1.85s-.89,1.53-1.34,2.3a.54.54,0,0,0,0,.11Zm-12,10.74a6.85,6.85,0,0,0,1.63-1.71c.26-.4.54-.79.77-1.2a15.3,15.3,0,0,0,1.34-3.23,20.6,20.6,0,0,0,.88-6.89,32.13,32.13,0,0,0-.52-4.56,8.12,8.12,0,0,0-.41-1.45,1.29,1.29,0,0,1-.07-.56c0-.35.1-.69.16-1a9.87,9.87,0,0,0,0-3.77,6.28,6.28,0,0,0-1.15-2.63,7.88,7.88,0,0,0-2.4-2l-.17-.06c0,.12.06.21.09.29a51.35,51.35,0,0,1,2.95,15.8,31.31,31.31,0,0,1-.53,6.89,19.17,19.17,0,0,1-.73,2.66,11.68,11.68,0,0,1-1.1,2.25,6.37,6.37,0,0,1-1,1.22l-.09.1,0,0A3.15,3.15,0,0,0,121.49,105.77ZM97.08,83.68a.82.82,0,0,1,.36.2,47,47,0,0,1,7.31,6.83,7,7,0,0,0,.71.65l2.22,1.94.25.23a1.15,1.15,0,0,0-.06-.17,50.84,50.84,0,0,0-4.26-6.17,28.77,28.77,0,0,0-4.77-4.5,13.88,13.88,0,0,0-1.31-.87,4.76,4.76,0,0,0-.92-.4,1.51,1.51,0,0,0-1.35.15.82.82,0,0,0-.36,1,2.79,2.79,0,0,0,.59,1.08,10.74,10.74,0,0,0,1.64,1.54q1.69,1.3,3.41,2.57c1.11.82,2.25,1.62,3.37,2.43l.18.11A49.68,49.68,0,0,0,97.08,83.68Zm6.25-2.08a13.75,13.75,0,0,1,6.12,5.68c.29.5.55,1,.81,1.51a23.19,23.19,0,0,0,2.37,3.67c.51.65,1,1.32,1.46,2a17.69,17.69,0,0,1,1.7,3.1.75.75,0,0,0,.17.27c0-.07,0-.14,0-.21-.14-.83-.25-1.66-.42-2.49a19.6,19.6,0,0,0-4.05-8.51,16.06,16.06,0,0,0-4.27-3.68,11.45,11.45,0,0,0-3.84-1.47l-.29,0v0Zm5-2.94a3.9,3.9,0,0,0-1.4.9,1.83,1.83,0,0,0-.47,1.07,3.57,3.57,0,0,0,.13,1.57,19.23,19.23,0,0,1,3.06,2,30,30,0,0,1-1.22-4.48h.06c0,.12.07.23.1.35a38.6,38.6,0,0,0,1.2,4,2.3,2.3,0,0,0,.62.91,17.15,17.15,0,0,1,2.73,3.38c.14.22.27.43.44.64a63,63,0,0,1-2.38-10.55A7.48,7.48,0,0,0,108.37,78.65Zm25.95,9a6,6,0,0,1-2,.1,55.93,55.93,0,0,1-2.2,10l.13-.23,2.07-3.91.74-1.36,2.87-5.38.07-.15A4.82,4.82,0,0,1,134.32,87.61Zm-.4-11.08c-.25-.38-.48-.77-.77-1.12a4.35,4.35,0,0,0-2.51-1.46,1.87,1.87,0,0,0-1,0c-.23.08-.47.17-.69.27a2.56,2.56,0,0,1-1.64.15c-.43-.09-.86-.2-1.3-.26s-1.1-.11-1.66-.16a.53.53,0,0,0-.24,0,7.85,7.85,0,0,1,.78.26,12.84,12.84,0,0,1,1.24.63c.47.28.91.61,1.37.89a7.56,7.56,0,0,0,.91.47,1.92,1.92,0,0,0,1.25.1c.4-.09.8-.19,1.2-.27a7.64,7.64,0,0,1,.92-.12,3.23,3.23,0,0,1,2.14.67l.09,0A1.06,1.06,0,0,0,133.91,76.52Zm-2,9.56,1.36-.23a24.82,24.82,0,0,0,1.5-3.72,6.81,6.81,0,0,0-.3-4.48,1.32,1.32,0,0,0-.54-.64,20.43,20.43,0,0,1-2.11,9.05Zm4.78-1.54c-.38.35-.77.69-1.13,1.05a2,2,0,0,1-1.47.62,12.31,12.31,0,0,0-2.23.3,7.5,7.5,0,0,0-2.35.89l-.19.14h.15a8.77,8.77,0,0,1,2.87-.2c.24,0,.49,0,.73,0a3.13,3.13,0,0,0,2.16-.82,8.09,8.09,0,0,0,1.06-1.27l.66-.87,0,0Z"/><path class="cls-2" d="M183.1,11.9a4,4,0,0,1,2.31-1l.11-.48a13.78,13.78,0,0,1,2.26-5.07,8.79,8.79,0,0,1,3.51-2.82A5,5,0,0,1,196,2.7c.33.18.6.46.92.66a1.86,1.86,0,0,0,.73.33,3.27,3.27,0,0,1,2.48,1.26c.14-.15.25-.26.36-.38a14.09,14.09,0,0,1,3.23-2.84A10.88,10.88,0,0,1,208,.17a16.42,16.42,0,0,1,4.71,0,8.75,8.75,0,0,1,3.44,1.23,7.6,7.6,0,0,1,3.07,3.83c.43,1.14.26.94,1.38,1.53.91.48,1.81,1,2.69,1.51a7.67,7.67,0,0,1,1.13.91,1,1,0,0,0,.73.27,12.44,12.44,0,0,1,3.69.44,8.42,8.42,0,0,1,3.58,2.25,8.21,8.21,0,0,1,2.47,5.28.8.8,0,0,0,.35.65,5.11,5.11,0,0,1,1.9,2.75,10.42,10.42,0,0,1,.4,4,27.08,27.08,0,0,1-1.45,6.51,40.91,40.91,0,0,1-3.22,7.06c-.58,1-1.21,2.07-1.82,3.1,0,.06-.06.13-.13.29l.42-.14A9,9,0,0,1,236,41a8.12,8.12,0,0,1,4.73,2.41,12.66,12.66,0,0,1,.84,1,2.42,2.42,0,0,0,1.05.68c.56.23,1.13.43,1.67.71a5,5,0,0,1,1.9,1.66,3.59,3.59,0,0,1,.19.31,2.43,2.43,0,0,1,0,2.67,2.63,2.63,0,0,1-2.45,1.21,5.36,5.36,0,0,1-1.45-.34c-.78-.28-1.54-.63-2.31-.95a20.76,20.76,0,0,0-8.64-1.44,25.07,25.07,0,0,0-5.78.93,26.16,26.16,0,0,0-5.35,1.9,10.65,10.65,0,0,1-1.22.49,11.07,11.07,0,0,1-7.45.06l0,0a4.94,4.94,0,0,0-3.29-.28c-.51.07-1,.1-1.54.15l-1.85.22a4.21,4.21,0,0,0-3.12,2.19,8.36,8.36,0,0,0-1.12,3,137.66,137.66,0,0,0-1.94,21.31c0,1.68.11,3.36.16,5,0,.88,0,1.76.08,2.64A18.33,18.33,0,0,1,198,93.6c-1.22,3.34-2.13,6.76-3,10.2a42.78,42.78,0,0,0-1.1,6.82,101.19,101.19,0,0,0-.11,15.95c.16,2.36.26,4.72.45,7.08A97,97,0,0,0,196,145.19a98.64,98.64,0,0,0,4,14.4c.81,2.2,1.72,4.37,2.58,6.56a1.25,1.25,0,0,1,.13.43c0,.12-.08.3-.16.33a.48.48,0,0,1-.4-.09,1.14,1.14,0,0,1-.25-.43c-.19-.46-.37-.93-.55-1.4-.83-2.13-1.72-4.24-2.48-6.4a108.23,108.23,0,0,1-4-15.21,95.68,95.68,0,0,1-1.7-13.57c-.22-4.51-.56-9-.4-13.54a73.47,73.47,0,0,1,.88-10,68.54,68.54,0,0,1,1.8-7.23c.53-1.85,1.1-3.69,1.74-5.5a18.67,18.67,0,0,0,1.15-7.23c0-.86,0-1.73-.09-2.59a94,94,0,0,1,.1-11.68,143.56,143.56,0,0,1,1.88-15.71,8.84,8.84,0,0,0,0-3.43,4.23,4.23,0,0,0-1.85-2.81,8.45,8.45,0,0,0-1.19-.66,16.25,16.25,0,0,0-3.35-1.12A44.35,44.35,0,0,1,183.35,45a29.73,29.73,0,0,1-6.56-4A18,18,0,0,1,172,35.14a7.47,7.47,0,0,1-.81-3.05,2.25,2.25,0,0,1,.3-1.35,1.87,1.87,0,0,1,1.62-.93,6.73,6.73,0,0,1,2,.27l1.27.35a.88.88,0,0,0,.95-.26,4.74,4.74,0,0,1,2.2-1.3,3.32,3.32,0,0,1,1.34-.15c.12,0,.24,0,.4,0a3,3,0,0,0,0-.36q-1.06-5.91-2.13-11.82a25.37,25.37,0,0,1-.5-4.51,4.43,4.43,0,0,1,.48-2.24,1.36,1.36,0,0,1,2-.54,4.71,4.71,0,0,1,1.83,2.26C183,11.62,183,11.73,183.1,11.9ZM203,49.67a1.55,1.55,0,0,0,.09-.14,29.74,29.74,0,0,0,2.14-6c1-3.94,1.71-7.94,2.39-11.94Q209,23.69,210,15.71c.47-3.56,1.08-7.09,1.63-10.64a1.86,1.86,0,0,1,.07-.24A19.32,19.32,0,0,1,211.55,7c-.34,2.37-.71,4.73-1.05,7.1-.62,4.3-1.19,8.61-1.84,12.91-.74,4.88-1.59,9.75-2.65,14.57a34.56,34.56,0,0,1-2.74,8.25l-.45.9a1.72,1.72,0,0,0,1.05.16,5.42,5.42,0,0,0,2.67-1.17A13.93,13.93,0,0,0,209.81,46a34.12,34.12,0,0,0,2.39-4.58,65.11,65.11,0,0,0,3.45-10.46,113.18,113.18,0,0,0,3.1-24.52,1.75,1.75,0,0,0-.07-.58,6.83,6.83,0,0,0-3.53-4.2,11.08,11.08,0,0,0-5.73-.89.47.47,0,0,0-.11.05c0,.11,0,.24-.07.38-.19,1.32-.36,2.64-.56,4-.15,1-.34,1.94-.51,2.91a3.47,3.47,0,0,1-.14.44l-.05,0,1-7.63a.87.87,0,0,0-.19,0,9.42,9.42,0,0,0-2.92.64,1.25,1.25,0,0,0-.52.48c-.31.48-.57,1-.86,1.49a42,42,0,0,0-2.48,5,64.53,64.53,0,0,0-4.48,17.4,52.62,52.62,0,0,0,0,13.78,26.42,26.42,0,0,0,2,7.17,12.6,12.6,0,0,0,2.23,3.46c.14.15.28.33.56.28,0-.14.08-.28.12-.42.17-.75.35-1.5.49-2.26.94-5.16,1.68-10.35,2.27-15.56.41-3.64.71-7.3,1.06-10.95,0-.13,0-.25,0-.37h.13c-.41,4.79-.67,9.6-1.31,14.37S203.93,44.92,203,49.67Zm19-36.81h.07a1.87,1.87,0,0,1,.05.24c0,.47.1.94.13,1.4a49.4,49.4,0,0,1-1.65,16.29,39.5,39.5,0,0,1-5.58,12.29,25.56,25.56,0,0,1-3.48,4.07,18.15,18.15,0,0,1-6.05,3.92,2.2,2.2,0,0,0-.31.2,2.11,2.11,0,0,0,.37,0c.83-.15,1.68-.26,2.5-.47a19.85,19.85,0,0,0,9.65-6.1,26.74,26.74,0,0,0,3.32-4.54,36.4,36.4,0,0,0,2.89-6.25,54.28,54.28,0,0,0,2.88-18.4,2.56,2.56,0,0,0-.1-.67,15.34,15.34,0,0,0-1.2-3,8.31,8.31,0,0,0-3.47-3.5c-1-.56-2.08-1.09-3.14-1.64,0,.08,0,.2,0,.32a104.87,104.87,0,0,1-.73,11.43,94.71,94.71,0,0,1-3.45,16.94,42.91,42.91,0,0,1-4.89,11.09,13.73,13.73,0,0,1-3.43,3.77,3.05,3.05,0,0,0-.23.2.92.92,0,0,0,.37-.09,19.42,19.42,0,0,0,6.06-4.62,25.8,25.8,0,0,0,2.23-2.81A36.43,36.43,0,0,0,217,39.24a42.36,42.36,0,0,0,3.15-7.91,51.76,51.76,0,0,0,1.86-18C222,13.15,222,13,222,12.86Zm-39.23-.18c0,.44,0,.83,0,1.22a95.68,95.68,0,0,0,1.12,14.68,49.57,49.57,0,0,0,2.57,10,21,21,0,0,0,3.5,6.22,6.29,6.29,0,0,0,2.35,1.83l-.17-.18a14.28,14.28,0,0,1-2.26-2.88,25.84,25.84,0,0,1-2.83-7.64,47.23,47.23,0,0,1-1-9.52,55.58,55.58,0,0,1,1-11.43c0-.13.06-.26.09-.38-.18,1.88-.44,3.74-.59,5.61A51.8,51.8,0,0,0,187.42,36a26,26,0,0,0,2.42,6.78,11.78,11.78,0,0,0,3.28,4,5.54,5.54,0,0,0,1.91.92.77.77,0,0,0,.73-.08c-.14-.17-.26-.32-.39-.46-.57-.59-1.16-1.15-1.71-1.76a27.53,27.53,0,0,1-3-4.25A20.09,20.09,0,0,1,188,34.38a21.92,21.92,0,0,1,0-6.88A22.85,22.85,0,0,1,191,18.43l.5-.8c-.24-.27-.48-.49-.68-.75s-.37-.56-.61-.92l-.9,4.11-.11,0a6.19,6.19,0,0,1,.06-.62,30.84,30.84,0,0,1,.62-3,2.37,2.37,0,0,0-.32-2,6.13,6.13,0,0,0-2.12-2.26,3.35,3.35,0,0,0-2.41-.44,70.36,70.36,0,0,0-.64,9.08,46.2,46.2,0,0,1,.38-9C184,11.87,183.56,12.57,182.8,12.68ZM197.46,48l-.3-.44c-.49-.69-1-1.35-1.47-2.07a30,30,0,0,1-4.17-11.16,30.09,30.09,0,0,1,0-10.58c0-.16.07-.32.1-.48a.2.2,0,0,1,.06.19,32.52,32.52,0,0,0,.66,13.34,27.37,27.37,0,0,0,5.81,11.48,5.69,5.69,0,0,0,2.29,1.53.93.93,0,0,0-.18-.2,13.5,13.5,0,0,1-2.34-2.82,21.84,21.84,0,0,1-2.54-6.34,41.51,41.51,0,0,1-1.08-10.24,66.45,66.45,0,0,1,2.34-16.74c0-.17.08-.34.14-.57l-2.35,2.39a19.55,19.55,0,0,0-3.4,4.64,24.36,24.36,0,0,0-2.4,8.2,19.67,19.67,0,0,0,3,13.34,24.62,24.62,0,0,0,4.32,5.3C196.35,47.19,196.88,47.55,197.46,48Zm15.63,3.13,0,.09.47-.05a11.75,11.75,0,0,0,3.82-1.41,22.82,22.82,0,0,0,6.21-5.45,35.23,35.23,0,0,0,2.77-3.93,43.77,43.77,0,0,0,2.54-4.65,61.6,61.6,0,0,0,5.2-17.7,3.94,3.94,0,0,0,0-1.17,7.94,7.94,0,0,0-4.23-5.77,8.71,8.71,0,0,0-4.31-.92s-.08,0-.14.06c2.26,3.48,2.84,7.38,3,11.42.21-.83.38-1.67.54-2.51s.31-1.73.48-2.59.27-1.66.5-2.47a3,3,0,0,1,0,.68c-.36,2.72-.85,5.41-1.4,8.1-.16.77-.29,1.55-.37,2.33a61.75,61.75,0,0,1-1.94,10.45,28.85,28.85,0,0,1-4,8.81,16.45,16.45,0,0,1-8.53,6.48ZM200.8,49.66l.07-.06-.09-.14A16.63,16.63,0,0,1,198.57,45a34.58,34.58,0,0,1-1.64-9.38A59.62,59.62,0,0,1,198,21.2c1.32-6.78,3.39-13.3,7.16-19.17a1.41,1.41,0,0,0,.09-.33l-.52.25a11.29,11.29,0,0,0-3,2.3,19.3,19.3,0,0,0-4.49,7.85c-.31,1.06-.58,2.13-.83,3.21a65.39,65.39,0,0,0-1.83,16.4A38.06,38.06,0,0,0,196,41.8,17.92,17.92,0,0,0,199.13,48,10.27,10.27,0,0,0,200.8,49.66ZM215.38,51l0,.08A5.61,5.61,0,0,0,216,51c.79-.26,1.6-.48,2.37-.8a22.41,22.41,0,0,0,8.4-6.33c.94-1.09,1.76-2.28,2.61-3.44a30.46,30.46,0,0,0,2.52-4.3,55.86,55.86,0,0,0,4.72-14,1.43,1.43,0,0,0,0-.58,5.14,5.14,0,0,0-1-2.17,4.12,4.12,0,0,0-1.26-1.05.62.62,0,0,0-.05.11c0,.1,0,.21,0,.31a59.8,59.8,0,0,1-3.69,14,47.15,47.15,0,0,1-5.15,9.72,28.69,28.69,0,0,1-4.84,5.46,16.67,16.67,0,0,1-4.89,3ZM191.93,16.92a30.67,30.67,0,0,1,1.56-8.48c-.24,1.35-.54,2.69-.8,4a28,28,0,0,0-.47,4.08.65.65,0,0,0,.23-.18c.44-.5.89-1,1.31-1.51a2,2,0,0,0,.34-.62c.33-1,.63-2,1-2.93a.53.53,0,0,1,.1-.14c-.13,1-.58,1.93-.71,2.94a6.19,6.19,0,0,0,.6-.51,5.93,5.93,0,0,0,1.63-2.42c.32-.87.75-1.69,1.13-2.53l.16-.35a1.46,1.46,0,0,0-1.32-.73,5.37,5.37,0,0,1-2.24-.7c-.35-.21-.7-.43-1-.66a3.9,3.9,0,0,0-4.52,0,6.52,6.52,0,0,0-2.69,4.51s0,.05,0,.12a5.37,5.37,0,0,1,2.54,1.21,8.66,8.66,0,0,1,.53-2L189,12.32a11.29,11.29,0,0,1,.9,1.21c.42.75.79,1.53,1.15,2.32A2.75,2.75,0,0,0,191.93,16.92Zm-2.31,27.89a3,3,0,0,0-.17-.26A18.74,18.74,0,0,1,187,40.48a40.89,40.89,0,0,1-2.82-9A85.11,85.11,0,0,1,182.6,13a2.61,2.61,0,0,0-.24-1.18A4.86,4.86,0,0,0,181,10c-.64-.49-1.11-.35-1.42.4a2,2,0,0,0-.17.56,13.68,13.68,0,0,0-.08,1.59,25.35,25.35,0,0,0,.52,4c.36,1.89.71,3.78,1.06,5.68.63,3.37,1.23,6.74,1.9,10.1a33.42,33.42,0,0,0,1.92,6.39A14.17,14.17,0,0,0,187.46,43,10.25,10.25,0,0,0,189.62,44.81Zm18,6.46v.09H208a23,23,0,0,0,3.9-.61,15.94,15.94,0,0,0,9.94-7,25.54,25.54,0,0,0,3-6.28,56.37,56.37,0,0,0,2.75-15.76,22,22,0,0,0-.37-4.71c0-.13-.07-.26-.1-.4a.88.88,0,0,0-.1.42c0,1.18-.06,2.36-.14,3.54a49.32,49.32,0,0,1-2.74,13.63,34.84,34.84,0,0,1-4.26,8.29,24.39,24.39,0,0,1-4.08,4.5,19.46,19.46,0,0,1-7.65,4.12Zm25.11-6.64c-1.29.58-2.59,1.14-3.87,1.75a13,13,0,0,0-3.6,2.22l.45-.16c1.25-.42,2.49-.88,3.75-1.24a15,15,0,0,1,6.52-.52l.49.09v.1a16.66,16.66,0,0,0-6.31.4c-2.26.56-5.54,1.79-6,2.26l.51-.14c1-.26,2-.58,3.09-.78a21.81,21.81,0,0,1,13.31,1.33c.58.26,1.17.51,1.77.72a4.46,4.46,0,0,0,1.15.24,2.21,2.21,0,0,0,1.66-.71,20.21,20.21,0,0,0-5.21-2.39A16.24,16.24,0,0,1,245.83,50a1.42,1.42,0,0,0,.29-.95,1.16,1.16,0,0,0-.53-1.09,6.52,6.52,0,0,0-4-1,11.87,11.87,0,0,1-1.22.08,3.85,3.85,0,0,1-2.37-.65c-.65-.45-1.32-.87-1.94-1.35a6.45,6.45,0,0,0-4.61-1.34,3.67,3.67,0,0,0-3,1.48,3.11,3.11,0,0,1-.3.34l-1.63,1.8A31.09,31.09,0,0,1,232.76,44.63Zm4.09-22.15h-.18c0,.15-.07.29-.09.44a55.66,55.66,0,0,1-2.51,8.81,44.29,44.29,0,0,1-4.58,9,30.54,30.54,0,0,1-6,6.73,18.4,18.4,0,0,1-9.82,4.25,1.06,1.06,0,0,0-.22.07,3.22,3.22,0,0,0,.84.29,7.77,7.77,0,0,0,3.38-.14,13.92,13.92,0,0,0,4.18-1.75A25.4,25.4,0,0,0,229.23,43a58.29,58.29,0,0,0,4.06-6.89,34.37,34.37,0,0,0,3.31-9.5,14,14,0,0,0,.24-3.62A4.05,4.05,0,0,1,236.86,22.48Zm-64.13,8a32.68,32.68,0,0,0,15.58,14.84.64.64,0,0,0-.18-.2,33.46,33.46,0,0,1-3.79-3.32c-.89-.92-1.79-1.84-2.62-2.82a32.08,32.08,0,0,1-4.62-7.35c-.07-.16-.16-.32-.21-.41-.72-.19-1.35-.38-2-.53s-1-.19-1.56-.26A3.51,3.51,0,0,0,172.73,30.47ZM191.3,47.21l0-.05a2.76,2.76,0,0,0-.26-.16c-1.46-.73-2.93-1.44-4.38-2.18a30.21,30.21,0,0,1-5-3.16,36.64,36.64,0,0,1-2.84-2.54c-.8-.78-1.56-1.6-2.3-2.43A25.66,25.66,0,0,1,172.8,31c-.07-.13-.14-.26-.22-.41a1.48,1.48,0,0,0-.23.11,1.36,1.36,0,0,0-.53,1.2,6.21,6.21,0,0,0,.54,2.52,15.71,15.71,0,0,0,3.63,5,25.41,25.41,0,0,0,4.45,3.37l.79.45.75.39a33.86,33.86,0,0,1-6.32-5.89.26.26,0,0,1,.15.08,34.61,34.61,0,0,0,4.62,4.28c.57.45,1.16.88,1.77,1.27a24.89,24.89,0,0,0,2.51,1.54A33.17,33.17,0,0,0,191,47.17Zm-7.77-9.45a62.52,62.52,0,0,1-2.08-8.3,3.84,3.84,0,0,0-3.39.91c-.3.25-.59.51-.89.77A36.25,36.25,0,0,0,182,39a37.4,37.4,0,0,0,6.78,6.26l-.15-.13a15,15,0,0,1-4.35-5.52,5.5,5.5,0,0,0-.5-.86,33.65,33.65,0,0,1-3.69-7c0-.1-.07-.21-.1-.32A51.6,51.6,0,0,0,183.53,37.76Zm61.19,9.1.06-.06a4.94,4.94,0,0,0-.63-.43c-.55-.26-1.1-.51-1.66-.73a3.54,3.54,0,0,1-1.53-1.09,7.82,7.82,0,0,0-3.32-2.47,8,8,0,0,0-6.32.29,11.05,11.05,0,0,0-1.21.71,1.55,1.55,0,0,0-.24.27l.31-.07a6.86,6.86,0,0,1,5,.47,18.88,18.88,0,0,1,2.21,1.43c1.81,1.27,1.93,1.31,4.13,1.16a6.27,6.27,0,0,1,2.17.15C244,46.6,244.36,46.74,244.72,46.86ZM188.39,5.78l.43-.24a4.37,4.37,0,0,1,4.7,0l.61.39a5.08,5.08,0,0,0,2.24,1,3,3,0,0,1,1.9.74h.07l1.3-2.06a2,2,0,0,0-1.73-1.09,3.08,3.08,0,0,1-1.72-.73A4.17,4.17,0,0,0,192,3,7.73,7.73,0,0,0,189.4,4.6,4.64,4.64,0,0,0,188.39,5.78Z"/><path class="cls-2" d="M201.34,38.48c0-.15-.05-.31-.07-.46-.17-2.3-.1-4.6,0-6.91a96.81,96.81,0,0,1,1.3-13.93,60.56,60.56,0,0,1,1.55-6.72.51.51,0,0,1,.1-.19c-.46,2.32-1,4.63-1.37,7s-.68,4.68-.88,7-.31,4.75-.38,7.13-.06,4.72-.09,7.08Z"/><path class="cls-3" d="M260.75,36.68c-.37,1.57-.75,3.13-1.1,4.7-.41,1.83-.8,3.67-1.17,5.51a20.4,20.4,0,0,0-.46,2.92c-.07,1.3-.21,2.58-.39,3.87a1.81,1.81,0,0,0,.08,1.38c.35-.19.68-.39,1-.56a4.14,4.14,0,0,1,2-.66,10,10,0,0,1,3.42.62,5.64,5.64,0,0,1,1.48.9,3.69,3.69,0,0,1,1.07,4.38A4.07,4.07,0,0,1,263,62.2a6.38,6.38,0,0,1-5.34-3.08c-.08-.13-.14-.35-.47-.19-.1,1.55-.23,3.14-.32,4.73-.06,1.12-.06,2.24-.13,3.35-.23,3.52-.33,7.06-.8,10.56a26.2,26.2,0,0,1-.73,4.75,5.44,5.44,0,0,0-.09,1.17c.37-.21.58-.35.81-.47a14.5,14.5,0,0,1,1.81-.86,4.4,4.4,0,0,1,4.65.76,12.6,12.6,0,0,0,1.05.82,3.1,3.1,0,0,1,1.26,3.18,6.12,6.12,0,0,1-1.85,3.63,3.53,3.53,0,0,1-1,.68c-2.24,1-4,.56-5.8-1a2.3,2.3,0,0,1-.48-.64,5.44,5.44,0,0,1-.82-2.25c0-.25,0-.56-.42-.66-.29,1-.65,2-.86,3.08A29.69,29.69,0,0,1,252,94.59c-.81,2.08-1.6,4.18-2.53,6.21-.64,1.38-1.14,2.81-1.77,4.19-.94,2.08-1.91,4.14-2.92,6.18-.59,1.2-1.28,2.35-2,3.5-.32.53-.76,1-1.1,1.51-1,1.45-1.9,2.92-2.85,4.38-.32.49-.64,1-.94,1.46-.11.18-.25.39,0,.6.61-.23,1.23-.49,1.86-.7a2.42,2.42,0,0,1,2.09.13,9,9,0,0,1,2.6,2.3,2.4,2.4,0,0,1,.08,3,15.85,15.85,0,0,1-1.49,1.88,3.6,3.6,0,0,1-2.94,1,1.86,1.86,0,0,1-.89-.24,4,4,0,0,1-1.86-2.2c-.21-.73-.51-1.43-.79-2.14-.06-.14-.2-.24-.42-.49-.27.62-.43,1.13-.64,1.61-.67,1.51-1.37,3-2,4.52a6.24,6.24,0,0,0-.58,2.3,14.33,14.33,0,0,1,1.55.07,8.14,8.14,0,0,1,1.94.44,13.55,13.55,0,0,1,3.28,2.09,3.2,3.2,0,0,1,1.22,3.45,6.6,6.6,0,0,1-.74,1.84,3.58,3.58,0,0,1-5.06.92,9.25,9.25,0,0,1-2.67-3.14,3.32,3.32,0,0,0-.88-1.29c-.28,1-.46,1.82-.63,2.69-.35,1.7-.79,3.4-1.05,5.12-.34,2.25-.54,4.53-.83,6.79-.16,1.28-.33,2.57-.55,3.84q-.62,3.7-1.3,7.4c-.22,1.23-.42,2.48-.76,3.68-.57,2-1.24,3.92-1.87,5.88-.1.3-.29.44-.61.29-.24-.57.07-1,.27-1.53a36.63,36.63,0,0,0,2.21-7.32c.3-1.76.65-3.52.94-5.28.38-2.25.77-4.49,1.09-6.75.25-1.77.3-3.57.58-5.33.34-2.16.81-4.3,1.24-6.45.31-1.58.65-3.15,1-4.73a.83.83,0,0,0-.31-.91,4.44,4.44,0,0,0-.79.31,18,18,0,0,1-4.38,1.66,3.9,3.9,0,0,1-.93.1,6.43,6.43,0,0,1-3.47-.86,2.47,2.47,0,0,1-1.16-1.08,14,14,0,0,1-.82-2.26,2.31,2.31,0,0,1,.41-1.9,6.11,6.11,0,0,1,4.32-2.68,11.82,11.82,0,0,1,5.19.31,3.42,3.42,0,0,1,2.83,2.87c0,.2.05.45.46.43.17-.42.34-.88.52-1.33a21,21,0,0,1,.95-2.22,44,44,0,0,0,2-4.55,3,3,0,0,1,.28-.6,36.75,36.75,0,0,1,2.08-3.28,4,4,0,0,0,.37-.71,10.34,10.34,0,0,1,.54-.91c.59-.85,1.17-1.69,1.79-2.51a33.57,33.57,0,0,0,3.35-5.49c1.27-2.57,2.39-5.21,3.57-7.82.06-.13,0-.31,0-.48a2.76,2.76,0,0,0-1.67.95,9.4,9.4,0,0,1-4.74,2.62,4.09,4.09,0,0,1-3.1-.45,3.54,3.54,0,0,1-1.12-5.33,5.27,5.27,0,0,1,2.58-1.85,10.08,10.08,0,0,1,5.3-.15,4.71,4.71,0,0,1,2.95,2.18c.15.23.2.64.71.53.17-.37.38-.76.55-1.17.91-2.29,1.8-4.59,2.72-6.87a23.07,23.07,0,0,0,1.24-4.39c.06-.31.15-.61.22-.91.45-2.05,1-4.09,1.33-6.16s.53-4.25.75-6.39c.12-1.15.18-2.32.24-3.47,0-.24.11-.55-.22-.69-.09,0-.19,0-.24.1a10.48,10.48,0,0,1-3,2.44,5.59,5.59,0,0,1-4.76.6A2.35,2.35,0,0,1,246,72.14a13.33,13.33,0,0,1-.26-2,3.36,3.36,0,0,1,1.85-3.31,9.45,9.45,0,0,1,4.67-1.06,2.72,2.72,0,0,1,2.33,1.09,21.05,21.05,0,0,0,1.52,1.66,6.42,6.42,0,0,0,.15-.81q.21-4.36.4-8.71a6.28,6.28,0,0,0-.26-3.08,1.45,1.45,0,0,0,.69-1.25c.17-2,.39-3.91.61-5.87.09-.79.22-1.57.35-2.47a2.1,2.1,0,0,0-.68.06c-.6.3-1.17.65-1.77,1a4.92,4.92,0,0,1-3.86.57,4,4,0,0,1-2.76-4.08,3.61,3.61,0,0,1,.78-1.69,4.36,4.36,0,0,1,4.14-2c.48.05.95.26,1.43.35a3.78,3.78,0,0,1,2.69,2l.61,1.06a2.31,2.31,0,0,0,.25-.45q.94-3.91,1.87-7.83a2.66,2.66,0,0,0,.06-.53,3.39,3.39,0,0,0-.05-.43,4.82,4.82,0,0,0-1.72.08,6.81,6.81,0,0,1-3.94-.39,3.46,3.46,0,0,1-2.26-2.93,4.25,4.25,0,0,1,3.95-4.83,2.43,2.43,0,0,1,1.68.35,5.41,5.41,0,0,1,2.45,3.4c.06.31.14.61.22.92l.15,1.37.27.12a22.69,22.69,0,0,0,1.29-3.36c.22-.68.47-1.35.75-2a5.86,5.86,0,0,0,.5-1.64,5.27,5.27,0,0,1-2.19-2.34,8.64,8.64,0,0,1-.66-2.73A5.06,5.06,0,0,1,263,15.72a5.32,5.32,0,0,1,5.72-1.12,4.19,4.19,0,0,1,2.18,4.9,13.75,13.75,0,0,1-2.05,3.58,4.87,4.87,0,0,1-1.9,1.43c-.58.24-1.15.51-1.71.78a1.82,1.82,0,0,0-1,1.06c-.35,1-.77,2-1.12,3-.27.79-.49,1.6-.78,2.54.38-.08.64-.11.88-.19a5.37,5.37,0,0,1,2.79-.1,6.3,6.3,0,0,1,2.92,1.29,5.77,5.77,0,0,1,1.36,5.93,5,5,0,0,1-2.16,2.47,2.64,2.64,0,0,1-2.8.23,6.32,6.32,0,0,1-2.3-2,14,14,0,0,1-1.6-2.95,4.9,4.9,0,0,0-.36-.62A5.14,5.14,0,0,0,260.75,36.68Zm-30.87,97.1c-.15-.19-.23-.36-.36-.44a7.26,7.26,0,0,0-2.16-1.06,1.75,1.75,0,0,1-.62-.25,1.23,1.23,0,0,1-.4-.48c-.07-.15.34-.21.67,0,1.12.55,2.24,1.12,3.36,1.66.35.17.69.45,1.12.19a1.17,1.17,0,0,0,0-.27c-.15-2.06-1-3.33-3.88-3.84-.48-.09-1-.13-1.46-.19a7.42,7.42,0,0,0-3.17.33,4.82,4.82,0,0,0-3,2.55,1.51,1.51,0,0,0-.21.48,3.75,3.75,0,0,0,1.39,3.45,5.49,5.49,0,0,0,5.21.8,23,23,0,0,0,4.16-1.83c.1-.05.16-.18.33-.39a17.34,17.34,0,0,1-2.22-.08c-.62-.1-1.23.49-2,0C227.77,133.79,228.84,134.1,229.88,133.78ZM263.38,20c.35,0,.29.19.29.36,0,.76,0,1.52,0,2.27a1.84,1.84,0,0,0,.61,1.41c.14-.43.23-.76.35-1.08.37-1.05.73-2.11,1.14-3.15a4.53,4.53,0,0,1,.66-1c.05-.07.21-.06.46-.12-.32.52-.58.91-.81,1.33a11.39,11.39,0,0,0-.64,1.32c-.18.46-.3.94-.44,1.41a2.83,2.83,0,0,0-.16,1.55c.56-.35.77-.9,1.18-1.25s.62-.86,1.22-1.12c0,.65-.54.82-.79,1.19s-.71.56-.71,1.16a4.48,4.48,0,0,0,2.51-1.2,9.15,9.15,0,0,0,2.33-4,2.42,2.42,0,0,0,0-1.19,3.92,3.92,0,0,0-5-3,5.36,5.36,0,0,0-3.17,2.1,4.46,4.46,0,0,0-.84,2.89,7.8,7.8,0,0,0,.76,3.1,1.93,1.93,0,0,0,1.16,1.12A9.83,9.83,0,0,1,263.38,20Zm2.34,14.69a3.45,3.45,0,0,1-2-.16A2.6,2.6,0,0,0,262,34.4c0,.2,0,.45.11.59.52.66,1.07,1.31,1.64,1.93.39.42.86.77,1.27,1.19a3,3,0,0,1,.31.77c-1.34-.8-2-2-3.16-2.77,0,.21-.12.36-.08.45a11,11,0,0,0,3.07,4,2.35,2.35,0,0,0,2.86.25,3.88,3.88,0,0,0,2.15-3.85,4.81,4.81,0,0,0-1.24-3.3,4,4,0,0,0-2.18-1.23,19.5,19.5,0,0,0-2-.3,3.7,3.7,0,0,0-2.52.71,3.58,3.58,0,0,0-.51.67C263,34,264.4,33.9,265.72,34.71Zm-10,52.19c-.3.25-.19.59-.08.83a7.92,7.92,0,0,0,1,1.76,4.36,4.36,0,0,0,5.79.93,4.82,4.82,0,0,0,1.71-2.67A2.87,2.87,0,0,0,263,84.19c-.62-.44-1.2-.93-1.83-1.35a2.11,2.11,0,0,0-1-.34,5.65,5.65,0,0,0-4.36,1.35s0,.08,0,.13a2.49,2.49,0,0,0,1.75.46c.58,0,1.16,0,1.74.08.14,0,.27.16.57.34a2.67,2.67,0,0,1-.62.18c-.67,0-1.34-.09-2-.11a2.13,2.13,0,0,0-.57.17,6.83,6.83,0,0,0,1.81,1.82,4.5,4.5,0,0,0,2.29.9c.16.41,0,.68-.3.6A5.9,5.9,0,0,1,257.6,87c-.45-.42-.92-.82-1.49-1.33-.11.88.44,1.37.68,2.09C256,87.78,256.11,87.05,255.68,86.89Zm-13.42,15.36a4.32,4.32,0,0,1,2.19-.92l1.85-.26c-.13-.6-.71-.67-1-1,0-.3.19-.31.38-.26.45.12.8.53,1.48.56a3,3,0,0,0-1.25-1.17,8.11,8.11,0,0,0-6.75,0,3.75,3.75,0,0,0-2,2.69,2.22,2.22,0,0,0,.32,1.67,9,9,0,0,0,.56.75,3,3,0,0,0,3.07,1.19,7.36,7.36,0,0,0,3.68-1.5c.82-.66,1.59-1.36,2.46-2.1a5.53,5.53,0,0,0-5,.88C242,102.6,242.08,102.4,242.26,102.25Zm11.21-31.43a8.11,8.11,0,0,0-1,.29c-.17-.19-.14-.37,0-.44.63-.21,1.27-.39,2-.61-.15-.14-.25-.31-.38-.35-.81-.25-1.62-.49-2.45-.68a2.81,2.81,0,0,0-2.31.39c-.09.07-.25.05-.49.09.09-.23.11-.42.21-.51a1.72,1.72,0,0,1,.6-.28,5.12,5.12,0,0,1,2.91,0,2.49,2.49,0,0,0,1.45.2c.09-.6-.63-.83-.64-1.37.15-.23.31-.13.42,0,.29.34.55.71.85,1,.1.11.29.14.73.35a9.84,9.84,0,0,0-.67-1c-.32-.37-.69-.7-1-1a1.94,1.94,0,0,0-1.21-.52,7.69,7.69,0,0,0-4.78,1A2.49,2.49,0,0,0,246.28,70c.07.57.09,1.16.2,1.73a2.09,2.09,0,0,0,1.65,1.74,5,5,0,0,0,2.77,0A10.55,10.55,0,0,0,254.79,71l-.13-.26A11.62,11.62,0,0,0,253.46,70.82Zm-18,65.14c.23.13.47.24.7.38,0,0,.05.17,0,.24a.29.29,0,0,1-.2.15.63.63,0,0,1-.38,0c-.35-.2-.68-.44-1-.66s-.51-.36-.78-.52a6.33,6.33,0,0,0-.6-.27c0,.26,0,.44.06.54.37.51.77,1,1.14,1.49a6.91,6.91,0,0,1,.57.9c0,.08-.05.22-.1.4-.52-.18-.61-.68-.89-1s-.55-.71-.81-1.07-.5-.72-.77-1.11a.9.9,0,0,0-.26,1,9.52,9.52,0,0,0,3.06,5.38,3.07,3.07,0,0,0,2.61.82,2.63,2.63,0,0,0,2-1.48c.94-1.95.8-3.86-1.2-5-.42-.24-.79-.59-1.21-.85a5.58,5.58,0,0,0-4.15-.94A7,7,0,0,0,235.42,136Zm23.71-79.69c.48-.08,1-.18,1.4-.27.17.25.11.4-.08.48s-.55.21-.82.31c.12.38.4.42.64.51.83.32,1.67.63,2.5,1,.24.1.5.22.34.66-1.44-.52-2.77-1.4-4.34-1.53,0,0-.11.12-.18.2.19.79,1.42.84,1.33,1.83,0,0-.07.05-.13.1l-1.27-1.26c-.37.2-.22.43-.14.61a4.69,4.69,0,0,0,1.55,1.63,4.86,4.86,0,0,0,5.29.4,2.88,2.88,0,0,0,1.38-3,3.4,3.4,0,0,0-2-2.79,5.06,5.06,0,0,0-1.14-.37c-.74-.15-1.5-.27-2.25-.36a3.3,3.3,0,0,0-3.42,1.84C258.2,56.58,258.68,56.34,259.13,56.27ZM257.4,42.74A3.33,3.33,0,0,0,255,41.18c-.4,0-.77-.23-1.17-.29a3.25,3.25,0,0,0-3,.85c-.3.31-.72.47-.93.93a3.5,3.5,0,0,0,.5,3.85,2.22,2.22,0,0,0,.75.54,4.25,4.25,0,0,0,3.64,0c.72-.36,1.41-.78,2.1-1.18.06,0,.08-.15.14-.28a3.26,3.26,0,0,0-2.79-.33c.3-.72.3-.72,2.9-.42-.05-.13-.07-.3-.15-.37-1-.74-1.85-1.71-3.13-2a.51.51,0,0,1-.23-.12c-.05-.05-.11-.18-.09-.21s.19-.19.29-.19a1.22,1.22,0,0,1,.5.17c.58.34,1.15.68,1.71,1s1.17.79,1.85,1.24A2.47,2.47,0,0,0,257.4,42.74Zm-.18-10.59a.28.28,0,0,1,.44-.16,4,4,0,0,0,1.84.64c.11-.41-.19-.61-.33-.87s-.31-.44-.44-.67-.48-.45-.23-.86c.55.15.56.74.85,1.1s.51.82,1,1c.35-.34.24-.78.22-1.15a4.72,4.72,0,0,0-2.65-4.06,2.71,2.71,0,0,0-2.46.1,3.42,3.42,0,0,0-2.19,3.5,3,3,0,0,0,1.45,2.44,5.15,5.15,0,0,0,3.19.77c.51,0,1-.16,1.54-.24C258.67,33.08,257.72,33,257.22,32.15Zm-18.11,94.1c-.38-.22-.72-.52-1.08-.78-.17-.12-.36-.23-.67-.43a3.36,3.36,0,0,0,0,.62c.18.69.41,1.36.62,2a2.79,2.79,0,0,0,2.13,2,2.88,2.88,0,0,0,2.59-.8,7.85,7.85,0,0,0,1.33-1.67,2.32,2.32,0,0,0-.42-2.83c-.62-.58-1.27-1.12-1.95-1.64a1.91,1.91,0,0,0-1.77-.33,5.34,5.34,0,0,0-2.46,1.32c1,.34,1.79-.47,2.89-.24-.82.59-1.73.48-2.37,1,.38.8,1.3.94,1.85,1.71C239.48,126.26,239.25,126.33,239.11,126.25Z"/><path class="cls-3" d="M153.54,41.45a5,5,0,0,0-.45.57,14.18,14.18,0,0,1-2,2.71,6.39,6.39,0,0,1-2.6,1.67,2.67,2.67,0,0,1-2.77-.64,5,5,0,0,1-1.8-2.79,5.83,5.83,0,0,1,2.23-5.73,6.37,6.37,0,0,1,3.11-.86,5.43,5.43,0,0,1,2.77.51c.23.11.48.18.86.32-.15-1-.25-1.83-.41-2.66-.2-1.07-.47-2.12-.67-3.19a1.84,1.84,0,0,0-.81-1.2c-.52-.36-1.05-.71-1.6-1a4.93,4.93,0,0,1-1.7-1.71,13.91,13.91,0,0,1-1.53-3.89A4.23,4.23,0,0,1,149,19a5.38,5.38,0,0,1,5.56,2,5.12,5.12,0,0,1,1.13,4.94,8.73,8.73,0,0,1-1.06,2.63,5.33,5.33,0,0,1-2.53,2,5.92,5.92,0,0,0,.26,1.71c.18.7.33,1.41.45,2.12a22.94,22.94,0,0,0,.8,3.55l.29-.08.35-1.35c.12-.29.24-.59.35-.88a5.47,5.47,0,0,1,2.95-3,2.46,2.46,0,0,1,1.73-.11,4.3,4.3,0,0,1,3.24,5.41,3.5,3.5,0,0,1-2.69,2.6,6.88,6.88,0,0,1-4-.19,4.88,4.88,0,0,0-1.71-.33,3.43,3.43,0,0,0-.12.42,2.69,2.69,0,0,0,0,.54q.36,4.06.72,8.11a2.34,2.34,0,0,0,.18.48l.76-1a3.82,3.82,0,0,1,3-1.63c.5,0,1-.15,1.48-.14A4.41,4.41,0,0,1,164,49.32a3.65,3.65,0,0,1,.53,1.81,4,4,0,0,1-3.36,3.68,5,5,0,0,1-3.78-1.13c-.55-.4-1.07-.84-1.63-1.22a2.13,2.13,0,0,0-.67-.16c0,.91,0,1.72,0,2.52-.07,2-.14,4-.25,6a1.46,1.46,0,0,0,.51,1.35,6.35,6.35,0,0,0-.71,3q-.45,4.39-.87,8.77a6.49,6.49,0,0,0,0,.83,21.29,21.29,0,0,0,1.76-1.44,2.75,2.75,0,0,1,2.49-.75,9.55,9.55,0,0,1,4.51,1.74,3.4,3.4,0,0,1,1.36,3.58,13.48,13.48,0,0,1-.56,2,2.37,2.37,0,0,1-2,1.6,5.66,5.66,0,0,1-4.68-1.3A10.6,10.6,0,0,1,154,77.27c0-.06-.14-.09-.22-.13-.35.09-.3.41-.32.66-.11,1.17-.22,2.34-.27,3.51-.09,2.17-.23,4.34-.18,6.5s.28,4.24.43,6.36c0,.32.07.63.09.95a23.33,23.33,0,0,0,.6,4.57c.58,2.42,1.14,4.85,1.71,7.28.1.44.26.86.38,1.25.49.18.6-.21.79-.42A4.76,4.76,0,0,1,160.3,106a10.19,10.19,0,0,1,5.29.92,5.32,5.32,0,0,1,2.31,2.23,3.58,3.58,0,0,1-1.9,5.16,4.13,4.13,0,0,1-3.17,0,9.51,9.51,0,0,1-4.36-3.32,2.79,2.79,0,0,0-1.53-1.19c0,.17-.14.34-.1.47.79,2.79,1.54,5.59,2.43,8.35a34,34,0,0,0,2.55,6c.5.91,1,1.85,1.42,2.78a10.46,10.46,0,0,1,.4,1,4.08,4.08,0,0,0,.27.76,37.16,37.16,0,0,1,1.6,3.58,3,3,0,0,1,.2.64,44.51,44.51,0,0,0,1.32,4.85,21.24,21.24,0,0,1,.62,2.36c.12.48.23,1,.33,1.41.4.08.47-.17.52-.37a3.46,3.46,0,0,1,3.26-2.46,12,12,0,0,1,5.24.45,6.17,6.17,0,0,1,3.93,3.31,2.33,2.33,0,0,1,.14,2,14.11,14.11,0,0,1-1.15,2.14,2.49,2.49,0,0,1-1.32.91,6.5,6.5,0,0,1-3.6.36,3.94,3.94,0,0,1-.91-.24,18.22,18.22,0,0,1-4.14-2.3,4.49,4.49,0,0,0-.74-.43.84.84,0,0,0-.45.87c.08,1.62.19,3.25.28,4.87.11,2.21.27,4.42.29,6.63,0,1.8-.19,3.61-.2,5.42,0,2.3,0,4.61.1,6.91,0,1.81.13,3.61.17,5.42a37,37,0,0,0,1.14,7.64c.12.52.37,1,0,1.57-.35.1-.52-.06-.57-.38-.35-2.05-.74-4.1-1-6.16-.17-1.25-.18-2.53-.22-3.79q-.13-3.8-.22-7.6c0-1.31,0-2.62,0-3.93,0-2.3.18-4.61.17-6.91,0-1.76-.2-3.52-.3-5.27-.05-.89-.1-1.79-.24-2.78a3.36,3.36,0,0,0-1.07,1.17A9.35,9.35,0,0,1,164,151.8a3.62,3.62,0,0,1-4.93-1.66,6.68,6.68,0,0,1-.47-2,3.24,3.24,0,0,1,1.72-3.28,13.7,13.7,0,0,1,3.58-1.61,8.23,8.23,0,0,1,2-.16,14.49,14.49,0,0,1,1.56.16,6.31,6.31,0,0,0-.25-2.38c-.43-1.61-.91-3.21-1.36-4.82-.14-.51-.22-1-.4-1.7-.26.22-.42.3-.5.43-.38.67-.78,1.33-1.11,2a4.08,4.08,0,0,1-2.18,1.93,1.88,1.88,0,0,1-.93.11,3.65,3.65,0,0,1-2.79-1.47,16,16,0,0,1-1.22-2.1,2.42,2.42,0,0,1,.52-3,9.08,9.08,0,0,1,2.94-1.92,2.44,2.44,0,0,1,2.11.17c.6.31,1.18.65,1.75,1,.31-.17.2-.41.12-.6-.23-.54-.48-1.07-.73-1.6-.73-1.6-1.46-3.21-2.21-4.8-.27-.57-.64-1.09-.88-1.67-.52-1.25-1-2.51-1.46-3.79-.71-2.19-1.38-4.4-2-6.62-.42-1.47-.72-3-1.16-4.45-.64-2.17-1.12-4.38-1.63-6.59a30,30,0,0,1-.9-5.06c-.06-1.07-.27-2.14-.41-3.21-.43,0-.46.36-.52.6a5.5,5.5,0,0,1-1.15,2.13,2.32,2.32,0,0,1-.57.57c-2,1.29-3.86,1.51-5.94.15a3.57,3.57,0,0,1-.88-.82,6.19,6.19,0,0,1-1.32-3.9,3.14,3.14,0,0,1,1.72-3,12.74,12.74,0,0,0,1.18-.67,4.45,4.45,0,0,1,4.77-.08,14.66,14.66,0,0,1,1.68,1.13c.21.15.41.32.74.59a5.5,5.5,0,0,0,.08-1.19,26.49,26.49,0,0,1,0-4.86c0-3.57.46-7.13.75-10.68.09-1.13.26-2.25.36-3.37.14-1.61.26-3.22.38-4.78-.31-.2-.4,0-.5.12a6.46,6.46,0,0,1-5.8,2.3,4.12,4.12,0,0,1-3.32-3,3.73,3.73,0,0,1,1.71-4.22,5.71,5.71,0,0,1,1.61-.69,10.13,10.13,0,0,1,3.51-.12,4.19,4.19,0,0,1,1.93,1c.32.22.62.47.94.71a1.83,1.83,0,0,0,.28-1.36c0-1.31,0-2.62.17-3.93a20.63,20.63,0,0,0,0-3c-.1-1.9-.23-3.79-.37-5.69-.12-1.62-.26-3.24-.41-4.87A5.2,5.2,0,0,0,153.54,41.45Zm20,103.47c-.85.39-1.37-.29-2-.28a17.54,17.54,0,0,1-2.24-.25c.15.23.19.37.28.43a23.21,23.21,0,0,0,3.9,2.44,5.55,5.55,0,0,0,5.33,0,3.8,3.8,0,0,0,1.89-3.25,1.53,1.53,0,0,0-.14-.51,4.88,4.88,0,0,0-2.58-3,7.51,7.51,0,0,0-3.13-.79c-.49,0-1,0-1.49,0-3,.09-4,1.23-4.45,3.27a1.18,1.18,0,0,0,0,.27c.39.32.77.09,1.15,0,1.21-.38,2.41-.78,3.61-1.17.35-.11.75,0,.66.14a1.24,1.24,0,0,1-.47.42,1.77,1.77,0,0,1-.65.16,7.34,7.34,0,0,0-2.31.74c-.15.06-.25.22-.43.39C171.42,144.35,172.54,144.2,173.51,144.93ZM152.83,29.19a2,2,0,0,0,1.32-1,7.88,7.88,0,0,0,1.22-3,4.51,4.51,0,0,0-.42-3,5.42,5.42,0,0,0-2.86-2.57A4,4,0,0,0,146.66,22a2.44,2.44,0,0,0-.16,1.19,9.25,9.25,0,0,0,1.74,4.36,4.53,4.53,0,0,0,2.33,1.57c.09-.6-.36-.87-.54-1.26s-.71-.66-.61-1.31c.57.34.72.9,1.06,1.29s.49,1,1,1.43a2.86,2.86,0,0,0,.07-1.57c-.07-.49-.12-1-.23-1.47a11.51,11.51,0,0,0-.45-1.41c-.17-.45-.37-.88-.61-1.45.24.1.4.11.45.19a4.58,4.58,0,0,1,.51,1.1c.26,1.1.46,2.21.68,3.32.07.34.11.68.19,1.13a1.86,1.86,0,0,0,.82-1.32c.15-.75.23-1.51.34-2.27,0-.16,0-.37.34-.31A9.94,9.94,0,0,1,152.83,29.19Zm.45,9.67a3.62,3.62,0,0,0-.42-.74A3.74,3.74,0,0,0,150.44,37a19.71,19.71,0,0,0-2,0,4.07,4.07,0,0,0-2.36.91,4.86,4.86,0,0,0-1.73,3.12,3.92,3.92,0,0,0,1.58,4.17,2.37,2.37,0,0,0,2.9.17,11.07,11.07,0,0,0,3.66-3.55c.05-.08,0-.24,0-.46-1.25.62-2.11,1.71-3.57,2.31.22-.38.28-.61.42-.73.46-.36,1-.64,1.44-1,.67-.54,1.31-1.11,1.93-1.69.13-.12.14-.38.2-.57a2.63,2.63,0,0,0-1.8-.11,3.49,3.49,0,0,1-2-.13C150.52,38.89,151.91,39.24,153.28,38.86Zm-3,55c.34-.69,1-1.09,1-2-.65.43-1.18.75-1.69,1.11a6,6,0,0,1-3,1c-.36,0-.43-.25-.21-.64a4.55,4.55,0,0,0,2.42-.56,6.9,6.9,0,0,0,2.08-1.55,2.15,2.15,0,0,0-.55-.25c-.67-.08-1.35-.11-2-.18a2.7,2.7,0,0,1-.6-.28c.32-.14.48-.26.62-.26.58,0,1.17.1,1.75.18a2.52,2.52,0,0,0,1.82-.21s0-.11,0-.13a5.71,5.71,0,0,0-4.16-2,2.13,2.13,0,0,0-1,.19c-.7.32-1.35.74-2,1.08a2.91,2.91,0,0,0-1.61,3.4,4.87,4.87,0,0,0,1.31,2.92,4.41,4.41,0,0,0,5.93-.08A8,8,0,0,0,151.43,94c.15-.23.32-.55,0-.85C151,93.28,151,94,150.26,93.85Zm12.36,17.22a5.59,5.59,0,0,0-4.88-1.61c.76.87,1.43,1.68,2.16,2.46a7.44,7.44,0,0,0,3.46,2,3,3,0,0,0,3.24-.74,9.11,9.11,0,0,0,.67-.66,2.24,2.24,0,0,0,.56-1.62,3.79,3.79,0,0,0-1.63-3,8.2,8.2,0,0,0-6.75-1,3,3,0,0,0-1.42,1c.69.07,1.1-.28,1.57-.34.2,0,.35,0,.34.32-.33.28-.93.27-1.15.85l1.82.53a4.37,4.37,0,0,1,2.06,1.24C162.82,110.7,162.91,110.91,162.61,111.07Zm-7.75-33.9-.16.24a10.66,10.66,0,0,0,3.53,3,5,5,0,0,0,2.77.4,2.11,2.11,0,0,0,1.9-1.5c.19-.55.3-1.13.45-1.7a2.52,2.52,0,0,0-1-2.86,7.78,7.78,0,0,0-4.65-1.66,2,2,0,0,0-1.29.35c-.4.3-.81.58-1.19.9a10,10,0,0,0-.81.9,3.2,3.2,0,0,0,.78-.24c.35-.29.66-.62,1-.91.14-.12.3-.2.42.06-.09.54-.85.66-.84,1.28a2.52,2.52,0,0,0,1.48,0,5.17,5.17,0,0,1,2.91.44,1.74,1.74,0,0,1,.56.37c.09.1.08.29.14.54-.24-.08-.4-.09-.48-.17a2.84,2.84,0,0,0-2.25-.73c-.85.07-1.7.19-2.55.32-.14,0-.26.18-.43.3.7.33,1.31.6,1.91.9.18.09.19.28,0,.44a8.2,8.2,0,0,0-1-.44A11.75,11.75,0,0,0,154.87,77.17ZM167,144a5.64,5.64,0,0,0-4.29.33c-.45.2-.87.49-1.33.67-2.16.85-2.59,2.74-1.93,4.83a2.66,2.66,0,0,0,1.75,1.77,3.11,3.11,0,0,0,2.73-.44,9.63,9.63,0,0,0,3.85-4.94.91.91,0,0,0-.11-1.05c-.32.34-.62.67-.93,1s-.62.66-1,1-.49.76-1,.86c0-.18-.09-.34,0-.41a7,7,0,0,1,.7-.82c.45-.45.92-.87,1.36-1.32.09-.09.08-.28.14-.54a6.4,6.4,0,0,0-.64.18c-.29.12-.57.27-.85.41s-.73.36-1.11.51a.64.64,0,0,1-.39,0,.3.3,0,0,1-.18-.18c0-.07,0-.22.05-.24.24-.11.5-.19.75-.28A7.12,7.12,0,0,0,167,144ZM153.91,62.22a3.33,3.33,0,0,0-3.15-2.34c-.77,0-1.54,0-2.3,0a5.12,5.12,0,0,0-1.2.21,3.44,3.44,0,0,0-2.46,2.49,2.92,2.92,0,0,0,.94,3.19,4.92,4.92,0,0,0,5.35.37,4.74,4.74,0,0,0,1.79-1.41c.11-.17.29-.37-.05-.63l-1.46,1.08c-.06-.06-.11-.09-.11-.12.05-1,1.29-.88,1.6-1.64-.06-.1-.1-.23-.15-.23-1.59-.1-3,.58-4.57.89-.1-.46.18-.55.43-.61.88-.21,1.76-.4,2.65-.6.26-.06.55-.05.72-.42-.26-.14-.52-.27-.78-.43s-.22-.26,0-.49c.43.15.89.33,1.36.48S153.4,62.48,153.91,62.22Zm1.55-11.82c.75-.36,1.38-.68,2-1s1.24-.54,1.87-.79a1.23,1.23,0,0,1,.53-.09c.09,0,.19.13.26.23s-.06.15-.12.19a.51.51,0,0,1-.25.09c-1.33.11-2.32.95-3.43,1.55-.1.05-.13.22-.21.34,2.64.08,2.64.08,2.84.84a3.3,3.3,0,0,0-2.84-.07c0,.14,0,.25.1.3.64.5,1.27,1,1.93,1.49a4.29,4.29,0,0,0,3.64.5,2.24,2.24,0,0,0,.83-.43,3.54,3.54,0,0,0,1.06-3.78c-.15-.49-.54-.71-.8-1.06a3.29,3.29,0,0,0-2.85-1.29c-.4,0-.81.13-1.21.12a3.37,3.37,0,0,0-2.61,1.21A2.5,2.5,0,0,0,155.46,50.39Zm0-11c.5.16,1,.35,1.5.46a5.21,5.21,0,0,0,3.31-.3,3.06,3.06,0,0,0,1.81-2.23,3.46,3.46,0,0,0-1.67-3.82,2.74,2.74,0,0,0-2.44-.46,4.77,4.77,0,0,0-3.25,3.67c-.08.37-.25.79,0,1.18.54-.12.81-.55,1.16-.87s.43-.9,1-1c.19.45-.18.6-.35.83s-.38.39-.54.61-.5.39-.45.82a4,4,0,0,0,1.94-.37.28.28,0,0,1,.41.23C157.34,38.93,156.37,38.91,155.48,39.42Zm6.12,95.48c.66-.69,1.61-.7,2.1-1.44-.57-.64-1.49-.66-2.22-1.37,1.13-.07,1.85.86,2.85.66a5.4,5.4,0,0,0-2.27-1.68,1.93,1.93,0,0,0-1.82.08c-.75.42-1.48.87-2.19,1.36a2.34,2.34,0,0,0-.84,2.77,7.94,7.94,0,0,0,1.08,1.87,2.91,2.91,0,0,0,2.48,1.18,2.83,2.83,0,0,0,2.43-1.72c.3-.65.63-1.29.91-1.95a3.4,3.4,0,0,0,.11-.61c-.34.16-.54.24-.73.34-.4.21-.78.45-1.2.62C162.14,135.06,161.92,134.95,161.6,134.9Z"/><path class="cls-3" d="M65.87,70.66c-.22.14-.45.26-.67.41a4,4,0,0,1-.86.62.16.16,0,0,0-.07.13.2.2,0,0,0,.14.11.3.3,0,0,0,.2-.06c.16-.13.29-.28.45-.41s.42-.29.61-.44a2.82,2.82,0,0,0,.27-.28Z"/><path class="cls-3" d="M64.11,64.8c-.12-.19-.23-.39-.35-.57s-.11-.07-.17-.1-.06.14,0,.2a1.87,1.87,0,0,0,.19.39,1.58,1.58,0,0,0,.22.23Z"/><path class="cls-3" d="M70.34,57.65a5.66,5.66,0,0,0-.35.71,16,16,0,0,1-1.53,3.33,8.3,8.3,0,0,1-2.4,2.56,3.29,3.29,0,0,1-3.16.42,4.43,4.43,0,0,1-2.64-2,5.77,5.77,0,0,1,1-6.27,8.69,8.69,0,0,1,3.15-2,6.91,6.91,0,0,1,3.13-.55c.28,0,.57,0,1,0-.41-.88-.72-1.64-1.1-2.37-.48-.93-1-1.84-1.52-2.77a1.64,1.64,0,0,0-1.18-.83c-.65-.15-1.31-.28-2-.39a4.73,4.73,0,0,1-2.26-1,11.52,11.52,0,0,1-2.62-3.12c-1-1.55.22-4.41,2-5.44a6.36,6.36,0,0,1,6.5-.22A4.29,4.29,0,0,1,68.84,42a8.64,8.64,0,0,1-.5,2.89,6.68,6.68,0,0,1-2.24,2.86,4.86,4.86,0,0,0,.71,1.53,20.07,20.07,0,0,1,1,1.84,18.73,18.73,0,0,0,1.74,3.07l.29-.18,0-1.41c.05-.32.12-.65.16-1a6.51,6.51,0,0,1,2.44-4,3.3,3.3,0,0,1,1.84-.75c3.34-.41,5,1.84,4.85,3.92a4.19,4.19,0,0,1-2.26,3.47,9.08,9.08,0,0,1-4.38,1.32,6.19,6.19,0,0,0-1.93.32,3.19,3.19,0,0,0,0,.45,2.29,2.29,0,0,0,.11.52q1.39,3.71,2.79,7.42c0,.12.16.2.32.39l.59-1.21a5,5,0,0,1,2.83-2.67c.53-.2,1-.51,1.57-.68a4.67,4.67,0,0,1,4.82,1,3,3,0,0,1,1,1.52c.41,1.71-.88,3.84-2.73,4.75a6,6,0,0,1-4.37.34c-.69-.17-1.37-.39-2.07-.55a2.65,2.65,0,0,0-.77.1c.22.87.44,1.62.61,2.39.42,1.91.84,3.82,1.2,5.75a1.24,1.24,0,0,0,.88,1.09,5.84,5.84,0,0,0,0,3.15Q78,84,78.64,88.37a5.42,5.42,0,0,0,.24.78c.58-.74,1.13-1.35,1.55-2a3.7,3.7,0,0,1,2.51-1.64,11.3,11.3,0,0,1,5.32,0,2.9,2.9,0,0,1,2.37,2.89,12.64,12.64,0,0,1-.12,2.06,2.94,2.94,0,0,1-1.77,2.27,6.92,6.92,0,0,1-5.38.52,10,10,0,0,1-3.58-1.74c-.06,0-.17,0-.27,0-.35.21-.22.5-.18.74.17,1.15.34,2.3.58,3.43.44,2.09.83,4.2,1.41,6.24s1.35,3.92,2,5.87c.1.29.24.57.33.87a19.17,19.17,0,0,0,1.78,4.12c1.23,2.08,2.43,4.18,3.66,6.26.22.38.49.72.72,1,.58,0,.6-.43.75-.7a6.27,6.27,0,0,1,3.1-2.88,13,13,0,0,1,5.95-1.1,5.17,5.17,0,0,1,3.05,1.25,3.09,3.09,0,0,1,1,2.91,4.45,4.45,0,0,1-1.78,2.7,5.49,5.49,0,0,1-3.43,1.18,9.8,9.8,0,0,1-5.54-1.52,2.85,2.85,0,0,0-2-.56c0,.17-.06.37,0,.49,1.55,2.35,3,4.73,4.69,7a28.23,28.23,0,0,0,4.24,4.72c.77.68,1.5,1.39,2.23,2.1a8.67,8.67,0,0,1,.68.79,3.35,3.35,0,0,0,.48.62,31,31,0,0,1,2.62,2.8,2.5,2.5,0,0,1,.37.54,36.35,36.35,0,0,0,2.63,4.1,17.34,17.34,0,0,1,1.26,2c.25.41.48.83.71,1.21a.48.48,0,0,0,.47-.54c.09-1.74,1.38-2.83,2.91-3.55a15.67,15.67,0,0,1,5.78-1.53,6.21,6.21,0,0,1,5.07,1.68,2,2,0,0,1,.63,1.81,14.78,14.78,0,0,1-.72,2.46,3.2,3.2,0,0,1-1.2,1.35,8.8,8.8,0,0,1-3.8,1.68,4.9,4.9,0,0,1-1,.11,20.2,20.2,0,0,1-5.05-.64,5,5,0,0,0-.91-.13.87.87,0,0,0-.27,1c.49,1.51,1,3,1.51,4.52.67,2.05,1.39,4.09,2,6.18.47,1.71.69,3.5,1.13,5.21.55,2.19,1.19,4.36,1.82,6.52.49,1.7,1,3.38,1.53,5.07a30.37,30.37,0,0,0,3.12,6.82c.26.45.65.85.44,1.47-.35.23-.58.13-.71-.15-.88-1.82-1.81-3.61-2.62-5.46a32.44,32.44,0,0,1-1.18-3.52q-1.09-3.55-2.12-7.12c-.35-1.23-.66-2.48-1-3.73-.52-2.2-.94-4.44-1.53-6.62-.45-1.66-1.09-3.26-1.64-4.89a26.88,26.88,0,0,0-1-2.55,4,4,0,0,0-.87,1.51,11.57,11.57,0,0,1-2.71,3.78c-1.7,1.65-4.58,1.62-5.75.27a5.46,5.46,0,0,1-1-1.67,3.38,3.38,0,0,1,1.05-3.75,18.46,18.46,0,0,1,3.48-2.87,11.16,11.16,0,0,1,2.14-.9c.53-.19,1.08-.28,1.73-.43a5.22,5.22,0,0,0-.86-2.17c-.86-1.37-1.78-2.71-2.67-4.07-.28-.43-.5-.9-.86-1.46a3.4,3.4,0,0,0-.43.6c-.25.78-.52,1.55-.69,2.33a5,5,0,0,1-1.88,2.65,2.56,2.56,0,0,1-1,.45A4.07,4.07,0,0,1,98.9,147a13.78,13.78,0,0,1-1.84-1.54,2.22,2.22,0,0,1-.18-3,11.78,11.78,0,0,1,2.7-2.92,3.18,3.18,0,0,1,2.32-.62c.72.07,1.44.18,2.14.27.29-.28.11-.46,0-.61-.38-.43-.79-.83-1.19-1.25-1.19-1.24-2.38-2.49-3.58-3.73-.43-.44-1-.8-1.37-1.26-.87-1-1.74-2-2.52-3.05-1.32-1.81-2.58-3.66-3.82-5.52-.82-1.24-1.52-2.56-2.36-3.79-1.23-1.82-2.3-3.74-3.39-5.64a24.55,24.55,0,0,1-2.23-4.46c-.33-1-.82-1.93-1.24-2.89a.66.66,0,0,0-.41.76,5.76,5.76,0,0,1-.71,2.45,2.8,2.8,0,0,1-.47.75c-1.89,2-3.8,2.87-6.4,2.36a3.5,3.5,0,0,1-1.16-.45,5.14,5.14,0,0,1-2.4-3.21,3.33,3.33,0,0,1,1.12-3.49c.38-.35.76-.69,1.11-1.07a5.86,5.86,0,0,1,5.14-1.85,15.58,15.58,0,0,1,2.1.44c.27.06.52.15,1,.28a4.73,4.73,0,0,0-.2-1.16,22.29,22.29,0,0,1-1.24-4.6c-.84-3.41-1.27-6.93-1.84-10.41-.18-1.1-.27-2.23-.44-3.34-.24-1.58-.52-3.15-.78-4.68-.39-.08-.43.16-.51.3a8.61,8.61,0,0,1-5.71,4.35c-1.29.36-3.54-.12-4.34-1.61a3.73,3.73,0,0,1,.8-4.65,7.71,7.71,0,0,1,1.58-1.25A13.65,13.65,0,0,1,72.3,75.5a4.75,4.75,0,0,1,2.32.19c.4.09.79.21,1.19.33a1.67,1.67,0,0,0,0-1.4A36.76,36.76,0,0,1,75,70.82,17.33,17.33,0,0,0,74.23,68c-.58-1.76-1.19-3.51-1.81-5.26-.53-1.5-1.09-3-1.65-4.46A4.25,4.25,0,0,0,70.34,57.65Zm47.27,90.69c-.82.69-1.55.24-2.24.49a22.9,22.9,0,0,1-2.48.6c.22.17.29.28.41.31a25.06,25.06,0,0,0,4.82.86,7.33,7.33,0,0,0,5.75-2,4,4,0,0,0,1.24-3.79c0-.16-.18-.29-.28-.43a4.56,4.56,0,0,0-3.53-1.86,9.34,9.34,0,0,0-3.58.42c-.54.17-1.08.33-1.61.53-3.19,1.19-4,2.66-4,4.76a1,1,0,0,0,.07.26c.5.16.86-.2,1.23-.45,1.21-.81,2.41-1.64,3.61-2.46.35-.24.81-.28.75-.11a1.53,1.53,0,0,1-.41.57,2.43,2.43,0,0,1-.67.39,10,10,0,0,0-2.32,1.57,2.36,2.36,0,0,0-.37.53C115.2,148.57,116.38,148,117.61,148.34ZM66.53,46.28a2.46,2.46,0,0,0,1.19-1.4,7.81,7.81,0,0,0,.58-3.29,3.74,3.74,0,0,0-1.2-2.7,5.37,5.37,0,0,0-3.73-1.36,5.12,5.12,0,0,0-5.31,4.19,2.16,2.16,0,0,0,.12,1.19,7.71,7.71,0,0,0,3,3.48,4.81,4.81,0,0,0,2.91.62c-.05-.6-.6-.7-.9-1s-.93-.36-1-1c.7.11,1,.58,1.47.83s.78.76,1.43,1a2.45,2.45,0,0,0-.31-1.52A13.81,13.81,0,0,0,64.15,44a9.44,9.44,0,0,0-.84-1.17c-.29-.36-.62-.7-1-1.14.29,0,.47,0,.53,0a3.84,3.84,0,0,1,.83.85c.55.94,1,1.92,1.55,2.89.15.3.29.6.48,1a2,2,0,0,0,.56-1.56c0-.77-.13-1.52-.2-2.28,0-.16-.1-.35.29-.42A8.94,8.94,0,0,1,66.53,46.28Zm2.89,9a3.1,3.1,0,0,0-.64-.55,4.32,4.32,0,0,0-2.89-.12c-.74.19-1.46.51-2.19.77a5.5,5.5,0,0,0-2.32,1.75,5.12,5.12,0,0,0-1.1,3.61A3.35,3.35,0,0,0,63,64.1a3.05,3.05,0,0,0,3.18-.92,13.42,13.42,0,0,0,3.08-4.73c0-.1-.06-.22-.13-.43-1.2,1.06-1.86,2.41-3.29,3.53a3.2,3.2,0,0,1,.28-.85c.42-.51.91-1,1.31-1.49.59-.76,1.14-1.54,1.67-2.33.11-.17.05-.41.07-.62a3.45,3.45,0,0,0-2,.56,4.59,4.59,0,0,1-2.21.63C66.44,56.34,68,56.16,69.42,55.29Zm10.36,53.29c.2-.78.77-1.4.58-2.26-.6.65-1.09,1.15-1.55,1.68a8.1,8.1,0,0,1-3,2.11c-.38.16-.53-.08-.39-.53a6.2,6.2,0,0,0,2.48-1.44,8.79,8.79,0,0,0,1.86-2.25,2.49,2.49,0,0,0-.66,0c-.75.18-1.49.4-2.24.59a3.11,3.11,0,0,1-.71,0c.32-.25.45-.43.61-.48.64-.18,1.29-.34,1.94-.48a3.4,3.4,0,0,0,1.91-.88s0-.11,0-.12a6.5,6.5,0,0,0-5-.33,2.91,2.91,0,0,0-1.08.57c-.67.57-1.27,1.2-1.93,1.79a3,3,0,0,0-.9,3.82,4.11,4.11,0,0,0,2.15,2.28,5.71,5.71,0,0,0,6.4-2.29,9.08,9.08,0,0,0,.93-2c.11-.28.2-.64-.16-.82C80.47,107.75,80.64,108.46,79.78,108.58Zm17.64,11.72a6.69,6.69,0,0,0-5.69.29c1,.54,2,1.06,2.94,1.53a8.14,8.14,0,0,0,4.25.64,4,4,0,0,0,3.33-1.91c.18-.3.42-.58.56-.88a2.17,2.17,0,0,0,.2-1.75,3.29,3.29,0,0,0-2.51-2.22A10.47,10.47,0,0,0,93,117.56a3.85,3.85,0,0,0-1.3,1.47c.77-.19,1.12-.68,1.61-.91.21-.1.38-.12.45.17-.29.39-.94.6-1,1.23l2.1-.18a4.76,4.76,0,0,1,2.54.41C97.55,119.86,97.7,120,97.43,120.29ZM80.64,91l-.12.29a10.68,10.68,0,0,0,4.57,1.54,6.48,6.48,0,0,0,3.1-.66,2.62,2.62,0,0,0,1.69-2.13c.07-.59,0-1.19.07-1.78A2.15,2.15,0,0,0,88.11,86a9.29,9.29,0,0,0-5.44.17,2.66,2.66,0,0,0-1.3.81c-.36.43-.73.85-1.06,1.3a11.76,11.76,0,0,0-.66,1.16,4.37,4.37,0,0,0,.78-.52c.31-.4.56-.83.85-1.24.12-.17.28-.3.47-.11,0,.55-.75.94-.59,1.53a3.35,3.35,0,0,0,1.6-.54A6.65,6.65,0,0,1,86,87.86a1.86,1.86,0,0,1,.69.14c.12.06.16.25.28.46a1.92,1.92,0,0,1-.56,0,3.42,3.42,0,0,0-2.62.15c-.91.38-1.8.82-2.68,1.25-.15.07-.24.26-.4.45.84,0,1.57.08,2.29.14.22,0,.27.19.09.43A9.47,9.47,0,0,0,82,90.84C81.54,90.87,81.09,91,80.64,91Zm29.72,58.81a7.58,7.58,0,0,0-4.56,1.92c-.44.36-.82.79-1.27,1.14-2.13,1.62-2.12,3.57-.89,5.3a2.57,2.57,0,0,0,2.33,1,4.19,4.19,0,0,0,2.84-1.44,11,11,0,0,0,2.94-6.12c0-.33.09-.74-.38-1-.26.45-.5.87-.76,1.29s-.51.86-.81,1.26-.34.9-.9,1.21c-.07-.16-.19-.29-.15-.38a8.14,8.14,0,0,1,.56-1c.37-.59.78-1.17,1.15-1.76.08-.12,0-.3,0-.56-.31.19-.49.29-.65.41s-.55.47-.82.7-.7.61-1.07.9a.85.85,0,0,1-.42.13.28.28,0,0,1-.24-.11.25.25,0,0,1,0-.24c.24-.19.5-.37.75-.55A9.48,9.48,0,0,0,110.36,149.85ZM75.89,77.2a3.46,3.46,0,0,0-4-1c-.83.27-1.66.56-2.48.88a7,7,0,0,0-1.25.64,4.08,4.08,0,0,0-2,3.28,2.47,2.47,0,0,0,1.81,2.67A6.35,6.35,0,0,0,73.82,82a6,6,0,0,0,1.59-2c.07-.2.23-.46-.21-.58L73.89,81c-.07,0-.15,0-.15-.07-.19-1,1.18-1.32,1.32-2.15-.09-.07-.17-.18-.22-.16-1.75.5-3.15,1.69-4.72,2.55-.22-.4.06-.59.32-.74.9-.53,1.81-1,2.72-1.56.26-.15.58-.25.67-.66-.31,0-.63-.06-.95-.11s-.3-.17-.14-.46c.51,0,1,0,1.59-.06S75.4,77.65,75.89,77.2Zm-1.25-11.8c.72-.62,1.33-1.16,2-1.68s1.21-1,1.83-1.45A1.68,1.68,0,0,1,79,62a.48.48,0,0,1,.34.12s0,.16-.08.23a.7.7,0,0,1-.25.18c-1.41.6-2.28,1.77-3.33,2.75-.09.09-.09.26-.14.4,2.87-.91,2.87-.91,3.28-.26a4.34,4.34,0,0,0-3.09,1c.08.11.11.23.18.25.82.24,1.62.5,2.46.69a5.5,5.5,0,0,0,4.07-.89,3,3,0,0,0,.79-.72,3.36,3.36,0,0,0,.21-4c-.28-.4-.76-.47-1.13-.71a3.77,3.77,0,0,0-3.4-.16c-.44.15-.84.43-1.28.56a4.48,4.48,0,0,0-2.53,2.13A2.55,2.55,0,0,0,74.64,65.41ZM71.94,55c.58,0,1.16,0,1.74-.12a7,7,0,0,0,3.5-1.52,3.5,3.5,0,0,0,1.41-2.79,3,3,0,0,0-2.76-3,3.46,3.46,0,0,0-2.76.48,5.55,5.55,0,0,0-2.61,4.7c0,.38-.08.84.34,1.1a3.37,3.37,0,0,0,1-1.26c.29-.42.25-1,.85-1.3.32.36,0,.64-.18.92s-.32.51-.43.78-.45.56-.29.95a5.52,5.52,0,0,0,2-1.08c.2-.13.37-.15.5.06C73.83,53.84,72.78,54.18,71.94,55Zm30.3,88.28c.55-.9,1.57-1.26,1.92-2.15-.77-.39-1.77-.07-2.75-.47,1.21-.49,2.22.13,3.25-.44a5.6,5.6,0,0,0-2.87-.75,2.57,2.57,0,0,0-1.95.75c-.71.68-1.39,1.38-2,2.11a2.25,2.25,0,0,0-.22,2.94,6.83,6.83,0,0,0,1.63,1.37,3.3,3.3,0,0,0,3,.2,3.57,3.57,0,0,0,2.2-2.54c.17-.73.36-1.46.51-2.19a3.05,3.05,0,0,0,0-.62c-.33.28-.53.43-.71.59-.38.35-.74.72-1.14,1C102.86,143.22,102.59,143.2,102.23,143.27Z"/><path class="cls-2" d="M260.38,156.76c-.09-.22-.16-.46-.23-.69-.54-1.86-.95-3.74-1.37-5.63a81.9,81.9,0,0,1-1.86-12.4,95.55,95.55,0,0,1,0-12.69c.15-2.28.35-4.55.59-6.82a101.62,101.62,0,0,1,1.78-11c.34-1.58.7-3.16,1.08-4.73.62-2.53,1.38-5,2.21-7.49a151.93,151.93,0,0,1,6.19-15.55c1.93-4.16,4.07-8.22,6.37-12.19a39.25,39.25,0,0,0,2.32-4.6,6.47,6.47,0,0,0,.53-2.61,5.57,5.57,0,0,0-.71-2.44,22.27,22.27,0,0,1-1.26-3,12.26,12.26,0,0,1-.59-5.32,26.41,26.41,0,0,1,1.16-5.11,63.86,63.86,0,0,1,2.75-6.92,30.14,30.14,0,0,1,3.73-6.32,22,22,0,0,0,2-3.07,9,9,0,0,1,1.12-1.64,6.21,6.21,0,0,1,3.41-2,3,3,0,0,1,2.43.42l.27.16c.39-.19.76-.38,1.14-.54a3.18,3.18,0,0,1,2.9.18,3.8,3.8,0,0,1,1.6,1.72l.13.27a5.92,5.92,0,0,1,.79-.28,3.41,3.41,0,0,1,2,.15,6.69,6.69,0,0,1,1,.44,1.36,1.36,0,0,0,1.23.08,3.07,3.07,0,0,1,3.68.92l0,0a8.29,8.29,0,0,1,1.4,2.32,3.91,3.91,0,0,1-.25,3.54c-.29.49-.6,1-.91,1.46l-.16.29c.27-.1.46-.19.67-.24a1.43,1.43,0,0,1,1.58.47,2.55,2.55,0,0,1,.52,1,4.54,4.54,0,0,1-.11,2.64,10,10,0,0,1-1.26,2.36,38.09,38.09,0,0,1-3.64,4.54c-2.5,2.76-5,5.53-7.38,8.38A36.83,36.83,0,0,1,294,58.22a22.28,22.28,0,0,1-4.34,3.2,10.79,10.79,0,0,1-7.79.93,4.61,4.61,0,0,0-1.73-.09,2.49,2.49,0,0,0-1.39.67,8.51,8.51,0,0,0-1.43,1.78l-1.64,2.78a148.43,148.43,0,0,0-9,18.17c-1.79,4.33-3.39,8.74-4.75,13.22-1,3.45-1.85,7-2.55,10.49q-.67,3.39-1.11,6.82c-.49,3.75-.82,7.52-1,11.3-.1,2.37-.12,4.74-.06,7.12a75.08,75.08,0,0,0,1.05,10.86q.91,5.31,2.32,10.51c.06.23.11.47.16.71a.26.26,0,0,1-.2.34A1.59,1.59,0,0,1,260.38,156.76ZM294.93,28c-2.5,3.23-4.87,6.54-7.05,10a80.78,80.78,0,0,0-5.71,10.57,40.84,40.84,0,0,0-1.82,4.94,18.41,18.41,0,0,0-.75,4.14,6.42,6.42,0,0,0,.2,2.12.85.85,0,0,0,.93.69.69.69,0,0,0,.06-.16A15.16,15.16,0,0,1,282,56.61a89.27,89.27,0,0,1,4.62-9.09.73.73,0,0,1,.22-.25l-.09.2c-1,2-2.07,3.94-3.07,5.93a46.22,46.22,0,0,0-2.1,4.73,11.31,11.31,0,0,0-.61,2.2s0,.1,0,.2a1.26,1.26,0,0,0,.37-.15,2,2,0,0,0,.46-.51,44.3,44.3,0,0,1,2.78-4.31c.73-1.06,1.45-2.13,2.14-3.21a23.19,23.19,0,0,0,1.94-4c.62-1.58,1.22-3.17,1.82-4.76a34.08,34.08,0,0,1,3.29-6.47c.93-1.46,1.86-2.92,2.77-4.39a12.41,12.41,0,0,0,1.41-3.12,2.36,2.36,0,0,0,.09-.9l-.22.23a42.38,42.38,0,0,0-3.86,5.2c-.2.31-.41.62-.62.92a1.12,1.12,0,0,1-.22.22,23.69,23.69,0,0,1,2.29-3.63,37.92,37.92,0,0,1,2.74-3.35,4.11,4.11,0,0,0-2-3.37,2.61,2.61,0,0,0-2.21-.21,11,11,0,0,0-1,.45,1.17,1.17,0,0,0-.46.46c-2.36,3.64-4.6,7.35-6.63,11.19A94.52,94.52,0,0,0,281.16,47a48.55,48.55,0,0,0-1.55,4.68,23.48,23.48,0,0,0-.79,4,9.07,9.07,0,0,0,.09,2.73,3.56,3.56,0,0,0,.45,1.18.63.63,0,0,0,.24.23,2,2,0,0,0,0-.2,7.62,7.62,0,0,1-.14-2.28,17.78,17.78,0,0,1,.62-3.43,47,47,0,0,1,3.77-9.23,97.6,97.6,0,0,1,7.54-12.15c1.19-1.66,2.42-3.28,3.72-4.86l.25-.29.05,0Zm-16.08,31a6.13,6.13,0,0,1-.29-2.29c0-.76.1-1.53.22-2.28s.33-1.61.51-2.41a35,35,0,0,1,1.14-3.74,75.28,75.28,0,0,1,3-7.19,122,122,0,0,1,7.23-13c.53-.84,1.05-1.69,1.58-2.53a.86.86,0,0,0,0-.12,3.52,3.52,0,0,0-1.61-.72,3.67,3.67,0,0,0-1.65.28.79.79,0,0,0-.3.28c-1.41,2-2.76,4-4,6a64.14,64.14,0,0,0-4.51,8.81,39.2,39.2,0,0,0-1.65,4.74c-.22.82-.41,1.65-.61,2.48a21.24,21.24,0,0,0-.49,3.19,18.61,18.61,0,0,0,.82,7.76,2.15,2.15,0,0,0,.51.88l.14.11Zm21.42-27.14c0,.09-.08.17-.13.26-.78,1.35-1.6,2.67-2.49,4a4.2,4.2,0,0,0-.38.75c-.38.9-.75,1.8-1.13,2.7a2.65,2.65,0,0,0-.15.39c2.48-3,4.68-6.22,6.88-9.5a46.35,46.35,0,0,1-3.45,5.28c-1.23,1.7-2.51,3.36-3.79,5.06l.2-.17a12.32,12.32,0,0,1,3-2.13,6.58,6.58,0,0,1,2.67-.78.48.48,0,0,0,.36-.19l1.44-1.7a2,2,0,0,1,.33-.33,16.24,16.24,0,0,1-1.69,2.19,3.76,3.76,0,0,1,2.12.7l.16-.19a13.7,13.7,0,0,1,1.55-1.81,2.38,2.38,0,0,0,.35-.41c.49-.77,1-1.55,1.45-2.33a3.53,3.53,0,0,0,.22-3.27,7.5,7.5,0,0,0-.7-1.3,12.09,12.09,0,0,1-2.58,3.31l0,0,.39-.41c.14-.16.28-.31.42-.48s.25-.32.37-.48l.35-.49.33-.5.34-.54.33-.54a4.52,4.52,0,0,0-.73-.91,7.88,7.88,0,0,1-1.18,1.7l1.05-1.81a2.19,2.19,0,0,0-1.21-.66,3.5,3.5,0,0,0-1.69.17l-.37.13a1,1,0,0,1-.79,0l-.9-.43-.45-.18-1.14,1.91a3.2,3.2,0,0,1,.43-1c.17-.32.37-.62.55-.93a2.26,2.26,0,0,0-2.24.24c0,.07,0,.15,0,.22a9.23,9.23,0,0,1,.25,2.78,23.71,23.71,0,0,1-.94,5.52s0,.1,0,.14l.05,0C298.58,34.52,299.38,33.18,300.28,31.91ZM290.06,52.16a.42.42,0,0,1-.13.35c-.55.72-1.1,1.44-1.67,2.14a39.13,39.13,0,0,1-4.7,4.72l-1.45,1.25a1.24,1.24,0,0,0,.11.82l.34-.13a14.32,14.32,0,0,0,2.58-1.61,37.75,37.75,0,0,0,4.69-4.3,83.62,83.62,0,0,0,8.5-10.83c1.34-2,2.6-4.06,3.81-6.15l.13-.24a1.58,1.58,0,0,0-.26,0l-1,.08a.62.62,0,0,0-.54.36c-.63,1.11-1.27,2.21-1.92,3.31-.42.7-.87,1.38-1.31,2.06a.42.42,0,0,1-.21.18c.55-.94,1.11-1.89,1.66-2.83s1.08-1.89,1.61-2.84l0-.06-.72.28a1.48,1.48,0,0,0-.82.74,92.17,92.17,0,0,1-5,8c-.27.38-.56.74-.84,1.1a2.33,2.33,0,0,1-.31.32,107.39,107.39,0,0,0,6.06-9.52l-.05-.06-.27.15a10.79,10.79,0,0,0-2.72,2.28,24.7,24.7,0,0,0-2,2.59c-1.89,2.89-3.8,5.76-5.92,8.49-1.21,1.55-2.46,3.08-3.7,4.61a14.53,14.53,0,0,0-1.44,2.19c-.11.21-.2.43-.3.64l.07,0A44.12,44.12,0,0,0,290.06,52.16ZM282.83,62a2.55,2.55,0,0,0,1.42.09,9.27,9.27,0,0,0,2.29-.83A22.7,22.7,0,0,0,290.08,59a54.82,54.82,0,0,0,6.44-5.82,99.35,99.35,0,0,0,12.23-15.74l.39-.61a1.63,1.63,0,0,0-.56-.88,1,1,0,0,0-1-.11,4.31,4.31,0,0,0-1.5.93A14,14,0,0,0,304.23,39a132.39,132.39,0,0,1-8.84,11.45,71,71,0,0,1-7.94,7.83,24,24,0,0,1-4,2.84c-.33.18-.68.34-1,.51l0,.08A3.77,3.77,0,0,0,282.83,62Zm14.73-30.48A22,22,0,0,1,296,34.35c-.74,1.19-1.49,2.37-2.22,3.55a34,34,0,0,0-3.23,6.77c-.64,1.83-1.35,3.64-2.16,5.4a18.39,18.39,0,0,1-1.55,2.79l-.13.21s0,0,0,.1l.44-.55c1.51-2,3-4,4.34-6.1.91-1.4,1.86-2.78,2.71-4.21a30.15,30.15,0,0,0,2.5-5.15,24.42,24.42,0,0,0,1.47-6.88c0-.05,0-.1,0-.15a.41.41,0,0,0,0-.09C297.93,30.55,297.76,31,297.56,31.48Zm-10.37-5.31A6.82,6.82,0,0,0,286,27.53c-.13.2-.26.4-.38.62a25.47,25.47,0,0,1-2.31,3.49,26.21,26.21,0,0,0-3,4.88,65.38,65.38,0,0,0-3.25,8A27.66,27.66,0,0,0,276,48.92a11.91,11.91,0,0,0,.36,5.34,20.35,20.35,0,0,0,1.34,3.36.82.82,0,0,0,.22.29c0-.07,0-.15,0-.22a18.27,18.27,0,0,1-.66-4.42,24.31,24.31,0,0,1,.39-5,39.23,39.23,0,0,1,2.71-8.78A66.48,66.48,0,0,1,286,29.05c.78-1.18,1.61-2.33,2.42-3.5l.16-.24-.05,0A5.86,5.86,0,0,0,287.19,26.16Zm-1.69,36a10,10,0,0,0,4.8-1.65A24.81,24.81,0,0,0,295.53,56c1.31-1.47,2.56-3,3.86-4.48,1.61-1.83,3.25-3.62,4.86-5.44A40.21,40.21,0,0,0,308,41.46a9.54,9.54,0,0,0,1.11-2.07,4.23,4.23,0,0,0,.21-2,2.69,2.69,0,0,0-.06-.27.42.42,0,0,0-.05-.09l-.12.18a94.32,94.32,0,0,1-9.31,12.74,70.39,70.39,0,0,1-7.33,7.42,32.9,32.9,0,0,1-4.76,3.5,12.57,12.57,0,0,1-2.71,1.24l-.16.07v.06Zm16.93-24a90.45,90.45,0,0,1-13.27,18.3l.24-.2c1.53-1.43,3-2.89,4.45-4.42,2-2.1,3.76-4.35,5.52-6.62,1.57-2,3.17-4,4.61-6.15l.18-.27A5.2,5.2,0,0,0,302.43,38.19Z"/><path class="cls-2" d="M281.07,57.42c.09-.2.19-.39.27-.59,1.44-3.5,2.87-7,4.54-10.39,1.17-2.39,2.47-4.71,3.87-7,.07-.11.12-.22.19-.33l0,0-.4.59a67.31,67.31,0,0,0-4.9,9.08c-1.1,2.46-2.13,5-3.19,7.44-.14.34-.26.69-.38,1a.84.84,0,0,0,0,.14Z"/><path class="cls-2" d="M141.56,132.13c-.34-.38-.69-.76-1-1.17-1-1.4-2.1-2.81-3.12-4.23a69.59,69.59,0,0,1-8-13.95,70.7,70.7,0,0,0-3.66-7.47q-2.18-3.92-4.4-7.83a70.72,70.72,0,0,1-5.54-12,161.16,161.16,0,0,1-5.61-20.59,21.45,21.45,0,0,0-.94-3.39,19,19,0,0,0-.92-2.08,7,7,0,0,0-.86-1.2,2.33,2.33,0,0,0-1.19-.73A4.79,4.79,0,0,1,105,56.8a13.08,13.08,0,0,1-2.56-2.34,25,25,0,0,1-2.87-4.23c-.38-.68-.76-1.36-1.17-2-.82-1.31-1.67-2.6-2.49-3.91a14.68,14.68,0,0,0-1.42-1.9,31.3,31.3,0,0,0-3.18-3.09c-1.86-1.59-3.86-3-5.84-4.46q-2.6-1.91-5.15-3.88A16.12,16.12,0,0,1,78,28.84a4.15,4.15,0,0,1-1-1.73,1.44,1.44,0,0,1,.62-1.68,2.38,2.38,0,0,1,2.26-.2c.21.08.4.18.61.24a.92.92,0,0,0,.42,0c.52-.11,1-.24,1.56-.36l.28-.07.1-.27c0-.1.07-.19.11-.28a8.38,8.38,0,0,1,3.55-4c.55-.32,1.15-.58,1.73-.85a2.08,2.08,0,0,0,.86-.65c.23-.32.48-.63.72-1A7.41,7.41,0,0,1,92.27,16a5.89,5.89,0,0,1,4.43-.5,7.29,7.29,0,0,1,4.47,3l.11.14.25-.07c.57-.16,1.14-.34,1.72-.48a8.44,8.44,0,0,1,2.89-.16,17.33,17.33,0,0,1,2.86.55l.27.06a11.89,11.89,0,0,1,.75-1.2,3.87,3.87,0,0,1,3.09-1.58c.53,0,1.05,0,1.58,0a16.18,16.18,0,0,1,3.07.51,2.72,2.72,0,0,0,1.88-.16,7.91,7.91,0,0,1,.87-.34,2.77,2.77,0,0,1,1.55-.06A6,6,0,0,1,125.73,18a9.8,9.8,0,0,1,1.9,8.61A22.1,22.1,0,0,1,126,30.8c-.06.11-.1.23-.16.37l.18,0a2.28,2.28,0,0,0,1.75-.65c.52-.53,1.08-1,1.65-1.53a8.52,8.52,0,0,1,2.75-1.52,3,3,0,0,1,3.32,1,2.86,2.86,0,0,1,.55,3.19,8.43,8.43,0,0,1-1.25,2,62.58,62.58,0,0,1-4.41,4.93,64.09,64.09,0,0,0-7,8.06c-1.06,1.52-2.06,3.07-3,4.66a36.85,36.85,0,0,1-2.38,3.54,7.72,7.72,0,0,1-4.7,2.89,8,8,0,0,0-.83.19,4,4,0,0,0-.84.36,2.57,2.57,0,0,0-1.17,1.8,8.24,8.24,0,0,0,.09,3.12A161.5,161.5,0,0,0,115.95,84a64.14,64.14,0,0,0,4.55,10.67c1.32,2.44,2.7,4.86,4.07,7.29a105.62,105.62,0,0,1,5.71,11.31,49.56,49.56,0,0,0,2.45,5.1A89,89,0,0,0,139,128c.92,1.24,1.87,2.47,2.8,3.71.11.15.26.3.22.51C141.81,132.38,141.67,132.25,141.56,132.13ZM105.78,28.31a51.08,51.08,0,0,1,1.61,6.43c.54,2.8,1,5.59,1.34,8.4a38.1,38.1,0,0,1-.35,10.65c-.14.8-.38,1.57-.59,2.34a5.12,5.12,0,0,1-.26.63l.22.18a2.06,2.06,0,0,0,.91-.79,17.08,17.08,0,0,0,1.19-2.08,12.47,12.47,0,0,0,.93-3.51A34.81,34.81,0,0,0,111,44c0-.67-.07-1.34-.07-2,0,.12.06.23.07.35a35.94,35.94,0,0,1,0,8.39,13.64,13.64,0,0,1-.81,3.23,8.65,8.65,0,0,1-1.59,2.69c-.16.17-.34.32-.55.51a1.29,1.29,0,0,0,1.21-.11,7.74,7.74,0,0,0,1.15-1,10.4,10.4,0,0,0,1.81-2.83A25,25,0,0,0,114,45.52a49.55,49.55,0,0,0,0-9.37,69.75,69.75,0,0,0-2.94-14.7c-.16-.53-.34-1.05-.5-1.58,0-.11-.06-.23-.08-.33a14.63,14.63,0,0,0-4.82-1.17c.05.15.08.24.12.34A48,48,0,0,1,108.93,30c.12.82.15,1.63.22,2.45a.92.92,0,0,1,0,.33,50.67,50.67,0,0,0-3.67-14.43,8.8,8.8,0,0,0-1.95.19,24.51,24.51,0,0,1,1.82,4.55l-.09,0-.13-.3c-.38-1-.75-1.91-1.15-2.86-.19-.45-.43-.89-.65-1.34a.66.66,0,0,0-.16,0c-.68.22-1.36.41-2,.66a4.28,4.28,0,0,0-1.58,1.15c-.22.24-.44.48-.68.71s-.52.46-.83.72c.05.37.1.8.18,1.23a92.62,92.62,0,0,0,2,9.43q.41,1.45.88,2.89a16.74,16.74,0,0,0,.67,1.74A26.21,26.21,0,0,1,104,44.39c.16,1.13.34,2.27.49,3.4a30.16,30.16,0,0,0,.67,3.36l0,.18h0a.21.21,0,0,0,0-.08,47,47,0,0,1-.18-5.74,41.81,41.81,0,0,0-.94-9.08A41.3,41.3,0,0,0,103,32.26a.26.26,0,0,1,0-.2,2.46,2.46,0,0,1,.13.28c.32,1,.69,2,1,3.07a39.83,39.83,0,0,1,1.23,10.2c0,.7,0,1.4,0,2.09a33,33,0,0,0,.4,5.15,9.41,9.41,0,0,0,1.11,3.06,7.3,7.3,0,0,0,.48.68,1.7,1.7,0,0,0,.38-.83,27.37,27.37,0,0,0,1-6.38,38.09,38.09,0,0,0-.33-7.8c-.47-3.45-1.06-6.9-1.87-10.34-.3-1.27-.67-2.54-1-3.81l0,0C105.58,27.72,105.68,28,105.78,28.31Zm.81,28.44a20.06,20.06,0,0,1-4.78-6.07c-1.14-2.1-2.21-4.22-3.3-6.34-1.19-2.3-2.35-4.62-3.58-6.9a51.61,51.61,0,0,0-4.46-7l-.7-.9.05,0c.11.11.23.21.33.32A29.14,29.14,0,0,1,92.53,33,79.88,79.88,0,0,1,97,40.89q2.33,4.57,4.7,9.13a23.63,23.63,0,0,0,3,4.59c.43.5.91,1,1.37,1.43a2.44,2.44,0,0,0,.23.18,1.65,1.65,0,0,0-.06-.23,23.59,23.59,0,0,1-1.51-4.24q-.33-1.25-.62-2.5a20.49,20.49,0,0,0-2.78-6.41c-.64-1-1.35-2-2.09-2.95a31.36,31.36,0,0,1-3.26-5.12,24.29,24.29,0,0,0-1.92-3.29,17.19,17.19,0,0,0-4.87-4.55,13.86,13.86,0,0,0-2.93-1.43,3.08,3.08,0,0,0-1.57-.12,39.86,39.86,0,0,1,5.89,7.22,53.79,53.79,0,0,0-6.15-7.21,11.13,11.13,0,0,0-3.44.64,4.57,4.57,0,0,0,.37.29A27,27,0,0,1,84.82,29a36.26,36.26,0,0,1,6.49,7.59c1.05,1.62,2,3.26,3.08,4.89a7.4,7.4,0,0,0,.65.9,30,30,0,0,1,3.38,4.88c.54.95,1.07,1.9,1.6,2.85a23.57,23.57,0,0,0,3.06,4.43,11,11,0,0,0,2.32,2,5.73,5.73,0,0,0,.84.4.42.42,0,0,0,.47,0A1,1,0,0,0,106.59,56.75Zm10.54-21.33c.3-.36.62-.7.92-1.06a1.41,1.41,0,0,0,.28-.49,30.78,30.78,0,0,0,.91-6.65c0-.09,0-.18,0-.27l.06,0a27.47,27.47,0,0,1-.77,6.95l.22-.13c.35-.23.68-.47,1-.7a.69.69,0,0,0,.32-.43A46.76,46.76,0,0,0,121.68,24a.15.15,0,0,1,0-.1,21.86,21.86,0,0,1-.43,4.41c-.27,1.43-.59,2.85-.9,4.3a1.48,1.48,0,0,0,.2-.07,9.43,9.43,0,0,1,2.33-.91.53.53,0,0,0,.37-.3,19.32,19.32,0,0,0,1.42-3.49,29.75,29.75,0,0,0,1.18-6,10.88,10.88,0,0,0,0-1.95,3.3,3.3,0,0,0-2-.76,4.51,4.51,0,0,0-1,.06,14.66,14.66,0,0,0-1.73.38,3.33,3.33,0,0,1-2.83-.42c-.52-.32-1-.65-1.54-1a7.54,7.54,0,0,0-4.09-1.49,2.38,2.38,0,0,0-1.91.62,3.84,3.84,0,0,0-.86,1.21,2,2,0,0,0-.07.27,11.28,11.28,0,0,1,4.3,3,1.66,1.66,0,0,0,0-.2,12.76,12.76,0,0,1,.42-2.32.71.71,0,0,1,.19-.32c0,.07,0,.14,0,.21-.13.84-.27,1.68-.4,2.52a1,1,0,0,0,.22.78,8.1,8.1,0,0,1,1.21,3.12,12.87,12.87,0,0,1,0,4.76c-.07.45-.15.89-.2,1.34a1,1,0,0,0,0,.5,15,15,0,0,1,.79,3.53l.06.4.08,0C116.78,35.89,116.94,35.65,117.13,35.42Zm-2.28,21A16,16,0,0,0,116.19,55c.52-.65,1-1.34,1.47-2,.23-.32.43-.67.63-1,.56-1,1.15-1.94,1.65-2.95a20.18,20.18,0,0,0,.94-2.28q.54-1.5,1-3a47.12,47.12,0,0,0,1.17-5.07c.29-1.54.54-3.09.8-4.63,0-.13,0-.26,0-.39a7.41,7.41,0,0,0-5.78,1.51,36.46,36.46,0,0,1,.11,4.64,32.8,32.8,0,0,1-.44,4.54,55.85,55.85,0,0,0,.17-8.88l-.07,0a1.63,1.63,0,0,0-.18.19l-.86,1.26a1.06,1.06,0,0,0-.16.77,27.25,27.25,0,0,1-.05,7.24A26.7,26.7,0,0,1,115,50.89a15.77,15.77,0,0,1-2,3.6c-.42.57-.88,1.12-1.3,1.69a3,3,0,0,0-.33.65.29.29,0,0,0,.1.35.34.34,0,0,0,.38,0,4.81,4.81,0,0,0,1.3-.81,11.49,11.49,0,0,0,1.85-2.07,18.14,18.14,0,0,0,1.56-2.65c.38-.76.71-1.55,1-2.34A32.06,32.06,0,0,0,119.48,43a30.36,30.36,0,0,0,.53-5.85.19.19,0,0,1,0-.15c0,.11,0,.21,0,.32a25.26,25.26,0,0,1-.49,6.17,30.77,30.77,0,0,1-1.08,4.17c-.32.93-.69,1.85-1.06,2.75a19.16,19.16,0,0,1-.86,1.85,15.66,15.66,0,0,1-2.75,3.86,8.77,8.77,0,0,1-1.55,1.2A3.81,3.81,0,0,0,114.85,56.44ZM93.63,16l-.92.37a9.94,9.94,0,0,1,1.06,2.23l-1.22-2.12-.34.19a7.35,7.35,0,0,0-2.14,2.06l-.38.52a2.72,2.72,0,0,1-1.28,1,9.48,9.48,0,0,0-3.54,2.36,8.26,8.26,0,0,0-1.37,2,3.52,3.52,0,0,0-.13.38,19.23,19.23,0,0,1,6.07.38,13.78,13.78,0,0,1-1.67-2.52l.14.16,1.69,2.25a.72.72,0,0,0,.28.24c.51.19,1,.36,1.58.56l0-.36a3.74,3.74,0,0,1,.41-2.33,2.36,2.36,0,0,1,.41-.53,5.22,5.22,0,0,1,3.52-1.48c.57,0,1.14,0,1.72,0a.86.86,0,0,0,.68-.23l.84-.84-.55-1.69a4.89,4.89,0,0,1,.7,1.47c.29-.24.54-.48.82-.68s.6-.38.94-.59a6.83,6.83,0,0,0-3-2.41,6.27,6.27,0,0,0-4.1-.46l.16.31,1.37,2.9a2.75,2.75,0,0,1,.12.39h-.07Zm32,26.86c1.53-1.75,3.15-3.43,4.79-5.1a50.07,50.07,0,0,0,4.06-4.59,6.86,6.86,0,0,0,1.14-1.9,2.51,2.51,0,0,0-.86-2.82,1.93,1.93,0,0,0-1.87-.45,3.94,3.94,0,0,0-2.07,1.2,8.21,8.21,0,0,0-.82,1.21c-1.14,2.09-2.27,4.17-3.38,6.28-1.22,2.33-2.41,4.67-3.62,7l-2.4,4.62c-.26.5-.49,1-.75,1.5s-.65,1.12-1,1.68-.65,1.08-1,1.6c-.54.78-1.11,1.55-1.68,2.32-.26.35-.57.66-.83,1l.31-.17a6.74,6.74,0,0,0,1.76-1.62,33.86,33.86,0,0,0,2.37-3.48c.9-1.47,1.85-2.92,2.78-4.37l.13-.2,1.39-2.4c.62-1.07,1.23-2.15,1.89-3.2a37.94,37.94,0,0,1,2.31-3.32c1-1.22,1.9-2.46,2.87-3.67a26.41,26.41,0,0,1,3.08-3.39l.43-.36a.92.92,0,0,1,.18-.09l0,.05c-.26.25-.53.49-.78.76-.82.88-1.65,1.75-2.44,2.66-.57.66-1.08,1.37-1.61,2.06s-1,1.25-1.45,1.88c-.35.47-.7.94-1,1.43-.53.77-1.06,1.54-1.54,2.33-.58,1-1.11,1.94-1.67,2.91a.69.69,0,0,0,0,.14C124.77,43.81,125.19,43.32,125.62,42.83Zm-15,13.57a8.61,8.61,0,0,0,2-2.16c.32-.51.67-1,1-1.52a19.5,19.5,0,0,0,1.66-4.09,26.39,26.39,0,0,0,1.09-8.71,41.18,41.18,0,0,0-.65-5.76,10.39,10.39,0,0,0-.51-1.84,1.65,1.65,0,0,1-.09-.71c0-.44.12-.88.2-1.31a12.66,12.66,0,0,0,0-4.76,8,8,0,0,0-1.43-3.32,9.85,9.85,0,0,0-3-2.47l-.21-.08c0,.15.08.26.11.37a65.76,65.76,0,0,1,3.67,20,40.15,40.15,0,0,1-.66,8.71,24.51,24.51,0,0,1-.91,3.36,14.86,14.86,0,0,1-1.37,2.85,8,8,0,0,1-1.24,1.54l-.11.13,0,0A3.92,3.92,0,0,0,110.61,56.4ZM80.23,28.49a1,1,0,0,1,.45.25,58.93,58.93,0,0,1,9.11,8.63,8.71,8.71,0,0,0,.88.82l2.76,2.45.31.29a1.47,1.47,0,0,0-.08-.22,64.29,64.29,0,0,0-5.31-7.8,36,36,0,0,0-5.95-5.69,17.26,17.26,0,0,0-1.64-1.1,5.88,5.88,0,0,0-1.14-.51,1.86,1.86,0,0,0-1.68.19,1,1,0,0,0-.45,1.25,3.54,3.54,0,0,0,.74,1.37,13.46,13.46,0,0,0,2,1.94q2.1,1.64,4.24,3.24c1.39,1,2.8,2.05,4.2,3.08l.23.13A62.26,62.26,0,0,0,80.23,28.49ZM88,25.85A17.23,17.23,0,0,1,95.63,33c.36.63.69,1.27,1,1.91a29.36,29.36,0,0,0,3,4.64c.64.82,1.24,1.67,1.82,2.52A22.47,22.47,0,0,1,103.54,46a1,1,0,0,0,.21.34c0-.09,0-.18,0-.27-.17-1-.32-2.1-.52-3.15a24.93,24.93,0,0,0-5-10.76,20.09,20.09,0,0,0-5.32-4.66,14.13,14.13,0,0,0-4.79-1.86l-.36-.06,0,.06Zm6.27-3.72a4.85,4.85,0,0,0-1.74,1.14,2.32,2.32,0,0,0-.59,1.35,4.58,4.58,0,0,0,.16,2,23.92,23.92,0,0,1,3.81,2.57,38.35,38.35,0,0,1-1.52-5.66h.07c0,.15.09.29.12.44a49.33,49.33,0,0,0,1.5,5,2.91,2.91,0,0,0,.77,1.15,21.62,21.62,0,0,1,3.4,4.27c.17.27.34.55.55.82a80.58,80.58,0,0,1-3-13.33A9.18,9.18,0,0,0,94.28,22.13Zm32.31,11.31a7.3,7.3,0,0,1-2.49.12,71.59,71.59,0,0,1-2.73,12.68c.06-.1.12-.19.17-.29L124.11,41c.3-.58.61-1.15.92-1.72l3.57-6.79.09-.19A6,6,0,0,1,126.59,33.45Zm-.5-14c-.32-.48-.6-1-1-1.42A5.4,5.4,0,0,0,122,16.17a2.3,2.3,0,0,0-1.28.06c-.29.1-.58.22-.86.34a3.14,3.14,0,0,1-2,.19c-.54-.12-1.07-.25-1.61-.33s-1.37-.14-2.06-.21a.65.65,0,0,0-.29,0,9.67,9.67,0,0,1,1,.33,15.9,15.9,0,0,1,1.54.79c.58.35,1.13.77,1.71,1.13a9.37,9.37,0,0,0,1.13.6,2.36,2.36,0,0,0,1.56.12c.5-.12,1-.24,1.5-.34a9.38,9.38,0,0,1,1.15-.15,4,4,0,0,1,2.66.84l.12,0A1.35,1.35,0,0,0,126.09,19.44Zm-2.5,12.08,1.69-.3a31.64,31.64,0,0,0,1.87-4.7,8.73,8.73,0,0,0-.37-5.66,1.66,1.66,0,0,0-.67-.81,26.14,26.14,0,0,1-2.63,11.44A.36.36,0,0,0,123.59,31.52Zm5.95-2c-.47.44-1,.87-1.41,1.33a2.52,2.52,0,0,1-1.83.79,15.11,15.11,0,0,0-2.78.38,9.25,9.25,0,0,0-2.92,1.13l-.24.18h.19a10.76,10.76,0,0,1,3.58-.25c.3,0,.61,0,.91,0a3.87,3.87,0,0,0,2.69-1,10.19,10.19,0,0,0,1.32-1.6l.82-1.1,0,0C129.72,29.41,129.62,29.48,129.53,29.57Z"/><path class="cls-3" d="M315.87,62.33a4.9,4.9,0,0,0-.64.34,14,14,0,0,1-2.92,1.65,6.32,6.32,0,0,1-3,.48A2.64,2.64,0,0,1,307,63.12a5,5,0,0,1-.52-3.24,5.77,5.77,0,0,1,4.3-4.3A6.3,6.3,0,0,1,314,56a5.37,5.37,0,0,1,2.31,1.56c.17.19.37.36.65.63.25-.95.5-1.75.68-2.57.24-1,.42-2.11.66-3.16a1.82,1.82,0,0,0-.26-1.41c-.33-.53-.67-1.06-1-1.57a4.87,4.87,0,0,1-.86-2.22,13.75,13.75,0,0,1,.16-4.13,4.19,4.19,0,0,1,4.45-3,5.32,5.32,0,0,1,4.25,4,5.06,5.06,0,0,1-.94,4.93,8.64,8.64,0,0,1-2,2,5.27,5.27,0,0,1-3.09.82,5.86,5.86,0,0,0-.45,1.66c-.11.7-.26,1.41-.43,2.1a22.69,22.69,0,0,0-.69,3.53l.29,0,.85-1.08c.22-.22.45-.43.67-.66a5.41,5.41,0,0,1,3.88-1.58,2.43,2.43,0,0,1,1.61.59,4.25,4.25,0,0,1,.79,6.18A3.46,3.46,0,0,1,322,63.93a6.81,6.81,0,0,1-3.55-1.76,4.82,4.82,0,0,0-1.41-1,3.39,3.39,0,0,0-.27.34,2.66,2.66,0,0,0-.23.48q-1.29,3.81-2.57,7.63a2.31,2.31,0,0,0,0,.51l1.08-.58a3.78,3.78,0,0,1,3.36-.29c.45.18,1,.25,1.4.46a4.36,4.36,0,0,1,2.46,3.88,3.61,3.61,0,0,1-.24,1.85,4,4,0,0,1-4.51,2,4.92,4.92,0,0,1-3-2.53c-.34-.58-.64-1.18-1-1.75-.1-.16-.32-.25-.55-.41-.37.82-.67,1.56-1,2.28-.85,1.77-1.7,3.55-2.6,5.3a1.45,1.45,0,0,0-.08,1.42,6.28,6.28,0,0,0-1.85,2.47q-2.15,3.79-4.28,7.6a6.42,6.42,0,0,0-.3.77A21.05,21.05,0,0,0,305,92a2.72,2.72,0,0,1,2.55.31,9.45,9.45,0,0,1,3.4,3.37,3.36,3.36,0,0,1-.19,3.79,13.33,13.33,0,0,1-1.28,1.55,2.35,2.35,0,0,1-2.45.65,5.59,5.59,0,0,1-3.72-3A10.48,10.48,0,0,1,302.08,95c0-.07-.09-.14-.15-.21-.35-.06-.43.26-.55.47-.56,1-1.13,2-1.64,3.07-.94,1.93-1.93,3.84-2.75,5.81s-1.43,4-2.14,5.93c-.1.3-.18.6-.3.89a23.07,23.07,0,0,0-1.28,4.38c-.44,2.42-.9,4.85-1.34,7.27-.08.44-.11.88-.16,1.28.37.36.63,0,.88-.07a4.71,4.71,0,0,1,3.65-.29,10.08,10.08,0,0,1,4.42,2.94,5.27,5.27,0,0,1,1.2,2.94,3.54,3.54,0,0,1-3.77,3.92A4.09,4.09,0,0,1,295.3,132a9.4,9.4,0,0,1-2.63-4.74,2.76,2.76,0,0,0-.91-1.69c-.1.14-.26.25-.28.39-.39,2.84-.83,5.67-1.12,8.52a33.57,33.57,0,0,0-.07,6.43c.09,1,.14,2.05.18,3.08a10.34,10.34,0,0,1,0,1.06,4,4,0,0,0-.06.8,36.75,36.75,0,0,1,0,3.88,3,3,0,0,1-.08.66,44,44,0,0,0-.73,4.91,21,21,0,0,1-.38,2.39c-.08.48-.18,1-.26,1.41.33.23.49,0,.62-.13a3.42,3.42,0,0,1,3.93-.93,11.82,11.82,0,0,1,4.56,2.49,6.11,6.11,0,0,1,2.24,4.56,2.31,2.31,0,0,1-.66,1.83,14,14,0,0,1-1.9,1.48,2.47,2.47,0,0,1-1.55.3,6.43,6.43,0,0,1-3.4-1.11,3.9,3.9,0,0,1-.73-.58,18,18,0,0,1-2.83-3.73,4.44,4.44,0,0,0-.5-.68.83.83,0,0,0-.75.61c-.57,1.5-1.12,3-1.69,4.52-.78,2-1.51,4.11-2.37,6.12-.7,1.64-1.6,3.2-2.33,4.83-.93,2.08-1.79,4.19-2.66,6.3-.68,1.65-1.32,3.32-2,5a36.63,36.63,0,0,0-2,7.37c-.1.52-.08,1.08-.58,1.44-.36,0-.44-.26-.36-.57.5-2,1-4,1.53-6,.35-1.2.85-2.36,1.31-3.52q1.39-3.49,2.82-7c.5-1.2,1-2.38,1.57-3.55,1-2.07,2-4.1,2.9-6.19.69-1.6,1.22-3.27,1.82-4.9.31-.83.62-1.66.89-2.61a3.32,3.32,0,0,0-1.43.63,9.25,9.25,0,0,1-3.93,1.24,3.58,3.58,0,0,1-3.81-3.46,6.6,6.6,0,0,1,.35-2,3.2,3.2,0,0,1,2.86-2.28,13.55,13.55,0,0,1,3.89,0,8.14,8.14,0,0,1,1.88.66,14.33,14.33,0,0,1,1.35.77,6.24,6.24,0,0,0,.72-2.26c.25-1.63.45-3.27.69-4.91.07-.52.21-1,.31-1.7a2.72,2.72,0,0,0-.62.19c-.61.45-1.24.89-1.8,1.39a4,4,0,0,1-2.74.88,1.86,1.86,0,0,1-.88-.27,3.6,3.6,0,0,1-1.95-2.44,15.85,15.85,0,0,1-.27-2.39,2.4,2.4,0,0,1,1.66-2.5,9,9,0,0,1,3.42-.57,2.42,2.42,0,0,1,1.84,1c.42.52.81,1.06,1.2,1.58.35,0,.34-.29.34-.5,0-.58,0-1.16,0-1.74,0-1.74,0-3.48-.09-5.23,0-.62-.15-1.25-.13-1.87,0-1.34.06-2.68.19-4,.22-2.27.5-4.53.81-6.79.2-1.5.53-3,.72-4.49.28-2.22.73-4.42,1.15-6.61a29.69,29.69,0,0,1,1.2-4.94c.38-1,.61-2,.9-3.07-.41-.13-.56.14-.71.34a5.44,5.44,0,0,1-1.89,1.48,2.3,2.3,0,0,1-.74.29c-2.37.36-4.09-.17-5.44-2.23a3.53,3.53,0,0,1-.47-1.09,6.12,6.12,0,0,1,.36-4.06,3.1,3.1,0,0,1,2.75-2,12.6,12.6,0,0,0,1.33-.14,4.4,4.4,0,0,1,4.35,1.82,14.5,14.5,0,0,1,1.08,1.69c.13.22.24.45.44.83a5.44,5.44,0,0,0,.55-1,26.2,26.2,0,0,1,1.91-4.42c1.46-3.22,3.25-6.27,4.93-9.38.53-1,1.13-1.93,1.67-2.91.77-1.4,1.51-2.81,2.24-4.18-.2-.31-.37-.15-.5-.09a6.38,6.38,0,0,1-6.17-.22,4.07,4.07,0,0,1-1.81-4,3.69,3.69,0,0,1,3.23-3.15,5.64,5.64,0,0,1,1.73,0,10,10,0,0,1,3.23,1.29A4.14,4.14,0,0,1,308,79.28c.2.33.38.67.57,1,.53-.26.63-.74.8-1.12.53-1.19,1.08-2.35,1.72-3.49A20.4,20.4,0,0,0,312.28,73c.66-1.76,1.3-3.53,1.93-5.3.54-1.52,1.05-3,1.56-4.57A5.14,5.14,0,0,0,315.87,62.33ZM292.82,164c-.92,0-1.12-.8-1.71-1a17.34,17.34,0,0,1-1.93-1.11,2,2,0,0,0,.08.5,23,23,0,0,0,2.56,3.76,5.49,5.49,0,0,0,4.84,2.08,3.75,3.75,0,0,0,3-2.19,1.51,1.51,0,0,0,.08-.52,4.82,4.82,0,0,0-1.15-3.73,7.42,7.42,0,0,0-2.52-2c-.44-.21-.88-.43-1.34-.61-2.72-1.1-4.1-.47-5.33,1.19a1.17,1.17,0,0,0-.11.25c.22.45.67.39,1,.43,1.24.14,2.49.25,3.73.37.36,0,.68.3.54.39a1.23,1.23,0,0,1-.59.19,1.75,1.75,0,0,1-.65-.12,7.26,7.26,0,0,0-2.39-.24,1.89,1.89,0,0,0-.54.18C291.16,162.61,292.24,162.92,292.82,164Zm27.28-113a1.93,1.93,0,0,0,1.57-.34A7.8,7.8,0,0,0,324,48.39a4.46,4.46,0,0,0,.82-2.89A5.36,5.36,0,0,0,323.21,42a3.92,3.92,0,0,0-5.82-.1,2.42,2.42,0,0,0-.62,1,9.15,9.15,0,0,0-.16,4.64,4.48,4.48,0,0,0,1.49,2.35c.32-.51,0-.93,0-1.36s-.38-.88,0-1.43a4.34,4.34,0,0,1,.45,1.59,8.44,8.44,0,0,0,.33,1.69,2.83,2.83,0,0,0,.69-1.39c.13-.47.29-.94.37-1.43a11.39,11.39,0,0,0,.15-1.46c0-.47,0-.95,0-1.55.18.19.32.26.33.35a4.53,4.53,0,0,1,0,1.2c-.2,1.1-.46,2.18-.71,3.27-.08.33-.17.66-.28,1.1a1.84,1.84,0,0,0,1.26-.87c.43-.62.81-1.28,1.21-1.92.09-.14.14-.34.43-.15A9.83,9.83,0,0,1,320.1,50.95Zm-3.44,8.94a3.58,3.58,0,0,0-.08-.84,3.7,3.7,0,0,0-1.76-1.94,19.5,19.5,0,0,0-1.84-.79,4,4,0,0,0-2.5-.11,4.81,4.81,0,0,0-2.81,2.14,3.88,3.88,0,0,0-.22,4.4A2.35,2.35,0,0,0,310,64.06a11,11,0,0,0,4.72-1.76c.08-.05.09-.22.17-.42-1.38.07-2.59.71-4.15.67.35-.26.49-.44.67-.49.56-.14,1.15-.18,1.7-.33.82-.22,1.62-.48,2.42-.77.17-.06.27-.29.41-.44a2.6,2.6,0,0,0-1.58-.82,3.45,3.45,0,0,1-1.77-.92C314.16,58.81,315.28,59.69,316.66,59.89Zm-24.59,48.59c.58-.48,1.31-.61,1.69-1.41-.76.13-1.37.21-2,.33a5.9,5.9,0,0,1-3.17-.28c-.33-.12-.29-.4.07-.67a4.5,4.5,0,0,0,2.42.46,6.83,6.83,0,0,0,2.5-.58c-.17-.2-.26-.36-.4-.44-.58-.34-1.18-.63-1.76-1-.13-.07-.21-.23-.43-.49.35,0,.54,0,.67,0,.51.26,1,.56,1.51.86a2.49,2.49,0,0,0,1.73.53s.06-.09,0-.13a5.65,5.65,0,0,0-3-3.45,2.11,2.11,0,0,0-1-.24c-.76,0-1.51.13-2.27.17a2.87,2.87,0,0,0-2.81,2.44,4.82,4.82,0,0,0,0,3.17,4.36,4.36,0,0,0,5.4,2.29,7.92,7.92,0,0,0,1.75-1c.23-.15.51-.38.38-.75C293,108.27,292.68,108.93,292.07,108.48Zm4.35,20.5a5.53,5.53,0,0,0-3.78-3.4c.34,1.09.63,2.09,1,3.09a7.36,7.36,0,0,0,2.32,3.22,3,3,0,0,0,3.23.62,9,9,0,0,0,.87-.33,2.22,2.22,0,0,0,1.15-1.25,3.75,3.75,0,0,0-.29-3.35,8.11,8.11,0,0,0-5.71-3.59,3,3,0,0,0-1.68.33c.6.34,1.11.18,1.55.31.19.06.31.15.19.42-.41.12-1-.13-1.37.31l1.44,1.2a4.32,4.32,0,0,1,1.37,1.94C296.75,128.72,296.74,129,296.41,129Zm6.46-33.77-.25.15a10.55,10.55,0,0,0,2,4.13A5,5,0,0,0,307,101a2.09,2.09,0,0,0,2.32-.6c.39-.42.72-.91,1.09-1.36a2.49,2.49,0,0,0,.19-3A7.69,7.69,0,0,0,307,92.66a1.94,1.94,0,0,0-1.3-.2c-.48.11-1,.2-1.43.34a9.84,9.84,0,0,0-1.1.49,3.16,3.16,0,0,0,.8.09c.43-.12.84-.3,1.27-.43.17-.06.35-.06.36.22-.3.46-1,.26-1.27.82a2.49,2.49,0,0,0,1.33.6,5.12,5.12,0,0,1,2.46,1.55,1.72,1.72,0,0,1,.36.55c0,.13,0,.3-.09.54-.19-.17-.32-.24-.37-.34a2.81,2.81,0,0,0-1.75-1.55c-.8-.28-1.62-.5-2.43-.73-.14,0-.31.05-.51.1.5.57,1,1.06,1.37,1.57.13.16.06.33-.19.4a8.11,8.11,0,0,0-.7-.78A11.62,11.62,0,0,0,302.87,95.21Zm-15.54,65.32a5.58,5.58,0,0,0-4-1.41c-.49,0-1,.1-1.47.08-2.3-.09-3.44,1.45-3.67,3.6a2.63,2.63,0,0,0,.88,2.29,3.07,3.07,0,0,0,2.65.68,9.52,9.52,0,0,0,5.45-2.94.9.9,0,0,0,.32-1l-1.24.53c-.41.17-.83.35-1.25.48s-.74.49-1.28.37c.05-.17.05-.35.13-.39a6.91,6.91,0,0,1,1-.46c.58-.23,1.18-.42,1.76-.65.12,0,.19-.22.34-.43a6.33,6.33,0,0,0-.65-.09c-.31,0-.62,0-.93,0s-.81,0-1.21,0a.63.63,0,0,1-.34-.16.29.29,0,0,1-.09-.24c0-.07.09-.19.14-.19.26,0,.53,0,.79,0A7,7,0,0,0,287.33,160.52ZM308,81.28A3.3,3.3,0,0,0,306,77.91c-.69-.32-1.39-.62-2.09-.89a5.06,5.06,0,0,0-1.17-.29A3.4,3.4,0,0,0,299.55,78a2.88,2.88,0,0,0-.41,3.26,4.86,4.86,0,0,0,4.69,2.46,4.69,4.69,0,0,0,2.18-.56c.16-.11.41-.22.2-.59l-1.75.4c0-.07-.07-.13-.06-.15.45-.89,1.52-.28,2.1-.85,0-.11,0-.25,0-.27-1.4-.72-3-.69-4.49-1,.09-.45.38-.43.64-.38.88.16,1.76.34,2.63.51.25.05.51.17.82-.09-.18-.23-.36-.45-.53-.69s-.09-.32.18-.45c.33.31.68.65,1,1S307.38,81.32,308,81.28Zm6.11-10.09c.82,0,1.52-.07,2.23-.07s1.34,0,2,0a1.22,1.22,0,0,1,.51.13c.08,0,.12.2.14.31s-.11.11-.19.13a.51.51,0,0,1-.26,0c-1.24-.43-2.48-.06-3.72,0-.11,0-.21.14-.32.23,2.36,1.12,2.36,1.12,2.23,1.89a3.26,3.26,0,0,0-2.54-1.2c0,.14-.06.25,0,.31.38.71.74,1.43,1.16,2.12a4.25,4.25,0,0,0,3.1,1.9,2.22,2.22,0,0,0,.92-.06,3.5,3.5,0,0,0,2.46-3,3.54,3.54,0,0,0-.3-1.28,3.25,3.25,0,0,0-2.07-2.3c-.36-.16-.79-.2-1.14-.38a3.33,3.33,0,0,0-2.85.06A2.47,2.47,0,0,0,314.06,71.19Zm4.38-9.93c.39.34.76.71,1.18,1a5.15,5.15,0,0,0,3.12,1,3,3,0,0,0,2.52-1.3,3.42,3.42,0,0,0,0-4.12,2.71,2.71,0,0,0-2-1.39,4.72,4.72,0,0,0-4.4,2c-.21.3-.54.61-.43,1.09a2.62,2.62,0,0,0,1.4-.33c.43-.15.75-.64,1.3-.48,0,.49-.4.47-.65.61s-.5.2-.73.33-.61.15-.74.56a4,4,0,0,0,1.9.43c.21,0,.32.11.28.37C320.31,61.56,319.45,61.16,318.44,61.26ZM286,150.15c.87-.36,1.73,0,2.48-.47-.26-.8-1.08-1.19-1.47-2.13,1.05.39,1.34,1.52,2.32,1.73a5.34,5.34,0,0,0-1.39-2.42,1.91,1.91,0,0,0-1.68-.65c-.85.08-1.69.2-2.52.36a2.32,2.32,0,0,0-1.86,2.17,7.85,7.85,0,0,0,.24,2.12,2.88,2.88,0,0,0,1.77,2.05,2.79,2.79,0,0,0,2.88-.59c.53-.47,1.08-.91,1.6-1.4a3.36,3.36,0,0,0,.34-.51c-.37,0-.58,0-.8,0-.44,0-.89.1-1.33.09C286.45,150.51,286.29,150.33,286,150.15Z"/><g class="cls-4"><polygon class="cls-5" points="384.22 144.22 11.87 144.32 12.36 67.32 381.1 67.78 384.22 144.22"/><polygon class="cls-6" points="384.17 144.18 11.94 144.28 12.44 67.32 381.08 67.78 384.17 144.18"/><polygon class="cls-7" points="384.13 144.14 12.02 144.24 12.51 67.32 381.07 67.77 384.13 144.14"/><polygon class="cls-8" points="384.08 144.1 12.09 144.2 12.58 67.32 381.06 67.76 384.08 144.1"/><polygon class="cls-9" points="384.04 144.06 12.17 144.16 12.65 67.32 381.04 67.76 384.04 144.06"/><polygon class="cls-10" points="384 144.02 12.25 144.12 12.72 67.31 381.03 67.75 384 144.02"/><polygon class="cls-11" points="383.95 143.98 12.32 144.08 12.79 67.31 381.01 67.75 383.95 143.98"/><polygon class="cls-12" points="383.91 143.94 12.4 144.04 12.86 67.31 381 67.74 383.91 143.94"/><polygon class="cls-13" points="383.86 143.9 12.47 144 12.93 67.31 380.98 67.73 383.86 143.9"/><polygon class="cls-14" points="383.82 143.86 12.55 143.96 13.01 67.31 380.97 67.73 383.82 143.86"/><polygon class="cls-15" points="383.77 143.82 12.63 143.92 13.08 67.31 380.95 67.72 383.77 143.82"/><polygon class="cls-16" points="383.73 143.78 12.7 143.88 13.15 67.31 380.94 67.72 383.73 143.78"/><polygon class="cls-17" points="383.69 143.74 12.78 143.83 13.22 67.3 380.93 67.71 383.69 143.74"/><polygon class="cls-18" points="383.64 143.7 12.85 143.79 13.29 67.3 380.91 67.7 383.64 143.7"/><polygon class="cls-19" points="383.6 143.66 12.93 143.75 13.36 67.3 380.9 67.7 383.6 143.66"/><polygon class="cls-20" points="383.55 143.63 13.01 143.71 13.43 67.3 380.88 67.69 383.55 143.63"/><polygon class="cls-21" points="383.51 143.59 13.08 143.67 13.5 67.3 380.87 67.69 383.51 143.59"/><polygon class="cls-22" points="383.47 143.54 13.16 143.63 13.57 67.3 380.85 67.68 383.47 143.54"/><polygon class="cls-23" points="383.42 143.5 13.23 143.59 13.64 67.3 380.84 67.67 383.42 143.5"/><polygon class="cls-24" points="383.38 143.47 13.31 143.55 13.72 67.29 380.82 67.67 383.38 143.47"/><polygon class="cls-25" points="383.33 143.43 13.38 143.51 13.79 67.29 380.81 67.66 383.33 143.43"/><polygon class="cls-26" points="383.29 143.39 13.46 143.47 13.86 67.29 380.8 67.66 383.29 143.39"/><polygon class="cls-27" points="383.25 143.35 13.54 143.43 13.93 67.29 380.78 67.65 383.25 143.35"/><polygon class="cls-28" points="383.2 143.31 13.61 143.39 14 67.29 380.77 67.64 383.2 143.31"/><polygon class="cls-29" points="383.16 143.27 13.69 143.35 14.07 67.29 380.75 67.64 383.16 143.27"/><polygon class="cls-30" points="383.11 143.23 13.76 143.31 14.14 67.28 380.74 67.63 383.11 143.23"/><polygon class="cls-31" points="383.07 143.19 13.84 143.26 14.21 67.28 380.72 67.63 383.07 143.19"/><polygon class="cls-32" points="383.02 143.15 13.92 143.22 14.29 67.28 380.71 67.62 383.02 143.15"/><polygon class="cls-33" points="382.98 143.11 13.99 143.18 14.36 67.28 380.69 67.61 382.98 143.11"/><polygon class="cls-34" points="382.94 143.07 14.07 143.14 14.43 67.28 380.68 67.61 382.94 143.07"/><polygon class="cls-35" points="382.89 143.03 14.14 143.1 14.5 67.28 380.67 67.6 382.89 143.03"/><polygon class="cls-36" points="382.85 142.99 14.22 143.06 14.57 67.28 380.65 67.6 382.85 142.99"/><polygon class="cls-37" points="382.8 142.95 14.3 143.02 14.64 67.27 380.64 67.59 382.8 142.95"/><polygon class="cls-38" points="382.76 142.91 14.37 142.98 14.71 67.27 380.62 67.58 382.76 142.91"/><polygon class="cls-39" points="382.72 142.87 14.45 142.94 14.78 67.27 380.61 67.58 382.72 142.87"/><polygon class="cls-40" points="382.67 142.83 14.52 142.9 14.86 67.27 380.59 67.57 382.67 142.83"/><polygon class="cls-41" points="382.63 142.79 14.6 142.86 14.93 67.27 380.58 67.57 382.63 142.79"/><polygon class="cls-42" points="382.58 142.75 14.68 142.82 15 67.27 380.56 67.56 382.58 142.75"/><polygon class="cls-43" points="382.54 142.71 14.75 142.78 15.07 67.26 380.55 67.56 382.54 142.71"/><polygon class="cls-44" points="382.5 142.67 14.83 142.74 15.14 67.26 380.54 67.55 382.5 142.67"/><polygon class="cls-45" points="382.45 142.63 14.9 142.69 15.21 67.26 380.52 67.54 382.45 142.63"/><polygon class="cls-46" points="382.41 142.59 14.98 142.65 15.28 67.26 380.51 67.54 382.41 142.59"/><polygon class="cls-47" points="382.36 142.55 15.05 142.61 15.35 67.26 380.49 67.53 382.36 142.55"/><polygon class="cls-48" points="382.32 142.51 15.13 142.57 15.43 67.26 380.48 67.53 382.32 142.51"/><polygon class="cls-49" points="382.27 142.47 15.21 142.53 15.5 67.25 380.46 67.52 382.27 142.47"/><polygon class="cls-50" points="382.23 142.43 15.28 142.49 15.57 67.25 380.45 67.51 382.23 142.43"/><polygon class="cls-51" points="382.19 142.39 15.36 142.45 15.64 67.25 380.43 67.51 382.19 142.39"/><polygon class="cls-52" points="382.14 142.35 15.44 142.41 15.71 67.25 380.42 67.5 382.14 142.35"/><polygon class="cls-53" points="382.1 142.31 15.51 142.37 15.78 67.25 380.41 67.5 382.1 142.31"/><polygon class="cls-54" points="382.05 142.27 15.59 142.33 15.85 67.25 380.39 67.49 382.05 142.27"/><polygon class="cls-55" points="382.01 142.23 15.66 142.29 15.92 67.25 380.38 67.48 382.01 142.23"/><polygon class="cls-56" points="381.97 142.19 15.74 142.25 15.99 67.24 380.36 67.48 381.97 142.19"/><polygon class="cls-57" points="381.92 142.15 15.81 142.21 16.07 67.24 380.35 67.47 381.92 142.15"/><polygon class="cls-58" points="381.88 142.11 15.89 142.16 16.14 67.24 380.33 67.47 381.88 142.11"/><polygon class="cls-59" points="381.83 142.07 15.97 142.12 16.21 67.24 380.32 67.46 381.83 142.07"/><polygon class="cls-60" points="381.79 142.03 16.04 142.08 16.28 67.24 380.31 67.45 381.79 142.03"/><polygon class="cls-61" points="381.75 142 16.12 142.04 16.35 67.24 380.29 67.45 381.75 142"/><polygon class="cls-62" points="381.7 141.96 16.19 142 16.42 67.23 380.28 67.44 381.7 141.96"/><polygon class="cls-63" points="381.66 141.91 16.27 141.96 16.49 67.23 380.26 67.44 381.66 141.91"/><polygon class="cls-64" points="381.61 141.88 16.35 141.92 16.56 67.23 380.25 67.43 381.61 141.88"/><polygon class="cls-65" points="381.57 141.84 16.42 141.88 16.64 67.23 380.23 67.43 381.57 141.84"/><polygon class="cls-66" points="381.52 141.8 16.5 141.84 16.71 67.23 380.22 67.42 381.52 141.8"/><polygon class="cls-67" points="381.48 141.76 16.57 141.8 16.78 67.23 380.2 67.41 381.48 141.76"/><polygon class="cls-68" points="381.44 141.72 16.65 141.76 16.85 67.22 380.19 67.41 381.44 141.72"/><polygon class="cls-69" points="381.39 141.68 16.73 141.72 16.92 67.22 380.18 67.4 381.39 141.68"/><polygon class="cls-70" points="381.35 141.64 16.8 141.68 16.99 67.22 380.16 67.4 381.35 141.64"/><polygon class="cls-71" points="381.3 141.6 16.88 141.63 17.06 67.22 380.15 67.39 381.3 141.6"/><polygon class="cls-72" points="381.26 141.56 16.95 141.59 17.13 67.22 380.13 67.38 381.26 141.56"/><polygon class="cls-73" points="381.22 141.52 17.03 141.55 17.2 67.22 380.12 67.38 381.22 141.52"/><polygon class="cls-74" points="381.17 141.48 17.11 141.51 17.28 67.22 380.1 67.37 381.17 141.48"/><polygon class="cls-75" points="381.13 141.44 17.18 141.47 17.35 67.21 380.09 67.37 381.13 141.44"/><polygon class="cls-76" points="381.08 141.4 17.26 141.43 17.42 67.21 380.07 67.36 381.08 141.4"/><polygon class="cls-77" points="381.04 141.36 17.33 141.39 17.49 67.21 380.06 67.36 381.04 141.36"/><polygon class="cls-78" points="381 141.32 17.41 141.35 17.56 67.21 380.05 67.35 381 141.32"/><polygon class="cls-79" points="380.95 141.28 17.48 141.31 17.63 67.21 380.03 67.34 380.95 141.28"/><polygon class="cls-80" points="380.91 141.24 17.56 141.27 17.7 67.21 380.02 67.34 380.91 141.24"/><polygon class="cls-81" points="380.86 141.2 17.64 141.23 17.77 67.2 380 67.33 380.86 141.2"/><polygon class="cls-82" points="380.82 141.16 17.71 141.19 17.84 67.2 379.99 67.33 380.82 141.16"/><polygon class="cls-83" points="380.77 141.12 17.79 141.15 17.92 67.2 379.97 67.32 380.77 141.12"/><polygon class="cls-84" points="380.73 141.08 17.86 141.11 17.99 67.2 379.96 67.31 380.73 141.08"/><polygon class="cls-85" points="380.69 141.04 17.94 141.06 18.06 67.2 379.94 67.31 380.69 141.04"/><polygon class="cls-86" points="380.64 141 18.02 141.02 18.13 67.2 379.93 67.3 380.64 141"/><polygon class="cls-87" points="380.6 140.96 18.09 140.98 18.2 67.19 379.92 67.3 380.6 140.96"/><polygon class="cls-88" points="380.55 140.92 18.17 140.94 18.27 67.19 379.9 67.29 380.55 140.92"/><polygon class="cls-89" points="380.51 140.88 18.24 140.9 18.34 67.19 379.89 67.28 380.51 140.88"/><polygon class="cls-90" points="380.47 140.84 18.32 140.86 18.41 67.19 379.87 67.28 380.47 140.84"/><polygon class="cls-91" points="380.42 140.8 18.4 140.82 18.49 67.19 379.86 67.27 380.42 140.8"/><polygon class="cls-92" points="380.38 140.76 18.47 140.78 18.56 67.19 379.84 67.27 380.38 140.76"/><polygon class="cls-93" points="380.33 140.72 18.55 140.74 18.63 67.19 379.83 67.26 380.33 140.72"/><polygon class="cls-94" points="380.29 140.68 18.62 140.7 18.7 67.18 379.81 67.25 380.29 140.68"/><polygon class="cls-95" points="380.25 140.64 18.7 140.66 18.77 67.18 379.8 67.25 380.25 140.64"/><polygon class="cls-96" points="380.2 140.6 18.77 140.62 18.84 67.18 379.79 67.24 380.2 140.6"/><polygon class="cls-97" points="380.16 140.56 18.85 140.58 18.91 67.18 379.77 67.24 380.16 140.56"/><polygon class="cls-98" points="380.11 140.52 18.93 140.54 18.98 67.18 379.76 67.23 380.11 140.52"/><polygon class="cls-99" points="380.07 140.48 19 140.5 19.05 67.18 379.74 67.22 380.07 140.48"/><polygon class="cls-100" points="380.02 140.44 19.08 140.45 19.13 67.17 379.73 67.22 380.02 140.44"/><polygon class="cls-101" points="379.98 140.41 19.16 140.41 19.2 67.17 379.71 67.21 379.98 140.41"/><polygon class="cls-102" points="379.94 140.37 19.23 140.37 19.27 67.17 379.7 67.21 379.94 140.37"/><polygon class="cls-103" points="379.89 140.32 19.31 140.33 19.34 67.17 379.68 67.2 379.89 140.32"/><polygon class="cls-104" points="379.85 140.28 19.38 140.29 19.41 67.17 379.67 67.19 379.85 140.28"/><polygon class="cls-105" points="379.8 140.25 19.46 140.25 19.48 67.17 379.65 67.19 379.8 140.25"/><polygon class="cls-106" points="379.76 140.21 19.54 140.21 19.55 67.17 379.64 67.18 379.76 140.21"/><polygon class="cls-106" points="379.72 140.17 19.61 140.17 19.63 67.16 379.63 67.18 379.72 140.17"/><polygon class="cls-107" points="379.67 140.13 19.69 140.13 19.7 67.16 379.61 67.17 379.67 140.13"/><polygon class="cls-108" points="379.63 140.09 19.76 140.09 19.77 67.16 379.6 67.17 379.63 140.09"/><rect class="cls-109" x="19.84" y="67.16" width="359.74" height="72.89"/></g><rect class="cls-110" x="11.89" y="65.81" width="374.33" height="75.58"/><path class="cls-111" d="M374.29,111.66l0,0"/><path class="cls-111" d="M374.63,108.25v0"/><path class="cls-112" d="M353.28,109.26l14.53-16.7-.48-.46c-2.85,3.27-13.82,15.95-14.13,16.31a7,7,0,0,0-2,5.84A7.36,7.36,0,0,1,353.28,109.26Z"/><path class="cls-113" d="M351.6,115.66a6.26,6.26,0,0,0,1.44,2,5.87,5.87,0,0,0,2.09,1.2,5.3,5.3,0,0,0,5.8-1.81l30-34.45a7.17,7.17,0,0,0,1.76-5.15,6.69,6.69,0,0,1,.09.72A7.31,7.31,0,0,1,391,83.42l-30,34.45a5.32,5.32,0,0,1-5.8,1.81,5.55,5.55,0,0,1-2.08-1.21,5.79,5.79,0,0,1-1.94-4.22A5.51,5.51,0,0,0,351.6,115.66Z"/><path class="cls-114" d="M352.24,108.35l14.54-16.67v0l0,0-.51-.44,0,0c-1,1.18-13.95,16.05-14.12,16.24a8.49,8.49,0,0,0-2.38,6.79A8.83,8.83,0,0,1,352.24,108.35Z"/><path class="cls-115" d="M350.34,116.23a7.3,7.3,0,0,0,4.35,3.93,6.67,6.67,0,0,0,7.3-2.22l30-34.43a8.58,8.58,0,0,0,2.11-6.14,5.94,5.94,0,0,1,.07.68,8.62,8.62,0,0,1-2.1,6.29l-30,34.45a6.65,6.65,0,0,1-7.28,2.22,7,7,0,0,1-2.58-1.5,7.34,7.34,0,0,1-1.79-2.44,7,7,0,0,1-.62-2.71A7,7,0,0,0,350.34,116.23Z"/><path class="cls-111" d="M386.08,70.47v.85a6.45,6.45,0,0,0-.88,0,7.15,7.15,0,0,0-5,2.47l-11.3,13-.18-.81,11.4-13a7.31,7.31,0,0,1,5-2.48,7.08,7.08,0,0,1,.92,0Z"/><polygon class="cls-116" points="368.74 85.94 380.14 72.95 368.74 85.96 368.74 85.94"/><path class="cls-116" d="M392.88,77.34a7.33,7.33,0,0,0-2.4-4.26,7,7,0,0,0-4.4-1.76v-.85h0a5.06,5.06,0,0,1,.56.06,4,4,0,0,1,.5.09l.2,0,.28.07.42.14a1,1,0,0,1,.16.06,3,3,0,0,1,.41.17l.17.07.26.14a3.47,3.47,0,0,1,.37.21q.23.13.45.3c.18.13.36.27.53.42a7.18,7.18,0,0,1,2.46,5A.49.49,0,0,1,392.88,77.34Z"/><path class="cls-111" d="M386.08,69.92v.55h0a7.08,7.08,0,0,0-.92,0,7.31,7.31,0,0,0-5,2.48l-11.4,13-.2-.85h0l10.63-12.2a8.67,8.67,0,0,1,6-3A7.68,7.68,0,0,1,386.08,69.92Z"/><polygon class="cls-117" points="380.14 72.95 368.74 85.96 368.74 85.94 380.14 72.95"/><path class="cls-117" d="M394.27,77.28a8.26,8.26,0,0,1-.15,2.1v0a8.54,8.54,0,0,1-2,4l-30,34.43a7.41,7.41,0,0,1-3.07,2.17l-.13,0a6.46,6.46,0,0,1-4.1,0,7.28,7.28,0,0,1-4.35-3.92,7,7,0,0,1-.54-1.88s0,0,0-.07a8.83,8.83,0,0,1,2.45-5.93L367,91.56l.52.42h0l0,0-.13.15c-3,3.49-13.7,15.79-14,16.15a7.6,7.6,0,0,0-2.07,4.47.13.13,0,0,0,0,.06,5.17,5.17,0,0,0,.06,1.31,5.64,5.64,0,0,0,.26,1.6h0a4.79,4.79,0,0,0,.24.63,5.59,5.59,0,0,0,1.44,2,5.45,5.45,0,0,0,2.08,1.21,5,5,0,0,0,3.17,0l.11,0a6.11,6.11,0,0,0,2.52-1.77l30-34.45A7.23,7.23,0,0,0,393,78.06a5.88,5.88,0,0,0-.08-.72.49.49,0,0,0,0-.12,7.18,7.18,0,0,0-2.46-5c-.17-.15-.35-.29-.53-.42s-.3-.21-.45-.3a3.47,3.47,0,0,0-.37-.21l-.26-.14-.17-.07a3,3,0,0,0-.41-.17,1,1,0,0,0-.16-.06l-.42-.14-.28-.07-.2,0a4,4,0,0,0-.5-.09,5.06,5.06,0,0,0-.56-.06h0v-.55A8.72,8.72,0,0,1,391.4,72,8.58,8.58,0,0,1,394.27,77.28Z"/><path class="cls-111" d="M386.08,69.09v.83a7.68,7.68,0,0,0-1,0,8.67,8.67,0,0,0-6,3l-10.63,12.2-.17-.72L379.09,72A8.64,8.64,0,0,1,385,69.09,6.14,6.14,0,0,1,386.08,69.09Z"/><path class="cls-118" d="M394.27,77.13a.38.38,0,0,1,0,.15A8.58,8.58,0,0,0,391.4,72a8.72,8.72,0,0,0-5.32-2.11v-.83a8.48,8.48,0,0,1,5.23,2.1A8.66,8.66,0,0,1,394.27,77.13Z"/><path class="cls-117" d="M14.87,127.21c-.1.21-.19.41-.3.6v0c.16-.31.33-.63.47-.95A1.24,1.24,0,0,0,14.87,127.21Z"/><path class="cls-117" d="M15.06,126.86l.07-.1,0,0A.47.47,0,0,1,15.06,126.86Z"/><path class="cls-112" d="M35.11,132l-13-20.75.32-.6c2.27,3.62,12.6,20.13,12.84,20.54a6.94,6.94,0,0,1,1.06,6A7.24,7.24,0,0,0,35.11,132Z"/><path class="cls-113" d="M35.75,138.48a6.16,6.16,0,0,1-1.71,1.7,5.77,5.77,0,0,1-2.21.84,5.22,5.22,0,0,1-5.36-2.66L2.66,100.25A7.05,7.05,0,0,1,1.74,95a6.59,6.59,0,0,0-.2.69,7.2,7.2,0,0,0,.9,5.41l23.81,38.12a5.24,5.24,0,0,0,5.36,2.66,5.47,5.47,0,0,0,2.21-.86,5.7,5.7,0,0,0,2.53-3.8A5.42,5.42,0,0,1,35.75,138.48Z"/><path class="cls-114" d="M36.26,131.27,23,110l0,0-.26.16.5-.93,0,0c.82,1.31,13.09,21,13.23,21.18a8.35,8.35,0,0,1,1.26,7A8.69,8.69,0,0,0,36.26,131.27Z"/><path class="cls-115" d="M36.89,139.22a7.18,7.18,0,0,1-4.83,3.15,6.56,6.56,0,0,1-6.75-3.29L1.5,101A8.44,8.44,0,0,1,.4,94.69a5.85,5.85,0,0,0-.18.65,8.49,8.49,0,0,0,1.07,6.43L25.1,139.89a6.54,6.54,0,0,0,6.74,3.28,6.91,6.91,0,0,0,2.74-1.06,7.23,7.23,0,0,0,2.11-2.1,6.85,6.85,0,0,0,1-2.54A6.91,6.91,0,0,1,36.89,139.22Z"/><path class="cls-111" d="M23.9,107.23l-.33.6-9-14.37A7,7,0,0,0,11.9,91v-.9a6.93,6.93,0,0,1,2.89,2.61Z"/><path class="cls-116" d="M11.9,90.06V91a6.71,6.71,0,0,0-1.77-.66,7.09,7.09,0,0,0-5.4.89,7.24,7.24,0,0,0-3,3.78.48.48,0,0,0,0-.12,7.13,7.13,0,0,1,8.58-5.36A6.53,6.53,0,0,1,11.9,90.06Z"/><path class="cls-111" d="M24.33,106.47l-.42.78h0L14.8,92.67a6.93,6.93,0,0,0-2.89-2.61v-.61a8.38,8.38,0,0,1,3.85,3.3l8.56,13.71Z"/><path class="cls-117" d="M37.72,137.42a.07.07,0,0,0,0,.07,7,7,0,0,1-.82,1.73,7.15,7.15,0,0,1-4.84,3.15,6.56,6.56,0,0,1-6.74-3.29L1.49,101A8.42,8.42,0,0,1,.4,94.69,8.43,8.43,0,0,1,4,90,8.54,8.54,0,0,1,10.43,89a7.54,7.54,0,0,1,1.47.48v.61a6.53,6.53,0,0,0-1.56-.57,7.13,7.13,0,0,0-8.58,5.36.48.48,0,0,1,0,.12,6.11,6.11,0,0,0-.19.69,7.22,7.22,0,0,0,.9,5.4l23.81,38.12a5.24,5.24,0,0,0,5.36,2.66,5.84,5.84,0,0,0,3.92-2.55,5.77,5.77,0,0,0,.83-2.1,7,7,0,0,0-1.06-6L22.46,110.64l.26-.46L23,110l0,0c.45.73,13.12,21,13.26,21.24A8.63,8.63,0,0,1,37.72,137.42Z"/><path class="cls-111" d="M24.64,105.84l-.33.62L15.75,92.75a8.38,8.38,0,0,0-3.85-3.3v-.89A8.39,8.39,0,0,1,16,91.93Z"/><path class="cls-118" d="M11.9,88.56v.89A7.54,7.54,0,0,0,10.43,89,8.54,8.54,0,0,0,4,90,8.43,8.43,0,0,0,.4,94.69a.33.33,0,0,1,0-.15,8.52,8.52,0,0,1,10.22-6.38A7.15,7.15,0,0,1,11.9,88.56Z"/></g></g></g></svg>