<svg xmlns="http://www.w3.org/2000/svg" xmlns:xlink="http://www.w3.org/1999/xlink" viewBox="0 0 80.27 80.71"><defs><style>.cls-1{fill:#fff;opacity:0;}.cls-2{fill:#fcfcfc;opacity:0.02;}.cls-3{fill:#f8f8f8;opacity:0.04;}.cls-4{fill:#f5f5f5;opacity:0.07;}.cls-5{fill:#f2f2f2;opacity:0.09;}.cls-6{fill:#eee;opacity:0.11;}.cls-7{fill:#ebebeb;opacity:0.13;}.cls-8{fill:#e8e8e8;opacity:0.15;}.cls-9{fill:#e4e4e4;opacity:0.17;}.cls-10{fill:#e1e1e1;opacity:0.2;}.cls-11{fill:#dedede;opacity:0.22;}.cls-12{fill:#dadada;opacity:0.24;}.cls-13{fill:#d7d7d7;opacity:0.26;}.cls-14{fill:#d4d4d4;opacity:0.28;}.cls-15{fill:#d0d0d0;opacity:0.3;}.cls-16{fill:#cdcdcd;opacity:0.33;}.cls-17{fill:#cacaca;opacity:0.35;}.cls-18{fill:#c6c6c6;opacity:0.37;}.cls-19{fill:#c3c3c3;opacity:0.39;}.cls-20{fill:silver;opacity:0.41;}.cls-21{fill:#bcbcbc;opacity:0.43;}.cls-22{fill:#b9b9b9;opacity:0.46;}.cls-23{fill:#b6b6b6;opacity:0.48;}.cls-24{fill:#b3b3b3;opacity:0.5;}.cls-25{fill:#afafaf;opacity:0.52;}.cls-26{fill:#acacac;opacity:0.54;}.cls-27{fill:#a9a9a9;opacity:0.57;}.cls-28{fill:#a5a5a5;opacity:0.59;}.cls-29{fill:#a2a2a2;opacity:0.61;}.cls-30{fill:#9f9f9f;opacity:0.63;}.cls-31{fill:#9b9b9b;opacity:0.65;}.cls-32{fill:#989898;opacity:0.67;}.cls-33{fill:#959595;opacity:0.7;}.cls-34{fill:#919191;opacity:0.72;}.cls-35{fill:#8e8e8e;opacity:0.74;}.cls-36{fill:#8b8b8b;opacity:0.76;}.cls-37{fill:#878787;opacity:0.78;}.cls-38{fill:#848484;opacity:0.8;}.cls-39{fill:#818181;opacity:0.83;}.cls-40{fill:#7d7d7d;opacity:0.85;}.cls-41{fill:#7a7a7a;opacity:0.87;}.cls-42{fill:#777;opacity:0.89;}.cls-43{fill:#737373;opacity:0.91;}.cls-44{fill:#707070;opacity:0.93;}.cls-45{fill:#6d6d6d;opacity:0.96;}.cls-46{fill:#696969;opacity:0.98;}.cls-47{fill:#666;}.cls-48{fill:url(#linear-gradient);}.cls-49{fill:#010101;}.cls-50{fill:url(#linear-gradient-2);}</style><linearGradient id="linear-gradient" x1="11.28" y1="11.28" x2="60.43" y2="60.43" gradientUnits="userSpaceOnUse"><stop offset="0" stop-color="#f5f5f5"/><stop offset="0.48" stop-color="#e6e6e6"/><stop offset="0.69" stop-color="#e2e2e2"/><stop offset="0.73" stop-color="#e0e0e0"/><stop offset="0.86" stop-color="#e3e3e3"/><stop offset="0.96" stop-color="#ececec"/><stop offset="1" stop-color="#f2f2f2"/></linearGradient><linearGradient id="linear-gradient-2" x1="55.97" y1="56.28" x2="60.31" y2="60.62" gradientUnits="userSpaceOnUse"><stop offset="0" stop-color="#b5b5b5"/><stop offset="0.39" stop-color="#8f8f8f"/><stop offset="0.69" stop-color="#787878"/><stop offset="1" stop-color="#858585"/></linearGradient></defs><title>Datový zdroj 3</title><g id="Vrstva_2" data-name="Vrstva 2"><g id="Vrstva_1-2" data-name="Vrstva 1"><path class="cls-1" d="M15.4,15.39c-15.18,15.18-18.88,39.41,0,55,16.53,13.69,33.92,14.87,51.39-3.66,17.07-18.12,17.22-32.34,4.44-50S30.58.21,15.4,15.39Z"/><path class="cls-2" d="M15.32,15.31c-15.17,15.17-18.79,39.4,0,55C26.47,79.6,38.2,83.17,49.76,78.74c5.62-2.16,11.22-6.1,16.89-12.12S76,55.21,78.19,49.85C82.5,39,79.75,28.5,71.1,16.63,58.24-1,30.49.14,15.32,15.31Z"/><path class="cls-3" d="M15.24,15.22c-15.16,15.16-18.7,39.38,0,55,11.13,9.3,23,12.91,34.43,8.44,5.61-2.2,11.16-6.16,16.84-12.18S75.94,55.1,78.12,49.74C82.44,39.1,79.68,28.36,71,16.52,58.06-1,30.4.06,15.24,15.22Z"/><path class="cls-4" d="M15.15,15.14C0,30.3-3.46,54.5,15.15,70.09c11.11,9.33,23.17,13,34.42,8.46,5.61-2.25,11.1-6.21,16.8-12.24S75.83,55,78,49.62c4.32-10.46,1.57-21.41-7.21-33.21C57.87-1.08,30.31,0,15.15,15.14Z"/><path class="cls-5" d="M15.07,15.06C-.08,30.21-3.45,54.4,15.07,70c11.09,9.35,23.32,13,34.4,8.48,5.6-2.3,11-6.27,16.75-12.3S75.72,54.87,78,49.51c4.32-10.28,1.57-21.43-7.27-33.21C57.69-1.12,30.22-.09,15.07,15.06Z"/><path class="cls-6" d="M15,15C-.15,30.12-3.44,54.29,15,69.86c11.07,9.38,23.46,13.07,34.39,8.5C55,76,60.36,72,66.08,66S75.61,54.76,77.9,49.39c4.32-10.1,1.57-21.46-7.32-33.21C57.5-1.16,30.13-.17,15,15Z"/><path class="cls-7" d="M14.9,14.89C-.23,30-3.44,54.19,14.9,69.74,26,79.14,38.51,82.86,49.28,78.26c5.6-2.39,10.92-6.38,16.66-12.43s9.55-11.18,11.89-16.55c4.32-9.92,1.57-21.49-7.38-33.21C57.31-1.2,30-.24,14.9,14.89Z"/><path class="cls-8" d="M14.82,14.81c-15.13,15.13-18.25,39.28,0,54.81,11,9.43,23.75,13.17,34.37,8.54,5.59-2.44,10.86-6.43,16.61-12.49s9.58-11.13,12-16.51c4.31-9.74,1.57-21.51-7.44-33.2C57.13-1.24,29.95-.32,14.82,14.81Z"/><path class="cls-9" d="M14.74,14.73C-.38,29.85-3.42,54,14.74,69.51c11,9.46,23.89,13.22,34.36,8.56,5.59-2.49,10.81-6.49,16.56-12.55s9.61-11.09,12-16.46c4.31-9.56,1.57-21.54-7.5-33.2C56.94-1.27,29.86-.39,14.74,14.73Z"/><path class="cls-10" d="M14.66,14.65c-15.11,15.11-18.07,39.24,0,54.74,11,9.48,24,13.27,34.34,8.58,5.59-2.54,10.75-6.54,16.52-12.61s9.64-11,12.1-16.42c4.3-9.39,1.57-21.57-7.56-33.2C56.75-1.31,29.77-.47,14.66,14.65Z"/><path class="cls-11" d="M14.57,14.56c-15.11,15.11-18,39.22,0,54.71,11,9.51,24.18,13.31,34.33,8.6,5.58-2.59,10.69-6.6,16.47-12.67S75,54.2,77.55,48.82c4.29-9.21,1.57-21.6-7.62-33.2C56.57-1.35,29.68-.54,14.57,14.56Z"/><path class="cls-12" d="M14.49,14.48c-15.1,15.1-17.89,39.2,0,54.67,11,9.53,24.32,13.36,34.32,8.62C54.39,75.13,59.44,71.13,65.23,65s9.69-10.95,12.24-16.33c4.28-9,1.58-21.62-7.68-33.2C56.38-1.39,29.59-.62,14.49,14.48Z"/><path class="cls-13" d="M14.41,14.4C-.69,29.49-3.39,53.58,14.41,69c10.94,9.56,24.46,13.4,34.31,8.64C54.29,75,59.29,71,65.09,64.88S74.81,54,77.4,48.59C81.67,39.74,79,26.94,69.67,15.4,56.2-1.42,29.5-.69,14.41,14.4Z"/><path class="cls-14" d="M14.32,14.31C-.76,29.4-3.38,53.47,14.32,68.92c10.92,9.59,24.6,13.44,34.3,8.66C54.19,74.84,59.13,70.82,65,64.73S74.7,53.87,77.33,48.48c4.25-8.68,1.58-21.68-7.79-33.19C56-1.46,29.41-.77,14.32,14.31Z"/><path class="cls-15" d="M14.24,14.23C-.84,29.31-3.38,53.37,14.24,68.8,25.14,78.42,39,82.28,48.53,77.49,54.1,74.69,59,70.67,64.81,64.57c6-6.27,9.77-10.81,12.45-16.2,4.23-8.51,1.58-21.71-7.85-33.19C55.82-1.5,29.32-.85,14.24,14.23Z"/><path class="cls-16" d="M14.16,14.15c-15.07,15.07-17.53,39.12,0,54.54C25,78.32,39,82.2,48.43,77.39c5.57-2.85,10.4-6.87,16.24-13,6-6.29,9.79-10.77,12.52-16.16,4.21-8.33,1.56-21.71-7.91-33.19C55.6-1.51,29.23-.92,14.16,14.15Z"/><path class="cls-17" d="M14.07,14.07c-15.06,15.06-17.44,39.1,0,54.5,10.86,9.66,25,13.55,34.26,8.73,5.56-2.91,10.34-6.93,16.19-13,6-6.32,9.82-10.72,12.59-16.12,4.19-8.16,1.56-21.74-8-33.18C55.42-1.55,29.14-1,14.07,14.07Z"/><path class="cls-18" d="M14,14C-1.06,29-3.36,53.06,14,68.45,24.83,78.14,39.16,82,48.24,77.2c5.56-3,10.28-7,16.14-13.11C70.46,57.75,74.23,53.42,77,48c4.17-8,1.56-21.77-8-33.18C55.23-1.58,29-1.07,14,14Z"/><path class="cls-19" d="M13.91,13.9c-15,15-17.26,39.06,0,54.44C24.73,78.05,39.21,82,48.15,77.1c5.55-3,10.22-7,16.1-13.17,6.11-6.36,9.87-10.63,12.73-16,4.15-7.81,1.56-21.79-8.09-33.18C55-1.62,29-1.15,13.91,13.9Z"/><path class="cls-20" d="M13.83,13.82c-15,15-17.17,39,0,54.4C24.62,78,39.27,81.87,48.05,77c5.55-3.07,10.16-7.09,16.05-13.23,6.14-6.39,9.89-10.58,12.8-16C81,40.15,78.47,26,68.76,14.61,54.86-1.66,28.87-1.22,13.83,13.82Z"/><path class="cls-21" d="M13.74,13.74c-15,15-17,39,0,54.37C24.54,77.85,39.32,81.79,48,76.91c5.54-3.13,10.1-7.15,16-13.29,6.16-6.41,9.91-10.54,12.87-15.94,4.1-7.47,1.56-21.85-8.2-33.17C54.67-1.69,28.78-1.3,13.74,13.74Z"/><path class="cls-22" d="M13.66,13.65c-15,15-17,39,0,54.33,10.78,9.77,25.72,13.71,34.2,8.83,5.54-3.19,10-7.2,16-13.35C70,57,73.75,53,76.76,47.56c4.07-7.3,1.56-21.87-8.26-33.17C54.48-1.73,28.69-1.38,13.66,13.65Z"/><path class="cls-23" d="M13.58,13.57c-15,15-16.86,38.95,0,54.3,10.76,9.8,25.85,13.74,34.19,8.85,5.53-3.25,10-7.26,15.91-13.42,6.22-6.46,9.95-10.45,13-15.86,4-7.13,1.56-21.9-8.32-33.17C54.3-1.77,28.6-1.45,13.58,13.57Z"/><path class="cls-24" d="M13.49,13.49c-15,15-16.77,38.93,0,54.27,10.74,9.82,26,13.77,34.18,8.87,5.53-3.3,9.93-7.31,15.86-13.48,6.25-6.48,10-10.41,13.08-15.81,4-7,1.57-21.93-8.38-33.17C54.11-1.81,28.51-1.53,13.49,13.49Z"/><path class="cls-25" d="M13.41,13.4c-15,15-16.68,38.91,0,54.23,10.72,9.85,26.12,13.79,34.17,8.89C53.1,73.16,57.44,69.16,63.39,63c6.28-6.51,10-10.36,13.15-15.77,4-6.79,1.57-22-8.44-33.17C53.93-1.84,28.42-1.6,13.41,13.4Z"/><path class="cls-26" d="M13.33,13.32c-15,15-16.59,38.89,0,54.2C24,77.39,39.59,81.34,47.48,76.43,53,73,57.29,69,63.25,62.83c6.31-6.53,10-10.32,13.23-15.73,3.95-6.63,1.57-22-8.5-33.16C53.74-1.88,28.33-1.68,13.33,13.32Z"/><path class="cls-27" d="M13.24,13.24c-15,15-16.5,38.87,0,54.16,10.68,9.9,26.39,13.84,34.14,8.93,5.51-3.49,9.75-7.48,15.72-13.66,6.34-6.55,10-10.28,13.3-15.68,3.91-6.46,1.57-22-8.55-33.16C53.55-1.92,28.24-1.75,13.24,13.24Z"/><path class="cls-28" d="M13.16,13.16c-15,15-16.41,38.85,0,54.13,10.66,9.92,26.53,13.86,34.13,9C52.79,72.69,57,68.71,63,62.52c6.36-6.58,10-10.24,13.37-15.64,3.88-6.29,1.57-22-8.61-33.16C53.37-2,28.15-1.83,13.16,13.16Z"/><path class="cls-29" d="M13.08,13.07c-15,15-16.32,38.83,0,54.1,10.64,10,26.66,13.88,34.12,9,5.49-3.61,9.63-7.59,15.63-13.79,6.39-6.6,10-10.2,13.44-15.6,3.84-6.13,1.57-22.07-8.67-33.16C53.18-2,28.06-1.9,13.08,13.07Z"/><path class="cls-30" d="M13,13C-2,28-3.27,51.83,13,67.05c10.6,10,26.79,13.9,34.11,9,5.48-3.68,9.58-7.64,15.58-13.85C69.11,55.58,72.75,52,76.19,46.65c3.8-6,1.58-22.09-8.73-33.15C53-2,28-2,13,13Z"/><path class="cls-31" d="M12.91,12.91c-15,15-16.17,38.82,0,54C23.49,77,39.83,80.86,47,76c5.47-3.74,9.52-7.7,15.54-13.91C69,55.39,72.62,51.93,76.12,46.53c3.76-5.8,1.58-22.12-8.79-33.15C52.81-2.07,27.88-2.06,12.91,12.91Z"/><path class="cls-32" d="M12.83,12.83c-15,15-16.08,38.8,0,54,10.56,10,27.05,13.94,34.08,9,5.46-3.81,9.46-7.75,15.49-14C68.88,55.21,72.49,51.81,76,46.42c3.72-5.64,1.58-22.15-8.85-33.15C52.63-2.11,27.79-2.13,12.83,12.83Z"/><path class="cls-33" d="M12.75,12.74c-14.95,14.95-16,38.78,0,54,10.54,10.08,27.18,14,34.07,9.06,5.45-3.87,9.4-7.81,15.44-14C68.77,55,72.36,51.69,76,46.3s1.6-22.2-8.9-33.15C52.47-2.18,27.7-2.21,12.75,12.74Z"/><path class="cls-34" d="M12.66,12.66c-14.94,14.94-15.9,38.76,0,53.92,10.52,10.1,27.31,14,34.06,9.08,5.44-3.94,9.34-7.86,15.4-14.1,6.54-6.72,10.1-10,13.79-15.38S77.51,24,66.94,13C52.29-2.22,27.61-2.28,12.66,12.66Z"/><path class="cls-35" d="M12.58,12.58c-14.94,14.94-15.81,38.75,0,53.89,10.5,10.13,27.43,14,34,9.1,5.42-4,9.28-7.92,15.35-14.16,6.56-6.74,10.11-10,13.86-15.34,3.6-5.15,1.61-22.25-9-33.14A38.2,38.2,0,0,0,12.58,12.58Z"/><path class="cls-36" d="M12.5,12.5c-14.93,14.93-15.72,38.73,0,53.86,10.48,10.15,27.56,14,34,9.12,5.41-4.08,9.22-8,15.3-14.22C68.43,54.49,72,51.32,75.76,46c3.55-5,1.61-22.28-9.08-33.14A38.22,38.22,0,0,0,12.5,12.5Z"/><path class="cls-37" d="M12.41,12.41c-14.92,14.92-15.63,38.71,0,53.82,10.46,10.18,27.69,14,34,9.14,5.4-4.15,9.17-8,15.26-14.28,6.62-6.79,10.12-9.9,14-15.25C79.2,41,77.3,23.54,66.55,12.71A38.23,38.23,0,0,0,12.41,12.41Z"/><path class="cls-38" d="M12.33,12.33C-2.58,27.24-3.21,51,12.33,66.12c10.44,10.2,27.81,14,34,9.16,5.38-4.22,9.11-8.08,15.21-14.34,6.65-6.81,10.12-9.87,14.07-15.21,3.46-4.68,1.61-22.33-9.2-33.14A38.25,38.25,0,0,0,12.33,12.33Z"/><path class="cls-39" d="M12.25,12.25C-2.66,27.15-3.2,50.91,12.25,66c10.42,10.23,27.93,14,34,9.18,5.36-4.29,9-8.14,15.16-14.41,6.68-6.84,10.12-9.84,14.14-15.16,3.41-4.52,1.61-22.36-9.26-33.13A38.27,38.27,0,0,0,12.25,12.25Z"/><path class="cls-40" d="M12.16,12.16c-14.9,14.9-15.36,38.65,0,53.72,10.4,10.26,28.06,14.05,34,9.2,5.34-4.37,9-8.19,15.12-14.47C68,53.76,71.39,50.81,75.48,45.5c3.36-4.37,1.61-22.39-9.31-33.13C51.17-2.44,27.06-2.74,12.16,12.16Z"/><path class="cls-41" d="M12.08,12.08C-2.81,27-3.19,50.71,12.08,65.77,22.46,76,40.26,79.83,46.06,75c5.32-4.44,8.93-8.25,15.07-14.53,6.74-6.89,10.11-9.78,14.28-15.08C78.72,41.18,77,23,66,12.26,51-2.48,27-2.81,12.08,12.08Z"/><path class="cls-42" d="M12,12a37.55,37.55,0,0,0,0,53.65C22.36,76,40.3,79.72,46,74.9c5.3-4.52,8.87-8.3,15-14.59,6.76-6.91,10.11-9.76,14.35-15C78.6,41.21,77,22.83,65.91,12.15,50.8-2.52,26.88-2.89,12,12Z"/><path class="cls-43" d="M11.92,11.92a37.6,37.6,0,0,0,0,53.62c10.34,10.33,28.42,14.08,34,9.27,5.28-4.59,8.81-8.36,15-14.65,6.79-6.93,10.1-9.74,14.42-15,3.21-3.91,1.62-22.47-9.49-33.12C50.61-2.56,26.79-3,11.92,11.92Z"/><path class="cls-44" d="M11.83,11.83a37.64,37.64,0,0,0,0,53.58C22.16,75.78,40.37,79.51,45.77,74.7S54.53,66.29,60.7,60C67.53,53,70.79,50.27,75.19,45c3.16-3.76,1.62-22.5-9.55-33.12C50.43-2.59,26.7-3,11.83,11.83Z"/><path class="cls-45" d="M11.75,11.75a37.69,37.69,0,0,0,0,53.55c10.3,10.38,28.65,14.1,33.93,9.31s8.7-8.47,14.89-14.78c6.85-7,10.07-9.71,14.56-14.9,3.11-3.61,1.62-22.52-9.61-33.12C50.24-2.63,26.61-3.11,11.75,11.75Z"/><path class="cls-46" d="M11.67,11.67a37.73,37.73,0,0,0,0,53.52C22,75.59,40.43,79.29,45.58,74.51S54.22,66,60.42,59.67c6.88-7,10.06-9.69,14.63-14.86,3.06-3.46,1.62-22.55-9.67-33.12C50.05-2.67,26.52-3.19,11.67,11.67Z"/><path class="cls-47" d="M11.58,11.59a37.78,37.78,0,0,0,0,53.48C21.85,75.5,40.47,79.18,45.49,74.42c5.18-4.91,8.58-8.58,14.79-14.9,6.91-7,10-9.69,14.7-14.82,3-3.31,1.62-22.58-9.72-33.11C49.87-2.71,26.43-3.27,11.58,11.59Z"/><path class="cls-48" d="M46.38,74.36c9.24-9.25,18.79-18.75,28-27.84A10.46,10.46,0,0,0,77,40,38.5,38.5,0,1,0,39.65,77,9.43,9.43,0,0,0,46.38,74.36Z"/><path class="cls-49" d="M45.75,71.19c.22-.2.08-.18.11-.22C45.51,71.31,45.77,71.2,45.75,71.19Z"/><path class="cls-49" d="M41.42,73.34l.08,0c-.24.06-.48.11-.73.15Z"/><path class="cls-49" d="M36.64,73.33a13.69,13.69,0,0,0,2.59.12l.14,0,.38-.12A22.89,22.89,0,0,1,36.64,73.33Z"/><path class="cls-49" d="M34.15,72.73c.15.08-.55,0,.58.1l-.1,0Z"/><path class="cls-49" d="M34.63,72.81c.5.07-.32-.09,0,0Z"/><path class="cls-49" d="M32.34,72.45l.66.08c-.13-.06-.7-.18-.48-.16C31.85,72.26,32,72.32,32.34,72.45Z"/><path class="cls-49" d="M31.71,72.42l.34.05A1,1,0,0,0,31.71,72.42Z"/><path class="cls-49" d="M32.77,72.57l-.72-.1c.09,0,.09.09.33,0C32.31,72.55,32.46,72.54,32.77,72.57Z"/><path class="cls-49" d="M33.17,72.67c.36.11.83.2.17.13C34.59,73,34.42,72.86,33.17,72.67Z"/><path class="cls-49" d="M36.39,73.46l.5.09.44,0C37.1,73.54,36.36,73.42,36.39,73.46Z"/><path class="cls-49" d="M28.4,71.3s.18.15.22.2l.48.11A2.86,2.86,0,0,1,28.4,71.3Z"/><path class="cls-49" d="M28.62,71.51l-.7-.2C28.53,71.54,28.65,71.55,28.62,71.51Z"/><path class="cls-49" d="M31.56,72.55c.4.07.8.09,1.2.14-.48-.06-1-.1-1.43-.19Z"/><polygon class="cls-49" points="25.82 70.3 26.22 70.39 25.5 70.21 25.82 70.3"/><path class="cls-49" d="M24.14,69.53c.3.08-.33-.27,0-.16-.45-.22-.84-.38-1.2-.53A12.81,12.81,0,0,1,24.14,69.53Z"/><path class="cls-49" d="M22.31,68.59c.18.09.38.17.6.26Z"/><path class="cls-49" d="M26.75,70.86a1.8,1.8,0,0,0-.5-.3l.23.19Z"/><path class="cls-49" d="M26.5,70.76h0l-.57-.24Z"/><path class="cls-49" d="M26.82,70.89l-.07,0A.09.09,0,0,0,26.82,70.89Z"/><path class="cls-49" d="M29.72,72c-.42-.08-1.3-.29-.49,0C29.54,72,29.08,71.86,29.72,72Z"/><path class="cls-49" d="M27.12,71.12l.73.28s-.13-.1.08-.06Z"/><path class="cls-49" d="M26.75,71l.37.11L26.85,71Z"/><path class="cls-49" d="M23.44,69.29c-.31-.13-.64-.3-1-.49l1.17.66C23.67,69.47,23.86,69.52,23.44,69.29Z"/><path class="cls-49" d="M24.9,70.05l-.07,0S24.9,70.07,24.9,70.05Z"/><polygon class="cls-49" points="19.03 66.56 19.07 66.61 19.09 66.61 19.03 66.56"/><path class="cls-49" d="M23.66,69.51a2.77,2.77,0,0,0,.66.29,8,8,0,0,1-.72-.34S23.56,69.47,23.66,69.51Z"/><path class="cls-49" d="M21.32,68l.47.34A2.72,2.72,0,0,0,21.32,68Z"/><path class="cls-49" d="M24.74,70l0,0C24.7,69.91,24.71,69.92,24.74,70Z"/><path class="cls-49" d="M24.74,70l-.42-.14.51.21Z"/><path class="cls-49" d="M17.7,66.23a4.73,4.73,0,0,1,1.41,1c.66.37.39-.1,0-.62,0,0-.06,0-.7-.39.19.2,1.3,1.12.74.78a5,5,0,0,1-1-.87c.26.35-1.1-.71-1-.47.24.18.48.37.73.54C17.8,66.24,17.52,66.06,17.7,66.23Z"/><path class="cls-49" d="M20.26,67.46l.27.17a10.79,10.79,0,0,1-.84-.71c-.46-.26-.55-.32-.6-.32.4.33.84.6,1.26.91Z"/><path class="cls-49" d="M21.73,68.39c-.25-.05-.92-.42-.58-.1a7.14,7.14,0,0,0,1.09.54c-1.29-.77.39.18-.51-.42l.7.4c-.23-.14-.44-.29-.64-.43l0,0h0s.06.06,0,0h-.1c-.36-.24,0-.05.07,0h0c-.43-.25-.88-.48-1.29-.76A12.4,12.4,0,0,0,21.73,68.39Z"/><path class="cls-49" d="M28.4,72s0,0,0,0S28.23,71.89,28.4,72Z"/><path class="cls-49" d="M27.83,71.69a2.51,2.51,0,0,1,.54.15c.28.13,0,0,0,.07.21,0,.74.16.11-.07l-.1,0a7.09,7.09,0,0,1-1.16-.57A2.93,2.93,0,0,0,27.83,71.69Z"/><path class="cls-49" d="M24.63,70.2c-.38-.17-.77-.32-1.15-.52.17.13.36.24.54.36V70C24.66,70.31,24.54,70.19,24.63,70.2Z"/><polygon class="cls-49" points="18.94 66.44 19.13 66.47 18.48 66.13 18.94 66.44"/><polygon class="cls-49" points="17.66 65.44 17.76 65.42 17.4 65.18 17.66 65.44"/><path class="cls-49" d="M48,5.78l.37.07Z"/><path class="cls-49" d="M45.34,5.18l-.07,0C45.4,5.2,45.45,5.2,45.34,5.18Z"/><path class="cls-49" d="M6.92,29.48c.25-.48.55-1,.45-1l-.14.13A7.41,7.41,0,0,1,6.92,29.48Z"/><path class="cls-49" d="M23.81,8.76l-.16,0L23.36,9Z"/><path class="cls-49" d="M24,8.28,24.67,8Z"/><path class="cls-49" d="M61.27,12.36l.38.23C61.14,12.13,61.33,12.37,61.27,12.36Z"/><path class="cls-49" d="M7.9,52.22c-.13-.44-.23-.8-.34-1.1A3.55,3.55,0,0,0,7.9,52.22Z"/><path class="cls-49" d="M46.76,6.42c.22,0,.32,0,.32,0C46.85,6.4,46.72,6.39,46.76,6.42Z"/><path class="cls-49" d="M7.13,49.86l.06.24c.13.31.25.63.38,1A6.05,6.05,0,0,0,7.13,49.86Z"/><path class="cls-49" d="M60.82,57.58l-.09.08S60.76,57.64,60.82,57.58Z"/><path class="cls-49" d="M49.19,67.92l.45-.45C49.55,67.54,49.42,67.68,49.19,67.92Z"/><path class="cls-49" d="M13.1,60.8c.23.25,0,0,0,0Z"/><path class="cls-49" d="M14,62.27c-.06,0-.1-.08-.12-.07A.32.32,0,0,1,14,62.27Z"/><path class="cls-49" d="M5.71,46.68v0C5.71,46.75,5.71,46.73,5.71,46.68Z"/><path class="cls-49" d="M13.42,61.21l-.28-.34Z"/><path class="cls-49" d="M13.4,61.13l.19.23S13.62,61.35,13.4,61.13Z"/><path class="cls-49" d="M12.81,60.43c.12.16.22.31.34.44,0-.05-.06-.08,0-.07A4.12,4.12,0,0,1,12.81,60.43Z"/><path class="cls-49" d="M73.34,33.69v.08C73.44,34.11,73.41,34,73.34,33.69Z"/><path class="cls-49" d="M9.89,20.9l0,0,0,0Z"/><path class="cls-49" d="M10.53,19.8a9,9,0,0,1-.63,1.09l.42-.22A7.6,7.6,0,0,1,10.53,19.8Z"/><path class="cls-49" d="M54.14,8l-.78-.45c1,.34,1.73.71,1,.26a5.07,5.07,0,0,1-1.7-.62,4.28,4.28,0,0,0-1.74-.48l-.54-.25.35.11a2.48,2.48,0,0,0-1-.3A8.11,8.11,0,0,1,48.49,6c-.49-.14-.83-.26-.48-.21l-1.13-.21c-.32-.08-.23-.11.09,0a13.18,13.18,0,0,0-1.71-.33h0c-.25,0-.82,0-1.1,0-.43-.1.22,0,.12,0l-1-.07c-.38-.13.42-.08,1.08,0a2.09,2.09,0,0,0-1-.23c-.33,0-.79-.07-1.76-.17h.92a18,18,0,0,0-2.33-.31c.25.06,2.06.34,1,.36a7.25,7.25,0,0,0-1.25,0,2.43,2.43,0,0,0-1.25-.08l0-.13a6.55,6.55,0,0,0-1.12.21,2.55,2.55,0,0,1-1.21-.14c-1.34,0,.93.11-.64.22a28.25,28.25,0,0,0-3.17.54c-.76.13.12-.11-.16-.09l-.65.26c-.16,0-.12,0-.09,0-.55.18,0,.14-.89.39a3.85,3.85,0,0,1-1.14.25A6,6,0,0,0,28,6.67c-.27.06.1-.12,0-.14a14,14,0,0,0-2.34,1.11l-1,.38c.76-.25-.11.28-.87.74l.66-.19c-.41.22-.83.42-1.23.66-.15.07-.06,0,.12-.2a2,2,0,0,0-.21.15c-.45.21-.27,0,0-.23.16-.06.33-.1.49-.15.28-.22.54-.43.44-.47l-.4.23c.07-.06.12-.1.07-.09a2.13,2.13,0,0,0-.37.22c-.12,0-.24,0-.35,0l0,.09-1.64.87c-1.1.76-1.88,1.65-3.52,2.92.35-.39,0-.2-.07-.31a24.52,24.52,0,0,0,2.17-1.63c-.47.33-.4.2-.29.1L18.15,12c0-.11-.38.18-.82.45.41-.11-1,1.07-1.54,1.65-.08,0,0-.19.74-.83-.89.6-.86,1.09-1.72,1.7a1.61,1.61,0,0,0,.32-.32C14.74,15,13.85,16,14,15.74l.16-.18c-.52.58-1.36,1.43-2,2.25a8.93,8.93,0,0,0-1.05,1.7.79.79,0,0,1,0-.38l-.59,1.28c-.17.44-.31.9-.47,1.34,0-.29-.78.35-.19-.82a11.89,11.89,0,0,0-.82,1.4c.15-.21.5-.44.34-.13a9.75,9.75,0,0,0-1.09,1.49c.19-.33.21.16,0,.7,0-.1-.22-.05-.15-.26l-.43,1.45c.12-.35-.15-.14-.35.14a2.47,2.47,0,0,1-.25.59c-.14.37-.3.8-.35,1L7,26.72c-.58,1.59-.29,1.67-.78,3.25,0-.21-.16-.57-.39.26a19.93,19.93,0,0,1-.08,3.25l-.1.27-.09,1.12c0-.36-.07-1-.1-1.77s.09-1.5.14-2a5.21,5.21,0,0,0-.34,1.08c-.14.31,0-.52.09-.8a17.31,17.31,0,0,0-.49,2.16c.15-.07-.11,1.7,0,1.63l.21-2.4a7.22,7.22,0,0,1-.07,3c-.11.39-.2-.32-.24-.29s0,.47,0,.84a6.61,6.61,0,0,1,0,.79l0-.67c-.09.87.11,1.43-.07,2.47,0,.36-.19,1.08-.1,1.14.13-.59.59-.7.73-.32,0,.12-.06,1.87-.11,2.28-.09.6-.33-.87-.41-.36a1.8,1.8,0,0,1,.12.48c0,.38-.12-.15-.06.67.15.12.23,1.66.17.37.15.79.09.85.23,1.78.07-.31.37.8.62,1.56,0,0,0,.14,0,.23a27.67,27.67,0,0,0,1,3.91c0,.14.22.85.06.58a6.19,6.19,0,0,1,.36.82c.19.91-.37-1-.27-.28a2.53,2.53,0,0,1,.32.65c.17.34.39.75.55,1a2.87,2.87,0,0,0-.35-.87c-.19-.4-.37-.88-.51-1.18.16-.06.67,1,1.45,2.38.57,1.12.13.54.24.73a6.65,6.65,0,0,0,1.11,1.83,7.77,7.77,0,0,1,1,1.55c.31.73-.16.15-.14.34-.56-.87-.75-1.4-1.1-2l.39.77a9.52,9.52,0,0,1-.74-1.18c.12.31.63,1.17,1.22,2.17s1.43,2,1.92,2.77c.21.25.6.66.47.42s-.24-.3-.36-.45c-.25-.48.75.8.34.19a24.67,24.67,0,0,1,1.9,2l0,.24a4,4,0,0,0-.66-.78c.35.29,1,1.38,1.48,1.59a6.92,6.92,0,0,1-.48-.6c.58.51,1.36,1.09,2.06,1.74-.25-.38-.19-.12-.59-.69.3.54-1.76-1.7-1.21-.91-.35-.63-.76-.95-1.27-1.72,0,0,.16.29-.37-.32l-.15-.11,0,0,0,0s0,0,0,0a2.29,2.29,0,0,1,.23.34,7.56,7.56,0,0,1-.77-.72c-.27-.33-.53-.67-.68-.83-.27-.4.16.13,0-.1l-.44-.48c0-.11-.63-1.11.08-.24l-.6-.82c-.34-.49-.68-1.24-1-1.64s-.7-1-.43-.66a12.92,12.92,0,0,1-.82-1.36v0C8.77,54,8.39,53.3,8,52.55a13.72,13.72,0,0,1-.84-2.45,8.63,8.63,0,0,1-.59-1.86l0-.19c-.18-.65-.41-2-.55-2.25.13-.76-.5-3.24-.43-4.44l-.1,0-.07-1.23-.05-.66V38.7l-.09.06a14.73,14.73,0,0,1,.08-1.63l.08-1,.16-1a2.81,2.81,0,0,1-.1.69A15,15,0,0,0,6,33.29a12,12,0,0,1,.53-2.39A5,5,0,0,1,6.7,30l0,.09,0-.15a4.28,4.28,0,0,1,.2-.48,2.4,2.4,0,0,0-.18.4l.34-1.11.15-.14,0-.09c.17-.39.07-.34-.07-.15.06-.21.1-.4.13-.56.27-.26.3-1.1.66-1.46a20.51,20.51,0,0,0,.8-2.27s.09-.11,0,.1l.32-.64a5.89,5.89,0,0,0,.32-.6l.21-.12.39-1c.39-.51.56-.72.32-.12a17,17,0,0,1,1.25-2.22l0,.1a11.72,11.72,0,0,1,.85-1.23c.33-.41,1.24-1.32,2.23-2.43a16,16,0,0,1,1.67-1.6c.59-.5,1.14-1,1.69-1.41-.56.12,1.06-.65,1-.86.16,0,.48-.24.16.05.53-.42,1-.71,1.33-1a7.54,7.54,0,0,0,1.11-.74c.16,0-.21.22-.07.17a2.38,2.38,0,0,1,.48-.3c.14,0-.15.14-.32.27C23,9.86,23,9.64,23,9.45a6.61,6.61,0,0,0,1.39-.74c.25-.06.64-.18-.14.2.45-.2,2.72-1.2,2.75-1.26a4.61,4.61,0,0,0,.76-.27c1-.34,1.12-.41,2.15-.7l-.3.05a6.73,6.73,0,0,1,1.7-.47l0,0a13.93,13.93,0,0,1,2.78-.47L34,5.73c.07-.11.51-.15,1.07-.18l.89-.06c.31,0,.62,0,.9,0l-.41,0a19.53,19.53,0,0,1,2.37.19c.14,0-.21,0-.4.06,1.62.06.21-.18,1.42-.17.22.08-.29.16.52.21a16.84,16.84,0,0,1,3.46.2c-.24-.09-.47-.17.09-.13s1,.18,1.56.3a9.81,9.81,0,0,0,1.5.3c.1,0,.14.06.14.08.65.12,2.11.42,2.5.51a7.23,7.23,0,0,0,2.13.83c.9.3,1.7.67,1.63.79.61.29,1.24.54,1.84.85h-.06a10.69,10.69,0,0,0,2,1c.25.17,0,.08,0,.08.82.49,1.22.82,1.61,1.1s.78.5,1.47.92l.07.18a3.49,3.49,0,0,1,.51.39l.81.79c.61.62,1.41,1.29,2.08,1.93a.47.47,0,0,1-.17-.12c1.59,1.4,3,4,3.74,4.4.28.37.58.72.84,1.1-1-1.51.29.13-.07-.52.4.59.86,1.62.4.88l-.06-.13c-.16-.09.11.4.41.91a4,4,0,0,1,.51,1.08,28.81,28.81,0,0,1,2,4.78,34.57,34.57,0,0,1,1.24,4.87l.07-.4.21,1.13c0,.3,0,.42-.18-.39a5.42,5.42,0,0,0,.32,1.37c.16,1.6-.25-.6-.19-.11l.1.66V35.2a5.86,5.86,0,0,1,.27,1.55c0,.62-.06.32,0,.57a1.37,1.37,0,0,0,0,.38l0,1.44.1-.58c.1.64,0,1.36.14.69-.13.5-.05,1.85-.37,3.09a8.42,8.42,0,0,1-1,2.6,5.14,5.14,0,0,1-.7,1.12c-.29.34-.67.69-1.06,1.08.21-.18.42-.2-.27.46.06-.44-1.32,1.16-2,1.56.58-.4-1.91,1.94-1,1.31-.58.55-.11,0-.58.35-1.27,1.42-3,2.91-4.66,4.59,0,.05.32-.19,0,.2l-1,.75c-.32.34-.16.45-.85,1,.11-.06.26-.16.05.07-3.39,3.13-6.57,6.74-10.11,9.82.5-.4.2-.1-.14.25.23-.21.06.07.13.06l-1.48,1.29c-.16.35-1.48,1.49-1.54,1.72l.42-.45c-.48.69,1.05-.58,1.1-.36.53-.77,1.9-1.54,2.81-2.78.26-.21-.16.24,0,.15a6.87,6.87,0,0,1,1.17-1.25l-.05.08c1.7-1.72,2.49-2.39,4.45-4.27l-.21.07a9.46,9.46,0,0,1,.74-.64c.37-.57-1.17,1.15-.85.61.68-.41,2.92-2.9,3.44-3.11.64-.63-.26.11.37-.52l.21-.13.11-.21c.43-.41.69-.56.74-.54-.11.1-.28.3-.38.41.59-.49,1.51-1.53,1.71-1.7l-.64.58c1.7-1.77,3.87-3.82,5.46-5.57l-.16.1c1.22-1.33,1.06-1,2.44-2.41l0,.06a12.88,12.88,0,0,1,1-1.08c-.32.39.74-.59.31-.09a8,8,0,0,0,.92-1.08l.43-.82.22-.22L73,43.93c-.25.79.35-.56.08.34.93-2,.64-3.13.88-4.06-.1-.48-.13,0-.15.48s-.1,1.09-.08.81c-.11.45,0-.82-.06-1.47a13.8,13.8,0,0,0,.2-2.82c0,.17,0,.18,0,.35,0-.64-.17-1.23-.15-2-.18-.42-.13-1-.3-1.1.07.51.18,1,.23,1.53,0-.44-.18-.85-.28-1.33s-.21-1-.31-1.75a7.74,7.74,0,0,1,.25.8c0-.42-.18-.79-.21-1.23a17.29,17.29,0,0,1,.61,2.76c0-.46-.36-1.75-.12-1.31-.34-.63-.25-1.65-.7-2.72l.11.05c-.06-.17-.19-.53-.26-.85l.26.56c-.31-.88-.39-1.75-.71-2.59.56,1.78,0,.43.18,1.21a8.38,8.38,0,0,1-.5-1.77,6.16,6.16,0,0,0-.62-2c.15.32.45,1.23.2.74s-.38-1.08-.46-1.37c-.75-1.54,0,.28-.34-.36A4.9,4.9,0,0,0,70,23.47l.08,0c-.88-1.73-.38-.38-1.22-1.9l.5.56-.5-.76.19.1c-.58-.81-.74-1.07-1.26-1.89.06.23-.2,0-.72-.7-.31-.5.27.21-.48-.75a2.51,2.51,0,0,1,.71.85c.06,0,.21.18.27.21a17,17,0,0,0-1.22-1.63,4.23,4.23,0,0,1,.28.39c-.38-.45-.82-.85-1.23-1.27-.15-.24,0-.09.18.06-.24-.26-.43-.43-.8-.8.14.05.2,0,.72.5-.38-.42-.81-.79-1.21-1.18,0-.11-.53-.69-.36-.55-.67-.66-1.81-1.43-2.69-2.3a3,3,0,0,1-.39-.24A20.21,20.21,0,0,0,57.92,10l-.6-.52c-.95-.52.82.69-.75-.18-1.12-.61-.35-.35-.72-.61a21.47,21.47,0,0,1-2.66-1.17C53.54,7.69,53.81,7.84,54.14,8ZM41.31,4.76a4.09,4.09,0,0,1,1,0A2.12,2.12,0,0,1,41.31,4.76ZM22,9.53a3.39,3.39,0,0,1,.71-.4A7.11,7.11,0,0,1,22,9.53ZM10.82,57.81l0,0C10.55,57.28,10.64,57.46,10.82,57.81Zm.63,1c.08.09.09.07.07,0a3.42,3.42,0,0,1-.4-.5A1.77,1.77,0,0,0,11.46,58.78ZM73.11,37.46c0-.08,0-.15,0-.23C73.18,37.74,73.14,37.6,73.11,37.46Z"/><path class="cls-49" d="M24,8.34a.18.18,0,0,1,.12,0C24.17,8.28,24.17,8.26,24,8.34Z"/><path class="cls-49" d="M61.19,12.33l0,0h0Z"/><path class="cls-49" d="M4.65,42.06a3.48,3.48,0,0,1,0-.48S4.64,41.68,4.65,42.06Z"/><path class="cls-49" d="M15.52,63.4c-.19-.16-.35-.35-.53-.52.25.26.31.38.43.51C15.43,63.36,15.35,63.24,15.52,63.4Z"/><path class="cls-49" d="M20.18,68l.29.18v-.05C20.08,67.83,19.79,67.67,20.18,68Z"/><path class="cls-49" d="M15.8,64.1c0,.1.34.41.74.75l-.07-.06C16.66,64.82,16.23,64.46,15.8,64.1Z"/><path class="cls-49" d="M16.64,64.93l.37.31C17.09,65.25,16.87,65.11,16.64,64.93Z"/><path class="cls-49" d="M12.37,59.94c.13.21.17.06.23.19C12.85,60.3,11.53,58.88,12.37,59.94Z"/><polygon class="cls-49" points="15.93 64.59 15.86 64.39 15.59 64.24 15.93 64.59"/><path class="cls-49" d="M13.11,61.52l.55.64s.08.05.18.15A9.05,9.05,0,0,0,13.11,61.52Z"/><path class="cls-49" d="M13.83,62.3c.18.2.35.39.47.49Z"/><path class="cls-49" d="M15.07,63.82a2.39,2.39,0,0,1-.16-.19l-.4-.45C14.7,63.39,14.87,63.62,15.07,63.82Z"/><path class="cls-49" d="M8.26,53.89l-.41-.82c-.07-.07,0,.16.17.47S8.29,54,8.26,53.89Z"/><path class="cls-49" d="M9.3,56.5a1.72,1.72,0,0,1-.14-.39l-.12,0Z"/><path class="cls-49" d="M8,54.11C8,54,7.37,52.93,7.87,54,7.94,54.06,8.36,54.9,8,54.11Z"/><polygon class="cls-49" points="4.92 40.6 4.94 40.84 5.14 40.8 4.92 40.6"/><path class="cls-49" d="M6.21,28.37c-.41,1,0,.29-.35,1.22,0,.26.31-.76.26-.5C6.29,28.44,6.44,28.12,6.21,28.37Z"/><path class="cls-49" d="M6.12,29.09,6,29.42C6.09,29.23,6.11,29.15,6.12,29.09Z"/><polygon class="cls-49" points="47.29 69.66 46.76 70.13 47.13 69.86 47.29 69.66"/><path class="cls-49" d="M46.44,70.72l-.21,0-.22.38A3.22,3.22,0,0,1,46.44,70.72Z"/><path class="cls-49" d="M39.33,4.4l-.05,0a2.73,2.73,0,0,0,.61.07Z"/><polygon class="cls-49" points="48.91 5.87 48.75 5.83 49.02 6.01 48.91 5.87"/><path class="cls-49" d="M56.47,8.9l-.92-.53C56.19,8.73,56.48,9.08,56.47,8.9Z"/><path class="cls-50" d="M74.89,46c-3.24,3.22-11.5,2.86-19,10.28S48.85,71.93,45.65,75.12Z"/></g></g></svg>