<svg xmlns="http://www.w3.org/2000/svg" xmlns:xlink="http://www.w3.org/1999/xlink" viewBox="0 0 368.87 368.87"><defs><style>.cls-1{fill:#fff;opacity:0;}.cls-2{fill:#fbfbfb;opacity:0.03;}.cls-3{fill:#f8f8f8;opacity:0.06;}.cls-4{fill:#f4f4f4;opacity:0.08;}.cls-5{fill:#f1f1f1;opacity:0.11;}.cls-6{fill:#ededed;opacity:0.14;}.cls-7{fill:#eaeaea;opacity:0.17;}.cls-8{fill:#e6e6e6;opacity:0.19;}.cls-9{fill:#e3e3e3;opacity:0.22;}.cls-10{fill:#dfdfdf;opacity:0.25;}.cls-11{fill:#dcdcdc;opacity:0.28;}.cls-12{fill:#d8d8d8;opacity:0.31;}.cls-13{fill:#d4d4d4;opacity:0.33;}.cls-14{fill:#d1d1d1;opacity:0.36;}.cls-15{fill:#cdcdcd;opacity:0.39;}.cls-16{fill:#cacaca;opacity:0.42;}.cls-17{fill:#c6c6c6;opacity:0.44;}.cls-18{fill:#c3c3c3;opacity:0.47;}.cls-19{fill:#bfbfbf;opacity:0.5;}.cls-20{fill:#bcbcbc;opacity:0.53;}.cls-21{fill:#b8b8b8;opacity:0.56;}.cls-22{fill:#b5b5b5;opacity:0.58;}.cls-23{fill:#b1b1b1;opacity:0.61;}.cls-24{fill:#aeaeae;opacity:0.64;}.cls-25{fill:#aaa;opacity:0.67;}.cls-26{fill:#a6a6a6;opacity:0.69;}.cls-27{fill:#a3a3a3;opacity:0.72;}.cls-28{fill:#9f9f9f;opacity:0.75;}.cls-29{fill:#9c9c9c;opacity:0.78;}.cls-30{fill:#989898;opacity:0.81;}.cls-31{fill:#959595;opacity:0.83;}.cls-32{fill:#919191;opacity:0.86;}.cls-33{fill:#8e8e8e;opacity:0.89;}.cls-34{fill:#8a8a8a;opacity:0.92;}.cls-35{fill:#878787;opacity:0.94;}.cls-36{fill:#838383;opacity:0.97;}.cls-37{fill:gray;}.cls-38{fill:url(#linear-gradient);}</style><linearGradient id="linear-gradient" x1="52.36" y1="52.36" x2="305.19" y2="305.19" gradientUnits="userSpaceOnUse"><stop offset="0" stop-color="#f5f5f5"/><stop offset="1" stop-color="#d9d9d9"/></linearGradient></defs><title>Datový zdroj 11</title><g id="Vrstva_2" data-name="Vrstva 2"><g id="Ńëîé_1" data-name="Ńëîé 1"><path class="cls-1" d="M192.14,15.41c-97.45,0-176.73,79.28-176.73,176.73S94.69,368.87,192.14,368.87s176.73-79.28,176.73-176.73S289.59,15.41,192.14,15.41Z"/><path class="cls-2" d="M191.77,15C94.32,15,15,94.32,15,191.77S94.32,368.5,191.77,368.5,368.5,289.22,368.5,191.77,289.22,15,191.77,15Z"/><path class="cls-3" d="M191.4,14.67C94,14.67,14.67,94,14.67,191.4S94,368.13,191.4,368.13,368.13,288.85,368.13,191.4,288.85,14.67,191.4,14.67Z"/><path class="cls-4" d="M191,14.3C93.58,14.3,14.3,93.58,14.3,191S93.58,367.76,191,367.76,367.76,288.48,367.76,191,288.48,14.3,191,14.3Z"/><path class="cls-5" d="M190.66,13.93c-97.45,0-176.73,79.28-176.73,176.73S93.21,367.39,190.66,367.39s176.73-79.28,176.73-176.73S288.11,13.93,190.66,13.93Z"/><path class="cls-6" d="M190.29,13.56c-97.45,0-176.73,79.28-176.73,176.73S92.84,367,190.29,367,367,287.74,367,190.29,287.74,13.56,190.29,13.56Z"/><path class="cls-7" d="M189.92,13.19c-97.45,0-176.73,79.28-176.73,176.73S92.47,366.65,189.92,366.65s176.73-79.28,176.73-176.73S287.37,13.19,189.92,13.19Z"/><path class="cls-8" d="M189.55,12.82C92.1,12.82,12.82,92.1,12.82,189.55S92.1,366.28,189.55,366.28,366.28,287,366.28,189.55,287,12.82,189.55,12.82Z"/><path class="cls-9" d="M189.18,12.45c-97.45,0-176.73,79.28-176.73,176.73S91.73,365.91,189.18,365.91s176.73-79.28,176.73-176.73S286.63,12.45,189.18,12.45Z"/><path class="cls-10" d="M188.81,12.08c-97.45,0-176.73,79.28-176.73,176.73S91.36,365.54,188.81,365.54s176.73-79.28,176.73-176.73S286.26,12.08,188.81,12.08Z"/><path class="cls-11" d="M188.44,11.71C91,11.71,11.71,91,11.71,188.44S91,365.17,188.44,365.17s176.73-79.28,176.73-176.73S285.89,11.71,188.44,11.71Z"/><path class="cls-12" d="M188.07,11.34c-97.45,0-176.73,79.28-176.73,176.73S90.62,364.8,188.07,364.8,364.8,285.52,364.8,188.07,285.52,11.34,188.07,11.34Z"/><path class="cls-13" d="M187.7,11C90.25,11,11,90.25,11,187.7S90.25,364.43,187.7,364.43,364.43,285.15,364.43,187.7,285.15,11,187.7,11Z"/><path class="cls-14" d="M187.33,10.6C89.88,10.6,10.6,89.88,10.6,187.33S89.88,364.06,187.33,364.06s176.73-79.28,176.73-176.73S284.78,10.6,187.33,10.6Z"/><path class="cls-15" d="M187,10.23C89.51,10.23,10.23,89.51,10.23,187S89.51,363.69,187,363.69,363.69,284.41,363.69,187,284.41,10.23,187,10.23Z"/><path class="cls-16" d="M186.59,9.86C89.14,9.86,9.86,89.14,9.86,186.59S89.14,363.32,186.59,363.32,363.32,284,363.32,186.59,284,9.86,186.59,9.86Z"/><path class="cls-17" d="M186.22,9.49C88.77,9.49,9.49,88.77,9.49,186.22S88.77,362.95,186.22,362.95s176.73-79.28,176.73-176.73S283.67,9.49,186.22,9.49Z"/><path class="cls-18" d="M185.85,9.12C88.4,9.12,9.12,88.4,9.12,185.85S88.4,362.58,185.85,362.58,362.58,283.3,362.58,185.85,283.3,9.12,185.85,9.12Z"/><path class="cls-19" d="M185.48,8.75C88,8.75,8.75,88,8.75,185.48S88,362.21,185.48,362.21s176.73-79.28,176.73-176.73S282.93,8.75,185.48,8.75Z"/><path class="cls-20" d="M185.11,8.38C87.66,8.38,8.38,87.66,8.38,185.11S87.66,361.84,185.11,361.84s176.73-79.28,176.73-176.73S282.56,8.38,185.11,8.38Z"/><path class="cls-21" d="M184.74,8C87.29,8,8,87.29,8,184.74S87.29,361.47,184.74,361.47s176.73-79.28,176.73-176.73S282.19,8,184.74,8Z"/><path class="cls-22" d="M184.37,7.64C86.92,7.64,7.64,86.92,7.64,184.37S86.92,361.1,184.37,361.1,361.1,281.82,361.1,184.37,281.82,7.64,184.37,7.64Z"/><path class="cls-23" d="M184,7.27C86.55,7.27,7.27,86.55,7.27,184S86.55,360.73,184,360.73,360.73,281.45,360.73,184,281.45,7.27,184,7.27Z"/><path class="cls-24" d="M183.63,6.9C86.18,6.9,6.9,86.18,6.9,183.63S86.18,360.36,183.63,360.36s176.73-79.28,176.73-176.73S281.08,6.9,183.63,6.9Z"/><path class="cls-25" d="M183.26,6.53C85.81,6.53,6.53,85.81,6.53,183.26S85.81,360,183.26,360,360,280.71,360,183.26,280.71,6.53,183.26,6.53Z"/><path class="cls-26" d="M182.89,6.16C85.44,6.16,6.16,85.44,6.16,182.89S85.44,359.62,182.89,359.62s176.73-79.28,176.73-176.73S280.34,6.16,182.89,6.16Z"/><path class="cls-27" d="M182.52,5.79C85.07,5.79,5.79,85.07,5.79,182.52S85.07,359.25,182.52,359.25,359.25,280,359.25,182.52,280,5.79,182.52,5.79Z"/><path class="cls-28" d="M182.15,5.42C84.7,5.42,5.42,84.7,5.42,182.15S84.7,358.88,182.15,358.88,358.88,279.6,358.88,182.15,279.6,5.42,182.15,5.42Z"/><path class="cls-29" d="M181.78,5.05C84.33,5.05,5.05,84.33,5.05,181.78S84.33,358.51,181.78,358.51s176.73-79.28,176.73-176.73S279.23,5.05,181.78,5.05Z"/><path class="cls-30" d="M181.41,4.68C84,4.68,4.68,84,4.68,181.41S84,358.14,181.41,358.14s176.73-79.28,176.73-176.73S278.86,4.68,181.41,4.68Z"/><path class="cls-31" d="M181,4.31C83.59,4.31,4.31,83.59,4.31,181S83.59,357.77,181,357.77,357.77,278.49,357.77,181,278.49,4.31,181,4.31Z"/><path class="cls-32" d="M180.67,3.94C83.22,3.94,3.94,83.22,3.94,180.67S83.22,357.4,180.67,357.4,357.4,278.12,357.4,180.67,278.12,3.94,180.67,3.94Z"/><path class="cls-33" d="M180.3,3.57C82.85,3.57,3.57,82.85,3.57,180.3S82.85,357,180.3,357,357,277.75,357,180.3,277.75,3.57,180.3,3.57Z"/><path class="cls-34" d="M179.93,3.2C82.48,3.2,3.2,82.48,3.2,179.93S82.48,356.66,179.93,356.66s176.73-79.28,176.73-176.73S277.38,3.2,179.93,3.2Z"/><path class="cls-35" d="M179.56,2.83C82.11,2.83,2.83,82.11,2.83,179.56S82.11,356.29,179.56,356.29,356.29,277,356.29,179.56,277,2.83,179.56,2.83Z"/><path class="cls-36" d="M179.19,2.46C81.74,2.46,2.46,81.74,2.46,179.19S81.74,355.92,179.19,355.92s176.73-79.28,176.73-176.73S276.64,2.46,179.19,2.46Z"/><path class="cls-37" d="M178.82,2.09C81.37,2.09,2.09,81.37,2.09,178.82S81.37,355.55,178.82,355.55s176.73-79.28,176.73-176.73S276.27,2.09,178.82,2.09Z"/><circle class="cls-38" cx="178.78" cy="178.78" r="178.78"/></g></g></svg>