<svg xmlns="http://www.w3.org/2000/svg" xmlns:xlink="http://www.w3.org/1999/xlink" viewBox="0 0 372.69 374.74"><defs><style>.cls-1{fill:#fff;opacity:0;}.cls-2{fill:#fcfcfc;opacity:0.02;}.cls-3{fill:#f8f8f8;opacity:0.04;}.cls-4{fill:#f5f5f5;opacity:0.07;}.cls-5{fill:#f2f2f2;opacity:0.09;}.cls-6{fill:#eee;opacity:0.11;}.cls-7{fill:#ebebeb;opacity:0.13;}.cls-8{fill:#e8e8e8;opacity:0.15;}.cls-9{fill:#e4e4e4;opacity:0.17;}.cls-10{fill:#e1e1e1;opacity:0.2;}.cls-11{fill:#dedede;opacity:0.22;}.cls-12{fill:#dadada;opacity:0.24;}.cls-13{fill:#d7d7d7;opacity:0.26;}.cls-14{fill:#d4d4d4;opacity:0.28;}.cls-15{fill:#d0d0d0;opacity:0.3;}.cls-16{fill:#cdcdcd;opacity:0.33;}.cls-17{fill:#cacaca;opacity:0.35;}.cls-18{fill:#c6c6c6;opacity:0.37;}.cls-19{fill:#c3c3c3;opacity:0.39;}.cls-20{fill:silver;opacity:0.41;}.cls-21{fill:#bcbcbc;opacity:0.43;}.cls-22{fill:#b9b9b9;opacity:0.46;}.cls-23{fill:#b6b6b6;opacity:0.48;}.cls-24{fill:#b3b3b3;opacity:0.5;}.cls-25{fill:#afafaf;opacity:0.52;}.cls-26{fill:#acacac;opacity:0.54;}.cls-27{fill:#a9a9a9;opacity:0.57;}.cls-28{fill:#a5a5a5;opacity:0.59;}.cls-29{fill:#a2a2a2;opacity:0.61;}.cls-30{fill:#9f9f9f;opacity:0.63;}.cls-31{fill:#9b9b9b;opacity:0.65;}.cls-32{fill:#989898;opacity:0.67;}.cls-33{fill:#959595;opacity:0.7;}.cls-34{fill:#919191;opacity:0.72;}.cls-35{fill:#8e8e8e;opacity:0.74;}.cls-36{fill:#8b8b8b;opacity:0.76;}.cls-37{fill:#878787;opacity:0.78;}.cls-38{fill:#848484;opacity:0.8;}.cls-39{fill:#818181;opacity:0.83;}.cls-40{fill:#7d7d7d;opacity:0.85;}.cls-41{fill:#7a7a7a;opacity:0.87;}.cls-42{fill:#777;opacity:0.89;}.cls-43{fill:#737373;opacity:0.91;}.cls-44{fill:#707070;opacity:0.93;}.cls-45{fill:#6d6d6d;opacity:0.96;}.cls-46{fill:#696969;opacity:0.98;}.cls-47{fill:#666;}.cls-48{fill:url(#linear-gradient);}.cls-49{fill:url(#linear-gradient-2);}</style><linearGradient id="linear-gradient" x1="52.36" y1="52.36" x2="280.58" y2="280.58" gradientUnits="userSpaceOnUse"><stop offset="0" stop-color="#f5f5f5"/><stop offset="0.48" stop-color="#e6e6e6"/><stop offset="0.69" stop-color="#e2e2e2"/><stop offset="0.73" stop-color="#e0e0e0"/><stop offset="0.86" stop-color="#e3e3e3"/><stop offset="0.96" stop-color="#ececec"/><stop offset="1" stop-color="#f2f2f2"/></linearGradient><linearGradient id="linear-gradient-2" x1="259.86" y1="261.32" x2="280.01" y2="281.48" gradientUnits="userSpaceOnUse"><stop offset="0" stop-color="#b5b5b5"/><stop offset="0.39" stop-color="#8f8f8f"/><stop offset="0.69" stop-color="#787878"/><stop offset="1" stop-color="#858585"/></linearGradient></defs><title>Datový zdroj 10</title><g id="Vrstva_2" data-name="Vrstva 2"><g id="Ńëîé_1" data-name="Ńëîé 1"><path class="cls-1" d="M71.52,71.45c-70.47,70.47-87.67,183,0,255.6,76.76,63.56,157.5,69.06,238.59-17,79.26-84.11,79.95-150.14,20.6-232.3S142,1,71.52,71.45Z"/><path class="cls-2" d="M71.13,71.07C.7,141.51-16.12,254,71.13,326.51c51.78,43.07,106.24,59.66,159.9,39.07,26.08-10,52.08-28.33,78.42-56.26,26.1-27.67,43.65-53,53.58-77.85,20-50.22,7.26-99.13-32.92-154.23C270.42-4.68,141.57.64,71.13,71.07Z"/><path class="cls-3" d="M70.75,70.69c-70.4,70.4-86.83,182.82,0,255.28,51.69,43.19,106.91,59.93,159.84,39.16,26.06-10.22,51.8-28.58,78.21-56.55,26.23-27.78,43.79-52.75,53.9-77.65,20.06-49.38,7.26-99.26-33.2-154.22C269.56-4.86,141.15.28,70.75,70.69Z"/><path class="cls-4" d="M70.36,70.3C0,140.67-16.05,253,70.36,325.42c51.6,43.31,107.59,60.19,159.79,39.26,26-10.44,51.53-28.84,78-56.84s43.93-52.54,54.23-77.45c20.07-48.55,7.27-99.39-33.47-154.21C268.7-5,140.73-.07,70.36,70.3Z"/><path class="cls-5" d="M70,69.92c-70.34,70.34-86,182.64,0,255,51.51,43.43,108.26,60.45,159.73,39.36,26-10.66,51.26-29.09,77.77-57.12s44.07-52.33,54.56-77.25c20.07-47.71,7.27-99.51-33.74-154.2C267.83-5.21,140.31-.42,70,69.92Z"/><path class="cls-6" d="M69.59,69.53c-70.3,70.3-85.58,182.55,0,254.8C121,367.89,178.52,385,229.27,363.79c26-10.89,51-29.35,77.56-57.41s44.21-52.12,54.88-77c20.07-46.88,7.28-99.64-34-154.19C267-5.38,139.89-.77,69.59,69.53Z"/><path class="cls-7" d="M69.2,69.15C-1.07,139.42-16,251.61,69.2,323.8c51.32,43.67,109.6,60.93,159.62,39.55,26-11.11,50.72-29.61,77.34-57.7s44.35-51.91,55.21-76.85c20.05-46.05,7.29-99.77-34.28-154.18C266.1-5.56,139.47-1.12,69.2,69.15Z"/><path class="cls-8" d="M68.82,68.77c-70.24,70.24-84.74,182.36,0,254.49C120.05,367,179.08,384.42,228.39,362.9c26-11.34,50.44-29.86,77.12-58C332.4,276.59,350,253.22,361,228.27c20-45.22,7.29-99.89-34.55-154.17C265.24-5.73,139.06-1.47,68.82,68.77Z"/><path class="cls-9" d="M68.43,68.38c-70.2,70.2-84.32,182.27,0,254.33,51.14,43.91,110.93,61.39,159.51,39.74,26-11.57,50.17-30.12,76.91-58.27,27-28.44,44.62-51.48,55.86-76.44,20-44.4,7.3-100-34.82-154.16C264.38-5.91,138.64-1.82,68.43,68.38Z"/><path class="cls-10" d="M68,68c-70.17,70.17-83.9,182.18,0,254.17,51,44,111.6,61.61,159.46,39.84,25.94-11.8,49.9-30.37,76.69-58.56,27.16-28.55,44.75-51.27,56.19-76.24,20-43.58,7.3-100.15-35.1-154.15C263.51-6.08,138.22-2.17,68,68Z"/><path class="cls-11" d="M67.66,67.61c-70.14,70.14-83.48,182.09,0,254,51,44.15,112.26,61.82,159.4,39.94,25.93-12,49.63-30.63,76.47-58.85,27.29-28.66,44.87-51.05,56.51-76,19.92-42.76,7.31-100.27-35.37-154.14C262.65-6.26,137.8-2.52,67.66,67.61Z"/><path class="cls-12" d="M67.28,67.23c-70.11,70.11-83.06,182,0,253.85,50.87,44.27,112.92,62,159.35,40C252.54,348.85,276,330.23,302.88,302c27.43-28.77,45-50.84,56.84-75.84C379.58,184.21,367,125.75,324.08,72,261.78-6.44,137.38-2.87,67.28,67.23Z"/><path class="cls-13" d="M66.89,66.85c-70.07,70.07-82.64,181.91,0,253.7,50.77,44.39,113.58,62.21,159.29,40.13,25.9-12.51,49.08-31.14,76-59.42,27.56-28.88,45.12-50.63,57.16-75.64,19.8-41.12,7.32-100.53-35.91-154.12C260.92-6.61,137-3.23,66.89,66.85Z"/><path class="cls-14" d="M66.5,66.46c-70,70-82.22,181.81,0,253.54,50.68,44.51,114.24,62.4,159.24,40.23,25.88-12.75,48.81-31.39,75.82-59.71,27.69-29,45.24-50.41,57.49-75.44,19.73-40.31,7.33-100.65-36.18-154.11C260.05-6.79,136.54-3.58,66.5,66.46Z"/><path class="cls-15" d="M66.12,66.08c-70,70-81.8,181.72,0,253.38C116.71,364.08,181,382,225.3,359.78c25.86-13,48.54-31.65,75.61-60,27.82-29.1,45.36-50.2,57.82-75.24,19.65-39.5,7.33-100.78-36.45-154.09C259.19-7,136.13-3.93,66.12,66.08Z"/><path class="cls-16" d="M65.73,65.69c-70,70-81.38,181.63,0,253.22,50.5,44.75,115.54,62.76,159.13,40.42,25.84-13.25,48.27-31.91,75.39-60.28,28-29.21,45.48-50,58.14-75C378,185.33,365.63,123.2,321.67,69.94,258.17-7,135.71-4.28,65.73,65.69Z"/><path class="cls-17" d="M65.35,65.31c-69.94,69.94-81,181.54,0,253.06,50.41,44.86,116.19,62.93,159.07,40.51,25.82-13.5,48-32.16,75.17-60.57,28.09-29.32,45.59-49.78,58.47-74.83,19.47-37.88,7.24-100.94-37-154.07C257.3-7.18,135.29-4.63,65.35,65.31Z"/><path class="cls-18" d="M65,64.93c-69.91,69.91-80.54,181.45,0,252.91,50.32,45,116.84,63.09,159,40.61,25.81-13.75,47.72-32.42,75-60.85,28.22-29.43,45.7-49.57,58.8-74.63,19.38-37.08,7.24-101.06-37.27-154.06C256.43-7.35,134.87-5,65,64.93Z"/><path class="cls-19" d="M64.58,64.54c-69.87,69.87-80.12,181.36,0,252.75,50.22,45.1,117.49,63.24,159,40.71,25.78-14,47.45-32.67,74.74-61.14,28.35-29.54,45.8-49.36,59.12-74.43,19.27-36.28,7.24-101.19-37.54-154.05C255.57-7.52,134.45-5.33,64.58,64.54Z"/><path class="cls-20" d="M64.19,64.16c-69.84,69.84-79.7,181.27,0,252.59,50.13,45.22,118.13,63.39,158.91,40.8,25.76-14.27,47.18-32.93,74.52-61.43,28.49-29.65,45.91-49.15,59.45-74.23,19.16-35.48,7.25-101.31-37.81-154C254.7-7.69,134-5.68,64.19,64.16Z"/><path class="cls-21" d="M63.81,63.77c-69.81,69.81-79.14,181,0,252.43,50.13,45.24,118.77,63.53,158.85,40.9,25.74-14.53,46.91-33.18,74.31-61.72,28.62-29.76,46-48.94,59.77-74,19-34.69,7.25-101.44-38.08-154C253.83-7.87,133.61-6,63.81,63.77Z"/><path class="cls-22" d="M63.42,63.39c-69.78,69.78-78.72,180.92,0,252.27,50,45.36,119.4,63.67,158.8,41,25.72-14.8,46.63-33.44,74.09-62,28.75-29.87,46.1-48.73,60.1-73.83,18.91-33.9,7.26-101.56-38.36-154C253-8,133.2-6.38,63.42,63.39Z"/><path class="cls-23" d="M63,63c-69.74,69.74-78.3,180.83,0,252.11,50,45.48,120,63.8,158.74,41.09,25.69-15.07,46.36-33.69,73.87-62.29,28.88-30,46.2-48.53,60.43-73.62,18.77-33.11,7.26-101.69-38.63-154C252.11-8.21,132.78-6.74,63,63Z"/><path class="cls-24" d="M62.65,62.62c-69.71,69.71-77.88,180.74,0,252,49.86,45.6,120.67,63.92,158.69,41.19,25.66-15.34,46.09-34,73.66-62.58,29-30.09,46.28-48.32,60.75-73.42,18.63-32.33,7.27-101.81-38.9-154C251.24-8.39,132.36-7.09,62.65,62.62Z"/><path class="cls-25" d="M62.26,62.24c-69.68,69.68-77.46,180.65,0,251.8,49.77,45.72,121.3,64,158.63,41.29,25.63-15.62,45.82-34.21,73.44-62.86,29.15-30.21,46.37-48.12,61.08-73.22,18.49-31.55,7.27-101.94-39.17-154C250.38-8.56,131.94-7.44,62.26,62.24Z"/><path class="cls-26" d="M61.88,61.85c-69.64,69.64-77,180.56,0,251.64,49.68,45.84,121.92,64.15,158.58,41.38,25.6-15.9,45.55-34.46,73.23-63.15,29.28-30.32,46.45-47.92,61.4-73,18.33-30.77,7.28-102.07-39.44-154C249.52-8.74,131.52-7.79,61.88,61.85Z"/><path class="cls-27" d="M61.49,61.47c-69.61,69.61-76.62,180.47,0,251.48,49.59,46,122.54,64.26,158.52,41.48,25.57-16.19,45.27-34.72,73-63.44,29.41-30.43,46.52-47.72,61.73-72.82,18.17-30,7.29-102.19-39.71-154C248.65-8.91,131.1-8.14,61.49,61.47Z"/><path class="cls-28" d="M61.11,61.09c-69.58,69.58-76.2,180.38,0,251.32C110.6,358.49,184.27,376.77,219.57,354c25.53-16.48,45-35,72.79-63.73,29.55-30.54,46.6-47.53,62.06-72.62,18-29.22,7.3-102.32-40-154C247.79-9.09,130.68-8.49,61.11,61.09Z"/><path class="cls-29" d="M60.72,60.7c-69.54,69.54-75.79,180.29,0,251.16,49.4,46.2,123.77,64.46,158.41,41.67,25.49-16.77,44.73-35.23,72.58-64,29.68-30.65,46.66-47.34,62.38-72.42,17.84-28.45,7.31-102.45-40.26-153.94C246.93-9.27,130.27-8.84,60.72,60.7Z"/><path class="cls-30" d="M60.34,60.32c-69.51,69.51-75.51,180.35,0,251,49.22,46.42,124.38,64.55,158.36,41.77,25.45-17.07,44.46-35.48,72.36-64.3,29.81-30.76,46.72-47.15,62.71-72.22,17.66-27.69,7.31-102.58-40.53-153.93C246.07-9.45,129.85-9.19,60.34,60.32Z"/><path class="cls-31" d="M60,59.93c-69.48,69.48-75.09,180.26,0,250.85,49.12,46.54,125,64.64,158.3,41.87,25.4-17.37,44.19-35.74,72.14-64.59,29.95-30.87,46.78-47,63-72,17.48-26.93,7.32-102.71-40.8-153.92C245.21-9.62,129.43-9.54,60,59.93Z"/><path class="cls-32" d="M59.57,59.55C-9.88,129-15.1,239.72,59.57,310.24c49,46.66,125.59,64.72,158.25,42,25.35-17.67,43.91-36,71.93-64.87,30.08-31,46.83-46.78,63.36-71.81C370.39,189.34,360.43,112.68,312,61.6,244.35-9.8,129-9.9,59.57,59.55Z"/><path class="cls-33" d="M59.18,59.17c-69.41,69.41-74.25,180.08,0,250.53,48.94,46.78,126.19,64.8,158.19,42.06,25.3-18,43.64-36.25,71.71-65.16C319.29,255.51,336,240,352.77,215c17.09-25.42,7.44-103.06-41.34-153.9C243.63-10.11,128.59-10.25,59.18,59.17Z"/><path class="cls-34" d="M58.79,58.78c-69.38,69.38-73.83,180,0,250.37,48.85,46.9,126.79,64.88,158.14,42.15,25.24-18.3,43.37-36.51,71.49-65.45,30.34-31.2,46.91-46.44,64-71.41,16.9-24.67,7.45-103.19-41.62-153.89C242.77-10.29,128.17-10.6,58.79,58.78Z"/><path class="cls-35" d="M58.41,58.4c-69.35,69.35-73.41,179.89,0,250.21,48.76,47,127.38,64.95,158.08,42.25,25.18-18.61,43.1-36.76,71.28-65.73,30.48-31.31,46.94-46.27,64.34-71.21C368.8,190,359.56,110.61,310.22,60,241.91-10.46,127.76-10.95,58.41,58.4Z"/><path class="cls-36" d="M58,58c-69.31,69.31-73,179.8,0,250.06,48.67,47.14,128,65,158,42.35,25.12-18.94,42.83-37,71.06-66,30.61-31.42,47-46.11,64.67-71,16.49-23.19,7.46-103.44-42.16-153.87C241-10.64,127.34-11.3,58,58Z"/><path class="cls-37" d="M57.64,57.63c-69.28,69.28-72.57,179.71,0,249.9,48.58,47.26,128.55,65.07,158,42.44,25-19.26,42.55-37.27,70.84-66.31,30.74-31.53,47-46,65-70.81C367.72,190.41,358.91,109.29,309,59,240.18-10.82,126.92-11.65,57.64,57.63Z"/><path class="cls-38" d="M57.25,57.25C-12,126.49-14.9,236.87,57.25,307c48.48,47.38,129.12,65.13,157.92,42.54,25-19.6,42.28-37.53,70.63-66.6,30.87-31.64,47-45.81,65.32-70.6,16.06-21.72,7.47-103.69-42.7-153.85C239.31-11,126.5-12,57.25,57.25Z"/><path class="cls-39" d="M56.87,56.86c-69.21,69.21-71.73,179.53,0,249.58,48.39,47.5,129.7,65.19,157.86,42.64,24.9-19.93,42-37.78,70.41-66.88,31-31.75,47-45.67,65.64-70.4,15.84-21,7.48-103.82-43-153.84C238.45-11.17,126.08-12.35,56.87,56.86Z"/><path class="cls-40" d="M56.48,56.48c-69.18,69.18-71.31,179.44,0,249.42,48.3,47.62,130.27,65.24,157.81,42.73,24.81-20.28,41.74-38,70.19-67.17,31.14-31.86,47-45.54,66-70.2,15.62-20.27,7.48-103.95-43.25-153.83C237.59-11.34,125.66-12.7,56.48,56.48Z"/><path class="cls-41" d="M56.1,56.09c-69.15,69.15-70.89,179.35,0,249.27,48.21,47.74,130.83,65.29,157.75,42.83,24.72-20.62,41.47-38.29,70-67.46,31.27-32,47-45.43,66.3-70,15.39-19.56,7.49-104.07-43.52-153.82C236.72-11.52,125.24-13.05,56.1,56.09Z"/><path class="cls-42" d="M55.71,55.71c-69.12,69.12-70.48,179.25,0,249.11,48.12,47.86,131.39,65.34,157.7,42.93,24.62-21,41.19-38.55,69.76-67.74,31.4-32.08,46.93-45.32,66.62-69.8C364.95,191.36,357.28,106,306,56.39,235.86-11.69,124.83-13.41,55.71,55.71Z"/><path class="cls-43" d="M55.32,55.33c-69.08,69.08-70.06,179.16,0,248.95,48,48,131.94,65.38,157.64,43,24.52-21.33,40.92-38.81,69.54-68C314,247.08,329.4,234,349.46,209.67c14.93-18.14,7.5-104.33-44.06-153.79C235-11.87,124.41-13.76,55.32,55.33Z"/><path class="cls-44" d="M54.94,54.94c-69,69-69.64,179.07,0,248.79,47.93,48.1,132.49,65.43,157.59,43.12,24.41-21.7,40.65-39.06,69.33-68.32,31.67-32.3,46.83-45.14,67.27-69.4,14.69-17.44,7.51-104.45-44.33-153.78C234.13-12,124-14.11,54.94,54.94Z"/><path class="cls-45" d="M54.55,54.56c-69,69-69.22,179,0,248.63,47.84,48.21,133,65.47,157.53,43.22,24.29-22.06,40.38-39.32,69.11-68.61,31.8-32.41,46.77-45.07,67.6-69.2,14.46-16.74,7.51-104.58-44.6-153.77C233.26-12.22,123.57-14.46,54.55,54.56Z"/><path class="cls-46" d="M54.17,54.17c-69,69-68.8,178.89,0,248.47C101.92,351,187.74,368.16,211.64,346c24.16-22.44,40.11-39.57,68.89-68.89,31.93-32.52,46.69-45,67.93-69C362.68,192,356,103.37,303.59,54.31,232.4-12.39,123.15-14.81,54.17,54.17Z"/><path class="cls-47" d="M53.78,53.79c-69,69-68.38,178.8,0,248.32,47.66,48.45,134.1,65.55,157.42,43.41,24-22.82,39.83-39.83,68.68-69.18,32.07-32.63,46.6-45,68.25-68.79,14-15.38,7.53-104.83-45.15-153.75C231.54-12.57,122.73-15.16,53.78,53.79Z"/><path class="cls-48" d="M215.35,345.25c42.89-43,87.26-87.08,129.82-129.27,9.28-9.2,12-23.67,12.23-30.06A178.78,178.78,0,1,0,184.09,357.46C190.68,357.27,204.11,356.51,215.35,345.25Z"/><path class="cls-49" d="M347.7,213.79c-15.06,15-53.4,13.29-88,47.73-35,34.81-32.85,72.46-47.72,87.25Z"/></g></g></svg>