<svg xmlns="http://www.w3.org/2000/svg" xmlns:xlink="http://www.w3.org/1999/xlink" viewBox="0 0 383 383"><defs><style>.cls-1{fill:#fff;opacity:0;}.cls-2{fill:#fdfdfd;opacity:0.02;}.cls-3{fill:#fafafa;opacity:0.04;}.cls-4{fill:#f8f8f8;opacity:0.07;}.cls-5{fill:#f5f5f5;opacity:0.09;}.cls-6{fill:#f3f3f3;opacity:0.11;}.cls-7{fill:#f0f0f0;opacity:0.13;}.cls-8{fill:#eee;opacity:0.15;}.cls-9{fill:#ebebeb;opacity:0.17;}.cls-10{fill:#e9e9e9;opacity:0.2;}.cls-11{fill:#e6e6e6;opacity:0.22;}.cls-12{fill:#e4e4e4;opacity:0.24;}.cls-13{fill:#e1e1e1;opacity:0.26;}.cls-14{fill:#dfdfdf;opacity:0.28;}.cls-15{fill:#dcdcdc;opacity:0.3;}.cls-16{fill:#dadada;opacity:0.33;}.cls-17{fill:#d7d7d7;opacity:0.35;}.cls-18{fill:#d5d5d5;opacity:0.37;}.cls-19{fill:#d2d2d2;opacity:0.39;}.cls-20{fill:#d0d0d0;opacity:0.41;}.cls-21{fill:#cdcdcd;opacity:0.43;}.cls-22{fill:#cbcbcb;opacity:0.46;}.cls-23{fill:#c8c8c8;opacity:0.48;}.cls-24{fill:#c6c6c6;opacity:0.5;}.cls-25{fill:#c3c3c3;opacity:0.52;}.cls-26{fill:#c1c1c1;opacity:0.54;}.cls-27{fill:#bebebe;opacity:0.57;}.cls-28{fill:#bcbcbc;opacity:0.59;}.cls-29{fill:#b9b9b9;opacity:0.61;}.cls-30{fill:#b7b7b7;opacity:0.63;}.cls-31{fill:#b4b4b4;opacity:0.65;}.cls-32{fill:#b2b2b2;opacity:0.67;}.cls-33{fill:#afafaf;opacity:0.7;}.cls-34{fill:#adadad;opacity:0.72;}.cls-35{fill:#aaa;opacity:0.74;}.cls-36{fill:#a8a8a8;opacity:0.76;}.cls-37{fill:#a5a5a5;opacity:0.78;}.cls-38{fill:#a3a3a3;opacity:0.8;}.cls-39{fill:#a0a0a0;opacity:0.83;}.cls-40{fill:#9e9e9e;opacity:0.85;}.cls-41{fill:#9b9b9b;opacity:0.87;}.cls-42{fill:#999;opacity:0.89;}.cls-43{fill:#969696;opacity:0.91;}.cls-44{fill:#949494;opacity:0.93;}.cls-45{fill:#919191;opacity:0.96;}.cls-46{fill:#8f8f8f;opacity:0.98;}.cls-47{fill:#8c8c8c;}.cls-48{fill:url(#linear-gradient);}</style><linearGradient id="linear-gradient" x1="334.91" y1="-377.69" x2="334.91" y2="-32.77" gradientTransform="translate(82.61 556.24) rotate(-45)" gradientUnits="userSpaceOnUse"><stop offset="0" stop-color="#f5f5f5"/><stop offset="0.66" stop-color="#e6e6e6"/><stop offset="0.83" stop-color="#f1f1f1"/><stop offset="1" stop-color="#f7f7f7"/></linearGradient></defs><title>Datový zdroj 9</title><g id="Vrstva_2" data-name="Vrstva 2"><g id="Ńëîé_1" data-name="Ńëîé 1"><path class="cls-1" d="M68,68c-70.86,70.86-70.86,186.16,0,257s195.29,80,266.16,9.13S395.93,138.91,325.07,68,138.91-2.82,68,68Z"/><path class="cls-2" d="M67.74,67.74c-70.82,70.82-70.82,186,0,256.86s194.79,79.56,265.6,8.74,62.08-194.79-8.74-265.6S138.56-3.08,67.74,67.74Z"/><path class="cls-3" d="M67.44,67.44c-70.77,70.77-70.77,185.93,0,256.7s194.28,79.12,265.05,8.35,62.42-194.28-8.35-265.05S138.21-3.34,67.44,67.44Z"/><path class="cls-4" d="M67.13,67.13c-70.73,70.73-70.73,185.81,0,256.54s193.77,78.69,264.5,8,62.77-193.77-8-264.5S137.86-3.6,67.13,67.13Z"/><path class="cls-5" d="M66.83,66.83c-70.68,70.68-70.68,185.7,0,256.38s193.26,78.25,263.95,7.57,63.12-193.26-7.57-263.95S137.51-3.85,66.83,66.83Z"/><path class="cls-6" d="M66.53,66.53c-70.64,70.64-70.64,185.58,0,256.22s192.75,77.82,263.39,7.18,63.46-192.76-7.18-263.39S137.17-4.11,66.53,66.53Z"/><path class="cls-7" d="M66.22,66.22c-70.6,70.6-70.6,185.46,0,256.06s192.25,77.38,262.84,6.78,63.81-192.25-6.78-262.84S136.82-4.37,66.22,66.22Z"/><path class="cls-8" d="M65.92,65.92c-70.55,70.55-70.55,185.35,0,255.9s191.74,76.94,262.29,6.39,64.16-191.74-6.39-262.29S136.47-4.63,65.92,65.92Z"/><path class="cls-9" d="M65.61,65.61c-70.51,70.51-70.51,185.23,0,255.74s191.23,76.51,261.74,6,64.5-191.23-6-261.74S136.12-4.89,65.61,65.61Z"/><path class="cls-10" d="M65.31,65.31c-70.46,70.46-70.46,185.11,0,255.58S256,397,326.5,326.5s64.85-190.72-5.61-261.19S135.77-5.15,65.31,65.31Z"/><path class="cls-11" d="M65,65C-5.41,135.43-5.41,250,65,320.42s190.22,75.64,260.63,5.22S390.84,135.42,320.42,65,135.43-5.41,65,65Z"/><path class="cls-12" d="M64.7,64.7C-5.67,135.08-5.67,249.58,64.7,320s189.71,75.2,260.08,4.83S390.33,135.08,320,64.7,135.08-5.67,64.7,64.7Z"/><path class="cls-13" d="M64.4,64.4c-70.33,70.33-70.33,184.76,0,255.09s189.2,74.77,259.53,4.44,65.89-189.2-4.44-259.53S134.73-5.93,64.4,64.4Z"/><path class="cls-14" d="M64.1,64.1C-6.19,134.38-6.19,248.74,64.1,319s188.69,74.33,259,4,66.24-188.69-4-259S134.38-6.19,64.1,64.1Z"/><path class="cls-15" d="M63.79,63.79C-6.45,134-6.45,248.32,63.79,318.56S252,392.46,322.22,322.22,388.8,134,318.56,63.79,134-6.45,63.79,63.79Z"/><path class="cls-16" d="M63.49,63.49c-70.2,70.2-70.2,184.41,0,254.61s187.68,73.46,257.87,3.26S388.3,133.68,318.1,63.49,133.68-6.71,63.49,63.49Z"/><path class="cls-17" d="M63.18,63.18C-7,133.34-7,247.48,63.18,317.63s187.17,73,257.32,2.87,67.28-187.17-2.87-257.32S133.34-7,63.18,63.18Z"/><path class="cls-18" d="M62.88,62.88C-7.23,133-7.23,247.06,62.88,317.17s186.66,72.59,256.77,2.48S387.28,133,317.17,62.88,133-7.23,62.88,62.88Z"/><path class="cls-19" d="M62.58,62.58c-70.06,70.06-70.06,184.06,0,254.13s186.15,72.15,256.22,2.09,68-186.15-2.09-256.22S132.64-7.49,62.58,62.58Z"/><path class="cls-20" d="M62.27,62.27c-70,70-70,183.95,0,254s185.65,71.72,255.66,1.7,68.32-185.65-1.7-255.66S132.29-7.75,62.27,62.27Z"/><path class="cls-21" d="M62,62c-70,70-70,183.83,0,253.81s185.14,71.28,255.11,1.31S385.75,131.94,315.78,62,131.94-8,62,62Z"/><path class="cls-22" d="M61.67,61.67c-69.93,69.93-69.93,183.72,0,253.65s184.63,70.84,254.56.91,69-184.63-.91-254.56S131.6-8.26,61.67,61.67Z"/><path class="cls-23" d="M61.36,61.36c-69.89,69.89-69.89,183.6,0,253.48s184.12,70.41,254,.52,69.36-184.12-.52-254S131.25-8.52,61.36,61.36Z"/><path class="cls-24" d="M61.06,61.06c-69.84,69.84-69.84,183.48,0,253.32s183.61,70,253.46.13,69.71-183.61-.13-253.46S130.9-8.78,61.06,61.06Z"/><path class="cls-25" d="M60.75,60.75C-9,130.55-9,244.12,60.75,313.92s183.11,69.54,252.9-.26,70.06-183.11.26-252.9S130.55-9,60.75,60.75Z"/><path class="cls-26" d="M60.45,60.45c-69.75,69.75-69.75,183.25,0,253s182.6,69.1,252.35-.65,70.4-182.6.65-252.35S130.2-9.3,60.45,60.45Z"/><path class="cls-27" d="M60.15,60.15C-9.56,129.86-9.56,243.28,60.15,313s182.09,68.67,251.8-1,70.75-182.09,1-251.8S129.86-9.56,60.15,60.15Z"/><path class="cls-28" d="M59.84,59.84c-69.66,69.66-69.66,183,0,252.68s181.58,68.23,251.25-1.43,71.1-181.58,1.43-251.25S129.51-9.82,59.84,59.84Z"/><path class="cls-29" d="M59.54,59.54c-69.62,69.62-69.62,182.9,0,252.52s181.07,67.79,250.69-1.83,71.44-181.07,1.83-250.69S129.16-10.08,59.54,59.54Z"/><path class="cls-30" d="M59.24,59.24c-69.58,69.58-69.58,182.78,0,252.36S239.8,379,309.38,309.38s71.79-180.57,2.22-250.14S128.81-10.34,59.24,59.24Z"/><path class="cls-31" d="M58.93,58.93c-69.53,69.53-69.53,182.67,0,252.2S239,378.05,308.52,308.52s72.14-180.06,2.61-249.59S128.46-10.6,58.93,58.93Z"/><path class="cls-32" d="M58.63,58.63c-69.49,69.49-69.49,182.55,0,252s179.55,66.49,249-3,72.49-179.55,3-249S128.12-10.86,58.63,58.63Z"/><path class="cls-33" d="M58.33,58.32c-69.44,69.44-69.44,182.43,0,251.88s179,66.05,248.49-3.39,72.83-179,3.39-248.49S127.77-11.12,58.33,58.32Z"/><path class="cls-34" d="M58,58c-69.4,69.4-69.4,182.32,0,251.72S236.56,375.35,306,306,379.13,127.42,309.74,58,127.42-11.38,58,58Z"/><path class="cls-35" d="M57.72,57.72c-69.35,69.35-69.35,182.2,0,251.55s178,65.18,247.38-4.17,73.53-178,4.17-247.38S127.07-11.64,57.72,57.72Z"/><path class="cls-36" d="M57.41,57.41c-69.31,69.31-69.31,182.08,0,251.39s177.52,64.74,246.83-4.56,73.87-177.52,4.56-246.83S126.72-11.9,57.41,57.41Z"/><path class="cls-37" d="M57.11,57.11c-69.27,69.27-69.27,182,0,251.23s177,64.31,246.28-5,74.22-177,5-246.28S126.38-12.16,57.11,57.11Z"/><path class="cls-38" d="M56.81,56.81c-69.22,69.22-69.22,181.85,0,251.07s176.5,63.87,245.72-5.35S377.1,126,307.88,56.81,126-12.41,56.81,56.81Z"/><path class="cls-39" d="M56.5,56.5c-69.18,69.18-69.18,181.73,0,250.91s176,63.44,245.17-5.74,74.92-176,5.74-245.17S125.68-12.67,56.5,56.5Z"/><path class="cls-40" d="M56.2,56.2c-69.13,69.13-69.13,181.62,0,250.75s175.49,63,244.62-6.13,75.26-175.49,6.13-244.62S125.33-12.93,56.2,56.2Z"/><path class="cls-41" d="M55.9,55.89c-69.09,69.09-69.09,181.5,0,250.59S230.88,369.05,300,300s75.61-175,6.52-244.07S125-13.19,55.9,55.89Z"/><path class="cls-42" d="M55.59,55.59c-69,69-69,181.39,0,250.43s174.47,62.13,243.52-6.91,76-174.47,6.91-243.52S124.63-13.45,55.59,55.59Z"/><path class="cls-43" d="M55.29,55.29c-69,69-69,181.27,0,250.27s174,61.69,243-7.3,76.3-174,7.3-243S124.29-13.71,55.29,55.29Z"/><path class="cls-44" d="M55,55c-69,69-69,181.15,0,250.11s173.46,61.26,242.41-7.7S374,123.94,305.09,55,123.94-14,55,55Z"/><path class="cls-45" d="M54.68,54.68c-68.91,68.91-68.91,181,0,249.95s172.95,60.82,241.86-8.09,77-172.95,8.09-241.86S123.59-14.23,54.68,54.68Z"/><path class="cls-46" d="M54.38,54.38c-68.87,68.87-68.87,180.92,0,249.79s172.44,60.39,241.31-8.48S373,123.24,304.16,54.38,123.24-14.49,54.38,54.38Z"/><path class="cls-47" d="M54.07,54.07c-68.82,68.82-68.82,180.8,0,249.62s171.93,60,240.75-8.87,77.69-171.93,8.87-240.75S122.89-14.75,54.07,54.07Z"/><path class="cls-48" d="M305.19,52.36c69.82,69.82,60.88,174.07-8.94,243.89S122.18,375,52.36,305.19A178.78,178.78,0,0,1,305.19,52.36Z"/></g></g></svg>