<svg xmlns="http://www.w3.org/2000/svg" xmlns:xlink="http://www.w3.org/1999/xlink" viewBox="0 0 80.75 80.75"><defs><style>.cls-1{fill:#fff;opacity:0;}.cls-2{fill:#fbfbfb;opacity:0.03;}.cls-3{fill:#f8f8f8;opacity:0.06;}.cls-4{fill:#f4f4f4;opacity:0.08;}.cls-5{fill:#f1f1f1;opacity:0.11;}.cls-6{fill:#ededed;opacity:0.14;}.cls-7{fill:#eaeaea;opacity:0.17;}.cls-8{fill:#e6e6e6;opacity:0.19;}.cls-9{fill:#e3e3e3;opacity:0.22;}.cls-10{fill:#dfdfdf;opacity:0.25;}.cls-11{fill:#dcdcdc;opacity:0.28;}.cls-12{fill:#d8d8d8;opacity:0.31;}.cls-13{fill:#d4d4d4;opacity:0.33;}.cls-14{fill:#d1d1d1;opacity:0.36;}.cls-15{fill:#cdcdcd;opacity:0.39;}.cls-16{fill:#cacaca;opacity:0.42;}.cls-17{fill:#c6c6c6;opacity:0.44;}.cls-18{fill:#c3c3c3;opacity:0.47;}.cls-19{fill:#bfbfbf;opacity:0.5;}.cls-20{fill:#bcbcbc;opacity:0.53;}.cls-21{fill:#b8b8b8;opacity:0.56;}.cls-22{fill:#b5b5b5;opacity:0.58;}.cls-23{fill:#b1b1b1;opacity:0.61;}.cls-24{fill:#aeaeae;opacity:0.64;}.cls-25{fill:#aaa;opacity:0.67;}.cls-26{fill:#a6a6a6;opacity:0.69;}.cls-27{fill:#a3a3a3;opacity:0.72;}.cls-28{fill:#9f9f9f;opacity:0.75;}.cls-29{fill:#9c9c9c;opacity:0.78;}.cls-30{fill:#989898;opacity:0.81;}.cls-31{fill:#959595;opacity:0.83;}.cls-32{fill:#919191;opacity:0.86;}.cls-33{fill:#8e8e8e;opacity:0.89;}.cls-34{fill:#8a8a8a;opacity:0.92;}.cls-35{fill:#878787;opacity:0.94;}.cls-36{fill:#838383;opacity:0.97;}.cls-37{fill:gray;}.cls-38{fill:url(#linear-gradient);}.cls-39{fill:#010101;}</style><linearGradient id="linear-gradient" x1="11.46" y1="11.46" x2="66.81" y2="66.81" gradientUnits="userSpaceOnUse"><stop offset="0" stop-color="#f5f5f5"/><stop offset="1" stop-color="#d9d9d9"/></linearGradient></defs><title>Datový zdroj 1</title><g id="Vrstva_2" data-name="Vrstva 2"><g id="Vrstva_1-2" data-name="Vrstva 1"><path class="cls-1" d="M42.06,3.37A38.69,38.69,0,1,0,80.75,42.06,38.73,38.73,0,0,0,42.06,3.37Z"/><path class="cls-2" d="M42,3.29A38.69,38.69,0,1,0,80.67,42,38.73,38.73,0,0,0,42,3.29Z"/><path class="cls-3" d="M41.9,3.21A38.69,38.69,0,1,0,80.59,41.9,38.73,38.73,0,0,0,41.9,3.21Z"/><path class="cls-4" d="M41.82,3.13A38.69,38.69,0,1,0,80.51,41.82,38.73,38.73,0,0,0,41.82,3.13Z"/><path class="cls-5" d="M41.74,3.05A38.69,38.69,0,1,0,80.43,41.74,38.73,38.73,0,0,0,41.74,3.05Z"/><path class="cls-6" d="M41.66,3A38.69,38.69,0,1,0,80.35,41.66,38.73,38.73,0,0,0,41.66,3Z"/><path class="cls-7" d="M41.58,2.89A38.69,38.69,0,1,0,80.27,41.58,38.73,38.73,0,0,0,41.58,2.89Z"/><path class="cls-8" d="M41.5,2.81A38.69,38.69,0,1,0,80.19,41.5,38.73,38.73,0,0,0,41.5,2.81Z"/><path class="cls-9" d="M41.42,2.73A38.69,38.69,0,1,0,80.11,41.42,38.73,38.73,0,0,0,41.42,2.73Z"/><path class="cls-10" d="M41.34,2.65A38.69,38.69,0,1,0,80,41.34,38.73,38.73,0,0,0,41.34,2.65Z"/><path class="cls-11" d="M41.25,2.56A38.69,38.69,0,1,0,79.94,41.25,38.73,38.73,0,0,0,41.25,2.56Z"/><path class="cls-12" d="M41.17,2.48A38.69,38.69,0,1,0,79.86,41.17,38.73,38.73,0,0,0,41.17,2.48Z"/><path class="cls-13" d="M41.09,2.4A38.69,38.69,0,1,0,79.78,41.09,38.73,38.73,0,0,0,41.09,2.4Z"/><path class="cls-14" d="M41,2.32A38.69,38.69,0,1,0,79.7,41,38.73,38.73,0,0,0,41,2.32Z"/><path class="cls-15" d="M40.93,2.24A38.69,38.69,0,1,0,79.62,40.93,38.73,38.73,0,0,0,40.93,2.24Z"/><path class="cls-16" d="M40.85,2.16A38.69,38.69,0,1,0,79.54,40.85,38.73,38.73,0,0,0,40.85,2.16Z"/><path class="cls-17" d="M40.77,2.08A38.69,38.69,0,1,0,79.46,40.77,38.73,38.73,0,0,0,40.77,2.08Z"/><path class="cls-18" d="M40.69,2A38.69,38.69,0,1,0,79.38,40.69,38.73,38.73,0,0,0,40.69,2Z"/><path class="cls-19" d="M40.61,1.92A38.69,38.69,0,1,0,79.3,40.61,38.73,38.73,0,0,0,40.61,1.92Z"/><path class="cls-20" d="M40.53,1.84A38.69,38.69,0,1,0,79.22,40.53,38.73,38.73,0,0,0,40.53,1.84Z"/><path class="cls-21" d="M40.44,1.75A38.69,38.69,0,1,0,79.13,40.44,38.73,38.73,0,0,0,40.44,1.75Z"/><path class="cls-22" d="M40.36,1.67A38.69,38.69,0,1,0,79.05,40.36,38.73,38.73,0,0,0,40.36,1.67Z"/><path class="cls-23" d="M40.28,1.59A38.69,38.69,0,1,0,79,40.28,38.73,38.73,0,0,0,40.28,1.59Z"/><path class="cls-24" d="M40.2,1.51A38.69,38.69,0,1,0,78.89,40.2,38.73,38.73,0,0,0,40.2,1.51Z"/><path class="cls-25" d="M40.12,1.43A38.69,38.69,0,1,0,78.81,40.12,38.73,38.73,0,0,0,40.12,1.43Z"/><path class="cls-26" d="M40,1.35A38.69,38.69,0,1,0,78.73,40,38.73,38.73,0,0,0,40,1.35Z"/><path class="cls-27" d="M40,1.27A38.69,38.69,0,1,0,78.65,40,38.73,38.73,0,0,0,40,1.27Z"/><path class="cls-28" d="M39.88,1.19A38.69,38.69,0,1,0,78.57,39.88,38.73,38.73,0,0,0,39.88,1.19Z"/><path class="cls-29" d="M39.8,1.11A38.69,38.69,0,1,0,78.49,39.8,38.73,38.73,0,0,0,39.8,1.11Z"/><path class="cls-30" d="M39.72,1A38.69,38.69,0,1,0,78.41,39.72,38.73,38.73,0,0,0,39.72,1Z"/><path class="cls-31" d="M39.63.94A38.69,38.69,0,1,0,78.32,39.63,38.73,38.73,0,0,0,39.63.94Z"/><path class="cls-32" d="M39.55.86A38.69,38.69,0,1,0,78.24,39.55,38.73,38.73,0,0,0,39.55.86Z"/><path class="cls-33" d="M39.47.78A38.69,38.69,0,1,0,78.16,39.47,38.73,38.73,0,0,0,39.47.78Z"/><path class="cls-34" d="M39.39.7A38.69,38.69,0,1,0,78.08,39.39,38.73,38.73,0,0,0,39.39.7Z"/><path class="cls-35" d="M39.31.62A38.69,38.69,0,1,0,78,39.31,38.73,38.73,0,0,0,39.31.62Z"/><path class="cls-36" d="M39.23.54A38.69,38.69,0,1,0,77.92,39.23,38.73,38.73,0,0,0,39.23.54Z"/><path class="cls-37" d="M39.15.46A38.69,38.69,0,1,0,77.84,39.15,38.73,38.73,0,0,0,39.15.46Z"/><circle class="cls-38" cx="39.14" cy="39.14" r="39.14"/><path class="cls-39" d="M41.91,73.86c-.32,0-.2.1-.24.12C42.2,73.89,41.9,73.84,41.91,73.86Z"/><polygon class="cls-39" points="47.07 72.81 46.99 72.87 47.72 72.61 47.07 72.81"/><path class="cls-39" d="M51.76,71.37c-.49,0-1.67.6-2.52.83h-.15l-.34.24C49.76,72.09,51,71.59,51.76,71.37Z"/><path class="cls-39" d="M54.28,70.57c-.17,0,.5-.28-.57.24l.11,0Z"/><path class="cls-39" d="M53.82,70.77c-.47.22.33-.1,0,0Z"/><path class="cls-39" d="M55.94,69.64l-.57.39c.14,0,.67-.34.49-.21C56.46,69.44,56.31,69.49,55.94,69.64Z"/><path class="cls-39" d="M56.45,69.23l-.3.2A.86.86,0,0,0,56.45,69.23Z"/><path class="cls-39" d="M55.52,69.84l.63-.42c-.1,0-.13,0-.29.19C55.9,69.54,55.79,69.65,55.52,69.84Z"/><path class="cls-39" d="M55.14,70c-.34.18-.81.35-.21,0C53.76,70.61,54,70.65,55.14,70Z"/><path class="cls-39" d="M51.93,71.13a3.59,3.59,0,0,1-.49.15l-.4.19A4.76,4.76,0,0,0,51.93,71.13Z"/><path class="cls-39" d="M59.57,67.39s-.24.07-.3.07l-.39.32A4.2,4.2,0,0,1,59.57,67.39Z"/><path class="cls-39" d="M59.27,67.45l.58-.48C59.31,67.36,59.22,67.45,59.27,67.45Z"/><polygon class="cls-39" points="56.48 69.03 55.46 69.75 56.68 68.91 56.48 69.03"/><polygon class="cls-39" points="61.84 65.57 61.56 65.91 62.07 65.32 61.84 65.57"/><path class="cls-39" d="M63.26,64.28c-.18.27.37-.25.16,0,.35-.39.63-.75.87-1.07A10.27,10.27,0,0,1,63.26,64.28Z"/><path class="cls-39" d="M64.71,62.69l-.42.53C64.44,63.05,64.58,62.88,64.71,62.69Z"/><path class="cls-39" d="M60.88,66.19a1.88,1.88,0,0,0,.51-.33l-.28.13Z"/><path class="cls-39" d="M61.1,66h0l.49-.42Z"/><path class="cls-39" d="M60.83,66.24l.06,0A.1.1,0,0,0,60.83,66.24Z"/><path class="cls-39" d="M58.2,68.06c.33-.3,1.05-.88.29-.42C58.26,67.87,58.7,67.61,58.2,68.06Z"/><path class="cls-39" d="M60.48,66.4c-.21.17-.44.31-.66.46,0,0,.16,0,0,.1C60,66.77,60.27,66.6,60.48,66.4Z"/><polygon class="cls-39" points="60.76 66.12 60.48 66.4 60.71 66.21 60.76 66.12"/><path class="cls-39" d="M63.7,63.64c.21-.28.47-.56.76-.87-.33.32-.66.66-1,1C63.47,63.82,63.36,64,63.7,63.64Z"/><path class="cls-39" d="M62.47,64.82l.05-.05S62.45,64.81,62.47,64.82Z"/><polygon class="cls-39" points="67.14 59.51 67.08 59.55 67.09 59.57 67.14 59.51"/><path class="cls-39" d="M63.43,63.8a3.79,3.79,0,0,0-.49.57l.56-.61S63.5,63.72,63.43,63.8Z"/><path class="cls-39" d="M65.47,61.79a5.24,5.24,0,0,1-.43.42A1.78,1.78,0,0,0,65.47,61.79Z"/><path class="cls-39" d="M62.63,64.71l0,0C62.69,64.68,62.67,64.68,62.63,64.71Z"/><path class="cls-39" d="M62.63,64.71c.13-.13.22-.23.31-.34l-.41.4Z"/><path class="cls-39" d="M67.38,58.13a3.57,3.57,0,0,1-.92,1.46c-.42.64.09.4.63,0,0,0,0,0,.36-.74-.15.23-1.11,1.36-.76.79a10.55,10.55,0,0,1,.83-1.08c-.31.31.59-1.2.35-1.08l-.45.79S67.53,57.93,67.38,58.13Z"/><path class="cls-39" d="M66.15,60.74,66,61c.24-.29.43-.48.78-.83s.35-.56.35-.6l-1,1.26Z"/><path class="cls-39" d="M65,62.14c.13-.23.55-.89.2-.57-.6.74-.39.54-.75,1,1-1.13-.27.35.53-.42l-.56.62.58-.56,0,0h0c-.05,0-.07.05,0,0l0,0a.18.18,0,0,1,0-.07c.32-.31.07,0,0,.07v0h0c.35-.38.63-.82.94-1.23C65.74,61.25,65.51,61.59,65,62.14Z"/><path class="cls-39" d="M59,67s0,0,.05,0S59.19,66.91,59,67Z"/><path class="cls-39" d="M59.58,66.69a2.57,2.57,0,0,1-.44.36c-.27.16,0,0-.05,0-.16.15-.59.5,0,.13l.08-.07a7.58,7.58,0,0,1,1.15-.64A3.22,3.22,0,0,0,59.58,66.69Z"/><path class="cls-39" d="M62.44,64.52a9.82,9.82,0,0,0,.88-.93l-.5.42h.05C62.34,64.51,62.48,64.43,62.44,64.52Z"/><path class="cls-39" d="M67.26,59.41l0,.19a7,7,0,0,0,.31-.69Z"/><polygon class="cls-39" points="68.16 57.99 68.19 58.09 68.39 57.69 68.16 57.99"/><path class="cls-39" d="M19.89,12l-.29.23Z"/><path class="cls-39" d="M22.14,10.61l0-.07C22.08,10.62,22,10.66,22.14,10.61Z"/><path class="cls-39" d="M66.94,19.22c-.26-.49-.53-1.07-.56-1l0,.19A8,8,0,0,1,66.94,19.22Z"/><path class="cls-39" d="M43.24,5.78l.16,0,.37,0A4.35,4.35,0,0,0,43.24,5.78Z"/><path class="cls-39" d="M42.81,6.11,42.11,6Z"/><path class="cls-39" d="M10.16,22.73a3.15,3.15,0,0,0-.14.41C10.36,22.56,10.18,22.8,10.16,22.73Z"/><path class="cls-39" d="M73.43,41.83c.07-.47.11-.85.14-1.18A4.3,4.3,0,0,0,73.43,41.83Z"/><path class="cls-39" d="M20.24,10.66c-.18.15-.25.22-.23.23C20.2,10.74,20.3,10.65,20.24,10.66Z"/><path class="cls-39" d="M73.56,39.27v.25a8.13,8.13,0,0,1,0,1.13A4.9,4.9,0,0,0,73.56,39.27Z"/><path class="cls-39" d="M22.47,68.61l.1.06S22.54,68.64,22.47,68.61Z"/><path class="cls-39" d="M37.06,73.79l-.65,0Z"/><path class="cls-39" d="M71.24,52c-.12.33,0,.06,0,0Z"/><path class="cls-39" d="M70.3,53.47c0-.07,0-.13,0-.15A.34.34,0,0,1,70.3,53.47Z"/><path class="cls-39" d="M72.82,35.79v0C72.81,35.86,72.81,35.85,72.82,35.79Z"/><path class="cls-39" d="M71,52.48l.19-.41Z"/><path class="cls-39" d="M71.07,52.43l-.12.29S71,52.73,71.07,52.43Z"/><path class="cls-39" d="M71.42,51.53l-.22.53c0-.06,0-.09,0-.07Z"/><path class="cls-39" d="M6.09,46.42v.07C6.21,46.83,6.17,46.68,6.09,46.42Z"/><path class="cls-39" d="M60,13.26l0,0,0,0Z"/><path class="cls-39" d="M59,12.54a4.12,4.12,0,0,1,1,.7l-.17-.45Z"/><path class="cls-39" d="M15.06,16.2l.65-.58c-.63.85-1.18,1.37-.54.86,0-.12.49-.79,1.12-1.35s1.26-1.12,1.22-1.26l.47-.33-.26.24c.92-.64.51-.69,1.7-1.51.42-.28.73-.45.47-.22l.87-.71c.27-.18.23-.1,0,.09.47-.33,1-.59,1.46-.89h0c.19-.16.64-.49.86-.65.4-.18-.18.13-.06.11.27-.17.52-.37.8-.52s.12,0-.08.14a8.42,8.42,0,0,1-.78.49,2.05,2.05,0,0,0,.87-.4A8.46,8.46,0,0,1,25.36,9l-.8.4a17.86,17.86,0,0,0,2.14-.76c-.23.05-1.93.61-1,.12a8.54,8.54,0,0,0,1.11-.52c0,.09.54-.11,1.18-.33V8a6.32,6.32,0,0,0,1-.51c.78-.25,1-.21,1.17-.17,1.27-.27-.92,0,.58-.32.54-.1,1-.2,1.46-.33a13.63,13.63,0,0,1,1.61-.39c.76-.05-.12.09.16.1l.65-.19c.16,0,.12,0,.09,0,.56-.11,0-.13.92-.28a3.08,3.08,0,0,1,1.15-.09,8.39,8.39,0,0,0,1.8,0c.27,0-.13.08,0,.13a24.46,24.46,0,0,1,2.55-.17L42.11,6c-.77-.16.23-.19,1.13-.22l-.67-.16a9.65,9.65,0,0,1,1.41.1c.17.05,0,.07-.22.08l.26,0c.49.14.22.16-.14.17l-.49-.17c-.36.05-.69.11-.62.19h.46c-.09,0-.15,0-.11,0s.2,0,.42,0l.29.2.08,0,1.78.41,1,.06,1,.16a19.53,19.53,0,0,1,2.51.56c-.52-.09-.16.12-.23.23a19,19,0,0,0-2.58-.72c.54.17.4.19.26.17l1.88.41c-.07.08.37.18.82.41-.29-.33,1.38.4,2.13.63,0,.08-.18.07-1.06-.29.91.53,1.37.24,2.23.85a1.58,1.58,0,0,0-.41-.18c.51.19,1.68.84,1.37.75l-.21-.1,1.23.64c.45.25.9.56,1.34.81a11.32,11.32,0,0,0,1.75.94,1,1,0,0,1-.38,0c.85.38,1.68.82,2.54,1.24-.28,0,.23.8-.83.08.27.25.64.51,1.24,1-.16-.19-.32-.58-.06-.36.58.77.42.52,1.17,1.41-.25-.28.21-.16.64.26-.09,0-.12.19-.3.06a10.4,10.4,0,0,1,1.19.9c-.27-.25-.18.08,0,.37-.07-.14.83,1,1.11,1.24l-.37-.5A25.27,25.27,0,0,1,66.9,20.1c-.16-.14-.52-.24-.06.46a8.13,8.13,0,0,1,.94.8,11.7,11.7,0,0,1,1.28,1.59l.09.28a8.43,8.43,0,0,1,.6,1c-.44-.58-1.8-2.09-2.44-2.94a5.84,5.84,0,0,0,.5,1c.11.32-.33-.39-.47-.62l1,1.89c0-.07.27.27.51.61s.4.73.43.67a18.33,18.33,0,0,0-1.24-2,5.18,5.18,0,0,1,1.66,2.41c.11.38-.34-.17-.37-.12a11.18,11.18,0,0,1,.71,1.44L69.75,26a7.06,7.06,0,0,0,.53,1,4.42,4.42,0,0,1,.42,1.21c.11.34.18,1.06.27,1.09,0-.59.37-.86.61-.52l.25,1A7.25,7.25,0,0,1,72,31c0,.6-.48-.79-.46-.27a1.74,1.74,0,0,1,.2.44c.05.37-.15-.12.05.66.16.1.36,1.62.2.35A11,11,0,0,1,72.35,34c0-.31.4.79.54,1.59,0,0-.06.14-.07.23l.12,1.11c0,.34,0,.65,0,1,0,.62,0,1.22,0,2,0,.14-.06.88-.12.56a5.59,5.59,0,0,1,0,.89c-.19.9.06-1-.13-.36a13.83,13.83,0,0,1,0,1.89,9.69,9.69,0,0,0,.14-2.22c.17,0,.26,1.18.21,2.8-.09,1.28-.18.54-.18.76a12.71,12.71,0,0,0-.26,2.17,4.87,4.87,0,0,1-.38,1.84c-.32.74-.22,0-.34.13.12-.51.25-.88.36-1.23s.17-.65.22-1l-.2.84a9.7,9.7,0,0,1,.22-1.39,35.47,35.47,0,0,1-1.63,5.65c-.09.32-.26.86-.12.62l.2-.55c.28-.47-.29,1.07,0,.39l-.38,1.22c-.07.22-.15.45-.24.68s-.23.46-.37.7l-.21.13a4,4,0,0,0,.5-.91,16,16,0,0,0-1,2l.43-.66a11.47,11.47,0,0,1-1.19,2.5c.34-.32.12-.2.61-.73-.43.46,1.16-2.26.55-1.47a14.14,14.14,0,0,0,1.14-1.89s-.19.28.13-.49a1.79,1.79,0,0,1,0-.18l0-.05,0,0s0,0,0,0a2.43,2.43,0,0,1-.21.37c.07-.42.55-1.65.67-2.08s0,.21.11,0a4.32,4.32,0,0,0,.15-.65c.1,0,.5-1.22.23-.08l.29-1a12.38,12.38,0,0,0,.56-1.91c.11-.48.12-1.25.12-.81l.23-1.63h0a15.82,15.82,0,0,0,.22-2.5c0-.86.16-1.75.17-2.67,0-.55-.08-1.11-.08-2l.07-.18a17.09,17.09,0,0,0-.26-2.39,6.79,6.79,0,0,0-.23-2.14c-.21-.89-.46-1.83-.59-2.44l-.11,0a26.37,26.37,0,0,0-.9-2.56l-.06.09c-.31-.85-.81-2.18-1.41-3.49a3,3,0,0,1,.3.65,10.79,10.79,0,0,0-.49-1.22c-.21-.39-.46-.76-.7-1.14-.5-.74-.92-1.49-1.32-2.15a5.3,5.3,0,0,1-.55-.76l.06.08-.09-.13-.27-.47c.08.15.15.28.22.4-.18-.24-.45-.6-.72-1l0-.21-.06-.08c-.23-.38-.24-.26-.16,0a3,3,0,0,0-.42-.42c-.11-.37-.8-.84-1-1.31a12.48,12.48,0,0,1-.89-.89,4.12,4.12,0,0,0-1-.72s-.08-.12.09,0a10,10,0,0,0-1-1l-.07-.24a7.09,7.09,0,0,0-.92-.58c-.47-.46-.66-.66-.08-.33-1.33-.85-1-.75-2.18-1.44l.1,0a12.28,12.28,0,0,1-1.31-.78C56.72,9.88,52.93,8,50.37,7c.21.21-.08.06-.44-.1s-.82-.31-.9-.24c-.14-.1-.5-.23-.06-.16a13.25,13.25,0,0,0-3-.69c-.15-.08.31,0,.18-.08a2.57,2.57,0,0,1-.59-.09c-.13-.06.21,0,.44,0-1.42-.24-1.59-.1-1.71,0a6.57,6.57,0,0,0-.86-.2,4.11,4.11,0,0,0-.73,0c-.24-.07-.66-.16.23-.11a18.28,18.28,0,0,0-3.09-.17,4.82,4.82,0,0,0-.83,0c-1.12,0-1.22,0-2.31.05H37a14.25,14.25,0,0,1-1.78.23l0,0a11.6,11.6,0,0,0-1.44.15c-.21.06-.43,0-1.41.2l.12.07c-.14.24-1.75.28-2.87.62l.42,0c-.6.2-1.76.28-2.39.45-.14,0,.2-.1.38-.17-1.63.43-.17.19-1.34.62-.24,0,.21-.28-.58,0-.4.14-2.16,1.17-3.22,1.61.24-.08.48-.16,0,.16a16.7,16.7,0,0,0-2.77,1.6c-.1.05-.14.07-.15.06-.53.43-1.75,1.34-2,1.65-.7.14-3.09,2.85-3.22,2.69l-1.42,1.53V16.7A8,8,0,0,0,12,18.54c-.21.23-.09,0-.09,0A11.71,11.71,0,0,0,9.87,21.7l-.18.09c-.1.2-.52.77-.93,1.56A16.16,16.16,0,0,0,7.5,26a.51.51,0,0,1,0-.21c-.32,1-.92,2.18-1.27,3.25a7.5,7.5,0,0,0-.54,2.4,12,12,0,0,0-.2,1.41c.35-1.79.11.3.3-.43-.1.71-.43,1.8-.3.93l0-.13c-.12-.35-.49,2.22-.56,2.16a38.13,38.13,0,0,0,.24,10.49,3.47,3.47,0,0,1,.07-.41c.06.39.16.77.24,1.15s0,.43-.2-.39a4.61,4.61,0,0,0,.42,1.38c.31,1.62-.31-.59-.2-.09l.17.67,0-.16c.21.52.2.58.54,1.53.18.62,0,.34.09.58a1.31,1.31,0,0,0,.12.37l.47,1.42-.08-.6c.26.61.46,1.32.35.63a19.91,19.91,0,0,0,1.2,3c.61,1.19,1.31,2.27,1.43,2.56.5.78,1.1,1.47,1.72,2.4-.14-.24-.14-.45.41.34-.2-.07,0,.33.38.79a10.82,10.82,0,0,1,1,1.37c-.18-.31.28.21.71.68s.91.83.57.4c.57.57,0,.1.37.57a39,39,0,0,0,5.15,4.2c.05,0-.26-.27.2,0l1,.83a5.23,5.23,0,0,1,1.16.58c-.09-.08-.23-.2.05-.07,4,2.42,8.87,3.57,13.57,4.28-.64-.12-.21-.09.28-.06-.32,0,0-.09,0-.14.66.09,1.31.21,2,.26.36-.14,2.14-.06,2.34-.19l-.63,0c.83-.17-1.17-.3-1-.5a3.7,3.7,0,0,1-.79.06c-.29,0-.61-.08-1-.13A9.21,9.21,0,0,0,35.07,73c-.33-.06.29,0,.12-.1a4.59,4.59,0,0,1-1.69-.2h.1a18.12,18.12,0,0,1-2.89-.63l-1.35-.43a13.15,13.15,0,0,1-1.65-.59l.15.16A9.39,9.39,0,0,1,27,70.8c-.67-.11,1.51.6.9.53a15.81,15.81,0,0,0-2.2-1,8,8,0,0,1-1.93-1.08c-.79-.41.18.22-.61-.19l-.18-.16-.24,0c-.52-.27-.71-.53-.71-.57s.35.2.48.28c-.6-.47-1.81-1.13-2-1.28l.7.49A38.22,38.22,0,0,1,15.06,63l.1.15a30.38,30.38,0,0,1-2.28-2.55l.06,0A6.15,6.15,0,0,1,12,59.57c.33.37-.46-.82,0-.33a18.43,18.43,0,0,0-1.48-1.72l-.09-.3A7.13,7.13,0,0,1,9.56,56c.46.67-.22-.6.31.14-.22-.47-.44-.86-.64-1.21L8.75,54a5.4,5.4,0,0,1-.6-1.47c-.58-.79.64,1.68.38,1.21.12.44-.47-.65-.72-1.26s-.16-1.15-.71-2.71l.12.32a11.71,11.71,0,0,1-.57-1.89c-.22-.39-.22-1-.4-1l.38,1.48a20.41,20.41,0,0,1-.83-3,7.83,7.83,0,0,1,.28.79c0-.42-.24-.77-.24-1.21.13.1.44,1.81.75,2.68,0-.45-.5-1.68-.23-1.26A3.74,3.74,0,0,1,6,45.47a9.06,9.06,0,0,0-.25-1.53l.1.06c0-.17-.13-.53-.17-.86l.2.57a13.46,13.46,0,0,1-.2-2.61c0,.91,0,1,0,1s-.11-.18-.09.2c-.23-2.25.19-1.31.09-3.82,0,.34,0,1.28-.09.74a5.79,5.79,0,0,1,.15-1.4c.11-1.66-.12.25-.12-.46a5.62,5.62,0,0,0,0-1.56h.1c.28-1.88-.14-.53.21-2.21v.74l.12-.89.08.2a8.54,8.54,0,0,1,.41-2.18c-.13.2-.14-.16.09-1,.21-.54,0,.34.31-.82a2.43,2.43,0,0,1-.25,1.06c0,.06,0,.27,0,.33a19.76,19.76,0,0,0,.55-1.9c0,.16-.11.35-.15.44.06-.28.11-.57.18-.85l.25-.83c.13-.24.08,0,0,.18.12-.33.17-.57.35-1.06,0,.15.11.15-.12.84l.52-1.56c.06-.09.4-.74.35-.53.47-.78.85-2.07,1.51-3.1a2.73,2.73,0,0,1,.2-.4l.94-1.38.47-.73c.18-.24.36-.5.55-.78l.58-.52c.62-.85-.78.71.27-.71.74-1,.37-.29.69-.6a13.05,13.05,0,0,1,1.88-2.13C15.51,15.74,15.29,15.94,15.06,16.2ZM25.66,8.77a3.93,3.93,0,0,1-.85.41A2,2,0,0,1,25.66,8.77ZM45.12,6.29a3.36,3.36,0,0,1-.8-.16A7.05,7.05,0,0,1,45.12,6.29Zm27.26,42v0C72.57,47.69,72.5,47.88,72.38,48.26ZM72,49.41c0,.12,0,.12,0,.07a3.65,3.65,0,0,1,.16-.64A1.9,1.9,0,0,0,72,49.41Zm-65.58.8L6.38,50C6.58,50.47,6.51,50.34,6.43,50.21Z"/><path class="cls-39" d="M42.87,6.07a.17.17,0,0,1-.1-.06C42.67,6,42.66,6,42.87,6.07Z"/><path class="cls-39" d="M10.19,22.65l0,0a.09.09,0,0,0,0,0Z"/><path class="cls-39" d="M71.61,31.23a3.41,3.41,0,0,1-.06-.47S71.54,30.87,71.61,31.23Z"/><path class="cls-39" d="M69.76,55.37l.33-.7a5.43,5.43,0,0,1-.34.61S69.87,55.16,69.76,55.37Z"/><path class="cls-39" d="M65.65,60.62l-.2.28h.05C65.79,60.53,66,60.25,65.65,60.62Z"/><path class="cls-39" d="M69.16,55.86c-.11,0-.26.47-.55.92l.05-.08C68.67,56.9,68.95,56.39,69.16,55.86Z"/><path class="cls-39" d="M68.54,56.89l-.26.42C68.28,57.38,68.39,57.14,68.54,56.89Z"/><path class="cls-39" d="M71.61,50.88c-.11.23,0,.18,0,.31C71.57,51.49,72,49.55,71.61,50.88Z"/><polygon class="cls-39" points="68.73 56.12 68.9 55.99 68.97 55.69 68.73 56.12"/><path class="cls-39" d="M70.6,52.35l-.34.78s0,.1-.05.23A9.25,9.25,0,0,0,70.6,52.35Z"/><path class="cls-39" d="M70.21,53.36c-.11.25-.24.48-.29.62A6.6,6.6,0,0,0,70.21,53.36Z"/><polygon class="cls-39" points="69.23 55.06 69.36 54.85 69.64 54.32 69.23 55.06"/><path class="cls-39" d="M72.92,43.51l0-.93c0-.1-.07.15-.08.5S72.87,43.64,72.92,43.51Z"/><path class="cls-39" d="M72.19,46.23a1.73,1.73,0,0,1,.15-.39l-.12-.05Z"/><path class="cls-39" d="M72.61,43.57c0-.1,0-1.34-.08-.18C72.57,43.49,72.49,44.41,72.61,43.57Z"/><polygon class="cls-39" points="71.58 29.76 71.66 29.98 71.84 29.9 71.58 29.76"/><path class="cls-39" d="M65.61,19.16c.59.91.25.13.77,1,.19.18-.43-.68-.24-.49C65.72,19.13,65.54,18.83,65.61,19.16Z"/><path class="cls-39" d="M66.14,19.63l.22.25Z"/><polygon class="cls-39" points="39.68 73.94 40.4 73.97 39.94 73.91 39.68 73.94"/><path class="cls-39" d="M41.05,73.76l.18.13.42-.13A3.33,3.33,0,0,1,41.05,73.76Z"/><path class="cls-39" d="M27.55,8.28l0,0a2.56,2.56,0,0,0-.58.15Z"/><polygon class="cls-39" points="19.25 12.66 19.39 12.57 19.07 12.65 19.25 12.66"/><path class="cls-39" d="M13.61,18.15a7.15,7.15,0,0,1,.66-.78C13.79,17.88,13.45,18.13,13.61,18.15Z"/></g></g></svg>