<?xml version="1.0" encoding="utf-8"?>
<!-- Generator: Adobe Illustrator 21.0.0, SVG Export Plug-In . SVG Version: 6.00 Build 0)  -->
<svg version="1.1" id="Vrstva_1" xmlns="http://www.w3.org/2000/svg" xmlns:xlink="http://www.w3.org/1999/xlink" x="0px" y="0px"
	 viewBox="0 0 652 56.7" style="enable-background:new 0 0 652 56.7;" xml:space="preserve">
<style type="text/css">
	.st0{opacity:0.2;fill:url(#shadow_2_);}
	.st1{fill:#D9DCE0;}
	.st2{opacity:0.3;}
	.st3{fill:#292929;}
	.st4{fill:#FFFFFF;}
</style>
<g>
	<linearGradient id="shadow_2_" gradientUnits="userSpaceOnUse" x1="585.6066" y1="13.1073" x2="117.0671" y2="824.6416">
		<stop  offset="0" style="stop-color:#FFFFFF"/>
		<stop  offset="0.3115" style="stop-color:#8E877C"/>
		<stop  offset="0.5853" style="stop-color:#645A48"/>
		<stop  offset="0.873" style="stop-color:#000000"/>
	</linearGradient>
	<path id="shadow_1_" class="st0" d="M663.5,817.1c0-0.9,0-1.8-0.1-2.8c-0.1-1.8-0.2-3.6-0.2-5.3v-2.7c0-171.5,0-621.1,0-748.4H11.8
		c0,116.3,0,501.3,0,697.9v3.3c0,1,0.2,1.9,0.3,2.8c0.5,1.1,1.1,2.1,1.7,2.9c0.5,0.5,0.9,0.8,1.5,1.2c3,1,6.5,2,10,2.7
		c0.7,0.1,1.4,0.2,2.1,0.4c6.4,0.9,9.9-3.4,14.1-7c1.4-5.6,5.8-10.3,13.2-10.3c3.8,0,6.9,1.2,9.1,3.2c0.4,0.4,0.9,0.8,1.2,1.3
		c0.9-0.2,1.8-0.2,2.6-0.1c0.8,0.1,1.5,0.2,2.3,0.5c10.4,0.8,16,12.2,28.1,8.3c0.9-0.2,1.8-0.3,2.7-0.4c6.1-0.7,11,0.8,18.3,5.6
		c0.8,0.4,1.7,0.8,2.5,1.1c1.7,0.6,3.6,1.1,5.6,1.2c1,0.1,2.1,0.2,3.1,0.4c7.2,1.2,14,4.6,17.9,11.3c0.1,1,0.1,1.7,0.1,1.7
		c0.8,0.3,1.7,0.5,2.5,0.5c0.8,0.1,1.7,0.1,2.5,0c9.1-3.3,20.4-11.8,28.9-1.6c1.1-0.5,2.3-0.8,3.4-1c10.1-1.8,19.1,6.2,17.2,17.1
		c0.1,1.1,0.2,2.2,0.1,3.3c0,1-0.1,2-0.4,3c0.8,0.1,1.6,0.2,2.5,0.3c7.7,0.6,17.4-1,22.8,6.5c0.8,0.6,1.7,1.1,2.5,1.6
		c7.8,4.3,17.6,4.5,24.1,7c0.8,0.2,1.6,0.4,2.4,0.7c5.3,1.9,9.2,5.5,11.7,14.2c0.5,0.3,1,0.6,1.5,0.9c2.5,1.6,5.2,4,8.4,7.2
		c0.9-0.3,1.9-0.6,2.8-1.1c1-0.5,1.9-1.2,3-2c0,0,0,2.8,0,1.6c0,0.6,0,1.3,0,1.9c0,2.7,0,5.9,0,7.8c11.3-2.8,25.5-8.5,36.4,0.7
		c1,0.2,2.1,0.4,3.3,0.7c1.2,0.3,2.6,0.7,4.1,1.2c0.6-0.8,1.3-1.5,2-2.3c4.9-5.2,11.7-8.8,20.5-2.2c1,0.4,2.1,0.7,3.1,1.1
		c0.7-0.2,1.4-0.3,2.2-0.4c2.2-0.3,4.4-0.3,6.8,0.1c0.9-0.2,1.8-0.4,2.7-0.6c4.6-0.7,9.7-0.2,15.6,0.7c0.8,0,1.7,0,2.5,0.2
		c7.2,1.1,14.3,8.6,23.3,6.5c0.8-0.6,1.6-1.1,2.4-1.6c4.6-3.2,8.3-4.8,15.3-2.7c1,0.3,2.1,0.7,3.2,1.1c4.1,1.6,12.3,3.1,16.8,2.8
		c4.2-0.3,8.4-3.7,12.9-3.2c2.7,0.3,4.9,3.2,7.7,0.9c0.8-0.7,1.4-1.7,2.2-2.3c1-0.6,2.2-0.7,3.3-0.8c7.3-0.4,14.6-1.1,21.8-0.1
		c3.7,0.5,8.2,4.2,11.9,2.6c6.3-2.7,12.8-5.8,19.8-4.8c1,0.1,2.1,0.4,3.1,0.6c11.6-5.3,15.8-17,24.6-15.1c0.8,0.2,1.6,0.5,2.5,0.8
		c4,0.5,7,0.9,9.6,1.4c0.9,0.2,1.7,0.3,2.5,0.5c2.5-0.6,4.7-0.9,6.7-0.8c1,0,2,0.1,2.9,0.3c7.1-1,11.7,1.3,15.3,4.8
		c0.7,0.7,1.4,1.4,2.1,2.1c0.8,0.8,1.7,1.4,2.5,2.1c3.4-0.9,6.5-1,9.4-0.6c1,0.1,2,0.3,3,0.5c2-1.1,4-1.7,5.9-1.9
		c1-0.1,1.9-0.1,2.9,0c9.9-3.8,18.4-0.9,27.8,1.2c0.8-0.3,1.7-0.6,2.5-0.9c2.5-0.9,4.9-2,7.2-3.6c0.5-0.8,1-1.7,1.4-2.8
		c0.5-0.6,0.9-1.3,1.3-1.9C662,830.7,663.5,825.1,663.5,817.1z"/>
	<path class="st1" d="M651.8,781.4c0-2.3,0-1.5,0-1.4c0-2.6,0-0.6,0-2.4c0-1.4,0-2.3,0-2.3c0-1,0,1.3,0-2.3v-2.5c0,0.2,0-1.7,0-2.4
		c0-1.5,0-1.4,0-2.6V217H0.5v525.1c0,2.5,0.2-1.5,0.3,2.8c0.5-0.9,1.1,2.3,1.7,2.9c0.5,2.4,0.9-0.9,1.5,1.2c1.5,2.5,3.1,1.9,4.8,1.5
		c1.7,1.5,3.4,4.1,5.2,1.2c0.7,3.6,1.4-5.1,2.1,0.4c2.1,2.3,3.9,0.1,5.6-0.6c1.6,0.2,3.1,0.9,4.4-2.8c1.4,2.2,2.7-6.2,4.1-3.6
		c0.3-1.3,0.9-1.6,1.6-4c0.7-2.1,1.6-4,2.7-3.3c1.1-1.9,2.4-0.8,3.9-2.2c1.5-1.9,3.1-0.8,5-0.8c1.9-0.5,3.6,1.1,5.1,0.9
		c1.5-1.4,2.8,4.7,3.9,2.4c0.4-3.9,0.9,2,1.2,1.3c0.9-1.3,1.8-1.2,2.6-0.1c0.8,2.2,1.5,3.8,2.3,0.5c1-0.1,2,0.1,3,0.1
		c1,2.1,1.9,4,2.8,1.5c0.9,2.3,1.8-1.4,2.6,0c0.9,3,1.7,0.7,2.5,2.9c0.8-0.8,1.7-0.2,2.5,1.6c0.8,1.1,1.7,1.7,2.6,1.2
		c0.9,3.5,1.8,2.4,2.7,1.3c0.9,1,1.9-0.4,2.9,0.4c1,0.5,2-0.6,3.1-1.1c1.1,0.1,2.2-0.9,3.4,0.4c0.5-2.2,0.9-1.3,1.4-1.7
		c0.4,1.9,0.9-1.9,1.3,1.3c0.8-1.6,1.5,2.7,2.2-0.5c0.7-2.3,1.4-2.6,2.2,0.4c0.7,0.5,1.4-0.2,2.1,2c0.7,0.6,1.4-0.3,2.2-1.2
		c0.7,1.8,1.5,1.2,2.2,1.4c0.8-1.1,1.5-0.2,2.3,0.5c0.8,1.7,1.6-0.3,2.5,0.8c0.8,0.5,1.7,1,2.6,2.3c0.4-1.2,0.8-2,1.3-1
		c0.4,1.3,0.9,1.1,1.3,2c0.4,1.4,0.9-0.7,1.3-0.4c0.4-0.4,0.9-0.4,1.4,1.2c0.9,0.9,1.9,0.4,2.9,0.4c0.5-0.2,1-0.9,1.6-1.1
		c0.5-0.2,1,0,1.6,1.5c1.8,0.1,3.6,4.5,5.3,1.3c1.7,0.3,3.3-0.1,4.9,2.3c1.5,1.6,3,6.8,4.3,3.3c1.3,2.8,2.4,4.3,3.4,4.5
		c0.1,0.4,0.1,3.1,0.1,1.7c0.8,1.1,1.7,2.9,2.5,0.5c0.8,2,1.7,0.7,2.5,0c1.8-1.6,3.7,0.3,5.7-2.4c2-2.3,4-3.7,6-2.5
		c2-0.1,4-0.2,6-1.5c2-3.3,3.9-0.1,5.8,0.7c1.9,1.5,3.7,1.2,5.4,4.1c1.1,3,2.3-1.3,3.4-1c2,0.2,4-2.2,5.8,0c1.8,1.4,3.6-1.9,5.1,2.1
		c1.5,2.7,2.9,6.3,3.9,3.7c1.1,1.5,1.8,4.1,2.3,5.1c0.4-1.1,0.5,2.4,0.1,6.2c0.1,0.9,0.2,2.1,0.1,3.3c0,0.6-0.1-1.1-0.4,3
		c0.8-4.1,1.6,0.4,2.5,0.3c1.9-0.5,4,2,6,0.2c2.1,1.7,4.2,0.2,6.2,0.5c2,1.9,4,1.6,5.8,1.8c1.8,0.9,3.4,3.7,4.8,4.1
		c0.8,1,1.7,3.2,2.5,1.6c1.6,0.2,3.2,2.1,4.9,2.1c1.7,2.1,3.4,0.8,5.1,1.5c1.7,3.1,3.4,0.1,5.1,1.1c1.7,0.2,3.3,1.2,4.8,1
		c1.5,1.9,2.9,0.3,4.2,1.3c0.8-2.1,1.6-1.5,2.4,0.7c1.3,0.8,2.6,0.8,3.7,1.8c1.2-1,2.2,3.7,3.2,2.7c1,2.4,1.9,3,2.7,4
		c0.8,0.6,1.5,2.9,2.1,5.6c0.5-0.4,1,0.8,1.5,0.9c0.8,4.7,1.7,4.6,2.6,1.9c0.9,3.4,1.8-1.5,2.8,2.4c1,2.9,1.9,2.1,3,2.9
		c0.9-0.7,1.9-2.6,2.8-1.1c0.5-2.7,1,1.8,1.5-0.9c0.5-4.8,1,0.6,1.5-1.1c0,2.9,0,2.4,0,1.6c0,1,0,2.2,0,1.9c0,2.1,0,3.6,0,4.2
		c0,0.2,0,0.3,0,0.2c0,2.5,0,2.1,0,3.3c1.9,0.6,3.9-1,5.9-1.6c2-2.3,4.1-2.4,6.2-1.6c2.1-1,4.2,2.6,6.3-1c2.1-0.1,4.2,1.9,6.3,0
		c2.1,0.6,4.1-0.5,6.1,1.4c2,0.4,3.9,0.8,5.7,3.4c1,0.2,2.1-0.4,3.3,0.7c0.6-1.2,1.3,0.7,1.9,0.5c0.7,0.7,1.4,2.2,2.2,0.7
		c0.6-2.8,1.3-0.6,2-2.3c1.2-2.6,2.6-1.8,4.1-3.5c1.5-0.6,3.1-3.3,4.8-2.1c1.7-1.8,3.5-0.7,5.5,0.1c2,0,4,1.5,6.2,3.1
		c1,2.8,2.1,0.8,3.1,1.1c0.7,0.6,1.4,2.9,2.2-0.4c1.1-0.4,2.2,0.8,3.3-0.2c1.1-1.3,2.3-0.8,3.5,0.3c0.9,2.3,1.8-1.2,2.7-0.6
		c1.5-0.5,3.1-2.1,4.8-0.3c1.7-1.2,3.4,0.5,5.2,0.3c1.8,0.7,3.7,2.1,5.6,0.8c0.8,1.4,1.7-0.4,2.5,0.2c1.8,2,3.6,1.8,5.4,1.8
		c1.8,3.8,3.7,0.2,5.5,2.7c1.9,1.5,3.8-0.1,5.9,2.1c2,0,4.2,1.7,6.4,0c0.8,0.9,1.6,1.7,2.4-1.6c1.5,0,3-3,4.5-2.6
		c1.5-0.7,3-1.5,4.8-1.1c1.8,0.8,3.7,0.6,6.1,1c1,1.8,2.1,0.6,3.2,1.1c2.4,0.1,4.5,1.5,6.6,1c2-1.6,3.9,2.3,5.7,1.4
		c1.8,0.7,3.6,2,5.5,0.3c1.9-0.1,3.8,2.4,6-2.3c1-2,1.9-2.7,2.9-0.9c1.4,0.7,2.8,1.6,4.2,0.1c1.3,0.1,2.6,1.6,3.9,3
		c0.7,0,1.5-2.3,2.2-2.3c1,1.4,2.1-2.4,3.1-2c1.1-0.6,2.2-0.3,3.3-1c1.1,1.8,2.3,1.1,3.4-0.1c0.9-1.7,1.8-0.4,2.7,0.4
		c2.3-1.9,4.6-2.3,6.7-0.2c2.2-1.4,4.2-1.9,6.2-0.1c2,0.7,3.8-0.7,5.6,0.5c1.8,0.1,3.4,0.6,4.9,1.5c0.8,2.6,1.5-2.4,2.2,1.3
		c1.6-0.1,3.3,1.2,5-2.1c1.7-3.2,3.4,0.4,5.2-2c1.8,0.5,3.6-2.5,5.5-1.3c1.9-0.1,3.8,1.1,5.9,0c1,0.6,2.1-1,3.1,0.6
		c2.3-2.6,4.3-3,6.2-3.8c1.8,0.6,3.5-3.3,5-4.4c1.5-1.2,2.9-3.3,4.3-4c1.4-0.6,2.8-3.9,4.3-2.6c1.5-1.2,3-0.3,4.8-0.3
		c0.8,0.8,1.6,0.5,2.5,0.8c2,1.1,3.7,0.8,5.3,0.7c1.6,2.1,3-0.9,4.3,0.7c0.9-0.7,1.7,0.8,2.5,0.5c1.2-2.2,2.4-2.8,3.5-0.6
		c1.1-2.7,2.2-1.4,3.2-0.2c1-0.3,2-1,2.9,0.3c2.4-0.5,4.5,1.1,6.3,0c1.9,2.4,3.5,0.4,5,1.8c1.5,0.2,2.8,0.7,4,3
		c0.7,1.2,1.4-1.4,2.1,2.1c0.8,0.5,1.7,1.8,2.5,2.1c1.7-1.1,3.3-0.7,4.9-0.8c1.6-0.2,3.1-1.2,4.6,0.2c1-0.5,2,0.2,3,0.5
		c1-1.1,2-0.8,3-1.3c1-1,2-1.1,2.9-0.6c1-0.6,1.9,1,2.9,0c2-1.8,3.9-0.3,5.8-1.5c1.9-0.5,3.7,0.4,5.6-0.3c0.9,0.1,1.8,0.1,2.7,0.2
		c0.9,0,1.8,0.1,2.7,0.4c0.9,1.1,1.8,0,2.7,0c0.9-0.9,1.8-0.4,2.7,1.1c0.9,1.4,1.8-1,2.8,0.6c0.9,1.1,1.9-0.6,2.8,0.7
		c0.8-1.4,1.7,0.3,2.5-0.9c0.3-0.5,0.6-3.3,0.9-2.3c0.3-2.1,0.6-1.7,0.9,1.7c0.6-2.9,1.2-1,1.8-0.9c0.6,1.8,1.2-2.2,1.8-0.6
		c0.6-1.1,1.2-0.6,1.8-1.4c0.5-0.4,1-4.3,1.4-2.7c0.3-1,0.6-1.3,0.8-2.2c0.3,0.7,0.5-0.6,0.7-1c0.4-1.7,0.7,0,0.9-1.8
		c0.1-1.8,0.2-2.6,0.3-3c0.1,0.3,0.1-0.8,0.2,0.5c0.1,0.3,0.1-3.7,0.2-2.8c0,0.4,0,1.3,0,0.9c0-0.1,0-1,0-2.9c0-1,0-1.1,0-1.8
		c0-0.8,0-1.7,0-1.9c0-0.4,0-3.1,0.1-2.3c0.1-3.1,0.1,1.4,0.3-0.9c0,2.3,0.1-2.3,0.1-0.9c-0.1,0.6-0.1-1.8-0.1-2.7
		c0-2.4,0.1,0,0.1-1.7c0.1-1.8,0.2,0.4,0.4-2.4c0.2-0.9,0.4-0.1,0.7-1.8c0-0.9,0.1-1.9,0.1-1c0.1,1.6,0.2,0,0.3-0.6
		c0.1-2.9,0.1,1.3,0.2-1c-0.1,0.1-0.1-0.4-0.2-2.1c0-2.4,0-0.7,0-1.5c0-0.6,0.1-3.8,0.2-2.8c0.1-0.3,0.3-0.8,0.4-0.7
		c0.2-2.6,0.4-1.4,0.6-1.6C651.2,781.6,651.5,782.2,651.8,781.4z"/>
	<path class="st1" d="M647.5,807.9c0,0.4,0,0.1,0-0.4C647.5,807.6,647.5,807.7,647.5,807.9z"/>
	<g id="white_x5F_page">
		<g id="perforation_x5F_shadow_5_" class="st2">
			<polygon class="st3" points="620.9,35.2 615.3,35.2 615.3,13.8 636.7,13.8 636.7,19.5 620.9,19.5 			"/>
			<polygon class="st3" points="567.4,35.2 561.7,35.2 561.7,13.8 583.2,13.8 583.2,19.5 567.4,19.5 			"/>
			<polygon class="st3" points="513.9,35.2 508.2,35.2 508.2,13.8 529.6,13.8 529.6,19.5 513.9,19.5 			"/>
			<polygon class="st3" points="460.4,35.2 454.7,35.2 454.7,13.8 476.1,13.8 476.1,19.5 460.4,19.5 			"/>
			<polygon class="st3" points="406.8,35.2 401.2,35.2 401.2,13.8 422.6,13.8 422.6,19.5 406.8,19.5 			"/>
			<polygon class="st3" points="353.3,35.2 347.6,35.2 347.6,13.8 369.1,13.8 369.1,19.5 353.3,19.5 			"/>
			<polygon class="st3" points="299.8,35.2 294.1,35.2 294.1,13.8 315.5,13.8 315.5,19.5 299.8,19.5 			"/>
			<polygon class="st3" points="246.3,35.2 240.6,35.2 240.6,13.8 262,13.8 262,19.5 246.3,19.5 			"/>
			<polygon class="st3" points="192.7,35.2 187.1,35.2 187.1,13.8 208.5,13.8 208.5,19.5 192.7,19.5 			"/>
			<polygon class="st3" points="139.2,35.2 133.5,35.2 133.5,13.8 155,13.8 155,19.5 139.2,19.5 			"/>
			<polygon class="st3" points="85.7,35.2 80,35.2 80,13.8 101.4,13.8 101.4,19.5 85.7,19.5 			"/>
			<polygon class="st3" points="32.2,35.2 26.5,35.2 26.5,13.8 47.9,13.8 47.9,19.5 32.2,19.5 			"/>
		</g>
		<path class="st4" d="M645.7,802.6c-0.1,4-0.2-1.9-0.3-1.2c-0.1-0.2-0.2-1.7-0.3-2.5c0.1-4.6,0.2-0.9,0.3-3.9
			c0.1-0.7,0.1,1.5,0.1,2.2c0.2,2,0.4-4.4,0.6-4.1c0.2-0.3,0.4-0.2,0.5,1.7c0.2,1.6,0.3,1.5,0.5,0.2c0.1-2.3,0.3-2.2,0.4-3
			c0.1-1.4,0.3-2.5,0.4-3.2c0.1-0.7,0.2-1.1,0.3-1.1c0.2-2,0.4,1.5,0.6-0.8c0.2-2.2,0.3-2.9,0.5-1.6c0.2,0.5,0.3-2.2,0.5-3.3
			c0.1,0.8,0.3-5.7,0.4-2.7c0.1-2.2,0.3-0.9,0.5-2.1c0.2-1.3,0.3,1.1,0.5-3c0.2-1.3,0.4,0.2,0.6-1.5c0-1.2,0.1-1.6,0.1-2.9
			c0,0.4,0-2,0-2.8v-0.2c0-1.8,0-1.4,0-2.8v-6c0,0.4,0-3,0-3.2v-9.3c0-227.6,0-744,0-744H0.5c0,0,0,479.7,0,718.2v17.1
			c0,0.9,0.2,2.3,0.3,2.8c0.5,0.9,1.1,2.3,1.7,2.9c0.5,2.8,0.9,0.7,1.5,1.2c0.8,1.3,1.5,2.9,2.3,0c0.8,0,1.6-2.3,2.5,1.4
			c0.8-1.3,1.7,0.5,2.6,0.7c0.9-0.3,1.7,1.8,2.6,0.5c0.7-1.3,1.4-0.7,2.1,0.4c1.1,2.3,2.1-2.2,3,0.1c0.9-1,1.8-1,2.6-0.7
			c0.8-0.6,1.6-3.6,2.3-0.2c0.7-3.8,1.4-1.8,2.1-2.6c0.7,1.8,1.4-0.9,2-1.8c0.7-1.1,1.4-0.6,2.1-1.8c0.1-2.2,0.2-2.3,0.3-2.5
			c0.1-0.5,0.2-2.5,0.4,0.3c0.3,6.1,0.6-1.2,0.9-1.8c0.2,1.6,0.4,1.3,0.6,0.8c0.2,0.9,0.4,0.7,0.6-2.6c0.2,0.8,0.5,0.2,0.7,0.8
			c0.3,0.7,0.5-1.2,0.8-2.3c0.5-0.3,1.1-0.3,1.8-1.4c0.6,0.5,1.3-0.5,2.1-0.8c0.7-1.7,1.5-1,2.4,0.8c0.8,0.3,1.7-2.2,2.6-1.6
			c0.5,0,0.9-1.3,1.4,0.3c0.5,4.2,0.9-1.7,1.3-0.1c0.9,2.3,1.7-4.5,2.4,0.6c0.4,2.7,0.7,2.4,1.1,3.9c0.4-2.5,0.7-0.3,1-2.9
			c0.3-1.9,0.6,2.3,0.9,1.9c0.3-0.5,0.6,4.3,0.9-0.5c0.4-0.9,0.9,3.3,1.2,1.3c0.5-3.2,0.9-5.1,1.3-1.7c0.4,4.8,0.8,6.6,1.2,1.6
			c0.4-2,0.8,7.8,1.2,1.8c0.4-1.3,0.7,1.9,1.1-1.4c0.5,3.1,1,0.7,1.5,1.6c0.5-0.4,1-3.7,1.5-1.5c0.5,1.8,0.9,0.4,1.4,2
			c0.5-0.6,0.9-1.4,1.4-0.6c0.4-0.6,0.9,3.5,1.3,5c0.4-0.5,0.9-1.4,1.3-2.9c0.4,1.4,0.9,0.7,1.3-1.2c0.4-2.7,0.8-3.3,1.3,1.9
			c0.4,1.6,0.8-0.4,1.3,0c0.4-1.1,0.8,0.1,1.3,2.3c0.4-0.1,0.8,0.8,1.3,0.2c0.4-0.6,0.9-0.8,1.3,0.3c0.4,2.7,0.9-1.2,1.3,0.1
			c0.2,0.4,0.4,1.4,0.7,2.1c0.2-0.2,0.5,0,0.7-1.1c0.2,2.6,0.5,1.7,0.7,2.3c0.2-3.3,0.5-0.2,0.7-0.9c0.2,0.6,0.5,0.1,0.7,0.1
			c0.2-1.5,0.5-2.7,0.7-0.9c0.5-0.9,1-1.4,1.5,0.9c0.5-1.4,1.1,0.9,1.6-0.9c0.3-4.6,0.5-4,0.8-4.8c0.3,0.7,0.6,3,0.8,4.3
			c0.3-0.5,0.6-0.4,0.9,0.4c0.3,2.6,0.6,0.1,0.9-0.6c0.5,4.1,0.9,4.1,1.4,3.3c0.4-0.6,0.9-1.2,1.3-3.8c0.8,0.1,1.5-0.7,2.2-0.1
			c0.4,2.8,0.7,2.9,1.1,0.9c0.4-0.3,0.7-1.9,1.1-0.9c0.4,1.6,0.7,0.4,1.1-0.7c0.4,0.8,0.7-1.5,1.1,1c0.4-0.3,0.7-1.9,1.1-0.7
			c0.4-0.8,0.7,0.5,1.1,1.3c0.7-2,1.5,3.2,2.2,1.2c0.4-1.5,0.8-1,1.1-0.5c0.4,1.7,0.8,0.8,1.2,1.2c0.4,2.4,0.8,3,1.2,3
			c0.4-1.5,0.8-0.7,1.2-1.6c0.4,2.5,0.9-1.7,1.3-1.5c0.4,0.8,0.9-1.5,1.3,3.1c0.4,3.9,0.8,2.2,1.3,2.8c0.4,0.7,0.9-1,1.3-1.8
			c0.4-1.2,0.9-1.6,1.3-1.5c0.4,2.5,0.9,1.3,1.4,2.3c0.9,1.7,1.9,0,2.9,0.4c0.5,0.1,1-1.7,1.6-0.6c0.5,0.4,1,3.1,1.6,0.9
			c0.5,3.9,0.9,3,1.4,1.9c0.4-1,0.9-1.1,1.3-1.7c0.4,3.2,0.9,2.2,1.3,0.5c0.4,0.7,0.9-0.8,1.3,0.6c0.4-0.6,0.9-2.3,1.3,0.4
			c0.4-1.1,0.8,2.9,1.2,0.6c0.4,0.8,0.8,1.7,1.2,2.7c0.4,0.7,0.8,1.6,1.2-1.5c0.4-1.5,0.8-1.7,1.1,0.2c0.4,2,0.7,1.5,1.1,1.3
			c0.4,3.1,0.7,2.6,1,3.7c0.3-1.2,0.7-0.4,1-1.8c0.3,0.6,0.6,0.4,0.9-0.2c0.3-1.2,0.6-0.1,0.9,2.3c0.3,1.1,0.6,1.4,0.8,0
			c0.3-1.6,0.5,0,0.8,2.4c0-3.2,0.1-4.9,0.1-4.1c0-1,0,2.7,0,5.8c0.4,0.4,0.8-1.9,1.3-2c0.4-0.2,0.8-2.1,1.3,2.5
			c0.4,3.6,0.8,0.8,1.3-0.6c0.4-2.2,0.8-2,1.3,0.6c0.5,2.1,0.9,2.5,1.4,2.9c0.5-0.5,0.9-0.3,1.4-3.8c0.5,1.3,1,1,1.4,1.4
			c0.5-0.2,1,0.8,1.5-2.9c0.5,3.8,1,3.2,1.5,1.6c0.5-1.9,1-2.1,1.5-2.7c0.5-0.3,1-2.8,1.5,0.1c0.3-0.6,0.5-0.4,0.8,0.5
			c0.3,1.1,0.5,0.4,0.8-1.9c0.3-0.1,0.5,0.7,0.8,3c0.3-0.3,0.5,1.5,0.8-1.9c0.5-2.3,1-0.5,1.5-1.5c0.3-3.8,0.5-3.6,0.8-3.3
			c0.3,0.2,0.5,3,0.8,1.8c0.3-0.7,0.5,0.1,0.8-2.8c0.2-0.3,0.5-1.2,0.7,3.2c0.5,3.4,1,2.5,1.5,2.2c0.5,0.6,1-2.9,1.5-1.5
			c0.5-1.7,1,1.6,1.5,0.9c0.5,1.2,1,0.2,1.4-0.8c0.5-2.8,0.9-1.6,1.4,1.1c0.5,0.6,0.9,5.8,1.4,2c0.5,2.3,0.9,2.6,1.3,2.7
			c0.4-0.1,0.9,2.1,1.3-1.8c0.6,0.6,1.1,3.8,1.7,1.6c0.6-1.2,1.1-1.3,1.7-2.6c0.3-0.8,0.7-2.7,1-2.1c0.3,1.1,0.7,3.9,1,2.4
			c0.3,1.6,0.7,2.3,1,1.7c0.3-1.5,0.6,2,1-2.2c0.3,0.1,0.6,1.9,1,1.7c0.3-0.7,0.6-1.3,0.9-1.1c0.6-1.3,1.2,2.8,1.8,0.1
			c0.3,2.1,0.6,0.2,0.9,1.3c0.3-0.1,0.6,1.4,0.8-1.4c0.5,1.4,1,5.2,1.4,3.1c0.5,0.4,0.9-2,1.3-1.7c0.8-1.6,1.6,3.1,2.3,1.5
			c0.4,0.6,0.7,1.8,1,2.8c0.3-3.4,0.6-0.7,0.9-1.2c0.9-1.9,1.6,0.8,2.2,1.7c0.6,1.1,1.1,3.3,1.5,2.5c0.2-2.8,0.4-0.4,0.6-0.4
			c0.2,0.6,0.4,2.4,0.5,2.8c0.2,0.8,0.3,5.5,0.5,3.7c0.1,2.9,0.3,0.8,0.4-0.9c0.1,3.3,0.3-0.2,0.4,2.4c0.1-1.2,0.3-2.8,0.4-1.4
			c0,1.9,0.1,1.7,0.1,4.1c0,1.6,0.1-1.1,0.1-0.3c0.1-1.4,0.2-4.3,0.3-1c0.1-2.7,0.2-1.8,0.3-1.4c0.1,0.3,0.2,3.5,0.3,2.7
			c0.2,2.6,0.4-2.5,0.7,0.9c0.1-0.5,0.1,2.1,0.2,1.6c0.1,0.4,0.1-0.6,0.2-2.8c0.1,0.3,0.1-1,0.2,0.8c0.1,2.7,0.1,3.7,0.2,2.8
			c0.1-1.9,0.3-0.5,0.5-2c0.2-0.1,0.3,3.4,0.5,1.8c0.4,2.6,0.7,3.4,1.1,0.8c0.1,2.3,0.2,2.3,0.3,2.9c0.1,0.6,0.2,0.8,0.3,0.4
			c0.2,0.7,0.5,0.1,0.7,1.6c0.2,1.3,0.5,0.3,0.8,1.1c0.3-0.2,0.5,0.7,0.8-3.1c0.3,4.2,0.6,1.3,0.9,1.6c0.3-2.9,0.6-1,1-2.4
			c0.3,1.7,0.7,1.2,1,1.5c0.4,0,0.7,0.2,1.1-2c0.1-0.6,0.3,0.9,0.4-1.1c0.1,0.5,0.3-1,0.4,2.6c0.1,2.4,0.3,2.1,0.4,2.9
			c0.1,3.2,0.3-0.1,0.4,1.6c0.1,1.1,0.3-0.4,0.4-0.6c0.1-1.3,0.1-1.2,0.2-1.3c0.1-0.2,0.1-0.7,0.2-3.2c0.4-0.9,0.9-1.2,1.3-0.1
			c0.4,1.8,0.8,1.1,1.2,1.2c0.2-3,0.4,1.4,0.6,0.3c0.2,0.6,0.4,0.2,0.6,2.7c0.4,0,0.8-0.1,1.1-1.4c0.1-0.5,0.2-3.3,0.4-2.3
			c0.1-2.4,0.2,1.7,0.4,1.5c0.2,0.1,0.5,2,0.7,2.1c0.2,0.8,0.4,2.2,0.6-0.2c0.2-0.7,0.4-1.1,0.6-2c0.4,0.5,0.9,0.3,1.3,1.9
			c0.2,1.1,0.4,2.4,0.7,2.6c0.2-0.5,0.4,1,0.7,0.9c0.4,1.7,0.9,0.5,1.4-0.2c0.2,1,0.5,0.6,0.7-0.1c0.2-0.6,0.5-2.8,0.7-2.1
			c0.2-1.6,0.5-1.1,0.7-2c0.2,0.8,0.5,0.1,0.7,5.6c0.5-2.4,0.9-3.3,1.4-1.7c0.5,2.4,1,3.1,1.4,1.2c0.2-0.8,0.5-2.1,0.7-2.4
			c0.2-0.5,0.5-0.7,0.7,2.5c0.2,0.6,0.5,1.4,0.7,2.1c0.2,0.1,0.5,0.5,0.7-2.7c0.2-0.9,0.5-1.6,0.7-2.1c0.2-0.6,0.5-1,0.7-1.3
			c0.2-0.4,0.5,0,0.7,0.7c0.2,0.8,0.5,2,0.7,3.2c0.5,1.2,1,1.6,1.4,1.5c0.5-1.4,0.9-1.4,1.4-1.4c0.5-0.1,0.9,1,1.4,1.6
			c0.5,0,0.9,0.5,1.4-1.2c0.2-2.5,0.4-3.3,0.7-3.3c0.2,0,0.4,0.8,0.7,1.5c0.4,2.2,0.9,2.6,1.3,2.5c0.4,1.5,0.8,2.6,1.3,2
			c0.4-1,0.8-1.8,1.2-0.7c0.4-3.7,0.8-2.1,1.2-0.9c0.2,0.4,0.4,2.4,0.6,2.4c0.2-1,0.4,0.1,0.5,0.5c0.4-0.2,0.7-4.3,1-2.5
			c0.2-1.2,0.3-1.3,0.5-0.4c0.2,0.9,0.3,3.5,0.5,5.8c0.1-0.9,0.3-1.2,0.4-2.1c0.1,0.9,0.3-0.6,0.4,1.4c0.3,0.7,0.5,4.6,0.8,1.4
			c0.1-0.3,0.1-1.5,0.2,0.3c0.1,0.8,0.1,0.7,0.2,2.7c0.1,0.3,0.3-2.4,0.4-0.7c0.1-1.2,0.3-4,0.4-2.1c0.1-0.5,0.2,1.2,0.4,1.7
			c0.1,3.1,0.1,3.5,0.2,4.7c0.1,0.6,0.1,1.4,0.2,1c0.1,2.3,0.2-3.6,0.4-2.8c0.2,0.2,0.5-2.8,0.7-1.2c0.1-3.4,0.2-1.4,0.3-1.9
			c0.1-2,0.2-1.6,0.3,1.6c0.2-1.6,0.4,3,0.6,2.6c0.2-0.4,0.4-2.8,0.6-2.3c0.1,0.4,0.2,1.7,0.3,2.4c0.1,0.5,0.2,1.5,0.3,3.1
			c0.1-1.8,0.2-3.6,0.3-0.2c0.1,0.1,0.2,1.9,0.3,2.6c0.2,2.6,0.3,1.9,0.5,0c0.1-0.5,0.1-2,0.2-3.2c0-0.9,0.1-0.4,0.1-2.2
			c0-0.7,0.1-0.3,0.1,1.5c0.1,0.1,0.2,2,0.4,0.2c0.1,2.2,0.3,2,0.4,2.5c0.1,4.1,0.3,0.8,0.4,2.1c0.2-2.5,0.4-0.7,0.6-1.6
			c0.2,0.9,0.4-0.6,0.6,1.1c0.4-2,0.9,2.1,1.3,2.3c0.1,3.4,0.2,2.8,0.3,1.5c0.1-1.5,0.2-3.9,0.3-3c0.1,1.9,0.2-1.2,0.4-0.8
			c0.1-1.3,0.2,2.8,0.4,3.1c0.4-0.6,0.7,0.9,1.1-0.2c0.4,1.7,0.8-0.1,1.2-2.1c0.4-0.2,0.8,0.7,1.2-0.4c0.2,0.8,0.4,0.4,0.6,0.6
			c0.1,2.3,0.2,2.5,0.3,1.3c0.1,0.5,0.2,0.8,0.3,2.2c0.9,0.3,1.8,0.2,2.7,1.1c0.2-2.8,0.5-2,0.7-1.8c0.2,0,0.5,2,0.7,1.5
			c0.5,1,0.9,0.4,1.4,1.1c0.5,0.8,0.9,0.8,1.4,1.5c0.5,1.6,1-0.2,1.4-0.6c0.5,0.7,1,2,1.4,2c0.5-0.3,1-0.7,1.5-0.7
			c0.5,0.5,1,0.4,1.5,1.1c0.5,0.3,1,1.7,1.4-0.1c0.5-2.1,1,3.8,1.4,2c0.5-1.1,1-1.3,1.4-1.1c0.5-0.8,0.9,0.1,1.4-1.2
			c0.5,1.5,0.9,0.8,1.4,2.4c0.5-0.4,0.9-2.1,1.3,0.1c0.2,0.5,0.4,2.1,0.7,1.8c0.2,0.5,0.4-0.6,0.7-1.7c0.4,2.4,0.8,0.9,1.3,0.7
			c0.4,0.3,0.8-3.7,1.3-1.7c0.2,1.7,0.4,0.7,0.6,0.2c0.2,0.9,0.4-1.7,0.6,2c0.4-0.9,0.8-0.8,1.3-1.5c0.4,0.5,0.8-2.8,1.3-1.2
			c0.4-3,0.8-0.9,1.2,1.2c0.8,0.8,1.6-1.5,2.5,0.5c0.4-1,0.8-2,1.2-2.6c0.4-1.5,0.8,0,1.2,1.7c0.4-0.2,0.8-3.2,1.2,0.7
			c0.4,1,0.8,3.2,1.2,1.8c0.4,3.3,0.8,1.5,1.2,2.5c0.4,1.8,0.8-2.3,1.1-1.3c0.4-1,0.8,1.2,1.1,0.1c0.4-0.8,0.7,1.7,1.1,1.5
			c0.2-1,0.5,0.9,0.8,1.7c0.3,0.7,0.5-0.5,0.8-0.9c0.5,1.6,1.1,1.2,1.7-0.2c0.6,2.6,1.3,3.8,1.9,0.5c0.7-0.7,1.4,0.1,2.2,0.7
			c0.2-1.3,0.3-2.2,0.5-2.8c0.2,1.3,0.3,0.6,0.5,1.9c0.3,1.1,0.7,1.2,1-1.3c0.3,1.2,0.6,0,0.9,0c0.3,0.8,0.7-2,1-2.1
			c0.7-2.8,1.4-1,2.1-1.4c0.7,1.7,1.5-0.1,2.3-0.6c0.4-3,0.8-1.4,1.2-1c0.4-0.9,0.8,1.5,1.3-0.4c0.4,2.1,0.9-0.3,1.3-1.7
			c0.4-0.4,0.9-1.8,1.3,0.4c0.9-0.3,1.9,0.2,2.8,1.4c0.5-1.9,1,0.7,1.5,0.2c0.5,2.3,1-0.2,1.5,2.7c1-1.6,2.1-0.1,3.2,0.2
			c0.5,1.7,1-2,1.5-0.6c0.5,2.4,1,2.5,1.6,1.7c0.4,0.8,0.7-0.6,1.1-1.6c0.4,2.1,0.7,2.2,1.1,1.3c0.5,1.5,1.1,2.7,1.6,0.3
			c0.6-4,1.1-0.3,1.7-0.5c0.6,1.4,1.1,0.7,1.7-0.1c0.3,3.2,0.6,1.4,0.9,1.7c0.3,0.1,0.6-1.7,0.9-1.3c0.4,0.9,0.9,4.6,1.4,1
			c0.5-3.7,0.9-0.6,1.4-1.6c0.2-2.6,0.4-2.2,0.6-2.6c0.2-0.8,0.4,3,0.6,0.7c0.4-1.2,0.8,2.8,1.2,1.8c0.4-0.9,0.8-2.7,1.2-2.3
			c0.4,0.6,0.8-0.5,1.2,2c0.8-1.7,1.7,0.1,2.5-0.2c0.4,0.3,0.9,2.6,1.3,1.5c0.4,0.6,0.9,0.2,1.3-1c0.4-1.1,0.9-1,1.4-1.4
			c0.5-1.3,0.9-0.5,1.4,0.9c0.5,0.7,0.9,0.6,1.4-0.3c0.5-2.3,1,1.6,1.5,1.6c0.4,2.3,0.8,2.6,1.2,1.1c0.4-0.9,0.8,0.5,1.2-0.9
			c0.5-0.9,0.9,0.9,1.4-1.1c0.5,1.8,0.9-0.8,1.4,2.1c0.9,2.9,1.8-0.4,2.7,0.8c0.9,4.4,1.8-0.5,2.7,0.9c0.5,1.1,0.9,1,1.4-0.4
			c0.5,0,0.9,2.1,1.4,2.1c0.5-1,0.9,0.9,1.4,1.1c0.5-0.1,1,0.6,1.5-0.1c0.5-0.8,1-0.2,1.5-0.8c0.5-1,1,0.4,1.5,1.9
			c0.5,1.3,1,0.2,1.5,0.5c0.5,1.5,1,1.5,1.6-0.9c0.5,1.2,1.1,1.5,1.6,1.2c0.5,0.6,1.1-0.5,1.7-0.8c0.4,0.4,0.8,1.2,1.2-1
			c0.4,0.1,0.8-1.6,1.2-0.6c0.8-2.4,1.5-0.6,2.2-1.6c0.7-3.8,1.5-3,2.2-1c0.7,1.2,1.5,1.1,2.3-1.1c0.8,1.6,1.6,0.9,2.5,0
			c0.9,0.1,1.8-1,2.8-0.1c0.5-2.1,1-2.2,1.6,0c0.5-1.2,1.1,1,1.7,1.1c0.5-3.2,1-0.5,1.6-0.1c0.5,0.4,1.1,2.5,1.7,1.2
			c0.9,1.1,1.8-4.1,2.6,0.1c0.8,0.2,1.6-0.5,2.4,0.5c0.8,0.1,1.5,1.7,2.3,1.4c0.4,0.2,0.7-2.2,1.1-1.3c0.4-0.7,0.7-0.7,1.1,1
			c0.7,0.9,1.4-2.2,2.1-0.4c0.7-0.2,1.4-0.7,2.1,1.3c0.7-1.7,1.4-2.8,2.1,0.2c0.7-1.5,1.4,3.7,2.1-0.1c0.9,2.9,1.9-1.7,2.9-0.7
			c0.5,1.7,1-0.9,1.5-1.6c0.5,3.6,1,1.2,1.6,0c0.8-0.1,1.7,0.9,2.5,0.9c0.8-0.9,1.7,2,2.5-0.2c0.8-1,1.7-0.9,2.5,0.6
			c0.8-1.1,1.7-0.4,2.6-1.2c0.9-0.4,1.7-1.3,2.6-0.3c0.9,1,1.7,1.9,2.6-0.9c0.9,0.8,1.7-0.2,2.6-0.2c0.9-0.9,1.7,2.9,2.6-1.1
			c0.9-0.1,1.7-2.9,2.6-0.8c0.9,1.5,1.7,0.1,2.6,0.2c0.6-0.5,1.2,0.7,1.7,0.6c0.6-3.1,1.1,0,1.7-0.7c0.6-0.1,1.1-1,1.7,0.8
			c0.6-1,1.1-0.6,1.6-0.9c0.5-1,1.1,1.4,1.6-1.4c0.5-0.6,1.1,1.7,1.6,0.4c0.5-1,1,0.6,1.5-0.1c0.5,0.1,1,0.7,1.5,1
			c1-0.1,1.9,1.8,2.9-0.1c0.9-2.4,1.8,1.4,2.7,0.5c0.9-0.6,1.7-1,2.5,0.1c0.8-0.4,1.6-0.8,2.4,1.4c0.8,2,1.5-4.1,2.2,1.3
			c0.8,2,1.6,0.7,2.5-0.6c0.8-1.3,1.7-0.3,2.5-1.4c0.8-2.8,1.7-3,2.5-1.9c0.9,1,1.7-0.1,2.6-0.1c0.9,0.9,1.8-2,2.7-0.4
			c0.9-0.2,1.8-0.9,2.8-1c0.5,0.1,0.9-0.7,1.4-1c0.5-1.2,1,0.7,1.4,1.2c1-1.3,2-1.2,3-0.2c0.5,2.7,1,2.1,1.5,1
			c0.5-1.1,1.1-0.9,1.6-0.4c0.6-1.2,1.1-1.1,1.7-0.8c0.5,1.6,1.1-0.1,1.6-1.2c1,0.2,2-1,2.9-1.8c0.9-2.3,1.8-2.1,2.6-2.2
			c0.4,1.1,0.8,1.9,1.2,1.1c0.4-1.3,0.8-1.4,1.2-3.3c0.8-1.9,1.5-2.4,2.2-2c0.7-1.1,1.4-0.1,2.1-1.9c0.7-2.4,1.4-2.1,2.1-2.4
			c0.7,0.6,1.4,0.5,2.2-0.2c0.7-0.9,1.5-0.9,2.3-1.5c0.8-0.2,1.6,0.1,2.5,1.1c0.8,2.8,1.6,0.5,2.5,0.8c2-2.5,3.7,1.7,5.3,0.7
			c1.6,0.9,3-1.4,4.3,0.7c0.9,2.3,1.7,0.7,2.5,0.5c1.2,1.6,2.4,0.4,3.5-0.6c1.1,0.1,2.2-2,3.2-0.2c1,3.8,2,1.8,2.9,0.3
			c2.4-1.1,4.5-3.7,6.3,0c1.9,1.2,3.5,2.4,5,1.8c1.5,1.4,2.8,4.3,4,3c0.7,2.6,1.4,0.4,2.1,2.1c0.8,1.3,1.7,4.1,2.5,2.1
			c0.8-2.4,1.7-2.6,2.5-0.4c0.8,1.7,1.6,2.7,2.4-0.3c0.8,1.5,1.6-0.6,2.3,0.3c0.8-1.6,1.5,1,2.2-0.1c1,2,2,1.4,3,0.5
			c1-0.2,2,0.5,3-1.3c1-1.4,2-4.7,2.9-0.6c1-1,1.9-0.9,2.9,0c0.5-1,1-2.2,1.5-2.6c0.5-0.4,1-0.2,1.5,1.7c1-2.2,1.9,1.2,2.9-0.6
			c0.9-0.2,1.9,0.4,2.8-0.3c0.9,2.5,1.8,0.3,2.8,0c0.5-1.3,0.9-1,1.4-1.5c0.5,0.6,0.9,2.6,1.4,1.3c0.5-0.1,0.9,1.3,1.4-1.2
			c0.5,1.6,0.9,1.2,1.4,2c0.5-0.5,0.9,1.8,1.4-0.1c0.5-2.8,0.9-0.6,1.4,0.4c0.5-1,0.9-1,1.4-0.7c0.5,0.4,0.9,1.2,1.4,1.5
			c0.5,0.8,0.9,1.1,1.4,1.2c0.5,1.3,0.9-0.1,1.4-0.7c0.5,0.7,0.9,4,1.4,1.7c0.5,1,0.9-0.6,1.4-0.8c0.8-0.5,1.7-0.9,2.5-0.9
			c0.6-2.2,1.2-3.5,1.8-0.7c0.6-0.5,1.2-1.8,1.8-0.9c0.6,3.9,1.2-1.2,1.8-0.8c0.5-0.7,0.9-0.9,1.4-1.2c0.4,0.6,0.8,0.6,1.1-1.7
			c0.3-1.4,0.6-7,0.9-2.7c0.3,1.6,0.5-0.1,0.8-0.9c0.1,0.5,0.1-1.4,0.2-0.9c-0.5-0.8-0.8-1.3-0.9-3.7c-0.1-1.2-0.1-0.9,0-3.9
			C644.9,806.8,645.2,803,645.7,802.6z M47.9,34.3H26.5V12.8h21.4V34.3z M101.4,34.3H80V12.8h21.4V34.3z M155,34.3h-21.4V12.8H155
			V34.3z M208.5,34.3h-21.4V12.8h21.4V34.3z M262,34.3h-21.4V12.8H262V34.3z M315.5,34.3h-21.4V12.8h21.4V34.3z M369.1,34.3h-21.4
			V12.8h21.4V34.3z M422.6,34.3h-21.4V12.8h21.4V34.3z M476.1,34.3h-21.4V12.8h21.4V34.3z M529.6,34.3h-21.4V12.8h21.4V34.3z
			 M583.2,34.3h-21.4V12.8h21.4V34.3z M636.7,34.3h-21.4V12.8h21.4V34.3z"/>
	</g>
</g>
</svg>
