<?xml version="1.0" encoding="utf-8"?>
<!-- Generator: Adobe Illustrator 21.0.0, SVG Export Plug-In . SVG Version: 6.00 Build 0)  -->
<svg version="1.1" id="Vrstva_1" xmlns="http://www.w3.org/2000/svg" xmlns:xlink="http://www.w3.org/1999/xlink" x="0px" y="0px"
	 viewBox="0 0 430.9 68" style="enable-background:new 0 0 430.9 68;" xml:space="preserve">
<style type="text/css">
	.st0{fill:#FFFFFF;}
	.st1{opacity:0.7;}
	.st2{fill:#B3B3B3;}
	.st3{opacity:0.8;fill:#FFFFFF;}
	.st4{opacity:0.8;fill:#F0EFEF;}
	.st5{opacity:0.8;}
	.st6{clip-path:url(#SVGID_4_);}
	.st7{fill:#E9E8E8;}
	.st8{opacity:0.8;fill:#DCDBDB;}
</style>
<path class="st0" d="M415.7,25.5l1.1,13.9c2.3,0.8,3.9,2.6,3.9,4.7c0,0.5-0.1,1-0.2,1.4c0.2,3.8-2.1,7.7-7,7.7
	c-8.3,0-9.2-11.4-2.8-13.9l-1.1-13.8L396,25.6l-2.1,14.6c1.5,0.9,2.5,2.2,2.7,3.8c1.5,4.3-0.6,10-6.5,10c-5.9,0-8-5.8-6.5-10
	c0.2-1.8,1.5-3.2,3.3-4.1l2.1-14.3l-18.8,0.1l0.1,14.8c0.6,0.4,1.1,1,1.5,1.6c0.1,0.1,0.2,0.3,0.3,0.4c0,0,0,0.1,0.1,0.1
	c0,0.1,0.1,0.2,0.1,0.3c2.1,4.3,0,10.7-6.2,10.7c-8.2,0-9.2-11.1-3-13.9l1.4-14l-18.3,0.1l-1.3,13.8c6.4,2.6,5.4,13.9-2.8,13.9
	c-7.8,0-9.1-10.1-3.8-13.4L338,25.9L325.2,26l-3.9,13.7c5.5,3.2,4.3,13.5-3.6,13.5c-8.3,0-9.2-11.6-2.6-14l1.5-13.2l-19,0.1
	l-1.6,13.4c6.9,2.2,6,14.1-2.4,14.1c-8,0-9.1-10.6-3.4-13.7l1-13.8l-18.1,0.1l-0.1,14.6c2.6,1.2,3.8,3.9,3.8,6.5
	c0,3.6-2.3,7.2-7,7.2c-5.5,0-7.7-4.9-6.8-9.1c0-0.1,0-0.2,0-0.3c0-2.3,1.8-4.1,4.2-4.9l-1-14l-10.2,0.1h0l-6.4,0l-2.2,14
	c0.3,0.1,0.6,0.2,0.9,0.3c0,0,0,0,0.1,0c0,0,0.1,0,0.2,0.1c1.8,0.8,3.1,2.2,3.4,3.9c0.6,1.7,0.6,3.5,0,5.2c-0.1,0.4-0.3,0.7-0.4,1
	c-0.7,1.4-1.8,2.5-3.3,3.1h0c-0.8,0.3-1.8,0.5-2.9,0.5c-1.3,0-2.4-0.3-3.3-0.7c-3.8-1.9-4.7-7-2.6-10.5c0.3-0.5,0.6-1,1.1-1.4
	c0.1,0,0.1-0.1,0.2-0.1c0.2-0.1,0.3-0.3,0.5-0.4l2.4-15H243c-2.9,0-5.7-0.2-8-0.1v0l-94.1,0h-11.2c-1.1,2.8-2.2,5.5-3.1,8.3
	c-0.2,2.1-0.2,4.2-0.2,6.3c0.9,0.4,1.7,1.4,2,2.4c1.9,1.3,3.1,3.4,3.1,5.8c0,3.9-3.1,7-7,7c-3.9,0-7-3.1-7-7c0-3.1,2.1-5.7,4.9-6.6
	c0.1-0.1,0.1-0.2,0.2-0.3c0.3-0.3,0.6-0.6,0.9-0.9c0.3-2.3,0.8-4.5,1.6-6.7c0.2-2.8,0.6-5.5,1.2-8.3l-19.7,0
	c-0.7,1.7-1.4,3.4-2.1,5.1c-0.1,0.3-0.2,0.5-0.4,0.7l0,8.4c0,0.9-0.3,1.6-0.6,2.2c0,0,0,0.1,0,0.1c0.1,0.2,0.1,0.3,0.2,0.5
	c1.9,1.3,3.1,3.3,3.1,5.8c0,3.9-3.1,7-7,7c-3.9,0-7-3.1-7-7c0-2.1,0.9-4,2.4-5.2c0.5-5.8,0.3-11.7,0.1-17.5l-16.8,0
	c-0.3,5.6-0.7,11.3-0.7,16.9c1.9,1.3,3.2,3.4,3.2,5.9c0,3.9-3.1,7-7,7c-3.9,0-7-3.1-7-7c0-2.3,1.1-4.3,2.8-5.6
	c-0.1-5.7,0.3-11.5,0.7-17.2l-15.3,0c-0.6,5.7-1,11.3-1.3,17c1.8,1.3,3,3.4,3,5.7c0,3.9-3.1,7-7,7c-3.9,0-7-3.1-7-7
	c0-2.4,1.2-4.5,3-5.7c0.4-5.7,0.8-11.4,1.3-17l-17.4,0C29.3,32,29,37.5,28.4,43c2.3,1.2,3.8,3.5,3.8,6.2c0,3.9-3.1,7-7,7
	c-3.9,0-7-3.1-7-7c0-3.3,2.4-6.1,5.5-6.8c0.6-5.3,0.8-10.6,0.9-15.9l-24,0c-0.8,0,0,0.9,0,1.9L0.3,126H431V46.2c0-0.2,0-0.4,0-0.6
	V25.4L415.7,25.5z M147.8,56.2c-3.9,0-7-3.1-7-7c0-2.1,0.9-4,2.4-5.3c0.2-0.2,0.4-0.4,0.7-0.5c-0.1-2.3,0.3-4.7,1.5-6.6
	c2.1-3.3,6.8-0.2,5.6,3.1c0.1,0.2,0.1,0.5,0.2,0.7c0,0,0,0,0,0c1.8,0.7,2.2,2.4,1.8,3.9c0.2,0.2,0.3,0.4,0.5,0.6
	c0.9,1.2,1.4,2.6,1.4,4.1C154.8,53,151.6,56.2,147.8,56.2z M171.5,56.1c-2.2,0-4.2-1.1-5.5-2.7c-1.6-1.1-2.1-3-1.8-4.7
	c0-0.9,0.2-1.7,0.6-2.5c0-0.1,0.1-0.1,0.1-0.2c0.1-0.5,0.3-0.9,0.6-1.3c0.7-0.8,1.5-1.5,2.3-2c0.7-1.2,2-1.9,3.7-1.3
	c0.2,0.1,0.5,0.2,0.7,0.3c0.5-0.1,1.1-0.1,1.8,0.1c0.8,0.3,1.3,0.8,1.7,1.4c0.1,0.1,0.1,0.1,0.2,0.1c0,0,0.1,0,0.1,0
	c1.6,0.6,2.2,1.9,2,3.2c0.1,0.4,0.2,0.7,0.3,1.1c0.1,0.4,0.1,0.8,0.1,1.3C178.5,53,175.4,56.1,171.5,56.1z M196.2,56.1
	c-3.9,0-7-3.1-7-7v0c0-3.9,3.1-7,7-7c3.9,0,7,3.1,7,7c0,0.5-0.1,1.1-0.2,1.6C202.3,53.8,199.6,56.1,196.2,56.1z M221.2,56.1
	c-2.9,0-5.4-1.8-6.5-4.2c-0.4-0.8-0.6-1.8-0.6-2.8c0-3.9,3.1-7,7-7c3.9,0,7,3.1,7,7c0,1.4-0.4,2.8-1.2,3.9
	C225.8,54.9,223.6,56.1,221.2,56.1z"/>
<g class="st1">
	<g>
		<g>
			<defs>
				<path id="SVGID_1_" d="M297,8.3c-0.2,1.7-4.2,0.8-4.2,2.5c0,1.8,3.5,2.6,3.5,4.4c0,1.8-0.4,1.7-0.3,3.6c0.1,1.9,0,1.9,0.1,3.8
					c0.1,2,0.5,2,0.7,4c0.2,2-3.4,1.4-3.1,3.6c0.3,2.1,1.1,2.2,1.4,4.3c0.3,2.1,1.5,2.4,1.8,4.5c0.4,2.2-0.6,2-0.2,4.3
					c0.4,2.3,2.4,2.5,2.9,4.8c0.4,2.3,0.5,2.3,0.9,4.5c-26.3-3.6-27.5-3.2-51-3.7c-22.6,0.3-22,1.1-43.8,2.3
					c-22.2,0.7-24.4,0.3-49.8-2.4c0.4-2.4,2.1-2.2,2.4-4.8c0.3-2.7-2.1-2.9-1.9-5.6c0.1-2.8,0.8-2.7,0.8-5.6c-0.1-3,3.7-2.9,3.5-6
					c-0.3-3.2-2.9-3.2-3.3-6.5c-0.4-3.3,3.7-3.3,3.3-6.6c-0.5-3.4-3.2-2.5-3.8-6c13,0.1,23.1-0.4,31.5-1c2.8-0.2,5.5-0.4,8-0.7
					C220.9,4.8,247-0.1,281.8,5c2.3,0.4,4.7,0.9,7.3,1.4C291.5,7,294.2,7.6,297,8.3z"/>
			</defs>
			<clipPath id="SVGID_2_">
				<use xlink:href="#SVGID_1_"  style="overflow:visible;"/>
			</clipPath>
		</g>
	</g>
	<g>
		<path class="st2" d="M297.7,8.4c-0.1,1.7-4.2,0.8-4.2,2.6c0,1.8,3.4,2.6,3.5,4.4c0,1.8-0.4,1.7-0.4,3.6c0.1,1.9,0,1.9,0.1,3.9
			c0.1,2,0.6,2,0.7,4.1c0.2,2-3.5,1.4-3.2,3.5c0.3,2.2,1.2,2.3,1.5,4.4c0.3,2.1,1.4,2.3,1.8,4.5c0.4,2.2-0.6,2.1-0.2,4.3
			c0.4,2.2,2.5,2.6,2.9,4.8c0.4,2.3,0.5,2.3,1,4.6c-26.7-3.8-27.9-3.3-51.6-3.9c-22.9,0.2-22.2,1-44.2,2.3
			c-22.5,0.7-24.7,0.3-50.5-2.6c0.5-2.4,2.3-2.2,2.6-4.7c0.2-2.7-2.1-2.9-1.9-5.6c0.1-2.8,0.9-2.8,0.9-5.7c-0.1-3,3.7-2.8,3.4-6
			c-0.2-3.2-2.9-3.2-3.2-6.5c-0.4-3.3,3.8-3.2,3.3-6.7c-0.5-3.4-3.2-2.5-3.8-6c13.2,0.1,23.4-0.3,31.9-1c2.8-0.2,5.5-0.5,8.1-0.7
			c24.8-1.1,51.2-6.2,86.3-0.9c2.3,0.4,4.8,0.9,7.4,1.5C292.2,7.1,294.9,7.7,297.7,8.4z"/>
		<path class="st3" d="M297,8.3c-0.2,1.7-4.2,0.8-4.2,2.5c0,1.8,3.5,2.6,3.5,4.4c0,1.8-0.4,1.7-0.3,3.6c0.1,1.9,0,1.9,0.1,3.8
			c0.1,2,0.5,2,0.7,4c0.2,2-3.4,1.4-3.1,3.6c0.3,2.1,1.1,2.2,1.4,4.3c0.3,2.1,1.5,2.4,1.8,4.5c0.4,2.2-0.6,2-0.2,4.3
			c0.4,2.3,2.4,2.5,2.9,4.8c0.4,2.3,0.5,2.3,0.9,4.5c-26.3-3.6-27.5-3.2-51-3.7c-22.6,0.3-22,1.1-43.8,2.3
			c-22.2,0.7-24.4,0.3-49.8-2.4c0.4-2.4,2.1-2.2,2.4-4.8c0.3-2.7-2.1-2.9-1.9-5.6c0.1-2.8,0.8-2.7,0.8-5.6c-0.1-3,3.7-2.9,3.5-6
			c-0.3-3.2-2.9-3.2-3.3-6.5c-0.4-3.3,3.7-3.3,3.3-6.6c-0.5-3.4-3.2-2.5-3.8-6c13,0.1,23.1-0.4,31.5-1c2.8-0.2,5.5-0.4,8-0.7
			c24.6-1.2,50.8-6.1,85.5-1c2.3,0.4,4.7,0.9,7.3,1.5C291.5,7,294.2,7.6,297,8.3z"/>
		<path class="st4" d="M295.2,7.8c-0.1,1.7-4,0.8-4,2.6c0,1.8,3.4,2.5,3.3,4.3c0.1,1.9-0.3,1.8-0.2,3.7c0.1,1.9,0,1.9,0.1,3.8
			c0.1,2,0.6,2.1,0.7,4.1c0.2,2-3.4,1.4-3.1,3.6c0.2,2.1,1.1,2.2,1.4,4.4c0.3,2.1,1.4,2.3,1.8,4.5c0.4,2.2-0.6,2-0.2,4.3
			c0.4,2.2,2.5,2.5,2.9,4.8c0.3,2.2,0.5,2.3,0.9,4.5c-25.7-3.5-26.9-3-49.8-3.6c-22.2,0.3-21.6,1-42.9,2.3
			c-21.8,0.7-23.9,0.4-48.7-2.2c0.4-2.4,2.2-2.2,2.3-4.9c0.2-2.6-2-2.8-1.9-5.6c0.1-2.8,0.8-2.8,0.7-5.7c-0.1-3,3.6-2.9,3.4-6
			c-0.3-3.2-2.9-3.2-3.2-6.5c-0.4-3.3,3.6-3.3,3.1-6.7c-0.5-3.4-3.2-2.6-3.7-6c12.7,0.1,22.6-0.4,30.8-1.1c2.8-0.2,5.4-0.4,7.9-0.7
			c24.1-1.1,49.8-5.9,83.5-1.2c2.2,0.4,4.6,0.8,7.1,1.4C289.9,6.6,292.4,7.2,295.2,7.8z"/>
		<g class="st5">
			<defs>
				<path id="SVGID_3_" class="st5" d="M297,8.3c-0.2,1.7-4.2,0.8-4.2,2.5c0,1.8,3.5,2.6,3.5,4.4c0,1.8-0.4,1.7-0.3,3.6
					c0.1,1.9,0,1.9,0.1,3.8c0.1,2,0.5,2,0.7,4c0.2,2-3.4,1.4-3.1,3.6c0.3,2.1,1.1,2.2,1.4,4.3c0.3,2.1,1.5,2.4,1.8,4.5
					c0.4,2.2-0.6,2-0.2,4.3c0.4,2.3,2.4,2.5,2.9,4.8c0.4,2.3,0.5,2.3,0.9,4.5c-26.3-3.6-27.5-3.2-51-3.7c-22.6,0.3-22,1.1-43.8,2.3
					c-22.2,0.7-24.4,0.3-49.8-2.4c0.4-2.4,2.1-2.2,2.4-4.8c0.3-2.7-2.1-2.9-1.9-5.6c0.1-2.8,0.8-2.7,0.8-5.6c-0.1-3,3.7-2.9,3.5-6
					c-0.3-3.2-2.9-3.2-3.3-6.5c-0.4-3.3,3.7-3.3,3.3-6.6c-0.5-3.4-3.2-2.5-3.8-6c13,0.1,23.1-0.4,31.5-1c2.8-0.2,5.5-0.4,8-0.7
					C220.9,4.8,247-0.1,281.8,5c2.3,0.4,4.7,0.9,7.3,1.4C291.5,7,294.2,7.6,297,8.3z"/>
			</defs>
			<clipPath id="SVGID_4_">
				<use xlink:href="#SVGID_3_"  style="overflow:visible;"/>
			</clipPath>
			<g class="st6">
				<path class="st7" d="M243.9,5.3c-0.2,0-0.4,0-0.6,0c1.5-0.8,7.9,1.8,8.1,0.4c-0.6-0.7-2.6-1.3-3.1-1.6c0.6-0.3,1.1-0.6,1.8-1.1
					c0.9,0.5,1.5-0.4,2.9,0c-0.2-0.3-0.3-0.6-0.4-0.9c-1.1,0.2-2.3,0.2-3.4,0.1c1-0.7,0.4-1,1.7-1.3c-0.3,0.3-0.7,0.6-1,0.9
					c0.9,0.3,4.2-1.2,6.1-2.1c0.8-0.1,1.6-0.2,2.4-0.3c5.6,0.4,11.4,1.5,17.5,2.1c1.6,0.2,3.1,0.1,4.5-0.1c1.4,0.2,2.9,0.4,4.4,0.6
					c0.9,0.4,1.7,0.7,2.6,0.9c0.7,0.2,1.3,0.3,2,0.5c0.3,0.3,0.5,0.6,0.5,0.7c0.3,0.2,0.7,0.2,1.1,0.2c2.8,1.6,5.7,2.9,9,4.2
					c-2.1-0.8-1.4-0.5-0.1,0.4c-0.2,0.3-0.3,0.6-0.4,0.9c-0.7-0.2-1.2-0.3-1.8-0.3c0.1,0.1,0.3,0.2,0.5,0.3
					c-0.2-0.1-0.5-0.2-0.7-0.3c-0.2,0-0.3,0.1-0.5,0.1c0.1-0.1,0.2-0.2,0.3-0.2c-2.5-1-5.5-0.4-6.8-1.9c-1.4-0.8-0.5,0.5-1.3-0.8
					c-1,0.3-2.1,0.3-2.7,0.7c-0.3-0.6-0.7-1,0-0.9c-0.7-0.3-1.3-0.6-2-0.9c-0.1,0.8-2.3,0-2.6-1.3c-0.8,0.2-1.4,0.5-2.1,0.8
					c0.7,0.1,2.3,0,2.9,0.4c-0.2,0-3,0.2-3,0.2c0.3-0.1,0.4-0.2,0.1-0.3c-1,0.1,0.7,0.6-0.8,0.5c1.5,1.2,2.6,1.7,4.2,1.7
					c-0.2,0.4-0.1,0.7,0.3,0.9c0.3,0.4-6.8-3.6-7.7-3.2c-0.6-1.1,0.9-0.2,1.1,0.1c0.3-0.5,3.3-1.1,3.1-1.2c-0.6,0.3-5.8,0.4-5.8,0.5
					c0-0.2-0.1-0.4-0.1-0.7c-0.3,0.1-2.7,0.9-2.6,0.8c-0.3,1.2-5.5,2.2-7.8,2.4c-0.4,0.1-0.6,0.4-0.7,0.8c0.1,0,0.8-0.4,1-0.4
					c0.1,0.2,0.2,0.5,0.4,0.8c-1.2,0.4-1.3,0.5-2.4,1.3c-0.2-0.4-0.1-1,0.1-1.7c-0.3,0.2-0.7,0.3-1,0c-0.1,0,0.5-0.1,1-0.1
					c-0.5-0.3-1.2-0.6-1.8-0.8c0.3-0.3,0.6-0.4,1-0.4c-2.5-0.1-4.9,0.2-7.5,0.4c0.6-0.1,1.1,0,1.6,0.4c-1.3,0.4-2.3-0.7-3.8-0.4
					c-0.2,0.2-2.2,1.4-3.4,1.1c0.6-0.1,0.8-0.5,0.6-1.1c-1.1,0.1-4.9-0.4-5.7,0.6c0,0.5,0.2,0.8,0.6,0.9c-0.3,0-0.5,0.1-0.8,0.1
					c-1-1.3-1-1.6-2.5-2.2C241.9,6.1,242.5,5.6,243.9,5.3z"/>
				<path class="st7" d="M284.4,11.8c0.1-0.7-2-0.7-2.2-0.7c0.3-0.1,2.7-0.5,3.3,0.5c-0.3,0-0.6,0.1-0.9,0.3
					c1.3,1.1,2.6,0.6,3.3,0.3c-1.1-0.7,0.5-1,0.4-0.9c-0.9,0.3,0.9,0,1.3,0.5c-0.8-0.4-2.1,0.7-3.3,1.1c0.8,0,1.8,0.2,2.1,0.1
					c0.1-0.4,0.4,0.4,0.5,0.7c0.8,0.1,1.4-0.1,1.9-0.8c1.4-0.4,5,0.3,8.8,1.2c0.2,0.6,0.4,1.2,0.6,1.8c-0.3,0-0.5-0.1-0.7-0.1
					c0.2,0.3,0.5,0.4,0.8,0.4c-1.1,0.1-2.4,0.4-3.4,0.8c0.3,0,2.1,0.4,2.3,0.8c-0.1,0-2.3,1.8-1.1,1.6c-1.6,0-2.3-0.1-4-0.1
					c0.1,0.8,1.1,0.2-0.3,0.7c0-0.1,0-0.2-0.6-0.4c0.6,0.1-0.9-1.3-2.1-0.6c0,0,0-0.3-0.5-0.3c-0.8-0.1,3.6-0.1,3.7-0.1
					c-1.1-0.5,0.4-0.6-1.2-0.6c-0.5-0.6,1.1-0.4,1.7-0.3c-0.7-0.3-0.1-0.5,0.2-0.6c-0.5,0,0.3,1.3,1,1c-0.9-1.1-0.4-1-1.9-1.5
					c0.3-0.1,0.6-0.2,0.9-0.3c-1.6-0.3,0.1-0.9-1.5-1c-0.1,0.4-0.1,0.7-0.2,1.1c0.2-0.6-2.8-0.6-3.2-0.8c0.1-0.2,1.1-0.3,1.2-0.4
					c-0.5-0.5-0.9-0.6-1.5-0.6c0.3-0.1,0.5-0.3,0.8-0.4c-2.2-0.4-2.6,0.1-4.3-0.2C284.1,13.7,280.1,10.4,284.4,11.8z"/>
				<path class="st7" d="M294.2,11.1c-0.3,0-0.5-0.6-1-0.4c-0.7,0.3-0.5,0.5,0.7,0.7c-1.2-0.3-2.1,0-3.3-0.3
					c1.5,0.4-1.3-0.3-1.1-0.2c0.2,0-0.5-0.4-0.9-0.4c-0.3-0.2-1-1.7-2.8-1.1c0.3,0.3-1.3-1.1-1.2-0.8c-0.2,0,2,1,0.5-0.3
					c0.8,0.8,3.2,0.8,4.4,1.3c-0.7-0.2-0.8-0.5-0.4-0.7C289.7,9.1,294.2,9.9,294.2,11.1z"/>
				<path class="st7" d="M287.9,8.4c-0.3-0.5-1.8,0.1-0.6-0.4C287.9,7.8,288.6,8.2,287.9,8.4C287.6,7.9,288.8,8.2,287.9,8.4z"/>
				<path class="st7" d="M289.6,13.4c-0.7-0.9-0.6-1.1,0.2-0.8C289.1,12.6,290.9,13.3,289.6,13.4C289.7,13.2,290.8,13.3,289.6,13.4z
					"/>
				<path class="st7" d="M302.9,30.2c0.1,0.1,0.2,0.2,0.5,0.2c0,0.2,0,0.5,0,0.7c-3.1-0.2-6.5-0.1-8.7-0.5c0.2-0.1,0.2-0.2,0.3-0.2
					c0,0-0.1-0.2-0.1-0.4c1.3,0.5,4.3,0.1,6.4-0.3c-0.3,0.1-0.6,0.1-0.9,0.3C300.8,30.8,302,30,302.9,30.2z"/>
				<path class="st7" d="M288.5,16.2C289.2,16.2,289.4,16.3,288.5,16.2L288.5,16.2z"/>
				<path class="st7" d="M281.5,10.7c-0.9-0.2-1.7-0.3-2.6-0.2c0.5,0.2,1.1,0.5,1.6,0.9c-1-0.3-1.9-0.2-2.8,0
					c0.6,0.5-1.3-2.4-1.8-0.5c0.3-0.1-6.3-0.3-7.1-1c1.9,0.2,3.5-0.8,5.5-0.4c-0.2-0.2-0.4-0.4-0.6-0.6
					C276.1,10,280.1,8.5,281.5,10.7C280.7,10.3,281.4,10.5,281.5,10.7z"/>
				<path class="st7" d="M298.8,25.4c-1.2-1.8-2.6,0.5-2.8,0.7c-0.8-0.6-0.8-0.2-1.5,0.3c0.6,0.5,6,1.1,5.2,2.5
					c-1.1-0.2-4.2-1.3-4.6-2.1c-0.7,0-1,0.3-1,0.9c2.3,1.9-1.2-0.3-1.2-0.3c-0.1,0-1.8-0.4-1.9-0.4c0.2-1.3,1.9,0.7,2.5-0.2
					c-0.1-1.5-2.7,0.2-3.3,0.1c0.8,0-1.1-0.9-1.3-1.1c0.8,0.5,2-0.8,1.5-0.6c3.5,1.7,3.3-0.8,5-1.5
					C295.2,24.1,299.8,25.5,298.8,25.4C298.7,25.2,299.4,25.5,298.8,25.4z"/>
				<path class="st7" d="M290.6,18.4C289.7,18.4,289.8,18.1,290.6,18.4C290.3,18.4,290.6,18.4,290.6,18.4z"/>
				<path class="st7" d="M287.6,16.9c0.2,0.4-0.9,0.8,0.7,1.4c-0.9-0.2-6,0.1-5.9,0.3c0.8,1.1,0.9,1.5,1.5,2c1,0.1,2.3,0.1,2.4,0.3
					c1.1,0.2,5.4,1.2,5.7,0.9c0,0.9,0.2,0.1-0.7,0.5c0.9,0.5,1.8,1.1,2.7,1.6c-0.3-0.1-3.7-0.6-3.6-0.7c0.2,0.2,0.4,0.3,0.7,0.3
					c0-0.2,0-0.4-0.1-0.7c-1.1-0.6-1.7,1.3-1.3,0.9c-1.2-0.3-2.5-0.5-3.7-0.5c0.2-0.1,0.4-0.3,0.6-0.4c0.1,0.5-12.9-1.8-14.2-1.5
					c0.3-0.3-0.6,0.9-1,0.9c0.1-0.3,0-0.6-0.4-0.8c0.3-0.1,0.7-0.2,1-0.1c-0.3-0.1-0.5-0.3-0.8-0.4c0.6,0,1.2-0.1,1.8-0.1
					c-0.7-0.6-1.4-1.1-2.3-1.5c1.1-1,0.7-0.9-0.9-1.5c0-0.2,0-0.5,0.1-0.7c0.4,0.1,0.5,0.1,0.9-0.2c-0.7-0.2-1.2-0.1-1.6,0.4
					c0.9-1.2-1.3-0.9-1.1-0.3c0.4,0,0.8,0.3,1,0.8c-0.6,0-1,0.3-1.4,0.8c0.3,0.3,0.5,0.6,0.7,0.9c-1.2,0.3-0.6-0.4-1.4,0.5
					c-3.3-2-11.1-3.8-14.1-2.3c1.5,0-0.9-1-0.6-0.7c0.5,0-0.9-0.6-1.2-0.5c0.2-0.2,2.3,0.3,2.2-0.2c-0.4,0,0.7,0.9,1.2-0.3
					c-0.4,0.6-2.2-0.6-2.3-0.6c0.4-0.2,0.4-0.1,0.1,0.3c0.7,0.2,1.7-1.2,2.7,0c-0.3,0-0.6,0.3-0.6,0.7c1-0.6,2,0.8,2.7-0.9
					c-0.5,0.3-0.9,0.1-1.2-0.5c0.6,0.2,4.8,1,5.4,0.9c1.1-0.5,3.2,1.2,5.3-0.5c-1.3,0.5-3,0.4-1.9-1.5c-0.4,0.2-0.8,0.2-1.2,0
					c0.4-0.1,0.8-0.2,1.1-0.2c-1.2-0.7-2.5-0.9-3.7-0.8c1.3,0.3,0.3-0.7,1.4-0.7c-0.2,0.2-0.3,0.4-0.2,0.7c0.7-0.5,1.4-0.8,2.2-1
					c-0.4,0.1-0.7,0.3-0.8,0.6c0.2-0.9,4.9,2.7,5.6-0.1c0.1,0.1-0.4,1.2,1.6,1.3c0.4,0,3.4-0.1,3.7,0.6c0.1,0.4-3-1.3-3.3,0.8
					c2.6,0.4,1.5-0.6,1.9,0.7c1-0.1,1.9-0.3,2.8-0.8c-0.1,0.3,0.1,0.6,0.5,0.7c-0.5-0.2-0.7-0.1-0.7,0.4c0.9,0.4,1.6,0.4,2.9,1
					c0.1,0,1.2-1,1.7-0.8c0.5,0.8,4.4,0.5,4.9,0.5c0.9,0.2,0.3,0.3,0.9,0c-0.1,1.6,1.1-0.1,1.2-0.2C288.4,17.3,288,17.3,287.6,16.9z
					"/>
				<path class="st7" d="M288.9,18.1C288.9,17.8,289.2,17.6,288.9,18.1C288.9,18.1,289,17.9,288.9,18.1z"/>
				<path class="st7" d="M298.4,26.3c0.6-0.7-0.1,0.1,0.7-0.1C299,26.3,298.7,26.3,298.4,26.3z"/>
				<path class="st7" d="M295.6,23.4c-0.8-0.2-1.2,0.1-1.3,0.8C294.9,23.3,295.1,23.6,295.6,23.4z"/>
				<path class="st7" d="M290.4,20c-0.4-0.5-0.1-0.9-1.5-0.9C289.4,18.9,291.7,19.5,290.4,20C290,19.6,292,19.4,290.4,20z"/>
				<path class="st7" d="M267.5,1.7c-0.4,0.1-0.8-0.4-0.3-0.6C267.9,0.9,266.7,1,267.5,1.7C266.7,1.8,267.2,1.4,267.5,1.7z"/>
				<path class="st7" d="M284.8,16.1c0.1,0.2,0.1,0.3,0.2,0.5C285,16.4,284.9,16.2,284.8,16.1z"/>
				<path class="st7" d="M268,3.5c-0.3-0.4,0.8-0.3,0.6-0.8C269.1,3.3,268,3.4,268,3.5z"/>
				<path class="st7" d="M267,3.3c-0.5-0.3-1.5-0.1-0.6-0.4C267,2.9,267.2,3.5,267,3.3z"/>
				<path class="st7" d="M263.5,0.9c-0.3-0.3-1.2,0.5-0.5-0.2C263.9-0.5,263.2,0.7,263.5,0.9z"/>
				<path class="st7" d="M296.7,29.5c-1-0.5,0.6-0.8-0.8-0.9c0.5-0.1,1,0.1,1.6,0.4C296.6,28.8,296.7,28.9,296.7,29.5z"/>
				<path class="st7" d="M281.1,15.6c-0.7,0,0,0.8-1.3-0.2C280.7,14.9,280.6,15.6,281.1,15.6z"/>
				<path class="st7" d="M285.8,19.6c-0.3,0-0.7,0-1.1-0.1C285.1,19.6,285.4,19.6,285.8,19.6z"/>
				<path class="st7" d="M283.9,18.8c-0.4-0.2-0.6,0.4-1.2-0.4C282.9,18.5,284.7,18.6,283.9,18.8C283.6,18.6,284.5,18.6,283.9,18.8z
					"/>
				<path class="st7" d="M278.8,15.2c0.2,0.1-1,0.3-1,0.3C277.8,15,279.1,15,278.8,15.2z"/>
				<path class="st7" d="M277.6,15.7c-0.4-0.1-0.7-0.5-0.9-0.7C276.8,15.3,277.7,15.1,277.6,15.7z"/>
				<path class="st7" d="M288.3,24.5c0.1,0.5,0.1,0.9-0.2,1.2c-0.3-0.4-0.6-0.7-1-0.6c0.3,0.3,0.3,0.6,0,0.7
					C285.2,24.7,288.7,24.4,288.3,24.5z"/>
				<path class="st7" d="M293.3,29.9c-0.5-0.7-0.6,0-1.2-0.5c0.5,0,1.4-0.2,2,0C294.1,30,293.8,30.1,293.3,29.9z"/>
				<path class="st7" d="M275,15C274.9,14.9,274.7,14.4,275,15C275,15,274.9,14.8,275,15z"/>
				<path class="st7" d="M267.8,9.8C268.9,9.7,268.7,9.7,267.8,9.8L267.8,9.8z"/>
				<path class="st7" d="M287.8,26.6C288.5,26.8,288.5,26.8,287.8,26.6L287.8,26.6z"/>
				<path class="st7" d="M273.4,14.6c-0.3,0.1-1-0.3-1.2,0C271.7,14.4,273.6,14.2,273.4,14.6z"/>
				<path class="st7" d="M265.3,11.8c0.3,0.3,0.7,0.4,1,0.3c-0.3,0.5-0.7,0.7-1.4,0.5c1-1.4-0.1-0.8-0.7-1.3
					c0.8,0.1,1.1-0.2,1.4-0.9c-0.4-0.2,1.3,0.9,1.1,0.8C266.3,11.6,265.8,11.8,265.3,11.8C265.3,12,266,11.4,265.3,11.8z"/>
				<path class="st7" d="M289,30.9c0.6,0.2-0.1-0.7,0.7-0.2C289.5,30.9,289.5,31.2,289,30.9z"/>
				<path class="st7" d="M294.1,37c-0.2-0.4-1.5-0.3-1.8-0.5C292.3,36.5,293.9,35.7,294.1,37z"/>
				<path class="st7" d="M261.1,8.4C260.8,8.7,260.3,9.1,261.1,8.4L261.1,8.4z"/>
				<path class="st7" d="M256.5,6.7c-0.1-0.1,1.1-0.4,1.4-0.5C257.5,6.6,257,6.8,256.5,6.7C256,6.4,257.6,6.9,256.5,6.7z"/>
				<path class="st7" d="M258.6,7.6c-0.4-0.1-1.1-0.4-0.8-0.4C258.6,6.9,258.5,7.4,258.6,7.6z"/>
				<path class="st7" d="M259.8,8.9c-0.1,0.2-0.1,0.3-0.2,0.5C259.7,9.2,259.7,9.1,259.8,8.9z"/>
				<path class="st7" d="M286.3,31.7C285.3,30.5,286.5,32,286.3,31.7L286.3,31.7z"/>
				<path class="st7" d="M290.5,36.1c0.2,0.3,0.7,0.2-0.1,0.5C290.6,36.5,290.4,35,290.5,36.1z"/>
				<path class="st7" d="M258.9,10.1C259.7,9.8,259.7,9.9,258.9,10.1L258.9,10.1z"/>
				<path class="st7" d="M279.9,27.1C278.1,26.6,279.9,27.1,279.9,27.1C279.9,27.1,280,26.9,279.9,27.1z"/>
				<path class="st7" d="M261.1,11.3C260.2,11.3,260.3,11.4,261.1,11.3L261.1,11.3z"/>
				<path class="st7" d="M270.1,19.3c-0.2-0.1-1.1-0.3-1.5-0.6C269,18.3,270.2,19.2,270.1,19.3z"/>
				<path class="st7" d="M263,14.1C263.9,14.4,263.8,14.3,263,14.1L263,14.1z"/>
				<path class="st7" d="M302,47c-0.1,0-3.1-0.2-3.9-0.6c0.4-0.3,0.8-0.5,1.2-0.8c0.2,0.2,0.3,0.3,1.5,0.6c-0.1,0.1-0.2,0.2-0.4,0.1
					C300.9,46.6,301.9,46.7,302,47z"/>
				<path class="st7" d="M262.3,14C262.1,14.1,262.2,14,262.3,14C262.1,14.2,262.5,13.8,262.3,14z"/>
				<path class="st7" d="M257.6,11c-0.4,0.1-0.7,0.3-1,0.4c0-0.2,0-0.4,0-0.7c0,0,1.6-0.6,1.7-0.6C257.8,10.2,257.6,10.5,257.6,11
					C257.4,11,257.2,10.4,257.6,11z"/>
				<path class="st7" d="M280,29.3C279.9,27.8,280.3,29.3,280,29.3C280,29.3,280.6,29.3,280,29.3z"/>
				<path class="st7" d="M285.1,34.3c0,0-0.1-0.9,1.3-0.4C285.9,34,285.5,34.1,285.1,34.3z"/>
				<path class="st7" d="M256.2,9.4C256.7,9.5,257,9.5,256.2,9.4L256.2,9.4z"/>
				<path class="st7" d="M247.5,4c0,0,1.3-0.6,1.5-0.7C248.6,3.7,248.1,3.9,247.5,4z"/>
				<path class="st7" d="M270.8,24.8c-1.5-1.6,3.5,1.7-1.4-1.3c-0.1-0.2,1.9-0.5,2.1-0.5C271.3,23.6,271.1,24.2,270.8,24.8z"/>
				<path class="st7" d="M252.8,8.3c0-0.2,0.4,0.1-0.4,0.6c-0.3-0.2-4.9,0.8-6.2,1.5c-2.1-0.8,3.6-2.1,4.2-1.7
					C251.4,7.9,253.1,8.2,252.8,8.3z"/>
				<path class="st7" d="M258.9,14C259.9,14.4,259.9,13.9,258.9,14C259.7,14.3,258.9,14,258.9,14z"/>
				<path class="st7" d="M257.1,12.7c-0.2-0.2-0.3,0-0.9-0.4C255.9,12.2,258.2,11.9,257.1,12.7z"/>
				<path class="st7" d="M297.7,46.8c-0.5,0.7-0.2-0.2-0.8,0C297.4,47.2,297.2,46.2,297.7,46.8z"/>
				<path class="st7" d="M255.6,12.7c-0.1-0.3-3.8-1-4-0.9c0.7-0.3,0.8-0.6,1.6-0.5c-0.1,0.3-0.2,0.6-0.3,0.9
					c0.5-0.2,1.1-0.4,1.7-0.7C254.5,11.5,255.4,12.4,255.6,12.7C255.2,11.9,255.3,12.3,255.6,12.7z"/>
				<path class="st7" d="M257.8,14.1c-0.4,0.7-1.2-0.3-1.2-0.4C257.1,13.5,257.5,13.6,257.8,14.1C257.7,14.3,257.9,13.8,257.8,14.1z
					"/>
				<path class="st7" d="M235.8-2.3c-0.4,0-2.3-0.4-2.9,0.4c0.4-1-1.2-0.3-1.2,0.2C232.7-4.1,236.4-2.4,235.8-2.3z"/>
				<path class="st7" d="M299.5,51c-1.6,0.2-4.5-0.7-6.6-0.8c-0.1-1.3,0.6-0.4-0.2-1c1.2,0.6,0.1-0.3,0.6,0.4
					C294.7,49.6,300,50.9,299.5,51z"/>
				<path class="st7" d="M256.4,14.2c-1.1-0.1-1.7-0.2-2.5-0.5C254.4,13.3,256.5,14,256.4,14.2z"/>
				<path class="st7" d="M270.1,26c-0.7-0.2-1.3-0.3-2-0.5c0.4-0.1,0.7-0.4,0.9-0.9C269.4,25.1,269.8,25.5,270.1,26z"/>
				<path class="st7" d="M282.9,36.5c-0.2-0.3-0.5,1.8-1.9,1.1C281.2,36.6,282.6,36.6,282.9,36.5z"/>
				<path class="st7" d="M293.5,46.8c1.4,0.3,0.1,0.5-0.2,0.5c-0.1-0.1,0.1-1.2-0.4-1.1C293.5,46,293.7,46.2,293.5,46.8z"/>
				<path class="st7" d="M299.2,53.2c0.8,0.2-2.6-1.2-3-1.3c0.5-0.3,2.5-0.6,2.7-0.6c0.4,0.3,1,0.6,1.4,0.9c0.2,0.2,0,0.2,0.7,0.5
					C300.6,53.2,300,53.3,299.2,53.2z"/>
				<path class="st7" d="M253.5,13.8c0.3-0.6-1.1-0.2-1.2-0.3C252.1,13.2,253.7,14,253.5,13.8z"/>
				<path class="st7" d="M266.7,24.8c0.3,0,0.7,0,1.1,0C267.4,25.2,267.2,24.8,266.7,24.8z"/>
				<path class="st7" d="M283.1,38.2C283.8,38.4,283.7,38.3,283.1,38.2L283.1,38.2z"/>
				<path class="st7" d="M255,15.1c-0.4-0.3,0.3-0.2,0.3-0.5C255.1,14.7,255.4,15,255,15.1z"/>
				<path class="st7" d="M265.9,24.6c-0.6,0.6-1.4,0.9-2.2,0.9c0.9,0.7-1.1-1.2-1-1.1C263.2,25.1,266,24.6,265.9,24.6
					C265.8,24.9,265.3,24.2,265.9,24.6z"/>
				<path class="st7" d="M262.1,22.4c-0.4-0.5,0.3-0.6,0.7-0.7C263.2,22.3,262.5,21.9,262.1,22.4z"/>
				<path class="st7" d="M238.7,2.5c-0.3-0.6-2.3,1-2.5-0.3C235.8,1.7,239.2,2.8,238.7,2.5z"/>
				<path class="st7" d="M283.5,40.9c0.3-0.6,1.7,0,1.7-0.2C284.9,41.3,284.3,41.4,283.5,40.9C283.6,40.8,284.3,40.9,283.5,40.9z"/>
				<path class="st7" d="M261.5,22.1c-0.8,0-1.5,0-2.2,0.1c0.4,0,0.8,0.2,1.2,0.4c-0.2,0-2.3,0-2.3,0.6c0.1-0.1,0.2-0.2,0.4-0.4
					c-0.5-0.4-2.1-0.1-1.7,0.6c-0.1,0.4,0.6-0.6-0.3-0.2c0.2-0.4,0.3-0.7,0.6-1c-0.1,0-1.2,0.8-0.9,0.7c-0.8-0.3-0.6-1-1.3,0.1
					c0.3-0.7-1.1-0.2-1.3,0.1c0.7,0.3,1.5,0.2,2.2-0.2c0,0.2-0.1,0.4-0.3,0.5c-1.6-0.4-3.6,0-3.8,0.4c-0.3,0-0.6,0-0.9,0
					c0-0.2,0.1-0.3,0.4-0.2c-0.9-0.7-4.9,2.2-4.6,2.3c-1.4-0.4-1.3-0.3-2.6-0.3c0.4-0.1,0.5-0.5,0.4-1c-1.2,0.8-1.4,1.8-2.2,1.8
					c0.5,0.9,4.9,1.1,5.5,0.9c-0.4,0.1-0.6,0.9-1.6,0.9c0.4,1.1,1.1-0.6,1.6,0.5c-0.1,0-3.4-0.6-2.8,0.9c-0.4-0.4,0.3-2.3-1.3-1.6
					c0.1-0.3,0.2-0.7,0.3-0.9c-0.4,0.3-2.1,0.3-2.1,0.3c0.6-0.2-1.8,1-1.9,1.4c0.1,0,2.7,0.2,2.2-0.8c0,1.2,1.4,2.1,1.7,1.1
					c0,0.4,0,0.7,0,1.1c0,0.1-2.6-0.6-2.8-0.5c0.2,0.1,0.4,0.2,0.7,0.3c-0.1,0-4-0.4-3.9,0.7c0.7,0.2-2.3,0.1-3.6,0.6
					c0-0.3,0-0.6,0-0.9c-0.3,0.3-0.5,0.6-0.9,0.9c0.2-0.5-0.2-0.2,0.5-0.7c-0.1-0.2-0.2-0.4-0.3-0.7c-0.3,0.4-0.6,0.4-0.9,0
					c0.2-0.6,2.4-2.5,2.2-2.2c1.7,2.4,3.9-0.9,4.8-0.9c-0.3,0-0.6-0.1-0.8-0.4c2.1-0.8-0.6-0.7-0.8-1.6c0.2-0.2,0.3-0.4,0.5-0.7
					c-1.2,0-3,0.4-4.5,0.3c0.6-1.6,5.2-1.4,6.5-1c0.2-0.7,2.1-2.2,2.6-2.5c0.8,1.6,3.2-1.1,3.2-0.9c0.1,0.3,0.2,0.5,0.1,0.8
					c0.7-0.6,1.5-1,2.2-1.2c-0.4-0.2-1.4-1.7-1.7-0.7c0.8-1.6,1.2,0.3,1.4,0.5c0.6-1.9,1.1-0.1,2.7-0.7c0.1-0.3-0.1-0.5-0.3-0.7
					c-0.8-0.1,0.6,0,0.9-0.5c-0.1,0.3-0.3,0.6-0.4,0.9c1-1.4,6.5-0.3,7.7,0.4c-0.2,0-0.4,0-0.6,0c0.6,1.2,0.5,0.1,1.2,0.3
					c-0.6,0.1,2.1,1.6,2.6,2C261.9,21.5,261.6,21.7,261.5,22.1C260.6,21.8,261.8,21.9,261.5,22.1z"/>
				<path class="st7" d="M291.5,47.4c-1.2-0.5,0.6,0.7-0.7,0.1c0-0.3,0-0.5-0.1-0.8c0.3,0.5,0.5,0.4,0.6-0.1
					C292.3,47.1,292.4,47.3,291.5,47.4C290.5,47,292.6,47.6,291.5,47.4z"/>
				<path class="st7" d="M252.7,14.1c-0.1,0.4-0.4,0-0.7,0.1C252.1,14.1,252.4,13.9,252.7,14.1z"/>
				<path class="st7" d="M234.1-0.1c-0.5,0.3-0.8,0.6-1.4,0.8c0-0.2,1-1.3,0.5-1.5C233.9-0.6,234.1-0.6,234.1-0.1z"/>
				<path class="st7" d="M252.1,15.2c0.1,0.2-0.3-0.8,0.3-0.7C252.3,14.7,252.2,15,252.1,15.2z"/>
				<path class="st7" d="M275.9,34.4c-0.8,1.3-1.5-0.1-2.3-0.4c0.3,0,0.4,0,0.3,0.1C273.8,33.9,276.1,34.3,275.9,34.4
					C275.6,34.8,275.5,34.5,275.9,34.4z"/>
				<path class="st7" d="M283.3,41.1c-0.9,0.5-1.9,0.4-3-0.2c1-0.5,1.8-0.7,2.9-0.5C281.9,40.7,283.1,40.6,283.3,41.1z"/>
				<path class="st7" d="M280.5,39.5C281.2,39.5,281.2,39.5,280.5,39.5L280.5,39.5z"/>
				<path class="st7" d="M292.6,49.4c-0.2,0.5-1.2-0.7-1.5-0.7C291.6,48.8,292.1,49,292.6,49.4C292.4,49.5,291.9,49.3,292.6,49.4z"
					/>
				<path class="st7" d="M286,45.1c0.1-0.4,1.1-0.5,1.4,0.1C286.9,45.1,286.5,45.1,286,45.1z"/>
				<path class="st7" d="M239.5,6c0.3,0-1.6-0.4-0.8-0.6C239.4,5.2,239.3,6.1,239.5,6C239.1,5.9,239,6.2,239.5,6z"/>
				<path class="st7" d="M293.3,52.4c0,0-1.5-0.8-1.9-1.3c1.2,1.1,1.9,0.3,1,0.1c0.6,0,1.3,0.2,2.1,0.2
					C294.1,51.8,293.7,52.1,293.3,52.4z"/>
				<path class="st7" d="M249.8,15.3c1.5-0.2,0.6,0.1,1.6,0.2c-0.3,0.3-0.6,0.4-1,0.3c0.4,0.3,0.6,0.7,0.6,1.2
					c-1.8-1.9-2.8,0-3.2,0.1c0-0.7-0.3-0.9-0.8-0.7c0.3-0.3-1.5,1.3-1.9,0.7c0.4,0.2,0.6-0.1,0.7-0.6c0.3,0.3-2.6-0.9-1.9-0.9
					c0.3,0,0.5,0,0.8,0c-0.2,0.1-0.3,0.3-0.5,0.4c1.3,1.1,5-1.2,6.5-1.1C249.8,14.4,250.1,15.1,249.8,15.3z"/>
				<path class="st7" d="M272.2,34.4c0.6-0.1,0.8-0.9,1.3,0.1C273,34.5,272.6,34.5,272.2,34.4z"/>
				<path class="st7" d="M247.1,13.8c-0.6-0.1-0.9-0.6-0.8-1.4c0.4,0,0.7,0.1,1,0.1C246.5,13,247.8,13.4,247.1,13.8
					C246.1,13.8,247.8,13.4,247.1,13.8z"/>
				<path class="st7" d="M237.5,6c0.4-0.4,0.3-1.1,0.8-0.5C238,5.6,237.7,5.8,237.5,6z"/>
				<path class="st7" d="M272.1,34.1c-0.7,0-0.1-1.2-0.9,0.2c-0.1-0.2,0-0.4,0.1-0.5c-0.6,0-1.2,0.1-1.8,0.2
					C270.4,33.8,272.4,34.1,272.1,34.1z"/>
				<path class="st7" d="M229.8-1.3c-0.4,0.3-0.7,0.2-1-0.1C229.5-0.7,229.9-1.3,229.8-1.3z"/>
				<path class="st7" d="M245.4,11.2c-1.2,0.2-1.8,0.5-2.6,0.8c0.7-0.2-1.8,0.4-1.9,0.6c0.8,0.2,0.2,0.3,0.3,0.8
					c-0.4,0.7-2.7,2.6-4.2,1.3c0.6,0.5,1.2,1,1.8,1.6c-2,0-2,0.9-3.9,0.6c-0.5-0.1-1.8-1.7-0.6-2.1c0.3,0.4,0.4,0.9,0.2,1.5
					c1.1-0.6,0.1-0.6,1.5-0.7c-0.1-0.4-0.4-0.6-0.7-0.8c0.5-0.3,1.5,0.3,1.8-0.6c-0.9-0.4-1.7-0.3-2.5-0.1c0-0.2-0.3-2-0.6-2.1
					c-1.2,0.2,0.2,0.8-1,1c0.6,0.6-0.7-1.6-0.7-1.1c0.1,1.7-1.1,0.7-1.7,1.1c0.9-0.9-4.3,0.3-4.5,0.3c0.8,0.3,0.3,1,0.3,1.4
					c0.2-0.1,0.4,0,0.6-0.1c-0.9,2-7,2.9-7,2.9c-0.3,0.1-0.8,0.4-1,0.9c0.1-0.3,0.2-0.5,0.4-0.6c-0.5-0.1-1.1,0-1.6,0.4
					c0.1,0.1,0.3,0.2,0.5,0.3c-0.4,0-1,0-1.4,0c0-0.1,0.8-0.5,0.9-0.6c-0.7-0.1-1.3,0-1.9,0.5c2.5,1.3-2.7,0.7-3.1,1.1
					c0.3-0.7,0.6-0.5,1.5-0.7c-0.1-0.3-0.2-0.5-0.4-0.6c0.2-0.2,0.4-0.2,0.7,0.1c0.2-0.5,0.1-0.8-0.2-1.1c0.2,0.2,0.4,0.5,0.8,0.7
					c-0.1-0.3-0.1-0.6-0.1-0.9c-1.7,0-1.3,0.7-2.5,1.4c0,0-2.2-0.1-2.7,0.1c0.8-0.3-0.9-0.5-1-0.5c0.6-0.1,0.9-0.3,1.4-0.4
					c-0.1-0.1-0.3-0.4-0.5-0.6c1.2-0.4,2.2-0.8,3.3-1c-0.1-1.1,1.5,0.4,3.1,0.3c-0.2,0.3-0.3,0.6-0.5,0.9c0.9-0.6,0.7,0.2,0.9-0.8
					c1.7,2.8,8.3-0.7,9.5-2.7c2.9,1.3-3.4-1-2.8-0.9c-0.2,0.2-0.3,0.8,0,0.5c-0.4,1.3-5.2,3-4.8,0.2c-0.5,0.5-1.1,0.7-1.7,0.5
					c0.4-0.2,1.2,0,1.1-0.8c-1.5,0.1-1.5,0.9-1.8,1.3c-0.3-0.1-0.6,0-0.8,0.2c0.2,0.1,0.3,0.2,0.6,0.3c-0.2,0.1-0.4,0.2-0.5,0.3
					c-0.1-0.7,0-1.3,0.4-1.6c-0.3,0-0.6-0.1-0.8-0.6c0.4,0,2.6-0.3,3-0.5c-0.3-0.5,0.3,0-0.6-0.5c1.2-0.5,1.1,0,2.2,0
					c-1.5-0.9,1.4-1.1,1.1-0.8c-0.1-0.1-0.3-0.4-0.3-0.7c0.8,0.9,3.3,0.3,4.4,0.6c-0.3-0.4,1.7,1.9,2.1,1.2
					c-0.2-0.3-0.4-0.6-0.6-0.5c0.3,0.1,2.1,1,2.4,0c-0.8,0.3,0-0.3,0.1-0.4c0.3,1.1,11.6-0.7,11.8-0.5c0.2-0.2,0.5-0.4,0.7-0.6
					C241.4,10.9,244.4,11.4,245.4,11.2C244.8,11.3,245,11.3,245.4,11.2z"/>
				<path class="st7" d="M236.5,5.2c0.1,0.1,0.6-0.5,1-0.1C237.3,5.2,236.9,5.2,236.5,5.2z"/>
				<path class="st7" d="M233.1,1.9c-0.2,0.4-0.5,0.1-0.8,0.2C233,2.3,233,1.2,233.1,1.9z"/>
				<path class="st7" d="M266,29.6c-1-0.1-0.5,0-1.5-0.2C264.5,28.7,266.7,29,266,29.6z"/>
				<path class="st7" d="M274.7,36.9C274.7,37,275.9,36.8,274.7,36.9C274.7,37,274.7,36.9,274.7,36.9z"/>
				<path class="st7" d="M279.5,41.3c-0.3,0-1.8,0.2-2.1,0c0.4,0.4,0.4,0.8,0.2,1.2c-0.5-0.6-0.6-0.9,0-0.7c-0.5-0.4-1-0.7-1.5-0.6
					c1.7,1.4,1.1-1.5,1.2-1.6C277.2,39.5,279.3,41.1,279.5,41.3z"/>
				<path class="st7" d="M263.1,28.3C263.9,27.7,264.2,27.6,263.1,28.3C263.4,28,263.1,28.3,263.1,28.3z"/>
				<path class="st7" d="M296.5,56.4c-0.2,0.4,1.1,0.4,1.7,0.5C297.6,56.7,296.4,56.9,296.5,56.4z"/>
				<path class="st7" d="M231.5,1.9c0.6-0.2-1.8,0.9-2.4,0.9C229.8,2.2,231.5,1.9,231.5,1.9z"/>
				<path class="st7" d="M288.4,51.4c-0.1,0.1,1.3-0.3,0.1-0.9c0.7-0.2,1.4-0.1,2.2,0.2C290.1,51.3,289.3,51.5,288.4,51.4z"/>
				<path class="st7" d="M244.9,12.9C243.7,12.4,244.7,12.9,244.9,12.9C244.9,12.9,244.5,12.8,244.9,12.9z"/>
				<path class="st7" d="M227.6-1.4c-0.4,0-0.7,0.1-0.9,0.4c0.2-0.1,0.4,0,0.5,0.3c-0.5,0.3-1.1,0.5-1.7,0.7
					C226.7-1.1,226.1-1.2,227.6-1.4C227.3-1,227.1-1.3,227.6-1.4z"/>
				<path class="st7" d="M268.2,33.6c0.2-0.2,0.1-0.6,1-0.7C269,33.5,268.7,33.7,268.2,33.6z"/>
				<path class="st7" d="M241.3,10.4C241.3,10.3,241.3,9.3,241.3,10.4C241.3,10.4,241.3,10.2,241.3,10.4z"/>
				<path class="st7" d="M258.7,24.8c1.3,0.1-1.9-0.2-1.8-0.2C257.5,24.3,258.1,24.3,258.7,24.8C259,24.8,258.6,24,258.7,24.8z"/>
				<path class="st7" d="M279.5,42.3c-0.3,0.4-0.7,0.5-1.1,0.4C278.1,41.9,279.3,42.1,279.5,42.3C279.1,42.4,279.4,42.2,279.5,42.3z
					"/>
				<path class="st7" d="M267.3,33.5c0,0,1,1.5-0.4,1.6c0.6-0.1-0.2-1-0.6-0.6c-0.2,0.4-0.1,0.6,0.3,0.5c-0.1,0.2-0.7,0.7-0.8,0.6
					c0.6,0.8,1.1-0.1,1.7-0.3c-0.1,0.2,0,0.4,0.4,0.5c-1.4-0.6-4.8,1.5-5.5,0.9c0.7-0.1-2.3-1.9-3.2-1.3c-0.3,0.1-0.5-0.1-0.6-0.4
					c0.2,0,4.6-0.2,3.5-1c-0.6-0.5-2.6-0.8-3-0.4c0.4-0.3,0.1-0.5-0.8-0.7c0.3,0,0.5,0,0.8,0.1c-0.1-0.5-0.3-0.9-0.7-1.1
					c1,0.2,2.6-1.2,2.2,0c1,0.3,0.5-1.1,1.5-0.6c-0.5,0.1-0.6,0.5-0.4,1c1.1,0.3,3.8-0.3,4.8,0.4c0.1,0.1-1.2,0.2-1.6,0.8
					c0.9,0.2,1.8-1.3,3-0.8C267.7,33,267.5,33.3,267.3,33.5z"/>
				<path class="st7" d="M268,34.6c0.2-0.2,0.4-0.3,0.6-0.6C268.3,34.5,268.9,34.6,268,34.6z"/>
				<path class="st7" d="M256.3,24.8C256,24.4,256.3,24.6,256.3,24.8C256.3,24.8,256.5,24.5,256.3,24.8z"/>
				<path class="st7" d="M268.4,34.9C269.2,35.4,268.9,35.2,268.4,34.9L268.4,34.9z"/>
				<path class="st7" d="M270.2,36.1c-0.7,0.1-1.3,0.1-1.9,0.2C268.5,36,269.8,35.1,270.2,36.1C269.6,36.3,269.9,35.4,270.2,36.1z"
					/>
				<path class="st7" d="M277.1,42.6c-0.6,0-1,0.2-1.4,0.6c-0.2-0.3-0.5-0.7-0.7-1C275.7,42.8,276.7,42.6,277.1,42.6
					C276.8,43,276.6,42.6,277.1,42.6z"/>
				<path class="st7" d="M258.1,26.7c-0.1,0.4-0.5-0.2-0.9-0.2C257.5,26.2,257.8,26.3,258.1,26.7z"/>
				<path class="st7" d="M231.8,6.9c0.8-1.3-0.3-0.2,0.8-0.8C232.4,6.6,232.2,6.8,231.8,6.9z"/>
				<path class="st7" d="M292,55.9c-0.4,0.1-0.9,0.1-1.3,0.2c0.3,0.1,0.5,0.2,0.7,0.3c-0.8-0.1-4.6,0.9-3.5,1.2
					c-0.1-0.1-4.6-1.7-3.3-0.6c-0.7-0.3-1.5-0.5-2.2-0.7c-0.8,0.1,6.4-0.6,4.1-0.8c-1.6-0.2,1.5,0.1,1.7,0.1c0,0.3-0.1,0.5,0,0.7
					c1-1.3,1.6,1.1,0.7-1.6C289.2,55,292.1,55.4,292,55.9C291.6,55.7,292.1,55,292,55.9z"/>
				<path class="st7" d="M224.2,1.2c0.2-0.7,0.8-0.7,1.3-0.3C225.1,1.3,224.7,1.4,224.2,1.2C224.3,1,224.5,1.5,224.2,1.2z"/>
				<path class="st7" d="M246.7,18.9c0,0-0.9-0.3-1-0.7C246,18.7,246.7,18.4,246.7,18.9z"/>
				<path class="st7" d="M235.1,10C234.9,9.7,235.7,10.7,235.1,10C235.2,10.4,235.1,10,235.1,10z"/>
				<path class="st7" d="M246.7,20.2C247.2,19.4,247,19.5,246.7,20.2L246.7,20.2z"/>
				<path class="st7" d="M272.6,42c0.1-0.2,0.3-0.3,0.6-0.1C273.3,42.1,273,42.1,272.6,42z"/>
				<path class="st7" d="M274.5,43.7C275,43.1,275,43.3,274.5,43.7L274.5,43.7z"/>
				<path class="st7" d="M277.2,46.1c-0.2,1.4-3.4-0.6-3.6-0.5C275.2,44.7,276.4,46.1,277.2,46.1C277.2,47,276.1,46,277.2,46.1z"/>
				<path class="st7" d="M229.8,7c0.3,0.1-1.7,0.1-0.9-0.7C229.3,6.3,229.6,6.9,229.8,7z"/>
				<path class="st7" d="M218-2.5c-1.1-0.1-1.7,0-2.3-0.3C215.7-1.6,217.6-3.8,218-2.5C217.3-2.6,217.9-2.8,218-2.5z"/>
				<path class="st7" d="M257.9,29.9c-0.3,0.1-0.9,0.1-0.9-0.3C257.7,28.9,257.1,30.4,257.9,29.9z"/>
				<path class="st7" d="M224.5,5.3c0,0,1.6,0,0.7,0.3c-0.5,0.4-0.8,0.3-0.9-0.2c-0.2,0.1-0.4,0.3-0.5,0.5c1.2,0.3,2.3,0.5,3.4,0.5
					c-1.4,2.7-4.6-1-5.3,0.6c-0.3-0.7-0.4-1.6-1.1-0.9c0.1,0.1,0.3,0.2,0.4,0.4c-0.3,0-0.7-0.2-1.1-0.4c-0.4,1.2,4.8-3.7,5.8-1.6
					C225.5,4.8,225,5.1,224.5,5.3z"/>
				<path class="st7" d="M239.5,16.2c-0.3,0.2-0.6,0.3-0.9,0.5C238.9,16.5,239.2,16.4,239.5,16.2z"/>
				<path class="st7" d="M284.6,54.7c-0.5,1.4,3.5-1.8-0.5,0.7c-0.8-0.6,0.8-0.7-0.3-1C284,54.1,284.8,54.6,284.6,54.7
					C284.5,55.1,284.7,54.7,284.6,54.7z"/>
				<path class="st7" d="M247.4,26.2c-0.1-0.8,1.4-0.5,2.2-0.4C247.8,24.9,248.5,27.2,247.4,26.2z"/>
				<path class="st7" d="M221.3,4.2c-0.7-0.2,0.2-1,0.9-0.3C222,4,221.7,4.1,221.3,4.2z"/>
				<path class="st7" d="M259.6,34.4c-0.2,0-0.5,0.1-0.7-0.3C259.6,33.9,259,34.7,259.6,34.4z"/>
				<path class="st7" d="M262.4,37.2C260.8,37.2,262.4,37.2,262.4,37.2C262.4,37.2,262.5,37,262.4,37.2z"/>
				<path class="st7" d="M280.5,53.7c-0.8-0.2-1.5-0.5-2.2-0.9c1.7,0.3,1.8,0.1,3.1,0.4C281.1,53.3,280.8,53.5,280.5,53.7
					C279.9,53.1,281.5,53.8,280.5,53.7z"/>
				<path class="st7" d="M233.5,14.4c0.1-0.3-0.1-0.4,0.3-0.7C233.7,14,233.6,14.2,233.5,14.4z"/>
				<path class="st7" d="M249.2,26.3c0,0.2,0.1,0.4,0.1,0.6C249.3,26.7,249.2,26.5,249.2,26.3z"/>
				<path class="st7" d="M232,14c-0.1-0.9,0.6,0.1,1-0.4C232.6,13.7,232.4,13.9,232,14z"/>
				<path class="st7" d="M249.1,28.3c0.1-0.2,0.3-0.7,0.7-0.5C249.6,27.9,249.4,28.1,249.1,28.3z"/>
				<path class="st7" d="M263.4,40.4C263.9,40,264.2,39.8,263.4,40.4L263.4,40.4z"/>
				<path class="st7" d="M232.9,15.2C231.9,15.6,233.4,15.1,232.9,15.2L232.9,15.2z"/>
				<path class="st7" d="M248.3,27.7C248.3,27.5,248.7,29.2,248.3,27.7L248.3,27.7z"/>
				<path class="st7" d="M271.4,47.2c0.3,0.2,1.1,0.2,0.7,0.9c-2.1,1.1-4-0.7-6.3,0.1C266,47.3,271.7,47.2,271.4,47.2z"/>
				<path class="st7" d="M253.9,33C255.2,33.2,254.7,33.1,253.9,33L253.9,33z"/>
				<path class="st7" d="M257.3,35.3c-0.1-0.1-0.5,0.1-0.8-0.1C256.7,35,257.1,34.7,257.3,35.3z"/>
				<path class="st7" d="M226.7,10.9c-0.2-0.2,0-0.4,0-0.6C226.5,10.8,227.4,10.6,226.7,10.9z"/>
				<path class="st7" d="M254.1,32.8c-0.8,1.1-1.5,1.1-1.9,0.1C253.2,32.6,253.4,32.1,254.1,32.8C253.7,33,254,32.6,254.1,32.8z"/>
				<path class="st7" d="M254.4,34.1C255.1,33.9,255.1,33.9,254.4,34.1L254.4,34.1z"/>
				<path class="st7" d="M257.1,35.9c-0.2-0.2-0.7,0-0.6-0.5C257,35.2,257,35.8,257.1,35.9z"/>
				<path class="st7" d="M225.5,10.4C226.3,10.9,226.3,10.9,225.5,10.4L225.5,10.4z"/>
				<path class="st7" d="M245.5,26.4C245,28.2,245.4,24.7,245.5,26.4C245.5,26.6,245.5,26.2,245.5,26.4z"/>
				<path class="st7" d="M263.3,42c-0.1,1-0.7,1.1-2,0.2c1.5,0.5-1.5-1.4-1-0.6c-0.4,0.4,3.1,1-0.7,0.7c0.2-0.3,0.4-0.6,0.7-0.8
					c0.4-0.4-2.1-0.4-1.9-1.2c-0.4,0.3,2.8,0.2,2,0.2c0.2,0.2,0.5,0.2,0.7-0.1c-0.6-0.5-1.1-0.5-1.6-0.1c0.5-1.4,1.5,0.1,2,0.3
					c-0.4-0.1-0.8,0.1-1.1,0.4c0.5,0.4,0.9,0.4,1.1-0.1c-0.7-0.2,1.5,0.8,1.7,0.8C263.5,41.2,263,41.5,263.3,42z"/>
				<path class="st7" d="M224.9,10.8C224,11.3,225.8,10.4,224.9,10.8L224.9,10.8z"/>
				<path class="st7" d="M218.5,5.7c-0.4-0.1-0.5,0.5-0.8-0.3C218.1,5.1,218.4,5.2,218.5,5.7C218.3,5.6,218.6,5.2,218.5,5.7z"/>
				<path class="st7" d="M229.1,15.7c-1.2,0.3,2-0.4,1.6-0.2C230.2,15.7,229.7,15.7,229.1,15.7z"/>
				<path class="st7" d="M234.5,18.6C234.2,18.9,233.8,19.4,234.5,18.6L234.5,18.6z"/>
				<path class="st7" d="M233.1,18.7C232.8,20.3,233,16.9,233.1,18.7C233,19,233.1,18.5,233.1,18.7z"/>
				<path class="st7" d="M261.4,42.9c0.8,0.6-0.2-0.2-0.7,0.4C261.2,42.8,262.2,42.6,261.4,42.9z"/>
				<path class="st7" d="M257.4,40.1C258.4,40.4,258.2,40.4,257.4,40.1L257.4,40.1z"/>
				<path class="st7" d="M256.5,40.3C256.1,38.9,257.4,39.9,256.5,40.3C256.5,39.9,256.9,40.1,256.5,40.3z"/>
				<path class="st7" d="M257.8,42.1c0.6-0.6,0.6,0.4,1.2-0.2C259.6,43,258.1,41.7,257.8,42.1z"/>
				<path class="st7" d="M224,14.5C224,15,224.3,13.3,224,14.5C224,14.5,224,14.4,224,14.5z"/>
				<path class="st7" d="M225.9,15.9C224,14.3,226.2,16.1,225.9,15.9C225.6,15.7,225.9,15.9,225.9,15.9z"/>
				<path class="st7" d="M262.2,45.4c-0.2,0.2-0.9-0.1-0.9-0.4C261.6,44.7,262.2,45,262.2,45.4z"/>
				<path class="st7" d="M211.4,5.3c-0.3-0.8,0.5-0.5,0.9-0.4C211.9,5.1,211.6,5.2,211.4,5.3z"/>
				<path class="st7" d="M223.3,13.8c-0.2,0-0.4,0.1-0.6,0.1C222.8,13.9,223.1,13.8,223.3,13.8z"/>
				<path class="st7" d="M210.3,4.1c-0.5,0.1-0.8,0-1.2-0.3C209.3,3.6,210.8,3.9,210.3,4.1C209.8,3.5,210.6,3.9,210.3,4.1z"/>
				<path class="st7" d="M260,45.3c-0.6-0.2-0.7-0.6-0.4-1c-0.1,0.3,0.9,0.8,1.3,0.5C260.6,44.8,260,45.4,260,45.3z"/>
				<path class="st7" d="M228.5,21.5c0.1-1,2.2-0.8,2.6-0.6C230.4,21.3,229.5,21.6,228.5,21.5C228.6,20.4,229.3,21.6,228.5,21.5z"/>
				<path class="st7" d="M247.5,35.1c-0.9,0.4-0.5,1.4-1.9,0.3c-0.3-0.2,2.7-0.1,3-0.2C248.3,35.2,247.9,35.2,247.5,35.1z"/>
				<path class="st7" d="M232,23.5c-0.4-0.8-2,0.1-2.6,0.3c0.2-0.3,0.1-0.5-0.2-0.6c0.4-0.2,2.4-1,2.6-1.7
					C231.2,22,232.9,23.1,232,23.5C231.9,23.3,232.9,23.1,232,23.5z"/>
				<path class="st7" d="M233,22.7c-0.1,0-0.4,0-0.6,0C232.7,22.4,232.6,22.4,233,22.7z"/>
				<path class="st7" d="M258.2,44.1c2.1,0.1-6.3,2-6.3,0.7c1.6-0.7,2.3,0.5,2-1.7C253.8,42.1,258.5,44.2,258.2,44.1z"/>
				<path class="st7" d="M208.8,5c-0.4-0.2-0.8,0.2-0.1,0.6c-0.5,0.1-0.9,0.2-1.4,0.1C208.2,3.9,208.5,5.1,208.8,5
					C208.3,4.7,208.5,5.1,208.8,5z"/>
				<path class="st7" d="M227.9,21.2c0.5,0.1-0.8,1.4-0.6,1c-0.4,0.5-2.5,1-2.6,0.7c0.2,0,0.4,0,0.6,0c-0.1,0.4-0.2,0.7-0.4,1.1
					c-0.1-0.7-0.4-1.2-0.9-1.5c0.2,0,0.4-0.1,0.6-0.4c-0.2-1.8-1.1,0.4-1.2,0.6c-1.6,0.2-3.5,1.7-5.3,2.1c-0.4-0.8-1.9-2-2.9-1.2
					c0.1,0.1,0.3,0.2,0.4,0.3c-1.6-0.5-2.6,0.8-4.4-0.3c0.6-0.2,0.9-0.6,1.3-1.1c-0.3,0-5,1-5-0.4c1.7,1.8,6.4-1.9,8.1-0.6
					c-1.2-0.3,1.5,2.4,0.8,0.2c-0.9-0.3-1.5-1.2-2.2-1.4c1,0,2.8,0.2,2.8-1.2c1.6,0.4,3.1,0,4.8-0.9c-0.4,0.3-0.6,0.7-0.5,1.4
					c0.2-0.9,2.8-0.6,2.3,0.5c0.5-0.4,1.5-1.8,2.3-0.6c-0.6,0.2-1.3,0.3-1.9,0.3c0.3,0.9,1,0.3,1.3,0.3
					C224.2,21,230,20.5,227.9,21.2z"/>
				<path class="st7" d="M212.2,9.8c0.6-0.2,0.8-0.9,1.1,0.2C213,9.9,212.6,9.9,212.2,9.8z"/>
				<path class="st7" d="M228.7,22.6c-0.4,0-0.7-0.2-0.6-0.5C228.6,22,228.2,22.5,228.7,22.6z"/>
				<path class="st7" d="M218.4,16.4c-0.6-1.4,0.7-0.4,1.3-0.8C219.3,15.9,218.9,16.1,218.4,16.4C218.3,16.2,218.7,16.4,218.4,16.4z
					"/>
				<path class="st7" d="M221.7,17.5c-0.2,0.2-0.4-0.1-0.6-0.2C221.3,17.1,221.6,17.1,221.7,17.5z"/>
				<path class="st7" d="M211.4,10.6c0.8,0-1.1,0.2-1.1,0.2C209.7,10.9,213.3,9.1,211.4,10.6z"/>
				<path class="st7" d="M253.9,43.7c0.1,0.8-1.2-0.2-1.2-0.2C253.2,43.1,253.5,43.9,253.9,43.7C254,44.2,253.3,44.1,253.9,43.7z"/>
				<path class="st7" d="M211.8,10.4C212.3,10.3,212.4,10.3,211.8,10.4L211.8,10.4z"/>
				<path class="st7" d="M213.7,13.2c0.2-0.6-0.2-1,0.6-0.9C213.9,12.4,213.7,12.7,213.7,13.2z"/>
				<path class="st7" d="M240.5,33.8C240.7,33.6,241,33.3,240.5,33.8L240.5,33.8z"/>
				<path class="st7" d="M248.5,42.8c-0.3,0.2,0-2.2,0.3-1.9c-0.1-0.1,1.3,0.4,1.4,0.5C249.6,41.8,249,42.3,248.5,42.8
					C249,42.5,249.2,42.5,248.5,42.8z"/>
				<path class="st7" d="M206.5,7.9c-0.4,0-2.7-0.4-2.8,0.6c1.5-0.8,2.5-1,3.6-1.4C207.2,7.6,206.9,7.8,206.5,7.9
					C206.1,7.8,206.8,7.7,206.5,7.9z"/>
				<path class="st7" d="M241.7,34.8C240.6,34.5,241.4,35,241.7,34.8C241.7,34.8,240.9,35.4,241.7,34.8z"/>
				<path class="st7" d="M243.9,37.2C244,37.2,244.7,38.1,243.9,37.2C243.8,38,243.9,37.2,243.9,37.2z"/>
				<path class="st7" d="M246.6,41.7c-0.4-0.2-0.7-0.2-1,0.1c0,0,2.1-1.2,2.3-1.2C247.7,41.2,247.3,41.6,246.6,41.7
					C246.5,41.4,247.5,41.2,246.6,41.7z"/>
				<path class="st7" d="M244.2,38.6c0.2-0.5-0.5-0.5,0.3-0.6C245.1,38.3,244.1,38.1,244.2,38.6z"/>
				<path class="st7" d="M242.2,38.5c-0.1,0-4,0.5-2.4-0.4c-0.6,0.3-1.2,0.4-1.8,0.4c-0.1-0.3-0.2-0.5-0.3-0.8
					c1.1,2.1,2.8-0.1,3.3,0.9c0.5-0.2,1-0.5,1.5-1C242.8,38.1,242.7,38.4,242.2,38.5C241.4,38.7,242.8,38.4,242.2,38.5z"/>
				<path class="st7" d="M211.6,12.9c-0.1,0.4-0.5,0-0.9,0.1C211,13,211.2,13,211.6,12.9z"/>
				<path class="st7" d="M235,32.6C234.1,32.7,234.8,32.6,235,32.6C235,32.6,235,32.5,235,32.6z"/>
				<path class="st7" d="M230.2,30.1c0.4,0.5,0.7,0.5,1.1,0.3c-1,0.8-1.7,0.1-3.1,0.3c0.3-0.2,0.4-0.4-0.1-0.8
					c0.6,0.7,1.2,0.7,1.7,0c-0.2,0-0.3-0.1-0.4-0.1c0.6,0.1,1.1-0.1,1.6-0.5C230.9,29.8,230.7,30.1,230.2,30.1
					C230,30.6,230.5,29.7,230.2,30.1z"/>
				<path class="st7" d="M237.3,36.1c-0.5-0.3-1-0.3-1.4,0c0.1-0.5,0.5-0.7,1-0.5c-0.7-0.9-1.5-1-2.4-0.4c0.2-0.1,0.3-0.2,0.3-0.5
					c1.5-0.2-2.2,2.6,1.7,0c-0.7,0,1.3,0.5,1.4,0.4C237.6,35.2,237.3,35.6,237.3,36.1C236.4,36,237.2,35.7,237.3,36.1z"/>
				<path class="st7" d="M232.9,31.3c-0.6,0.1-2.9,0.8-1.7,1.3c-0.2,0-0.4,0.1-0.7,0.1c0.2,0.1,0.3,0.2,0.5,0.3
					c-0.5-0.1-0.5,0-1.1-0.2C230.9,32.5,231.9,31.3,232.9,31.3z"/>
				<path class="st7" d="M228.8,29.3c0.4-0.4,0.8-0.2,1.3-0.1C229.9,29.8,229.1,29.2,228.8,29.3z"/>
				<path class="st7" d="M232.9,33.3c0.4,0.4,0.9,0.8,1.4,1.1c-0.9,0.1-3.7,0.9-3.1,1.4c0.7-0.7-0.3-0.2-0.4-0.1
					c0.2-0.6,0.2-1.2-0.4-1.5c-0.1,0.2-0.3,0.5-0.5,0.7c0-0.1,0-0.3,0.1-0.4c-1.1,1-0.4,0.8-0.5,1.4c-0.7,0.1-1.7,1.1-2.5,0.9
					c0.4-0.1,0.6-0.4,0.6-1c0.1,0-1.6-0.2-1.6-0.2c0.4,0,0.8-0.3,1.1-0.5c-0.3-0.3-0.3-0.5,0-0.7c-0.3,0.1-0.5,0.1-0.8,0.2
					c0.1-0.3,0.1-0.3-0.2-0.1c0.1-0.2,2.1-1.7,1.9-2.4c0.8,1.1,4.5,4,5.1,0.9c-0.4-0.1-0.8,0-1.2,0.2c0.5-0.5,1.2-0.7,1.9-0.5
					C233.5,32.9,233.3,33.2,232.9,33.3C233.1,33.8,233.8,33.4,232.9,33.3z"/>
				<path class="st7" d="M235.1,34.3C234.3,33,235.2,33.9,235.1,34.3C235.1,34.3,235.1,34,235.1,34.3z"/>
				<path class="st7" d="M238.4,37.7C239.1,38.2,238.5,37.8,238.4,37.7L238.4,37.7z"/>
				<path class="st7" d="M251,49.9c0,0-1-1.1-0.1-1.4c0.4,0.7,1.1,1,1.7,0.8C251.9,49.2,251.4,49.4,251,49.9z"/>
				<path class="st7" d="M195.1,5.4c-0.4,0.6,0.4-0.6,0.5-0.7c-0.9,0.6-3.3-0.3-2.4,0.8c-0.8,0.4-2.1-1.4-0.9-1.7
					c-0.6,0.8,1.6-0.3,1.7,0.1c-0.2,0-0.5,0.1-0.8,0.2c0.9,1.2,2.2-1.2,2.8,0.3C195.7,4.7,195.4,5.1,195.1,5.4z"/>
				<path class="st7" d="M239.2,40.2c0.7-0.4,0.6,0.5,1,0.1C239.7,40.7,239.4,40.8,239.2,40.2z"/>
				<path class="st7" d="M207.8,16.2c-0.6-0.5,0.4-0.4,0.7-0.5C208.3,15.9,207.8,15.9,207.8,16.2z"/>
				<path class="st7" d="M212.1,18.9c-0.3,0.2-0.6,0.2-0.8-0.2C211.7,18.4,212.1,19,212.1,18.9z"/>
				<path class="st7" d="M236.5,39.2C237.3,38.9,237.2,38.9,236.5,39.2L236.5,39.2z"/>
				<path class="st7" d="M227.7,31.5c-0.2,0-0.4,0-0.6,0.1C227.4,31.6,227.5,31.6,227.7,31.5z"/>
				<path class="st7" d="M224,30.2c-0.5,0.1-2.3-0.1-2.3-0.1c0.8-1.2,1.9,0.3,2.4-0.8c-0.6,0.5-0.1,0.8,1.5,0.7
					C225.1,30.4,224.6,30.5,224,30.2z"/>
				<path class="st7" d="M188.7,1.4c-0.8-0.1-1.5,0.3-2,1.2c0.3,0,0.4,0.2,0.5,0.5c-0.8,0.2-2.3,0.2-2.8,0.1c1-0.5,2.9-2.5,3.3-1.7
					C187.6,1.4,190,0.8,188.7,1.4C187.9,1.1,189.3,1.1,188.7,1.4z"/>
				<path class="st7" d="M210,18.7c-0.4-0.2,0.3-0.4,0.3-0.8C210.4,18.3,210.2,18.5,210,18.7z"/>
				<path class="st7" d="M244.3,45.6c0,0-2.8,0.2-2.4-0.5C242.2,45.8,243.9,44,244.3,45.6C243.8,45.5,244,44.1,244.3,45.6z"/>
				<path class="st7" d="M208.5,16.9c-0.3,0-0.6,0.1-0.9,0.2C208.2,16,208.1,17.3,208.5,16.9C208.3,17.2,208.1,17.3,208.5,16.9z"/>
				<path class="st7" d="M210.7,19.2C209.6,19.2,211.7,18.8,210.7,19.2C210.6,19.2,210.9,19.1,210.7,19.2z"/>
				<path class="st7" d="M210.8,20.3c0.6-0.2,0.1-0.6,0.5-0.9C210.8,19.7,211.8,20.4,210.8,20.3z"/>
				<path class="st7" d="M247.6,50.1c0.3,0.5-1.3,0.8-1.4,0.3c0.5-0.4-0.1-0.5,0.5-1.7c0.8,0,0.6,0.5,2.2,1
					C248.4,49.7,248,49.8,247.6,50.1C247.9,50.7,247.5,49.7,247.6,50.1z"/>
				<path class="st7" d="M207,18.2c-0.9,0.9-1.9,0.9-2.7-0.2c1.3-0.3,0.9-0.5,1.6-1.3c-0.4,0.2-0.7-0.1-0.9-0.6
					c1.2-0.4,0.8-1.1,2.5,0.7C207.3,17.2,207.1,17.6,207,18.2C206.3,18.1,207.1,17.8,207,18.2z"/>
				<path class="st7" d="M239.9,43.9c-1.4,0.6-2.7-0.3-2.9-0.9c-0.9,0.2-1.1,0.2-1.9,0.2C235.2,41.8,240.8,43.5,239.9,43.9
					C239.3,44.1,241,43.5,239.9,43.9z"/>
				<path class="st7" d="M230.6,36.3c0.2,0.5-0.3,1.3,0.4,0.6c-0.8,0.3-1.7,1.4-2.3,1.6c0.3-1.9,1.4-0.7,0.8-2.1
					c0.7-0.4,1.5-0.4,2.2,0.1C231.3,36.4,230.9,36.4,230.6,36.3z"/>
				<path class="st7" d="M202.9,14.2c0.5,0.4-0.2,0.1-0.4,0.4c0.1-0.4,0.1-0.6,0.1-0.7C202.4,12.7,203.7,14.8,202.9,14.2z"/>
				<path class="st7" d="M225.5,33.6c0.2-0.2,0.5-0.4,0.7-0.6C226.1,33.9,225.9,33.4,225.5,33.6z"/>
				<path class="st7" d="M215.1,25.5C213.8,25.8,215.9,24.6,215.1,25.5C215.1,25.5,215.2,25.3,215.1,25.5z"/>
				<path class="st7" d="M201.9,14.8c-0.3-0.2-0.6-0.3-0.9-0.5C201.6,13.7,201.5,14.4,201.9,14.8z"/>
				<path class="st7" d="M241.3,46.6c0.1-0.1-0.5-0.6,0-0.7C241.3,46.3,241.4,46.4,241.3,46.6z"/>
				<path class="st7" d="M218.9,28c-0.5,0.8-0.8,0.8-0.8,0.1C218.2,28.3,218.7,27.9,218.9,28C218.6,28.1,218.4,27.6,218.9,28z"/>
				<path class="st7" d="M221.2,30.6c0.3,0.9-0.5-0.2-0.3-0.5C221.8,29.9,221.1,30.3,221.2,30.6z"/>
				<path class="st7" d="M230.8,37.8c-0.2,0.1-0.4,0.2-0.6,0.3C230.3,38,230.6,37.8,230.8,37.8z"/>
				<path class="st7" d="M243,48.7c0.3-0.1,0.6-0.2,0.9-0.3C243.8,48.9,243.5,48.7,243,48.7z"/>
				<path class="st7" d="M220.6,30.7c-0.3,0.3-0.6,0.2-0.9-0.1C220.5,29.4,220.2,30.1,220.6,30.7C220.3,30.9,220.4,30.4,220.6,30.7z
					"/>
				<path class="st7" d="M213.8,25C214.1,25.5,214,25.3,213.8,25L213.8,25z"/>
				<path class="st7" d="M226,35C226.1,34.9,226.6,34.9,226,35L226,35z"/>
				<path class="st7" d="M190.3,6.2c0.1,0.1-0.3,0.3-0.7,0.2C189.7,5.9,190.1,6.3,190.3,6.2z"/>
				<path class="st7" d="M217.1,28.4c1.3-1.4-1.7,1.6-1.5,1.5c-0.7-0.1-0.3-0.3-0.2-0.5c-0.5-0.5-0.9-0.5-1.1,0.2
					c-0.1-0.6-0.1-0.7-0.1-0.4C215,28.5,216.4,26.8,217.1,28.4z"/>
				<path class="st7" d="M211.7,25.6c0,2-0.5-0.6,0.2,0.6c-0.3,0-0.5,0.2-0.6,0.6c-0.2-0.9-0.5-1.2-1-0.8c0,0.7,0,1-0.6,1.8
					c0.1-0.9-2.9-1.7-1.3-2.8c1.2-0.8,2.8,0.8,4.2-0.2c-0.3,0-0.6-0.1-0.9-0.1c0.3-0.1,0.7-0.3,1-0.3
					C212.4,24.8,212.1,25.2,211.7,25.6z"/>
				<path class="st7" d="M214.2,25.6C213.8,26.1,213.4,26.6,214.2,25.6L214.2,25.6z"/>
				<path class="st7" d="M244.2,49.8c-0.9,0.3-1.3,1-2.2,1C242.6,50.5,242.6,49.1,244.2,49.8z"/>
				<path class="st7" d="M210.4,23.6c-0.6,0.1,0-0.5-0.1-0.6C210.4,23.2,210.4,23.4,210.4,23.6z"/>
				<path class="st7" d="M197.8,13c0.1,0.4-1.3-0.6-1,0.3c0.3,0.2,0.5,0.4,0.8,0.6c-1.5,0.7-2.4,0.1-3.6,0.1
					C195,12.4,196.3,12.4,197.8,13C197.9,13.3,196.8,12.6,197.8,13z"/>
				<path class="st7" d="M214.6,27c-0.3,0-0.1-0.6-0.6-0.5C214.2,26.7,214.9,26.5,214.6,27z"/>
				<path class="st7" d="M197.9,14.4C197.5,13.3,198.3,14.9,197.9,14.4C197.9,14.3,197.6,13.9,197.9,14.4z"/>
				<path class="st7" d="M219,31.5C219.3,31.4,220,30.5,219,31.5C219.2,31.4,219,31.5,219,31.5z"/>
				<path class="st7" d="M224.7,35.4c0-0.1-1.2,0.3-0.8-0.5C224.3,34.7,224.5,34.9,224.7,35.4C224.7,35.3,224.3,35.5,224.7,35.4z"/>
				<path class="st7" d="M206.1,20.9c0,0.2-1.1,0.9,0,0.8c-0.5,0.4-0.8,0.3-1-0.5c0.2,0.1,0.3,0.1,0.5,0.2c-0.3-0.5-0.6-0.6-1.1-0.4
					C205,20.6,205.5,20.6,206.1,20.9C206.1,20.8,206,20.7,206.1,20.9z"/>
				<path class="st7" d="M206.1,22.1c0.6-0.5,0.9,0.3,1.4-0.3C207.2,22.2,206.4,22.4,206.1,22.1z"/>
				<path class="st7" d="M224.2,37c0.1-0.4-0.8-1,0.9-0.7C224.6,36.2,224.3,36.4,224.2,37z"/>
				<path class="st7" d="M230.2,41.2C230.1,40.6,230.1,40.5,230.2,41.2C230.2,40.9,230.2,41.2,230.2,41.2z"/>
				<path class="st7" d="M207.2,22.8C207.6,23,207.8,23.2,207.2,22.8L207.2,22.8z"/>
				<path class="st7" d="M213.5,28.7c0.3,0.2-1-0.3-1.2-0.4C212.7,28.3,214.3,28.5,213.5,28.7z"/>
				<path class="st7" d="M194.4,13.2c-0.2,0.4-0.6,0.4-0.8,0.3C193.3,12.9,194.4,13.4,194.4,13.2z"/>
				<path class="st7" d="M196.7,15.2c-0.3,0.2-0.7,0.3-0.9,0C196,15.2,196.4,15,196.7,15.2z"/>
				<path class="st7" d="M229.1,42c-0.2,0.4-1.7,0.6-2.9,0.5c1.2-0.1-0.1-0.3-0.3-0.7c0.6,0.2,1.2,0.2,1.8,0
					c-0.7,0.7,0.6-0.1,0.7-0.2c-0.2-0.2-0.5-0.3-0.7-0.2C228.1,40.8,229.4,42.2,229.1,42z"/>
				<path class="st7" d="M238.2,48.8c-0.8,0.1-0.9,0-1.5,0.1C236.9,48.4,238.2,48.6,238.2,48.8z"/>
				<path class="st7" d="M204.5,22.5c0.8,0.2,0.7,0.6,0.1,0.9c0.2-0.3,0.4-0.5,0.5-0.8c-0.4-0.1-0.7,0-1.1,0
					C204.8,21.9,204.4,22.3,204.5,22.5C205.1,22.5,204.4,22.3,204.5,22.5z"/>
				<path class="st7" d="M180.9,3.7c-0.3-0.5-1.2,0.1-1-0.7C180.4,2.4,181.4,3.4,180.9,3.7z"/>
				<path class="st7" d="M213.2,29.6C214.1,29.4,213.3,29.6,213.2,29.6L213.2,29.6z"/>
				<path class="st7" d="M220.4,35.6c0.4,0.2-1.4-0.5-1.8-0.8C219.1,34.5,220.8,34.2,220.4,35.6z"/>
				<path class="st7" d="M211.4,28.5c-0.6,0.1-1.1,0.4-1.7,0.7c0-0.2,1.2,0.9,0.7,0.6c0.3,0.1,1.2-0.4,1.8-0.6
					c-0.4,0-3.9,2.9-4.3,2.3c0.3-0.1,0.6-0.2,0.9-0.4c0.9,0.6,2.5,0.9,4,0.2c0,0.3-0.3,2.7-0.1,1.6c0.1-1.1-2.2,1.9-1.3,0.9
					c0,0-4.1,2.6-3.4,0.6c0.1-0.5,1.6-0.5,1.9-0.5c-0.2,0-0.4-0.2-0.5-0.4c0.3,0,0.6,0.1,0.8,0.1c0.1-0.6,0.1-1.2-0.3-1.8
					c-0.1,0.6-0.4,0.5-0.6-0.1c-0.9,1.2-2.6,1.3-4.6,1c-0.2,0.7,0.8,2.3,0.9,1.9c-0.3,0-2.2,1.1-1.3,1c-0.1,0-3.7-0.1-3.7,0.7
					c0.6-0.4,1.1-0.4,1.4,0.1c-1.4,2.2-2.1-0.4-2-0.3c-0.8-0.1-2.2,0.4-2.9-0.2c0.1-0.1,3-1.4,3.2-1.3c-0.8,0.3,4.1,0.3,4-1.6
					c-0.9,0.3,0.2-1.2-1-0.7c0.7-0.5,1.4-0.9,2.2-1.2c-0.3,0-0.5,0.1-0.8,0.1c0.2-0.8,0.5-1.5,0.8-2.2c0,0-1.2,0.2-0.7-0.1
					c0.5-0.1,4.8,0.2,5.2-0.3c-0.1-0.1-0.3-0.2-0.5-0.4C210.2,28.1,211.1,28.6,211.4,28.5C211.1,29.4,211,28.6,211.4,28.5z"/>
				<path class="st7" d="M195.3,16.3C195.8,16.2,195.9,16.1,195.3,16.3L195.3,16.3z"/>
				<path class="st7" d="M207.8,26C207,25.6,207.7,26.1,207.8,26C207.8,26,208.2,25.6,207.8,26z"/>
				<path class="st7" d="M223.4,38.8C222.3,37.9,223.5,38.7,223.4,38.8C223.4,38.8,223.7,38.6,223.4,38.8z"/>
				<path class="st7" d="M222.1,38.3c0.3-0.1-0.7-0.4-0.1-0.6C222.1,37.9,222.1,38.1,222.1,38.3z"/>
				<path class="st7" d="M207.1,26.3c-0.2,0.7-0.8-0.1-1,0.2C206.2,26.5,206.7,26.2,207.1,26.3z"/>
				<path class="st7" d="M194.8,17.3C194.6,17.3,195.6,16.2,194.8,17.3C194.3,17.2,194.8,17.3,194.8,17.3z"/>
				<path class="st7" d="M220.1,37.8C220,37.8,220,37,220.1,37.8C220.4,37.8,220,37.4,220.1,37.8z"/>
				<path class="st7" d="M221.7,38.1c-0.3,0-0.8,1.3-1.7,1C221.1,39.5,220.8,37.4,221.7,38.1C220.8,38.1,221.5,38,221.7,38.1z"/>
				<path class="st7" d="M207,27.4C206.9,26.2,207,27.1,207,27.4L207,27.4z"/>
				<path class="st7" d="M215.6,35.2c0.5,0.2,1.4-0.8,1.8-0.1C216.8,35.7,216.3,35.4,215.6,35.2z"/>
				<path class="st7" d="M223.4,40.5c0.5,0.1-0.4,1.6,0.7,0.5c0.1,0.3,0.2,0.5,0.4,0.5c-0.4,0.2-0.8,0.5-1.1,0.7
					c-0.2-0.2-0.3-0.5-1-0.6c0.2-0.3,0.2-0.5-0.3-0.5C222.7,40.8,224.6,40.7,223.4,40.5z"/>
				<path class="st7" d="M201.9,23.2c0,0.1-1.4,0.3-1.6,0.3C200.2,22.4,201.8,22.8,201.9,23.2C201.4,22.8,201.8,22.5,201.9,23.2z"/>
				<path class="st7" d="M206.3,27c0.2,0.7-1.7,0.1-1.9-0.1c0.4,0,0.6-0.2,0.8-0.7C205.1,26.3,206,27.1,206.3,27
					C206.4,27.5,205.5,27.2,206.3,27z"/>
				<path class="st7" d="M213.9,34c0.1-0.5,0.4-0.6-0.3-0.3C214.1,33.2,214.6,33.3,213.9,34z"/>
				<path class="st7" d="M218.1,36.6c-0.5,0.3-0.6,0.5-2,0.2C216.1,36.8,219.1,36.7,218.1,36.6z"/>
				<path class="st7" d="M211,31.7C211.7,31.8,211.4,31.7,211,31.7L211,31.7z"/>
				<path class="st7" d="M218.3,38.1C217.6,38.5,219.6,37.4,218.3,38.1L218.3,38.1z"/>
				<path class="st7" d="M212.1,34.4c-0.2,0.5,0.1-0.6,0.7-0.6c-0.2,0-0.3-0.1-0.4,0.3c0,0.8,1.1-0.5,1-0.5
					C213.1,34.3,212.7,34.6,212.1,34.4z"/>
				<path class="st7" d="M219,39.3c0.3-0.5,0-1.1,0.7-0.6C219.5,38.8,219.2,39,219,39.3z"/>
				<path class="st7" d="M188.4,14.3C188.5,13.1,188.4,14.4,188.4,14.3L188.4,14.3z"/>
				<path class="st7" d="M194.5,19.1c-0.4,0.4-0.4-0.2-0.6-0.3C194.4,18.6,194.2,19.1,194.5,19.1z"/>
				<path class="st7" d="M219.5,39.7c0-0.2,0.3-0.1,0.5-0.1C220,39.7,219.7,39.7,219.5,39.7z"/>
				<path class="st7" d="M188,14.3c-0.2,0.5-2,1.1-2.5,0.3C186.7,15.1,186.9,13.4,188,14.3C187.6,14.9,187.9,14.2,188,14.3z"/>
				<path class="st7" d="M204,27.3C202.9,28.1,204.5,26.9,204,27.3L204,27.3z"/>
				<path class="st7" d="M221.5,41.5c0-0.1-0.4-0.5,0.1-0.4C221.6,41.3,221.7,41.5,221.5,41.5z"/>
				<path class="st7" d="M203,27.3c0-0.3-2,1.4-2,1.4c0.2,0.4,0.5,0.5,0.9,0.4c-0.2,0.1-0.4,0.2-0.6,0.3c1,0.4,2,0.9,2.7,1.7
					c-0.2,0.9-1.7-0.3-1.6,0.8c0.6,0,0.2,0.2-0.1,0.5c0.9,0.3-2.7-0.1-3.1-0.5c0,0,1.3-1.1,1.4-1.3c0.6,0.1,0.8,0.4,0.8,1.1
					c-0.2-0.3,1.9-1.3,1.7-1.3c-0.5,0.4-1.6-1.3-1.6,0.1c-0.6-0.3-0.7-0.8-0.2-1.2c-0.8-0.6-0.6,0.7-0.7,1.1
					c-1.4-1.4-0.6-1.5,0.1-1.6c-0.2,0-0.3-0.1-0.5-0.2c0.5-0.5,0.9-0.9,1.5-1.2c-0.2-0.1-0.4-0.3-0.6-0.4c0.8-0.3,1.6-0.4,2.4-0.3
					C202.3,26.9,202.8,27.6,203,27.3z"/>
				<path class="st7" d="M218.4,38.9c-0.6,0.4-2.1,0.8-2.3,1c-0.3,0-0.6-0.1-0.8-0.1c0,0.1,1.1-2.4,0.6-1.3c0.3,0,0.6,0,1-0.1
					c-0.1,0.2-0.2,0.3-0.4,0.4C217,38.8,217.7,38.9,218.4,38.9C217.8,39.3,217.5,38,218.4,38.9z"/>
				<path class="st7" d="M233.1,51.2c0.2,0.6,0.6,0.7,1.1,0.3C233.3,52.3,233.5,51.5,233.1,51.2z"/>
				<path class="st7" d="M204.4,29.7C205.3,29.8,204.9,29.7,204.4,29.7L204.4,29.7z"/>
				<path class="st7" d="M221.8,43.9c-0.5,0.1-1.7-0.1-1.9-0.1C221,43.6,221.2,43.9,221.8,43.9z"/>
				<path class="st7" d="M230.4,51.8c-0.8-0.3-0.6,0.5-0.3-0.2c-0.3-0.1-0.6-0.1-0.9,0.1c-0.3-0.7,1-0.2,1-0.8
					C230.1,50.7,231.7,51.2,230.4,51.8z"/>
				<path class="st7" d="M187.8,18.4C188.4,17.8,188.3,18,187.8,18.4L187.8,18.4z"/>
				<path class="st7" d="M207.3,34.8c-0.5-0.1-0.8,0-1.2,0.2C207.1,34.4,207.5,34.9,207.3,34.8z"/>
				<path class="st7" d="M228.6,52.1c-0.3,0.2-0.8,1.1-1.6,0.5C227.6,52.5,228.4,51.9,228.6,52.1z"/>
				<path class="st7" d="M212.9,39.9c0.2,0.5,0,0.4-0.8-0.4C212.8,40.1,212.6,39.7,212.9,39.9z"/>
				<path class="st7" d="M215.7,42.5c-0.7,0.2-1.5,0.4-1.1,0.9c-0.5,0.2-0.9,0.3-1.4,0.3c0.4-0.2,0.6-0.6,0.6-1.2
					c-2,0.5-2.3-0.1-4,0.6c1,0-0.2,0.7-0.3,1.2c-1.2,0.5-2.2,1.9,0.4,2.5c-0.6-0.2-2-1.3-2.5-1.1c0,1.3,0.3,0.6,0.5,1.1
					c-0.9,0.2-1.6-0.5-2.5,0c0.4,0,0.7-0.2,1-0.5c0,0-4.3,0.9-4.3,0.9c0.1-0.2,0.2-0.4,0.5-0.3c-0.3-0.1-0.4-0.3-0.5-0.7
					c-0.3,0-1.6,2.2-2.1,1.2c0.6-0.4,0.3-1.2,0.7-1.3c0.3,0.4,0.7,0.5,1.1,0.3c0-0.2,0-0.4,0.1-0.6c-0.6,0.4-0.9,0.2-1-0.5
					c0.3-0.2,1.5-0.1,1.7-0.1c0.1,0.3,0,0.5-0.2,0.7c0-0.3-0.1-0.3-0.3-0.1c0-0.3,3.6-1.2,2.8-2.8c0.2,0.3,4-1.7,2.9-1.5
					c1.8,0.4,3.8-0.1,5.9,0.1c-0.2-0.2-0.5-0.4-0.9-0.5c0.4-0.1,0.9-0.1,1.4-0.1c-2.2-0.3,2,1.1,1.6,0.7
					C215.4,42.1,215.2,42.2,215.7,42.5z"/>
				<path class="st7" d="M228.7,53.3c-0.4,0.5,0.4-0.9,0.4-0.9c0.3,0.2,0.4,0.4,0.6,0.6C229.4,53.1,229,53.2,228.7,53.3z"/>
				<path class="st7" d="M193.4,25.3C193.3,24.9,193.2,24.5,193.4,25.3C193.3,25.1,193.4,25.3,193.4,25.3z"/>
				<path class="st7" d="M172.1,9.7c0-0.2,0-0.4,0.1-0.6C172.5,9,172.7,9.8,172.1,9.7z"/>
				<path class="st7" d="M182.5,19.1c-0.1-0.2,0.5-0.9,0.9-0.5C183.1,18.8,182.8,18.9,182.5,19.1z"/>
				<path class="st7" d="M188.7,23.1c-0.4,0.8-2.9,0.4-2.7,0.7c0.1,0.3-0.5-0.3-1.1,0.6c-0.3-0.2,2.2,0.3,2.1,0.5
					c0.1,1.9-1.4-0.7-1.1-0.1c-0.6,0.3-1.2,0.6-1.8,0.8c0.1-0.5,0.2-0.8,0.5-1.1c-1.5,0.2-2.7,0.3-3.9,0.3c0.7-1.4,3.5-0.1,3.6-1.7
					c-0.1,0.6,0.1,0.9,0.6,0.8C185.2,23.2,187.3,23.1,188.7,23.1z"/>
				<path class="st7" d="M198.7,31.8c0.1-0.6-1.4-0.3-0.1-0.5C199.2,31.1,199.2,31.3,198.7,31.8C198.9,31.2,198.9,31.6,198.7,31.8z"
					/>
				<path class="st7" d="M165.6,6.3c0,0-4.2,1.5-4.4,0c2.1,0.1-0.1-2.2,1.9-2.1c-1.8,0.1,0.5,1.6-1.2,2c0.2,0.1,0.3,0.3,0.5,0.5
					C164,4.7,165.4,6.4,165.6,6.3C165.2,6.1,165.3,6.5,165.6,6.3z"/>
				<path class="st7" d="M212.8,43.9c-0.5,0.4-0.7,0.4-0.5-0.1C212.3,43,212.5,43.8,212.8,43.9z"/>
				<path class="st7" d="M157.8,0.4c-0.4,0-1-0.1-0.5,0.5c-0.2-0.2-0.5-0.3-0.7-0.5C156.7-0.4,157.5-0.2,157.8,0.4z"/>
				<path class="st7" d="M164.6,8.5c-0.5,0-1.1,0-1.5,0c0.1-0.6,0.3-0.7,0.2-0.4c-0.1-1,2.5-0.9,2.9-0.4
					C166.3,8.5,164.7,7.4,164.6,8.5C164.1,8.5,164.7,7.4,164.6,8.5z"/>
				<path class="st7" d="M182.7,21.4c-0.5-0.4,0.8,1,0.9,1.1c-0.7-0.9-2.4,1.5-3,0.1c-0.4,0.2-3.7,1.4-3.6,2c0.2,0.7,0.8,0.1,1,0.2
					c-0.5,0-1.1,0.4-1.7,0.9c0.7,0.5,0.2,0.4,0.3,1c0.6,0.8,0.8-0.6,0.9-0.7c0.2,0.2,0.3,0.3,0.4,0.5c-0.2,0-0.3,0.2-0.3,0.4
					c0.5-0.1,1-0.3,1.4-0.6c-0.1,0.2-0.1,0.4,0,0.6c0.3-0.3,0.7-0.7,0.9-1.1c-0.3-0.2-0.7-0.2-1,0c0.4-1.3,1.9,1.5,2.8,1.2
					c-0.3,1.3-10.4,0.4-10.2,2.4c0-0.2,0.1-0.5,0.1-0.7c-1.1,0-1.5,1.4-2.9,1.4c0.1-0.3,0.3-0.6,0.4-0.9c-1-0.1,0.1,0.3-0.2-0.4
					c-0.4-0.2-0.8-0.2-1,0.1c0.1-0.2,0-0.4-0.3-0.4c1.2,0.1,6.1-1.5,6.6-2.9c-0.5,0.1-1,0.1-1.6,0.1c-0.5-2.2,5.7,0.9,0.4-2.4
					c0.2,0.5,0.4-0.3,0.5-0.5c-0.4-0.3-0.8-0.5-1.3-0.6c0.4,0.1,1.7-0.5,1.8-0.2c-0.3-0.1-0.5-0.3-0.4-0.7c0.2,0,0.5,0.9,0.6-0.1
					c0,0.9,1.3-0.3,1.2-0.3c-0.4,0,1.5,0.2,1.5,0.2c-0.4-0.1-0.5,0.1-0.6,0.5c2.2-0.5,3.8,0.5,4.8-0.6c0.2,0,0.4,0,0.6,0.1
					C180.9,21.8,182.7,21.2,182.7,21.4C182.6,21.3,182.7,21.3,182.7,21.4z"/>
				<path class="st7" d="M212.5,45.9c0.1-0.3-0.7-0.4-0.1-0.6C212.2,45.7,213.2,45.5,212.5,45.9z"/>
				<path class="st7" d="M157,1.4c-0.1-0.1-3.7,1.6-4,1.8c0.3-0.4,0.5-1,0.6-1.5c-0.2,0.1-0.5,0.2-0.6,0.4
					C153.8,0.3,157.3,1.5,157,1.4C157.6,2,157.1,1.4,157,1.4z"/>
				<path class="st7" d="M188.6,28C188,27.8,188.4,27.8,188.6,28C188.4,27.9,188.6,28,188.6,28z"/>
				<path class="st7" d="M187.8,27.7c-0.4,0.1-0.7,0.2-1,0.3c0.1-0.3,0.1-0.6,0.2-0.9C187.3,27.3,187.5,27.5,187.8,27.7z"/>
				<path class="st7" d="M199.6,37.8c0.3,0,0.5-0.1,0.7-0.1C200.2,37.5,199.7,38.4,199.6,37.8z"/>
				<path class="st7" d="M186.3,27.2c-0.6-0.3-0.3,0.6-1,0.4C185.3,27.3,186.2,26.9,186.3,27.2z"/>
				<path class="st7" d="M197.6,38.6c-0.3-0.1-1.2,0.2-2,0.5c0.3,0,0.6,0,0.8,0c-1.4,0.8-0.5-0.2-0.5-1.1c-1.2,0.7-4.3,1.5-3.5-0.6
					c-1.1,0-2.1,0-3.2-0.1c-0.2-1.4,3.3,0.1,3.5,0.1c0.2-0.3,1.4-0.7,1.2-0.5c0.8,0.3,1.5,0.8,1.7,0.8c-0.6-1.4,4.3-0.5,3.4,0.1
					C198.4,37.9,198,38.2,197.6,38.6z"/>
				<path class="st7" d="M196.7,36.7C197.6,36.3,197.6,36.3,196.7,36.7L196.7,36.7z"/>
				<path class="st7" d="M201.1,40.1C201.8,39.9,201.8,39.9,201.1,40.1L201.1,40.1z"/>
				<path class="st7" d="M183.7,26.2C182.9,25.6,183.4,26.1,183.7,26.2C183.6,26.1,183.5,26.1,183.7,26.2z"/>
				<path class="st7" d="M186.1,28c-0.3,0.1-0.7,0.1-1,0.1C185.3,27.7,185.8,27.9,186.1,28z"/>
				<path class="st7" d="M159.8,7.2c-0.3,0-2.6-0.5-3.3-0.3c-0.7-0.9,1.6,0,1.4,0C158.4,6.2,158.6,6.5,159.8,7.2z"/>
				<path class="st7" d="M213.5,51.2c-0.3,0.3-0.8,0.8-2.2,0.8c0.7-0.9,1.7-1.9,2.5-1.2C214.9,52.1,213.4,49.9,213.5,51.2z"/>
				<path class="st7" d="M182.2,26.3c-0.2-0.2-0.5-0.1-0.6-0.4C181.9,25.7,182.1,26,182.2,26.3z"/>
				<path class="st7" d="M185.4,29.1c-0.5,0.1-0.2-0.2-0.2-0.4C185.5,28.8,185.4,29,185.4,29.1z"/>
				<path class="st7" d="M202.1,43.7c-0.3,0-0.7,0.1-0.9,0.1c0,0.2-0.3-1.1-0.3-1.1C202.1,42.3,201.7,43.2,202.1,43.7z"/>
				<path class="st7" d="M160.3,9.3c-0.4-0.1-0.7,0-1.1,0.1C159.9,8.3,159.7,9.5,160.3,9.3C159.7,8.9,159.6,9.6,160.3,9.3z"/>
				<path class="st7" d="M159.3,10.4c0.2-0.6,1.2-0.2,1.5-0.2C160.4,10.4,160.2,10.8,159.3,10.4z"/>
				<path class="st7" d="M197.3,40.7c-0.6-0.3-0.8,0.7-1.4-0.1C195.8,40.4,197.9,40.8,197.3,40.7z"/>
				<path class="st7" d="M199.9,42.8C200.1,43,200.5,43.3,199.9,42.8L199.9,42.8z"/>
				<path class="st7" d="M178,25.9C178.2,26.1,178.8,26.5,178,25.9L178,25.9z"/>
				<path class="st7" d="M159.3,11c0.5,1.3-2.1,0.4-2.1,0.4c1.3-0.4-0.6-0.7-0.7-0.9C156.3,9.3,158.9,10.1,159.3,11
					C159.6,11.8,158.9,10.2,159.3,11z"/>
				<path class="st7" d="M194.3,39.6c-0.3,0.5,0.5-0.2-0.5,0.2C193.9,39.7,195,39.5,194.3,39.6C194.2,39.8,194.5,39.5,194.3,39.6z"
					/>
				<path class="st7" d="M154.3,8.3c0.2-0.6,0-0.6,0.4-1C154.9,8,155,7.9,154.3,8.3z"/>
				<path class="st7" d="M195.1,40.8C194.9,40.6,195.1,40.1,195.1,40.8C195.3,40.9,195.1,40.8,195.1,40.8z"/>
				<path class="st7" d="M179,28.1C179.9,28.5,178.9,28,179,28.1L179,28.1z"/>
				<path class="st7" d="M204.5,48.2c-0.6-0.1-1.1,0.1-1.6,0.3c-1.5,2.1-2.3,1-3.2,1.5C200.8,49.7,203.1,46.6,204.5,48.2
					C203.9,48.9,203.7,47.2,204.5,48.2z"/>
				<path class="st7" d="M172.1,23C172.7,23.2,173,23.3,172.1,23L172.1,23z"/>
				<path class="st7" d="M191.1,38.5c-0.4-0.1-0.1-0.5,0.1-0.6C191.7,38.1,191.1,38.3,191.1,38.5z"/>
				<path class="st7" d="M172.7,24.2C173.6,24.1,173.4,24.1,172.7,24.2L172.7,24.2z"/>
				<path class="st7" d="M182.8,32.6C182.6,32.2,182.8,32,182.8,32.6C182.8,32.6,182.8,32.5,182.8,32.6z"/>
				<path class="st7" d="M166.9,19.8C166.1,19.6,166.7,19.6,166.9,19.8C166.9,19.8,166.7,19.7,166.9,19.8z"/>
				<path class="st7" d="M169.6,22.6C169.9,22.3,170.2,22.3,169.6,22.6C169.7,22.5,169.6,22.6,169.6,22.6z"/>
				<path class="st7" d="M168.4,23.1c-0.2-0.2-0.6-0.7-0.9-1.5c0,0.1,2.1,2.2,1.3,0.4c0.2,0,0.4,0,0.6,0.1
					C169.6,22.4,168.2,23,168.4,23.1z"/>
				<path class="st7" d="M176.5,28.5C175.7,27.9,176.3,28.2,176.5,28.5C176.4,28.4,176.5,28.5,176.5,28.5z"/>
				<path class="st7" d="M168.3,21.7c-0.2,0.1-0.3,0-0.5,0.1C168,21.5,168.3,21.3,168.3,21.7z"/>
				<path class="st7" d="M154.9,11c-0.6,0.2-1-0.2-1.5-0.2C153.9,10.8,154.7,10.3,154.9,11z"/>
				<path class="st7" d="M178.5,32.3c0.2-0.2-0.1-0.4-0.5-1c0.3,0,2.3-0.1,2.1,0.5C179.6,32,179,32.1,178.5,32.3z"/>
				<path class="st7" d="M162.5,20c0.3-0.3,1.8-0.5,2.7-0.5C165,20.2,163.3,20.1,162.5,20z"/>
				<path class="st7" d="M204.8,52.2c-0.4,0-0.8-0.1-1.2-0.3C203.6,51.9,205.6,51.6,204.8,52.2C204.3,51.9,204.8,52.2,204.8,52.2z"
					/>
				<path class="st7" d="M171.4,25.8C172,25.6,172,25.6,171.4,25.8L171.4,25.8z"/>
				<path class="st7" d="M180.8,33.4C181.6,33.4,181.4,33.4,180.8,33.4L180.8,33.4z"/>
				<path class="st7" d="M195.1,44.6c-0.6,1.3-2.6,0.3-3,1.8c0.9-0.2,1.9-0.2,2.8,0.1c-0.7,0.8-3.2,0.4-3.8,0.2
					c0.3-0.2,0.6-0.4,0.9-0.5c-0.8-0.1-1.6-0.1-2.4-0.1c0.4,0.2,0.8,0.5,1,0.8c-0.5,0.3-1.1,0.5-1.7,0.8c0.5-0.3,0.8-2.1,0.3-2.5
					C190.5,45.8,194.7,44.7,195.1,44.6z"/>
				<path class="st7" d="M165.4,20.6c-0.3-0.1-0.6-0.1-0.9,0C164.8,20.6,165.1,20.5,165.4,20.6z"/>
				<path class="st7" d="M157.5,14.8c-1,0.2-1.2,0.8-2.6,0.1C155.6,14.9,156.9,13.3,157.5,14.8C157.1,14.8,156.9,13.4,157.5,14.8z"
					/>
				<path class="st7" d="M158,15.9C157.5,15.9,158.2,14.6,158,15.9C157.3,15.9,158,15.9,158,15.9z"/>
				<path class="st7" d="M199.8,49.2c0.8,0.2-1.3,0.1-1.1,0.1c-0.1-0.3,0-0.6,0.4-0.7C198.7,49.4,200,48.6,199.8,49.2z"/>
				<path class="st7" d="M166.4,22.6c-0.6,0.8-0.4,0.4-1.5,0.9c0.2-0.2,0.5-0.4,0.8-0.7c-0.7,0-1.2-0.2-1.8-0.5
					C165,22.3,165.7,22.3,166.4,22.6z"/>
				<path class="st7" d="M188.1,40.3c-0.8,0.2-1.6,1-2.5,0.7C186.5,40.1,187.2,40.3,188.1,40.3z"/>
				<path class="st7" d="M154.3,15c-0.2,0.8,0.4-1,0.5-1.2C154.8,14.4,154.7,14.8,154.3,15z"/>
				<path class="st7" d="M184.8,38.9c0.2,0,0.3-0.2,0.7,0C185.2,39.4,184.7,38.8,184.8,38.9z"/>
				<path class="st7" d="M176.3,32.2C176,31.4,176.5,32.1,176.3,32.2C176.3,32.2,176.4,32.1,176.3,32.2z"/>
				<path class="st7" d="M202.6,53.7c0.5,0.2,0.5,0.4,0,0.7C203,52.8,202.8,53.8,202.6,53.7z"/>
				<path class="st7" d="M189.2,43.3C189.3,43,190.2,42.4,189.2,43.3C189.3,43.1,189.2,43.3,189.2,43.3z"/>
				<path class="st7" d="M185.7,40.3c-0.2-0.3-1-0.4-0.2-0.4C186.2,39.9,186.2,40,185.7,40.3z"/>
				<path class="st7" d="M181.8,38.4c0.4-0.1,0.7-0.2,1.1-0.2C182.4,38.5,182.2,38.4,181.8,38.4z"/>
				<path class="st7" d="M184.5,40.4c-0.2-0.2-0.3,0.2-0.8,0C184.2,39.8,184.8,39.3,184.5,40.4z"/>
				<path class="st7" d="M180.8,46.5c-0.4-0.1-0.7,0-1.1,0.2c0.5-1.6-1-0.7-2-0.6c0.5-0.9,0.2-0.9,0.3-2c-0.3,0.1-1.5-0.1-1.7,0.3
					c0.3,0.1,0.5,0.2,0.8,0.2c-1.4-0.6-4.4,0.5-5.7,1.3c0.5,0.6,1,1,1.5,1.4c-0.5-0.1-1.1-0.1-1.6,0.1c0.8-0.5-1.3,0.4-1.3,0.4
					c0.2,0.5,0.6,0.7,1.2,0.6c0-0.2-0.2-0.3-0.4-0.4c0.2,0,0.4-0.1,0.7-0.1c0.1,0.3-0.1,0.6-0.4,0.7c0.4,0,0.8,0,1.2-0.3
					c-0.3,0.4-0.7,0.8-0.9,1.3c0.9-2.2-3.6,0-4.1,0.3c0.2,0.1,0.4,0.1,0.6,0.2c-0.6,0.1-2.8,0.2-3,0.5c0.3,0.1,0.6,0.1,0.8,0.1
					c-1.1,0.1-2.2,0.1-3.3-0.2c0,0.4,0,0.6,0.3,0.9c-0.6-0.2-1-0.1-1.6,0.2c0.9,0.1,1.6,0.3,2.4,0.5c-1.3-0.1-2.6-0.2-3.9-0.4
					c-0.6-0.1-1.3-0.1-2-0.2c-0.2-0.2,0-0.4,0.6-0.9c-1.2-0.4,2.8,0.4,3.2,0.3c-0.4-1.2-4.5-1-5.5-0.4c0.3,0.3,0.7,0.4,1.1,0.4
					c-0.3,0-1,0.1-1.6,0.2c-0.2,0-0.3,0-0.4-0.1c-0.3,0-0.5-0.1-0.6-0.1c-0.5-0.2-0.7-0.2-0.4,0l0,0c0.1,0.1,0.3,0.2,0.7,0.3
					c-2.7-1.5-5.9-2.3-9.1-2.2c-0.3-0.3-0.6-0.5-1-0.8c0-0.1,0-0.1,0-0.1c0,0,0.1,0,0.2,0c-0.1,0.4,0.1,0.4,0.8,0.1
					c-0.3,0-0.6-0.1-1-0.2c0.1-0.5,0-0.9-0.1-1.4c1.5,0.1,5.6,0.5,5,0.2c4.7,1.1,15.7,2.7,18.2,1.2c-0.1-0.1-0.6-0.3-0.9-0.4
					c1.2-0.3,2.7-0.3,3.9-0.4c3.3-0.5-1.5-1-2.2-0.4c0-0.2,0.2-0.3,0.5-0.4c-1.2-0.6-1.6,0.7-2.8,0.1c0.4-0.1,0.8-0.1,1.2,0
					c0-0.2-0.8-0.7-1-0.6c0.6,0,2.9,0.7,3.4,0.2c-1.6-1.6-4.9,0.5-5.9-0.9c0.9-0.1,1.5-0.7,2.3-0.6c1.5,1.2,2,0.2,3.9,0.8
					c-0.3-0.3-0.7-0.4-1.2-0.3c1.1,0.1,2.3-0.5,2.3-0.5c0.2-0.4,10.5-1.6,11.1-1.8c1.2,0.8,5.2,0.9,6.7,0.4
					c-0.1,0.7-0.5,1.1-1.1,1.4c0.1,0,0.1,0.1-0.2,0.1c-0.4-0.2-1.5,0.7-0.8,1.5c-0.7,0.1-0.5,0-1.3,0.3c-0.5-0.4-0.1-0.8-0.8,0
					c-0.4-0.1-0.5-1.4-1.8-0.5c0.1,0.1,0.3,0.3,0.4,0.4c-0.6-0.2-1.4-0.1-2-0.5c0.8-0.2,1.6-0.3,2.4-0.2c0-1-3.3,0-3.7,0.8
					c0.4-0.1,0.8-0.1,1.1,0.1c-0.9,0.5,0.6,0.6-0.4,0.9c0.3-0.5,0-0.5-0.7,0.1C179.9,47,180.3,46.6,180.8,46.5z"/>
				<path class="st7" d="M194.3,48.7c-0.6,0.2-1.2,0.2-1.6,0c0.3-0.2,1.9,0.4,1.8-0.6c-0.4-1-0.5,0.8-0.6-0.6
					C194.8,47.4,194.9,48.6,194.3,48.7C193.7,48.7,194.5,48.7,194.3,48.7z"/>
				<path class="st7" d="M175,32.7c-0.1-0.2-0.1-0.4,0.3-0.3C175.7,32.6,174.9,32.9,175,32.7z"/>
				<path class="st7" d="M197.7,51.4c-0.5,0.3-0.7,0.5,0,0.6C195.4,52.4,198.5,51.5,197.7,51.4z"/>
				<path class="st7" d="M153.1,16.8c0,0-0.9,0.3-0.9,0.1c0.3-0.2,0.2-0.4-0.2-0.5c0.6-0.4,1.5,0.3,2.4,0.1
					C154.1,16.9,153.6,16.9,153.1,16.8C152.9,16.9,153.8,17,153.1,16.8z"/>
				<path class="st7" d="M158.1,19.7C157.8,19.6,158.4,20.5,158.1,19.7C157.8,19.6,158.1,19.7,158.1,19.7z"/>
				<path class="st7" d="M167.5,27.6c-1.3,1.5-2.7-0.2-2.5-0.2C165.7,27.3,167.5,27.7,167.5,27.6z"/>
				<path class="st7" d="M170.7,31.5C170.8,30.8,171.2,30.5,170.7,31.5C170.8,31.3,170.9,31.3,170.7,31.5z"/>
				<path class="st7" d="M157,19.8c-0.9,0.7-6.2,0.9-7.3,0.4c0.3,0.1,0.5,0,0.8-0.1c-0.8-0.1-1.7,0-2.5,0.2c0.1-0.3,0.2-0.6,0.3-0.8
					C148.5,19.9,155.8,19.2,157,19.8z"/>
				<path class="st7" d="M188,45.7c0.2,0,1,0.5,0.1,0.6c0.8-0.3-1.8-2,0.8-1.1C188.6,45.4,188.2,45.6,188,45.7z"/>
				<path class="st7" d="M149.3,17.8c-0.9,0.2-1.1-0.3-1.8,0c-0.2,0.3-0.2,0.7-0.1,1c0.7,0,1.1-0.2,2,0.1c-0.8,0.8-2.6,0.6-3.4,0.7
					c0.2-0.3,1.3-0.3,0.8-1.5c-0.4,0-1.1,0-1.7,0c-0.2-0.4-0.2-0.9-0.3-1.4c1-0.2,2.3-0.5,2.7-0.5c-0.4,0-0.6,0.2-0.4,0.7
					c0.2,0,0.6-0.3,1.1,0.2c-0.2-0.8-0.7-1.1-0.7-1.4c0.8,0.6,3.3,0.6,4,0.4C151,16.8,149.2,16.4,149.3,17.8z"/>
				<path class="st7" d="M152,16.8c0,0.2,0.1,0.4,0,0.6C152,17.2,152,17,152,16.8z"/>
				<path class="st7" d="M177.1,38c0.2-0.2,0.4-0.3,0.7-0.1C177.8,38.3,177.2,37.8,177.1,38z"/>
				<path class="st7" d="M187.5,47.3c0-0.3,0.4-1.2-0.4-1.2c0.4,1.1,1.1,0.4,1.6,0.6C188.4,47,187.9,47.2,187.5,47.3z"/>
				<path class="st7" d="M163.6,28.4c0.3-0.2,0.6-0.4,0.8-0.7C164.2,28,164,28.3,163.6,28.4z"/>
				<path class="st7" d="M178.2,39.2c-0.6,0.2-1.1,0.2-1.7,0.1C177,38.8,177.6,38.8,178.2,39.2C178,38.9,177.9,39,178.2,39.2z"/>
				<path class="st7" d="M170.7,35.1c-2.3-0.1-5.3,0.1-6.9-1.3c2-1.2,3.5-1.7,5.4-1c-0.6,0.1-1.2,0.3-1.7,0.6
					c1.3,0.1,2.6,0.3,3.8,0.5C171.4,34.6,171.1,35,170.7,35.1C170,35.1,170.8,34.5,170.7,35.1z"/>
				<path class="st7" d="M189.7,49.4c-0.6,0.1-1.2,0.3-1.8,0.6c0,0-0.1-0.7-0.8-0.9C188.2,49,188.8,49.1,189.7,49.4
					C189.1,49.7,189.3,49.3,189.7,49.4z"/>
				<path class="st7" d="M164.7,30.3C165.7,30,165.4,30.1,164.7,30.3L164.7,30.3z"/>
				<path class="st7" d="M181,43.2C180.9,42.7,181.2,43,181,43.2C181,43.2,181.2,43.1,181,43.2z"/>
				<path class="st7" d="M161.8,27.9c-0.3-0.4-0.4-0.2-0.1-0.7C161.8,27.5,161.8,27.7,161.8,27.9z"/>
				<path class="st7" d="M186.6,47.8c-0.1-0.2-0.7-0.2-1.2-0.2C185.5,47.8,186.7,47.1,186.6,47.8z"/>
				<path class="st7" d="M160.5,28.3C160.5,27.4,160.5,27.8,160.5,28.3C160.5,28,160.4,28.2,160.5,28.3z"/>
				<path class="st7" d="M160.1,28.3c-1.6-0.3-2.6-0.3-3.5-0.7C157.2,26.4,159.9,28,160.1,28.3z"/>
				<path class="st7" d="M163.2,30.8c0.4,0,0.7,0.1,1,0.5c-0.5,0.1-0.9,0.2-1.2,0.6c0.3,0.3,0.6,0.5,1,0.7c-1.2,0.8-2-0.7-2.9-0.2
					c3.8-1.4,1.8-1,0.4-1.5C162.4,30.9,163.2,30.5,163.2,30.8C163.8,30.6,163.2,30.7,163.2,30.8z"/>
				<path class="st7" d="M157.2,26.4c0.6-1.4-0.6,0.7,0.5-0.1C158,26,157.8,26.2,157.2,26.4z"/>
				<path class="st7" d="M170.3,37.3C169.8,37.8,169.2,37.1,170.3,37.3C170.1,37.6,170.3,37.3,170.3,37.3z"/>
				<path class="st7" d="M182.5,46.9c-0.1,0.3,0.8,0.2,0.3,1.1c-0.4-0.1-0.8-0.2-1.4-0.3C181.4,47.1,182.8,46.8,182.5,46.9z"/>
				<path class="st7" d="M154.4,25.6C155,25.5,155.5,24.9,154.4,25.6C155.1,25.5,154.4,25.6,154.4,25.6z"/>
				<path class="st7" d="M184.4,49.3c0.5,0-1.9,0.4-2.2,0.6c0.1-0.5,0.4-0.9,1-1.1c0.2,0.2,0.1,0.3-0.1,0.5
					C183.5,49.1,184,49.1,184.4,49.3C184,49.3,184.2,48.9,184.4,49.3z"/>
				<path class="st7" d="M170.1,38.4C170.4,38.5,170.9,38.6,170.1,38.4L170.1,38.4z"/>
				<path class="st7" d="M147.3,20.7c0.2-0.5-0.8-0.2-0.1-0.5C147.4,20.2,147.6,20.6,147.3,20.7z"/>
				<path class="st7" d="M156.9,32.8c-0.8,1.3,0.6-0.8,0.5-0.4c-0.3,0-0.6-0.1-0.9-0.1c0.4-1.4,1.4,0.9,1.1,0.3
					c0.6,0.1,1.3,0.1,2,0.1C159.3,32.6,157,33.2,156.9,32.8C156.8,33,157,33.3,156.9,32.8z"/>
				<path class="st7" d="M181.1,52c-0.3-0.1-0.6-0.9-1.4-0.5c0.6,0.1,0.7,0.2,0.3,0.5c-0.1-0.3-0.2-0.5-0.8-0.3
					C179.9,49.9,181,52,181.1,52z"/>
				<path class="st7" d="M158.1,34.3C158.9,34.3,159,34.3,158.1,34.3L158.1,34.3z"/>
				<path class="st7" d="M169.5,43.4C170.5,43.6,170.2,43.5,169.5,43.4L169.5,43.4z"/>
				<path class="st7" d="M182.3,53.6c-1,0.1-2,0.1-2.9-0.2C180,53.7,181.7,53.5,182.3,53.6z"/>
				<path class="st7" d="M159.1,35.3c-0.9-0.5-1.8,0.3-1.8,0.3c-0.2-0.1-0.4-0.2-0.6-0.3C157.4,34.6,158.3,34.7,159.1,35.3
					C158.6,35,158.2,34.8,159.1,35.3z"/>
				<path class="st7" d="M178,52.2c-0.6,0-1.1-0.2-1.4-0.7c0.8-0.2,1.8-0.3,2.6-0.3C178.8,51.5,178.4,51.9,178,52.2
					C177.6,52,178.3,51.9,178,52.2z"/>
				<path class="st7" d="M152.8,33.2c0.2,0.1-0.6,1.1,0.1,0.2c-1,0-2.1,0-3.1,0.1c0.1-0.3,0.1-0.5,0.2-0.8c0.9,0.4,3.2-0.1,3.4-0.4
					c0.4,0.3,1,0.5,1.5,0.8C154.1,33.1,153.5,33.2,152.8,33.2z"/>
				<path class="st7" d="M162.7,40.1C162.7,39.4,162.7,39.6,162.7,40.1L162.7,40.1z"/>
				<path class="st7" d="M155.1,35C156,34.7,155.8,34.8,155.1,35L155.1,35z"/>
				<path class="st7" d="M157.6,36.4c1,0.1-2.2,0.6-1.2-0.3C156.9,35.7,157.2,36.1,157.6,36.4C157.3,36.4,157.4,36.2,157.6,36.4z"/>
				<path class="st7" d="M175.5,51.5c-0.4,0-0.8-0.1-1.3-0.2C174.5,51.3,176.1,50.8,175.5,51.5z"/>
				<path class="st7" d="M165.2,42.9c-1.1,0.4-4.6,0.3-4.4-0.6C161.7,42.8,163.6,42.7,165.2,42.9C164.3,43.3,164.1,42.8,165.2,42.9z
					"/>
				<path class="st7" d="M147.1,31c-0.1-0.4,0.4-0.5,0.9-0.5C147.8,30.8,147.2,30.9,147.1,31z"/>
				<path class="st7" d="M170.3,50.3c-0.9,0.1-0.3-0.4-1-0.4C170,49.4,169.6,50.2,170.3,50.3z"/>
				<path class="st7" d="M158.6,42.4c-0.2,0.1,0.2,0.6-1.2,0.5c-0.5,0.4,1.2,0.4,1.2,0.2c0.4,0.5-1.1-0.1-0.1,0.6
					c-0.6-0.2-1-0.1-1.4,0.2c0.3-0.1,0.4-0.1,0.4,0.2c-0.2-0.1-0.3-0.2-0.6-0.2c0.4-0.1,0.7-0.3,0.9-0.6c-2.5-0.6,0.5,0.4-1.4-1.1
					C157.6,41.8,158.2,42.2,158.6,42.4C158.8,42.2,158.1,42.2,158.6,42.4z"/>
				<path class="st7" d="M155.8,42.5c-0.1-0.1,1.2,0,0.2,0.4c0.1-0.5-1.1,0.6-1.3,0.6c-0.5-0.3-0.4-0.5,0.3-0.6
					c-0.7,0.1-3.3-0.9-2-0.8C152.6,42.1,156,41.6,155.8,42.5z"/>
				<path class="st7" d="M151.8,39.5c-1.2,0.6-3.8,0.1-4.6-0.4c1.6-0.3,3.5,0.9,4.6-0.1C150.9,39.6,151.7,39.3,151.8,39.5z"/>
				<path class="st7" d="M152.5,40.3C153,40.5,153.3,40.7,152.5,40.3L152.5,40.3z"/>
				<path class="st7" d="M153.2,44.1c0.3,0.4,0.8,0.6,1.3,0.7c-0.6,0.1-1.1-0.1-1.6-0.4C153.4,43.6,153.8,43.8,153.2,44.1
					C153.1,44.5,153.5,44,153.2,44.1z"/>
				<path class="st7" d="M150.4,43.2c-0.2,0-0.4,0-0.6,0.1c0.2,0.1,0.3,0.2,0.4,0.3c-1.2,0.1-2.8,0.1-4.1-0.2c0,0.3,0,0.4,0.5,0.4
					c-1,0.1-2.6,0.3-3.8,0.1c-1-1.3-1.5-1.4-1.3-1.4c3.8,0.8,1.5-0.8,1.8-0.9c1.4,0.3,6.2,0.4,7.5,1.5c0,0,0.1,0.1,0.2,0.3
					C150.6,43.3,150.5,43.2,150.4,43.2z"/>
				<path class="st7" d="M147,40.6c-0.5,0-1.5-0.1-1.7-0.2C145.6,40.4,146.4,40.2,147,40.6z"/>
				<path class="st7" d="M150.1,44.2c0.5,0-2.7,0.7-2.3-0.4C148.5,43.8,152.4,44.2,150.1,44.2z"/>
			</g>
		</g>
		<path class="st8" d="M194.8,22.2c0,0,0.3,0,0.9-0.1c0.5-0.1,1.3-0.1,2.2-0.4c0.9-0.3,1.9-0.4,3.1-0.9c1.2-0.4,2.6-0.9,4.1-1.5
			c0.8-0.2,1.6-0.5,2.4-0.8c0.9-0.2,1.9-0.4,2.9-0.6c1,0,2-0.2,3.1,0c1.2,0.2,2.2,0.3,3.1,0.6c1,0.2,2.1,0.5,3.1,0.7
			c1.1,0.1,2.1,0.2,3.2,0.3c2.1,0.1,4.3-0.1,6.6-0.4c2.2-0.3,4.3-0.6,6.6-0.8c2.3-0.2,4.2-0.7,6.2-1c2-0.4,3.8-0.9,6.1-1.2
			c1.1-0.1,2.3-0.2,3.3-0.1c1,0,1.9,0.1,2.8,0.2c3.6,0.2,6.6,0.3,8.6,0.1c1-0.1,1.8-0.2,2.3-0.4c0.5-0.1,0.8-0.2,0.8-0.2
			c0.1,0.1,0.2,0.1,0.3,0.2c0,0-0.2,0.1-0.6,0.5c-0.4,0.3-1.1,0.6-2.1,1c-2,0.7-5.2,1.3-9,1.4c-1.9,0.1-3.8,0.1-5.5,0.3
			c-1.7,0.3-3.8,0.9-6,1.2c-2.3,0.1-4.7,0.5-7,0.6c-2.2,0.1-4.6,0-6.8-0.2c-1.1-0.1-2.2-0.1-3.4-0.2c-1.1-0.1-2.2-0.1-3.3-0.2
			c-1.1-0.1-2.2-0.1-3.3-0.1c-1.1-0.1-2.1-0.1-3.2-0.2c-1.1-0.1-2.1,0-2.9,0c-0.9,0-1.7,0.3-2.5,0.4c-1.7,0.4-3.3,0.8-4.9,1.2
			c-1.6,0.4-3.1,0.8-4.4,1c-1.4,0.3-2.7,0.2-3.7,0.3c-1.1-0.1-1.8-0.2-2.3-0.3c-0.5-0.1-0.8-0.2-0.8-0.2
			C194.9,22.3,194.8,22.3,194.8,22.2z"/>
		<path class="st3" d="M170.3,40.4c0,0,1,0,2.4-0.3c1.4-0.2,3.3-0.8,5.5-1.6c2.3-0.8,4.8-1.6,7.7-2.7c1.5-0.5,3-1,4.7-1.4
			c1.7-0.4,3.7-0.8,5.3-0.9c1.9-0.2,3.6-0.3,5.1-0.4c1.8-0.1,3.1-0.2,4.9-0.1c3.3,0.1,6,0.5,8.3,0.8c2.4,0.3,4.3,0.5,5.7,0.6
			c1.5,0.1,2.3,0.2,2.3,0.2s-0.8,0.2-2.3,0.5c-1.4,0.3-3.6,0.5-6.1,0.6c-1.2,0-2.6,0-4,0c-1.4,0-2.8,0-4.1,0.1
			c-1.3,0.1-3.1,0.2-4.5,0.3c-1.6,0.2-3.2,0.2-4.8,0.3c-1.7,0.2-3,0.4-4.4,0.7c-1.5,0.3-2.9,0.7-4.4,1c-2.8,0.7-5.8,1.5-8.3,1.9
			c-2.4,0.5-4.7,0.8-6.5,0.8C171.2,40.6,170.3,40.4,170.3,40.4z"/>
		<path class="st8" d="M166,41.9c0,0,1,0,2.7-0.2c0.8-0.2,1.6-0.3,2.7-0.6c1-0.3,2.2-0.6,3.4-1c1.3-0.3,2.6-0.7,4-1.2
			c1.4-0.5,2.7-1,4.5-1.4c1.6-0.5,3.3-1,5.3-1.3c0.5-0.1,0.7-0.2,1.6-0.3c0.4,0,0.9,0,1.3-0.1c0.9-0.1,1.8-0.2,2.7-0.3
			c3.8-0.2,7.2-0.4,10.5-0.6c3.3-0.2,6.3-0.3,8.9-0.4c5.2-0.1,8.8,0,8.8,0s-3.4,0.8-8.6,1.6c-2.6,0.5-5.7,0.9-8.9,1.2
			c-3.2,0.4-6.9,0.7-10.2,0.9c-0.9,0-1.8,0.1-2.6,0.2c-0.5,0-0.9,0.1-1.4,0.1c0,0-0.6,0.1-1,0.2c-0.8,0.2-1.6,0.3-2.3,0.4
			c-0.8,0.2-1.6,0.3-2.3,0.5c-1.6,0.3-3.1,0.7-4.6,1c-1.6,0.3-3,0.6-4.4,0.8c-1.3,0.2-2.6,0.4-3.8,0.5c-1.2,0.2-2.4,0.1-3.2,0.2
			C167,42.1,166,41.9,166,41.9z"/>
		<path class="st8" d="M238.9,33c0,0,0.1-0.1,0.5-0.1c0.4,0,0.9-0.1,1.6,0c0.7,0,1.5,0.1,2.4,0.2c1,0.1,2,0.2,3.2,0.2
			c1.2,0,2.4,0.1,3.9,0.2c1.3,0,2.7,0,4.2,0.1c2.9,0.1,6.2-0.1,9.6,0.2c1.8,0.2,3.4,0.3,5.3,0.6c0.8,0.2,1.7,0.4,2.5,0.6
			c0.8,0.3,1.7,0.7,2.5,1c1.6,0.6,3.1,1.4,4.5,2c1.4,0.7,2.7,1,4.1,1.5c1.3,0.2,2.5,0.6,3.6,0.8c1.1,0.2,2.1,0.4,2.9,0.5
			c1.6,0.3,2.5,0.5,2.5,0.5s-0.9,0-2.5-0.2c-0.7,0-1.7-0.2-2.8-0.2c-1.1-0.1-2.4-0.3-3.9-0.6c-1.3-0.4-2.9-0.7-4.4-1.3
			c-1.6-0.6-3.1-1.2-4.6-1.8c-0.7-0.3-1.5-0.6-2.2-0.8c-0.9-0.2-1.7-0.4-2.5-0.6c-1.5-0.2-3.3-0.3-4.9-0.4c-1.6-0.2-3.3-0.2-4.9-0.3
			c-1.6,0-3.2,0-4.8-0.1c-3.1-0.2-5.9-0.5-8.2-0.8c-1.2-0.1-2.3-0.3-3.3-0.5c-0.9-0.2-1.7-0.4-2.4-0.4c-0.6-0.1-1.1-0.1-1.5-0.1
			C239,33,238.9,33,238.9,33z"/>
	</g>
	<g>
		<g>
			<defs>
				<path id="SVGID_5_" d="M297,8.3c-0.2,1.7-4.2,0.8-4.2,2.5c0,1.8,3.5,2.6,3.5,4.4c0,1.8-0.4,1.7-0.3,3.6c0.1,1.9,0,1.9,0.1,3.8
					c0.1,2,0.5,2,0.7,4c0.2,2-3.4,1.4-3.1,3.6c0.3,2.1,1.1,2.2,1.4,4.3c0.3,2.1,1.5,2.4,1.8,4.5c0.4,2.2-0.6,2-0.2,4.3
					c0.4,2.3,2.4,2.5,2.9,4.8c0.4,2.3,0.5,2.3,0.9,4.5c-26.3-3.6-27.5-3.2-51-3.7c-22.6,0.3-22,1.1-43.8,2.3
					c-22.2,0.7-24.4,0.3-49.8-2.4c0.4-2.4,2.1-2.2,2.4-4.8c0.3-2.7-2.1-2.9-1.9-5.6c0.1-2.8,0.8-2.7,0.8-5.6c-0.1-3,3.7-2.9,3.5-6
					c-0.3-3.2-2.9-3.2-3.3-6.5c-0.4-3.3,3.7-3.3,3.3-6.6c-0.5-3.4-3.2-2.5-3.8-6c13,0.1,23.1-0.4,31.5-1c2.8-0.2,5.5-0.4,8-0.7
					C220.9,4.8,247-0.1,281.8,5c2.3,0.4,4.7,0.9,7.3,1.4C291.5,7,294.2,7.6,297,8.3z"/>
			</defs>
			<clipPath id="SVGID_6_">
				<use xlink:href="#SVGID_5_"  style="overflow:visible;"/>
			</clipPath>
		</g>
	</g>
</g>
</svg>
