<?xml version="1.0" encoding="iso-8859-1"?>
<!-- Generator: Adobe Illustrator 16.0.0, SVG Export Plug-In . SVG Version: 6.00 Build 0)  -->
<!DOCTYPE svg PUBLIC "-//W3C//DTD SVG 1.1//EN" "http://www.w3.org/Graphics/SVG/1.1/DTD/svg11.dtd">
<svg version="1.1" id="Capa_1" xmlns="http://www.w3.org/2000/svg" xmlns:xlink="http://www.w3.org/1999/xlink" x="0px" y="0px"
	 width="388.076px" height="388.076px" viewBox="0 0 388.076 388.076" style="enable-background:new 0 0 388.076 388.076;"
	 xml:space="preserve">
<g>
	<g>
		<path d="M387.423,145.809c-1.159-2.317-3.599-3.647-6.688-3.647h-17.182c-10.084-36.3-31.516-69.46-60.682-93.661
			c-31.53-26.162-69.003-39.99-108.363-39.99c-72.891,0-136.879,42.777-163.021,108.978c-0.887,2.245,0.215,4.784,2.46,5.67
			c2.245,0.892,4.784-0.211,5.671-2.46c24.815-62.84,85.612-103.446,154.89-103.446c74.053,0,141.907,54.722,161.434,130.146
			c0.315,1.77,1.899,3.504,4.291,3.504c0.004,0,0.009-0.002,0.013-0.002h16.99l-35.185,46.895l-37.979-46.895h19.907
			c0.007,0,0.014,0.002,0.021,0.002c4.841,0,5.332-2.444,4.176-5.676C306.691,85.184,253.352,41.846,192.457,41.846
			c-28.425,0-55.543,8.292-78.425,23.981c-22.225,15.239-39.499,36.709-49.954,62.093c-0.919,2.231,0.146,4.788,2.376,5.708
			c2.231,0.915,4.786-0.145,5.708-2.376C92.658,81.498,138.751,50.59,192.457,50.59c55.202,0,105.978,37.365,125.46,91.571h-17.618
			c-3.107,0-5.545,1.336-6.687,3.667c-1.141,2.329-0.703,5.073,1.259,7.603l40.582,50.114c1.672,2.154,4.082,3.389,6.621,3.389
			c0.021,0,0.041,0,0.062,0c2.563-0.021,4.979-1.294,6.629-3.496l37.564-50.085C388.186,150.878,388.582,148.127,387.423,145.809z"
			/>
		<path d="M0.653,242.267c1.159,2.317,3.599,3.647,6.688,3.647h17.181c10.084,36.301,31.517,69.46,60.683,93.66
			c31.53,26.162,69.002,39.99,108.362,39.99c72.892,0,136.88-42.777,163.021-108.978c0.886-2.245-0.215-4.784-2.461-5.671
			c-2.245-0.892-4.783,0.212-5.67,2.46c-24.814,62.842-85.612,103.445-154.891,103.445c-74.052,0-141.907-54.722-161.433-130.146
			c-0.313-1.77-1.897-3.505-4.291-3.505c-0.003,0-0.009,0.002-0.014,0.002H10.838l35.185-46.895l37.979,46.895H64.095
			c-0.007,0-0.014-0.002-0.021-0.002c-4.84,0-5.332,2.445-4.176,5.677c21.485,60.044,74.825,103.382,135.719,103.382
			c28.425,0,55.543-8.292,78.425-23.981c22.225-15.238,39.498-36.709,49.953-62.094c0.92-2.23-0.144-4.787-2.376-5.707
			c-2.231-0.916-4.786,0.146-5.708,2.376c-20.494,49.754-66.587,80.662-120.294,80.662c-55.203,0-105.978-37.365-125.46-91.571
			h17.619c3.107,0,5.545-1.336,6.687-3.667c1.14-2.329,0.703-5.072-1.259-7.603l-40.583-50.114c-1.672-2.154-4.082-3.389-6.62-3.389
			c-0.021,0-0.044,0-0.063,0c-2.563,0.021-4.98,1.294-6.629,3.495L1.744,234.724C-0.109,237.198-0.506,239.949,0.653,242.267z"/>
	</g>
</g>
<g>
</g>
<g>
</g>
<g>
</g>
<g>
</g>
<g>
</g>
<g>
</g>
<g>
</g>
<g>
</g>
<g>
</g>
<g>
</g>
<g>
</g>
<g>
</g>
<g>
</g>
<g>
</g>
<g>
</g>
</svg>
